G04 #@! TF.GenerationSoftware,KiCad,Pcbnew,(7.0.0-0)*
G04 #@! TF.CreationDate,2023-04-05T09:36:02-07:00*
G04 #@! TF.ProjectId,SofleKeyboard,536f666c-654b-4657-9962-6f6172642e6b,rev?*
G04 #@! TF.SameCoordinates,Original*
G04 #@! TF.FileFunction,Soldermask,Bot*
G04 #@! TF.FilePolarity,Negative*
%FSLAX46Y46*%
G04 Gerber Fmt 4.6, Leading zero omitted, Abs format (unit mm)*
G04 Created by KiCad (PCBNEW (7.0.0-0)) date 2023-04-05 09:36:02*
%MOMM*%
%LPD*%
G01*
G04 APERTURE LIST*
G04 Aperture macros list*
%AMRoundRect*
0 Rectangle with rounded corners*
0 $1 Rounding radius*
0 $2 $3 $4 $5 $6 $7 $8 $9 X,Y pos of 4 corners*
0 Add a 4 corners polygon primitive as box body*
4,1,4,$2,$3,$4,$5,$6,$7,$8,$9,$2,$3,0*
0 Add four circle primitives for the rounded corners*
1,1,$1+$1,$2,$3*
1,1,$1+$1,$4,$5*
1,1,$1+$1,$6,$7*
1,1,$1+$1,$8,$9*
0 Add four rect primitives between the rounded corners*
20,1,$1+$1,$2,$3,$4,$5,0*
20,1,$1+$1,$4,$5,$6,$7,0*
20,1,$1+$1,$6,$7,$8,$9,0*
20,1,$1+$1,$8,$9,$2,$3,0*%
%AMHorizOval*
0 Thick line with rounded ends*
0 $1 width*
0 $2 $3 position (X,Y) of the first rounded end (center of the circle)*
0 $4 $5 position (X,Y) of the second rounded end (center of the circle)*
0 Add line between two ends*
20,1,$1,$2,$3,$4,$5,0*
0 Add two circle primitives to create the rounded ends*
1,1,$1,$2,$3*
1,1,$1,$4,$5*%
%AMRotRect*
0 Rectangle, with rotation*
0 The origin of the aperture is its center*
0 $1 length*
0 $2 width*
0 $3 Rotation angle, in degrees counterclockwise*
0 Add horizontal line*
21,1,$1,$2,0,0,$3*%
%AMFreePoly0*
4,1,28,-0.850000,0.400000,-0.842219,0.514750,-0.797860,0.693119,-0.716195,0.857783,-0.601041,1.001041,-0.457783,1.116195,-0.293119,1.197860,-0.114750,1.242219,0.000000,1.250000,0.114750,1.242219,0.293119,1.197860,0.457783,1.116195,0.601041,1.001041,0.716195,0.857783,0.797860,0.693119,0.842219,0.514750,0.850000,0.400000,0.850000,-0.400000,0.842219,-0.514750,0.797860,-0.693119,
0.716195,-0.857783,0.601041,-1.001041,0.457783,-1.116195,0.293119,-1.197860,0.114750,-1.242219,0.000000,-1.250000,-0.850000,-0.400000,-0.850000,0.400000,-0.850000,0.400000,$1*%
%AMFreePoly1*
4,1,28,-0.850000,0.400000,0.000000,1.250000,0.114750,1.242219,0.293119,1.197860,0.457783,1.116195,0.601041,1.001041,0.716195,0.857783,0.797860,0.693119,0.842219,0.514750,0.850000,0.400000,0.850000,-0.400000,0.842219,-0.514750,0.797860,-0.693119,0.716195,-0.857783,0.601041,-1.001041,0.457783,-1.116195,0.293119,-1.197860,0.114750,-1.242219,0.000000,-1.250000,-0.114750,-1.242219,
-0.293119,-1.197860,-0.457783,-1.116195,-0.601041,-1.001041,-0.716195,-0.857783,-0.797860,-0.693119,-0.842219,-0.514750,-0.850000,-0.400000,-0.850000,0.400000,-0.850000,0.400000,$1*%
%AMFreePoly2*
4,1,18,-0.744993,0.000000,-0.324890,0.420103,0.534941,0.420103,0.615324,0.404114,0.683470,0.358580,0.729004,0.290434,0.744993,0.210051,0.744993,-0.210051,0.729004,-0.290434,0.683470,-0.358580,0.615324,-0.404114,0.534941,-0.420103,-0.534941,-0.420103,-0.615324,-0.404114,-0.683470,-0.358580,-0.729004,-0.290434,-0.744993,-0.210051,-0.744993,0.000000,-0.744993,0.000000,$1*%
%AMFreePoly3*
4,1,13,-0.909987,0.210051,-0.893998,0.290434,-0.848464,0.358580,-0.780318,0.404114,-0.699935,0.420103,0.909987,0.420103,0.909987,-0.420103,-0.699935,-0.420103,-0.780318,-0.404114,-0.848464,-0.358580,-0.893998,-0.290434,-0.909987,-0.210051,-0.909987,0.210051,-0.909987,0.210051,$1*%
%AMFreePoly4*
4,1,13,-0.909987,0.212526,-0.893809,0.293856,-0.847740,0.362805,-0.778791,0.408874,-0.697461,0.425052,0.909987,0.425052,0.909987,-0.425052,-0.697461,-0.425052,-0.778791,-0.408874,-0.847740,-0.362805,-0.893809,-0.293856,-0.909987,-0.212526,-0.909987,0.212526,-0.909987,0.212526,$1*%
%AMFreePoly5*
4,1,18,-1.000000,0.860000,-0.981731,0.951844,-0.929706,1.029706,-0.851844,1.081731,-0.760000,1.100000,0.760000,1.100000,0.851844,1.081731,0.929706,1.029706,0.981731,0.951844,1.000000,0.860000,1.000000,-0.860000,0.981731,-0.951844,0.929706,-1.029706,0.851844,-1.081731,0.760000,-1.100000,-0.300000,-1.100000,-1.000000,-0.400000,-1.000000,0.860000,-1.000000,0.860000,$1*%
%AMFreePoly6*
4,1,13,-1.000000,1.100000,0.760000,1.100000,0.851844,1.081731,0.929706,1.029706,0.981731,0.951844,1.000000,0.860000,1.000000,-0.860000,0.981731,-0.951844,0.929706,-1.029706,0.851844,-1.081731,0.760000,-1.100000,-1.000000,-1.100000,-1.000000,1.100000,-1.000000,1.100000,$1*%
G04 Aperture macros list end*
%ADD10C,4.700000*%
%ADD11C,1.397000*%
%ADD12C,1.200000*%
%ADD13FreePoly0,90.000000*%
%ADD14O,2.500000X1.700000*%
%ADD15FreePoly1,90.000000*%
%ADD16C,1.524000*%
%ADD17R,1.400000X1.400000*%
%ADD18RoundRect,0.300000X-0.300000X0.450000X-0.300000X-0.450000X0.300000X-0.450000X0.300000X0.450000X0*%
%ADD19RoundRect,0.300000X-0.300000X0.400000X-0.300000X-0.400000X0.300000X-0.400000X0.300000X0.400000X0*%
%ADD20C,1.400000*%
%ADD21RotRect,1.400000X1.400000X297.000000*%
%ADD22RoundRect,0.300000X-0.471598X0.264756X-0.063006X-0.537150X0.471598X-0.264756X0.063006X0.537150X0*%
%ADD23RoundRect,0.300000X-0.448898X0.220205X-0.085706X-0.492600X0.448898X-0.220205X0.085706X0.492600X0*%
%ADD24C,1.800000*%
%ADD25C,3.000000*%
%ADD26FreePoly2,180.000000*%
%ADD27FreePoly3,180.000000*%
%ADD28R,1.379987X0.840206*%
%ADD29C,4.900000*%
%ADD30C,1.000000*%
%ADD31FreePoly3,0.000000*%
%ADD32FreePoly4,0.000000*%
%ADD33FreePoly5,180.000000*%
%ADD34FreePoly6,180.000000*%
%ADD35FreePoly2,117.000000*%
%ADD36FreePoly3,117.000000*%
%ADD37RotRect,1.379987X0.840206X117.000000*%
%ADD38FreePoly3,297.000000*%
%ADD39FreePoly4,297.000000*%
%ADD40FreePoly5,117.000000*%
%ADD41FreePoly6,117.000000*%
%ADD42FreePoly2,195.000000*%
%ADD43FreePoly3,195.000000*%
%ADD44RotRect,1.379987X0.840206X195.000000*%
%ADD45FreePoly3,15.000000*%
%ADD46FreePoly4,15.000000*%
%ADD47FreePoly5,195.000000*%
%ADD48FreePoly6,195.000000*%
%ADD49RoundRect,0.300000X-0.393305X0.308725X-0.186250X-0.464016X0.393305X-0.308725X0.186250X0.464016X0*%
%ADD50RoundRect,0.300000X-0.406246X0.357021X-0.173309X-0.512312X0.406246X-0.357021X0.173309X0.512312X0*%
%ADD51RotRect,1.400000X1.400000X285.000000*%
%ADD52R,1.700000X1.700000*%
%ADD53O,1.700000X1.700000*%
%ADD54O,2.000000X4.000000*%
%ADD55HorizOval,3.000000X10.743351X4.102487X-10.743351X-4.102487X0*%
%ADD56HorizOval,2.000000X-0.934204X-0.356738X0.934204X0.356738X0*%
%ADD57C,4.000000*%
%ADD58C,2.000000*%
%ADD59R,3.200000X2.000000*%
G04 APERTURE END LIST*
D10*
X206000000Y-60500000D03*
D11*
X107290000Y-85960000D03*
X107290000Y-77880000D03*
X109531965Y-85960000D03*
X109531965Y-77880000D03*
D12*
X89500000Y-82800000D03*
X96500000Y-82800000D03*
X89500000Y-81050000D03*
X96500000Y-81050000D03*
D13*
X98299999Y-78949999D03*
D14*
X94299999Y-78949999D03*
X91299999Y-78949999D03*
D15*
X99799999Y-83149999D03*
D16*
X108149908Y-42725745D03*
X108149908Y-45265745D03*
X108149908Y-47805745D03*
X108149908Y-50345745D03*
X108149908Y-52885745D03*
X108149908Y-55425745D03*
X108149908Y-57965745D03*
X108149908Y-60505745D03*
X108149908Y-63045745D03*
X108149908Y-65585745D03*
X108149908Y-68125745D03*
X108149908Y-70665745D03*
X92909908Y-70665745D03*
X92909908Y-68125745D03*
X92909908Y-65585745D03*
X92909908Y-63045745D03*
X92909908Y-60505745D03*
X92909908Y-57965745D03*
X92909908Y-55425745D03*
X92909908Y-52885745D03*
X92909908Y-50345745D03*
X92909908Y-47805745D03*
X92909908Y-45265745D03*
X92909908Y-42725745D03*
D17*
X128624999Y-41974999D03*
D18*
X128625000Y-44025000D03*
D19*
X128625000Y-47875000D03*
D20*
X128625000Y-49975000D03*
D17*
X147674999Y-39474999D03*
D18*
X147675000Y-41525000D03*
D19*
X147675000Y-45375000D03*
D20*
X147675000Y-47475000D03*
D17*
X167224999Y-38099999D03*
D18*
X167225000Y-40150000D03*
D19*
X167225000Y-44000000D03*
D20*
X167225000Y-46100000D03*
D17*
X185774999Y-39849999D03*
D18*
X185775000Y-41900000D03*
D19*
X185775000Y-45750000D03*
D20*
X185775000Y-47850000D03*
D17*
X204824999Y-44249999D03*
D18*
X204825000Y-46300000D03*
D19*
X204825000Y-50150000D03*
D20*
X204825000Y-52250000D03*
D17*
X223874999Y-44624999D03*
D18*
X223875000Y-46675000D03*
D19*
X223875000Y-50525000D03*
D20*
X223875000Y-52625000D03*
D17*
X128624999Y-80074999D03*
D18*
X128625000Y-82125000D03*
D19*
X128625000Y-85975000D03*
D20*
X128625000Y-88075000D03*
D17*
X128624999Y-99874999D03*
D18*
X128625000Y-101925000D03*
D19*
X128625000Y-105775000D03*
D20*
X128625000Y-107875000D03*
D17*
X110109999Y-100669999D03*
D18*
X110110000Y-102720000D03*
D19*
X110110000Y-106570000D03*
D20*
X110110000Y-108670000D03*
D21*
X102561455Y-126353061D03*
D22*
X103492137Y-128179625D03*
D23*
X105240000Y-131610000D03*
D20*
X106193380Y-133481114D03*
D24*
X126050000Y-50000000D03*
D25*
X125550000Y-53700000D03*
D26*
X123404992Y-46139999D03*
D27*
X123239999Y-44389999D03*
D28*
X123020005Y-46139999D03*
D25*
X120550000Y-55900000D03*
D29*
X120550000Y-50000000D03*
D30*
X120550000Y-46799730D03*
X120550000Y-43800000D03*
D31*
X117860012Y-46134896D03*
D32*
X117859999Y-44385051D03*
D25*
X115550000Y-53700000D03*
D24*
X115050000Y-50000000D03*
D33*
X123549999Y-55899999D03*
D34*
X112274999Y-53699999D03*
D24*
X164150000Y-45000000D03*
D25*
X163650000Y-48700000D03*
D26*
X161504992Y-41139999D03*
D27*
X161339999Y-39389999D03*
D28*
X161120005Y-41139999D03*
D25*
X158650000Y-50900000D03*
D29*
X158650000Y-45000000D03*
D30*
X158650000Y-41799730D03*
X158650000Y-38800000D03*
D31*
X155960012Y-41134896D03*
D32*
X155959999Y-39385051D03*
D25*
X153650000Y-48700000D03*
D24*
X153150000Y-45000000D03*
D33*
X161649999Y-50899999D03*
D34*
X150374999Y-48699999D03*
D24*
X126050000Y-88100000D03*
D25*
X125550000Y-91800000D03*
D26*
X123404992Y-84239999D03*
D27*
X123239999Y-82489999D03*
D28*
X123020005Y-84239999D03*
D25*
X120550000Y-94000000D03*
D29*
X120550000Y-88100000D03*
D30*
X120550000Y-84899730D03*
X120550000Y-81900000D03*
D31*
X117860012Y-84234896D03*
D32*
X117859999Y-82485051D03*
D25*
X115550000Y-91800000D03*
D24*
X115050000Y-88100000D03*
D33*
X123549999Y-93999999D03*
D34*
X112274999Y-91799999D03*
D24*
X145100000Y-85600000D03*
D25*
X144600000Y-89300000D03*
D26*
X142454992Y-81739999D03*
D27*
X142289999Y-79989999D03*
D28*
X142070005Y-81739999D03*
D25*
X139600000Y-91500000D03*
D29*
X139600000Y-85600000D03*
D30*
X139600000Y-82399730D03*
X139600000Y-79400000D03*
D31*
X136910012Y-81734896D03*
D32*
X136909999Y-79985051D03*
D25*
X134600000Y-89300000D03*
D24*
X134100000Y-85600000D03*
D33*
X142599999Y-91499999D03*
D34*
X131324999Y-89299999D03*
D24*
X164150000Y-102150000D03*
D25*
X163650000Y-105850000D03*
D26*
X161504992Y-98289999D03*
D27*
X161339999Y-96539999D03*
D28*
X161120005Y-98289999D03*
D25*
X158650000Y-108050000D03*
D29*
X158650000Y-102150000D03*
D30*
X158650000Y-98949730D03*
X158650000Y-95950000D03*
D31*
X155960012Y-98284896D03*
D32*
X155959999Y-96535051D03*
D25*
X153650000Y-105850000D03*
D24*
X153150000Y-102150000D03*
D33*
X161649999Y-108049999D03*
D34*
X150374999Y-105849999D03*
D24*
X202250000Y-109550000D03*
D25*
X201750000Y-113250000D03*
D26*
X199604992Y-105689999D03*
D27*
X199439999Y-103939999D03*
D28*
X199220005Y-105689999D03*
D25*
X196750000Y-115450000D03*
D29*
X196750000Y-109550000D03*
D30*
X196750000Y-106349730D03*
X196750000Y-103350000D03*
D31*
X194060012Y-105684896D03*
D32*
X194059999Y-103935051D03*
D25*
X191750000Y-113250000D03*
D24*
X191250000Y-109550000D03*
D33*
X199749999Y-115449999D03*
D34*
X188474999Y-113249999D03*
D24*
X99292694Y-138741345D03*
D25*
X95768974Y-139975606D03*
D35*
X101531170Y-134632222D03*
D36*
X103015526Y-133690729D03*
D37*
X101356389Y-134289196D03*
D25*
X91538808Y-136519353D03*
D29*
X96795746Y-133840809D03*
D30*
X99647207Y-132387917D03*
X102319986Y-131026068D03*
D38*
X99018348Y-129689292D03*
D39*
X100577466Y-128894867D03*
D25*
X91229069Y-131065541D03*
D24*
X94298798Y-128940273D03*
D40*
X92900778Y-139192372D03*
D41*
X89742249Y-128147494D03*
D11*
X96595000Y-75710000D03*
X99135000Y-75710000D03*
X101675000Y-75710000D03*
X104215000Y-75710000D03*
D24*
X122912592Y-126976495D03*
D25*
X123387260Y-130679830D03*
D42*
X119358669Y-123932599D03*
D43*
X118746365Y-122284932D03*
D44*
X118986800Y-124032241D03*
D25*
X119127032Y-134098962D03*
D29*
X117600000Y-128400000D03*
D30*
X116771709Y-125308777D03*
X115995322Y-122411260D03*
D45*
X114001309Y-125362816D03*
D46*
X113548403Y-123672599D03*
D25*
X113728001Y-133268021D03*
D24*
X112287408Y-129823505D03*
D47*
X122024809Y-133322504D03*
D48*
X110564593Y-134115652D03*
D24*
X221300000Y-71450000D03*
D25*
X220800000Y-75150000D03*
D26*
X218654992Y-67589999D03*
D27*
X218489999Y-65839999D03*
D28*
X218270005Y-67589999D03*
D25*
X215800000Y-77350000D03*
D29*
X215800000Y-71450000D03*
D30*
X215800000Y-68249730D03*
X215800000Y-65250000D03*
D31*
X213110012Y-67584896D03*
D32*
X213109999Y-65835051D03*
D25*
X210800000Y-75150000D03*
D24*
X210300000Y-71450000D03*
D33*
X218799999Y-77349999D03*
D34*
X207524999Y-75149999D03*
D24*
X221300000Y-90500000D03*
D25*
X220800000Y-94200000D03*
D26*
X218654992Y-86639999D03*
D27*
X218489999Y-84889999D03*
D28*
X218270005Y-86639999D03*
D25*
X215800000Y-96400000D03*
D29*
X215800000Y-90500000D03*
D30*
X215800000Y-87299730D03*
X215800000Y-84300000D03*
D31*
X213110012Y-86634896D03*
D32*
X213109999Y-84885051D03*
D25*
X210800000Y-94200000D03*
D24*
X210300000Y-90500000D03*
D33*
X218799999Y-96399999D03*
D34*
X207524999Y-94199999D03*
D24*
X221300000Y-109550000D03*
D25*
X220800000Y-113250000D03*
D26*
X218654992Y-105689999D03*
D27*
X218489999Y-103939999D03*
D28*
X218270005Y-105689999D03*
D25*
X215800000Y-115450000D03*
D29*
X215800000Y-109550000D03*
D30*
X215800000Y-106349730D03*
X215800000Y-103350000D03*
D31*
X213110012Y-105684896D03*
D32*
X213109999Y-103935051D03*
D25*
X210800000Y-113250000D03*
D24*
X210300000Y-109550000D03*
D33*
X218799999Y-115449999D03*
D34*
X207524999Y-113249999D03*
D24*
X183200000Y-47500000D03*
D25*
X182700000Y-51200000D03*
D26*
X180554992Y-43639999D03*
D27*
X180389999Y-41889999D03*
D28*
X180170005Y-43639999D03*
D25*
X177700000Y-53400000D03*
D29*
X177700000Y-47500000D03*
D30*
X177700000Y-44299730D03*
X177700000Y-41300000D03*
D31*
X175010012Y-43634896D03*
D32*
X175009999Y-41885051D03*
D25*
X172700000Y-51200000D03*
D24*
X172200000Y-47500000D03*
D33*
X180699999Y-53399999D03*
D34*
X169424999Y-51199999D03*
D17*
X128624999Y-61324999D03*
D18*
X128625000Y-63375000D03*
D19*
X128625000Y-67225000D03*
D20*
X128625000Y-69325000D03*
D17*
X147674999Y-58524999D03*
D18*
X147675000Y-60575000D03*
D19*
X147675000Y-64425000D03*
D20*
X147675000Y-66525000D03*
D17*
X166724999Y-56024999D03*
D18*
X166725000Y-58075000D03*
D19*
X166725000Y-61925000D03*
D20*
X166725000Y-64025000D03*
D17*
X185774999Y-58399999D03*
D18*
X185775000Y-60450000D03*
D19*
X185775000Y-64300000D03*
D20*
X185775000Y-66400000D03*
D17*
X204824999Y-64299999D03*
D18*
X204825000Y-66350000D03*
D19*
X204825000Y-70200000D03*
D20*
X204825000Y-72300000D03*
D17*
X223874999Y-63424999D03*
D18*
X223875000Y-65475000D03*
D19*
X223875000Y-69325000D03*
D20*
X223875000Y-71425000D03*
D24*
X202250000Y-52400000D03*
D25*
X201750000Y-56100000D03*
D26*
X199604992Y-48539999D03*
D27*
X199439999Y-46789999D03*
D28*
X199220005Y-48539999D03*
D25*
X196750000Y-58300000D03*
D29*
X196750000Y-52400000D03*
D30*
X196750000Y-49199730D03*
X196750000Y-46200000D03*
D31*
X194060012Y-48534896D03*
D32*
X194059999Y-46785051D03*
D25*
X191750000Y-56100000D03*
D24*
X191250000Y-52400000D03*
D33*
X199749999Y-58299999D03*
D34*
X188474999Y-56099999D03*
D24*
X145100000Y-66550000D03*
D25*
X144600000Y-70250000D03*
D26*
X142454992Y-62689999D03*
D27*
X142289999Y-60939999D03*
D28*
X142070005Y-62689999D03*
D25*
X139600000Y-72450000D03*
D29*
X139600000Y-66550000D03*
D30*
X139600000Y-63349730D03*
X139600000Y-60350000D03*
D31*
X136910012Y-62684896D03*
D32*
X136909999Y-60935051D03*
D25*
X134600000Y-70250000D03*
D24*
X134100000Y-66550000D03*
D33*
X142599999Y-72449999D03*
D34*
X131324999Y-70249999D03*
D24*
X183200000Y-66550000D03*
D25*
X182700000Y-70250000D03*
D26*
X180554992Y-62689999D03*
D27*
X180389999Y-60939999D03*
D28*
X180170005Y-62689999D03*
D25*
X177700000Y-72450000D03*
D29*
X177700000Y-66550000D03*
D30*
X177700000Y-63349730D03*
X177700000Y-60350000D03*
D31*
X175010012Y-62684896D03*
D32*
X175009999Y-60935051D03*
D25*
X172700000Y-70250000D03*
D24*
X172200000Y-66550000D03*
D33*
X180699999Y-72449999D03*
D34*
X169424999Y-70249999D03*
D24*
X164150000Y-64050000D03*
D25*
X163650000Y-67750000D03*
D26*
X161504992Y-60189999D03*
D27*
X161339999Y-58439999D03*
D28*
X161120005Y-60189999D03*
D25*
X158650000Y-69950000D03*
D29*
X158650000Y-64050000D03*
D30*
X158650000Y-60849730D03*
X158650000Y-57850000D03*
D31*
X155960012Y-60184896D03*
D32*
X155959999Y-58435051D03*
D25*
X153650000Y-67750000D03*
D24*
X153150000Y-64050000D03*
D33*
X161649999Y-69949999D03*
D34*
X150374999Y-67749999D03*
D24*
X183200000Y-85600000D03*
D25*
X182700000Y-89300000D03*
D26*
X180554992Y-81739999D03*
D27*
X180389999Y-79989999D03*
D28*
X180170005Y-81739999D03*
D25*
X177700000Y-91500000D03*
D29*
X177700000Y-85600000D03*
D30*
X177700000Y-82399730D03*
X177700000Y-79400000D03*
D31*
X175010012Y-81734896D03*
D32*
X175009999Y-79985051D03*
D25*
X172700000Y-89300000D03*
D24*
X172200000Y-85600000D03*
D33*
X180699999Y-91499999D03*
D34*
X169424999Y-89299999D03*
D24*
X221300000Y-52400000D03*
D25*
X220800000Y-56100000D03*
D26*
X218654992Y-48539999D03*
D27*
X218489999Y-46789999D03*
D28*
X218270005Y-48539999D03*
D25*
X215800000Y-58300000D03*
D29*
X215800000Y-52400000D03*
D30*
X215800000Y-49199730D03*
X215800000Y-46200000D03*
D31*
X213110012Y-48534896D03*
D32*
X213109999Y-46785051D03*
D25*
X210800000Y-56100000D03*
D24*
X210300000Y-52400000D03*
D33*
X218799999Y-58299999D03*
D34*
X207524999Y-56099999D03*
D24*
X126050000Y-69100000D03*
D25*
X125550000Y-72800000D03*
D26*
X123404992Y-65239999D03*
D27*
X123239999Y-63489999D03*
D28*
X123020005Y-65239999D03*
D25*
X120550000Y-75000000D03*
D29*
X120550000Y-69100000D03*
D30*
X120550000Y-65899730D03*
X120550000Y-62900000D03*
D31*
X117860012Y-65234896D03*
D32*
X117859999Y-63485051D03*
D25*
X115550000Y-72800000D03*
D24*
X115050000Y-69100000D03*
D33*
X123549999Y-74999999D03*
D34*
X112274999Y-72799999D03*
D24*
X183200000Y-123700000D03*
D25*
X182700000Y-127400000D03*
D26*
X180554992Y-119839999D03*
D27*
X180389999Y-118089999D03*
D28*
X180170005Y-119839999D03*
D25*
X177700000Y-129600000D03*
D29*
X177700000Y-123700000D03*
D30*
X177700000Y-120499730D03*
X177700000Y-117500000D03*
D31*
X175010012Y-119834896D03*
D32*
X175009999Y-118085051D03*
D25*
X172700000Y-127400000D03*
D24*
X172200000Y-123700000D03*
D33*
X180699999Y-129599999D03*
D34*
X169424999Y-127399999D03*
D24*
X202250000Y-71450000D03*
D25*
X201750000Y-75150000D03*
D26*
X199604992Y-67589999D03*
D27*
X199439999Y-65839999D03*
D28*
X199220005Y-67589999D03*
D25*
X196750000Y-77350000D03*
D29*
X196750000Y-71450000D03*
D30*
X196750000Y-68249730D03*
X196750000Y-65250000D03*
D31*
X194060012Y-67584896D03*
D32*
X194059999Y-65835051D03*
D25*
X191750000Y-75150000D03*
D24*
X191250000Y-71450000D03*
D33*
X199749999Y-77349999D03*
D34*
X188474999Y-75149999D03*
D24*
X183200000Y-104650000D03*
D25*
X182700000Y-108350000D03*
D26*
X180554992Y-100789999D03*
D27*
X180389999Y-99039999D03*
D28*
X180170005Y-100789999D03*
D25*
X177700000Y-110550000D03*
D29*
X177700000Y-104650000D03*
D30*
X177700000Y-101449730D03*
X177700000Y-98450000D03*
D31*
X175010012Y-100784896D03*
D32*
X175009999Y-99035051D03*
D25*
X172700000Y-108350000D03*
D24*
X172200000Y-104650000D03*
D33*
X180699999Y-110549999D03*
D34*
X169424999Y-108349999D03*
D24*
X202250000Y-90500000D03*
D25*
X201750000Y-94200000D03*
D26*
X199604992Y-86639999D03*
D27*
X199439999Y-84889999D03*
D28*
X199220005Y-86639999D03*
D25*
X196750000Y-96400000D03*
D29*
X196750000Y-90500000D03*
D30*
X196750000Y-87299730D03*
X196750000Y-84300000D03*
D31*
X194060012Y-86634896D03*
D32*
X194059999Y-84885051D03*
D25*
X191750000Y-94200000D03*
D24*
X191250000Y-90500000D03*
D33*
X199749999Y-96399999D03*
D34*
X188474999Y-94199999D03*
D24*
X164150000Y-121200000D03*
D25*
X163650000Y-124900000D03*
D26*
X161504992Y-117339999D03*
D27*
X161339999Y-115589999D03*
D28*
X161120005Y-117339999D03*
D25*
X158650000Y-127100000D03*
D29*
X158650000Y-121200000D03*
D30*
X158650000Y-117999730D03*
X158650000Y-115000000D03*
D31*
X155960012Y-117334896D03*
D32*
X155959999Y-115585051D03*
D25*
X153650000Y-124900000D03*
D24*
X153150000Y-121200000D03*
D33*
X161649999Y-127099999D03*
D34*
X150374999Y-124899999D03*
D24*
X164150000Y-83100000D03*
D25*
X163650000Y-86800000D03*
D26*
X161504992Y-79239999D03*
D27*
X161339999Y-77489999D03*
D28*
X161120005Y-79239999D03*
D25*
X158650000Y-89000000D03*
D29*
X158650000Y-83100000D03*
D30*
X158650000Y-79899730D03*
X158650000Y-76900000D03*
D31*
X155960012Y-79234896D03*
D32*
X155959999Y-77485051D03*
D25*
X153650000Y-86800000D03*
D24*
X153150000Y-83100000D03*
D33*
X161649999Y-88999999D03*
D34*
X150374999Y-86799999D03*
D24*
X145100000Y-47500000D03*
D25*
X144600000Y-51200000D03*
D26*
X142454992Y-43639999D03*
D27*
X142289999Y-41889999D03*
D28*
X142070005Y-43639999D03*
D25*
X139600000Y-53400000D03*
D29*
X139600000Y-47500000D03*
D30*
X139600000Y-44299730D03*
X139600000Y-41300000D03*
D31*
X136910012Y-43634896D03*
D32*
X136909999Y-41885051D03*
D25*
X134600000Y-51200000D03*
D24*
X134100000Y-47500000D03*
D33*
X142599999Y-53399999D03*
D34*
X131324999Y-51199999D03*
D20*
X125705276Y-127123703D03*
D49*
X125161756Y-125095259D03*
D50*
X124165303Y-121376445D03*
D51*
X123634723Y-119396296D03*
D24*
X145100000Y-104650000D03*
D25*
X144600000Y-108350000D03*
D26*
X142454992Y-100789999D03*
D27*
X142289999Y-99039999D03*
D28*
X142070005Y-100789999D03*
D25*
X139600000Y-110550000D03*
D29*
X139600000Y-104650000D03*
D30*
X139600000Y-101449730D03*
X139600000Y-98450000D03*
D31*
X136910012Y-100784896D03*
D32*
X136909999Y-99035051D03*
D25*
X134600000Y-108350000D03*
D24*
X134100000Y-104650000D03*
D33*
X142599999Y-110549999D03*
D34*
X131324999Y-108349999D03*
D17*
X166724999Y-74949999D03*
D18*
X166725000Y-77000000D03*
D19*
X166725000Y-80850000D03*
D20*
X166725000Y-82950000D03*
D17*
X204824999Y-82349999D03*
D18*
X204825000Y-84400000D03*
D19*
X204825000Y-88250000D03*
D20*
X204825000Y-90350000D03*
D17*
X223874999Y-82474999D03*
D18*
X223875000Y-84525000D03*
D19*
X223875000Y-88375000D03*
D20*
X223875000Y-90475000D03*
D17*
X147674999Y-115674999D03*
D18*
X147675000Y-117725000D03*
D19*
X147675000Y-121575000D03*
D20*
X147675000Y-123675000D03*
D17*
X166724999Y-113174999D03*
D18*
X166725000Y-115225000D03*
D19*
X166725000Y-119075000D03*
D20*
X166725000Y-121175000D03*
D17*
X223874999Y-101524999D03*
D18*
X223875000Y-103575000D03*
D19*
X223875000Y-107425000D03*
D20*
X223875000Y-109525000D03*
D17*
X147674999Y-96624999D03*
D18*
X147675000Y-98675000D03*
D19*
X147675000Y-102525000D03*
D20*
X147675000Y-104625000D03*
D17*
X166724999Y-94124999D03*
D18*
X166725000Y-96175000D03*
D19*
X166725000Y-100025000D03*
D20*
X166725000Y-102125000D03*
D17*
X185774999Y-96499999D03*
D18*
X185775000Y-98550000D03*
D19*
X185775000Y-102400000D03*
D20*
X185775000Y-104500000D03*
D17*
X204824999Y-102399999D03*
D18*
X204825000Y-104450000D03*
D19*
X204825000Y-108300000D03*
D20*
X204825000Y-110400000D03*
D17*
X147674999Y-77574999D03*
D18*
X147675000Y-79625000D03*
D19*
X147675000Y-83475000D03*
D20*
X147675000Y-85575000D03*
D17*
X185274999Y-114674999D03*
D18*
X185275000Y-116725000D03*
D19*
X185275000Y-120575000D03*
D20*
X185275000Y-122675000D03*
D24*
X145100000Y-123700000D03*
D25*
X144600000Y-127400000D03*
D26*
X142454992Y-119839999D03*
D27*
X142289999Y-118089999D03*
D28*
X142070005Y-119839999D03*
D25*
X139600000Y-129600000D03*
D29*
X139600000Y-123700000D03*
D30*
X139600000Y-120499730D03*
X139600000Y-117500000D03*
D31*
X136910012Y-119834896D03*
D32*
X136909999Y-118085051D03*
D25*
X134600000Y-127400000D03*
D24*
X134100000Y-123700000D03*
D33*
X142599999Y-129599999D03*
D34*
X131324999Y-127399999D03*
D25*
X96833857Y-94650000D03*
X96833857Y-114250000D03*
X107733857Y-94650000D03*
X107733857Y-114250000D03*
D52*
X89783856Y-99549999D03*
D53*
X89783856Y-102089999D03*
X89783856Y-104629999D03*
X89783856Y-107169999D03*
X89783856Y-109709999D03*
D30*
X188840000Y-125465000D03*
D54*
X188839999Y-129464999D03*
D30*
X188840000Y-133465000D03*
X193840000Y-123570000D03*
D54*
X193839999Y-127569999D03*
D30*
X193840000Y-131570000D03*
D55*
X198259999Y-120324999D03*
D30*
X198840000Y-121675000D03*
D54*
X198839999Y-125674999D03*
D30*
X198840000Y-129675000D03*
X203840000Y-119780000D03*
D54*
X203839999Y-123779999D03*
D30*
X203840000Y-127780000D03*
X208850000Y-117885000D03*
D54*
X208849999Y-121884999D03*
D30*
X208850000Y-125885000D03*
D56*
X212586817Y-124458047D03*
D30*
X216323636Y-123031096D03*
D17*
X185774999Y-77449999D03*
D18*
X185775000Y-79500000D03*
D19*
X185775000Y-83350000D03*
D20*
X185775000Y-85450000D03*
D24*
X126050000Y-107150000D03*
D25*
X125550000Y-110850000D03*
D26*
X123404992Y-103289999D03*
D27*
X123239999Y-101539999D03*
D28*
X123020005Y-103289999D03*
D25*
X120550000Y-113050000D03*
D29*
X120550000Y-107150000D03*
D30*
X120550000Y-103949730D03*
X120550000Y-100950000D03*
D31*
X117860012Y-103284896D03*
D32*
X117859999Y-101535051D03*
D25*
X115550000Y-110850000D03*
D24*
X115050000Y-107150000D03*
D33*
X123549999Y-113049999D03*
D34*
X112274999Y-110849999D03*
D10*
X103520000Y-119790000D03*
D57*
X91500000Y-89050000D03*
X107000000Y-89050000D03*
D58*
X107500000Y-107000000D03*
X107500000Y-102000000D03*
X107500000Y-104500000D03*
D59*
X99999999Y-110099999D03*
X99999999Y-98899999D03*
D58*
X93000000Y-102000000D03*
X93000000Y-107000000D03*
D10*
X206000000Y-98500000D03*
X130527120Y-57573640D03*
X130375120Y-95852640D03*
M02*
