G04 #@! TF.GenerationSoftware,KiCad,Pcbnew,(7.0.0-0)*
G04 #@! TF.CreationDate,2023-04-05T09:36:02-07:00*
G04 #@! TF.ProjectId,SofleKeyboard,536f666c-654b-4657-9962-6f6172642e6b,rev?*
G04 #@! TF.SameCoordinates,Original*
G04 #@! TF.FileFunction,Legend,Bot*
G04 #@! TF.FilePolarity,Positive*
%FSLAX46Y46*%
G04 Gerber Fmt 4.6, Leading zero omitted, Abs format (unit mm)*
G04 Created by KiCad (PCBNEW (7.0.0-0)) date 2023-04-05 09:36:02*
%MOMM*%
%LPD*%
G01*
G04 APERTURE LIST*
G04 Aperture macros list*
%AMRoundRect*
0 Rectangle with rounded corners*
0 $1 Rounding radius*
0 $2 $3 $4 $5 $6 $7 $8 $9 X,Y pos of 4 corners*
0 Add a 4 corners polygon primitive as box body*
4,1,4,$2,$3,$4,$5,$6,$7,$8,$9,$2,$3,0*
0 Add four circle primitives for the rounded corners*
1,1,$1+$1,$2,$3*
1,1,$1+$1,$4,$5*
1,1,$1+$1,$6,$7*
1,1,$1+$1,$8,$9*
0 Add four rect primitives between the rounded corners*
20,1,$1+$1,$2,$3,$4,$5,0*
20,1,$1+$1,$4,$5,$6,$7,0*
20,1,$1+$1,$6,$7,$8,$9,0*
20,1,$1+$1,$8,$9,$2,$3,0*%
%AMHorizOval*
0 Thick line with rounded ends*
0 $1 width*
0 $2 $3 position (X,Y) of the first rounded end (center of the circle)*
0 $4 $5 position (X,Y) of the second rounded end (center of the circle)*
0 Add line between two ends*
20,1,$1,$2,$3,$4,$5,0*
0 Add two circle primitives to create the rounded ends*
1,1,$1,$2,$3*
1,1,$1,$4,$5*%
%AMRotRect*
0 Rectangle, with rotation*
0 The origin of the aperture is its center*
0 $1 length*
0 $2 width*
0 $3 Rotation angle, in degrees counterclockwise*
0 Add horizontal line*
21,1,$1,$2,0,0,$3*%
%AMFreePoly0*
4,1,28,-0.850000,0.400000,-0.842219,0.514750,-0.797860,0.693119,-0.716195,0.857783,-0.601041,1.001041,-0.457783,1.116195,-0.293119,1.197860,-0.114750,1.242219,0.000000,1.250000,0.114750,1.242219,0.293119,1.197860,0.457783,1.116195,0.601041,1.001041,0.716195,0.857783,0.797860,0.693119,0.842219,0.514750,0.850000,0.400000,0.850000,-0.400000,0.842219,-0.514750,0.797860,-0.693119,
0.716195,-0.857783,0.601041,-1.001041,0.457783,-1.116195,0.293119,-1.197860,0.114750,-1.242219,0.000000,-1.250000,-0.850000,-0.400000,-0.850000,0.400000,-0.850000,0.400000,$1*%
%AMFreePoly1*
4,1,28,-0.850000,0.400000,0.000000,1.250000,0.114750,1.242219,0.293119,1.197860,0.457783,1.116195,0.601041,1.001041,0.716195,0.857783,0.797860,0.693119,0.842219,0.514750,0.850000,0.400000,0.850000,-0.400000,0.842219,-0.514750,0.797860,-0.693119,0.716195,-0.857783,0.601041,-1.001041,0.457783,-1.116195,0.293119,-1.197860,0.114750,-1.242219,0.000000,-1.250000,-0.114750,-1.242219,
-0.293119,-1.197860,-0.457783,-1.116195,-0.601041,-1.001041,-0.716195,-0.857783,-0.797860,-0.693119,-0.842219,-0.514750,-0.850000,-0.400000,-0.850000,0.400000,-0.850000,0.400000,$1*%
%AMFreePoly2*
4,1,18,-0.744993,0.000000,-0.324890,0.420103,0.534941,0.420103,0.615324,0.404114,0.683470,0.358580,0.729004,0.290434,0.744993,0.210051,0.744993,-0.210051,0.729004,-0.290434,0.683470,-0.358580,0.615324,-0.404114,0.534941,-0.420103,-0.534941,-0.420103,-0.615324,-0.404114,-0.683470,-0.358580,-0.729004,-0.290434,-0.744993,-0.210051,-0.744993,0.000000,-0.744993,0.000000,$1*%
%AMFreePoly3*
4,1,13,-0.909987,0.210051,-0.893998,0.290434,-0.848464,0.358580,-0.780318,0.404114,-0.699935,0.420103,0.909987,0.420103,0.909987,-0.420103,-0.699935,-0.420103,-0.780318,-0.404114,-0.848464,-0.358580,-0.893998,-0.290434,-0.909987,-0.210051,-0.909987,0.210051,-0.909987,0.210051,$1*%
%AMFreePoly4*
4,1,13,-0.909987,0.212526,-0.893809,0.293856,-0.847740,0.362805,-0.778791,0.408874,-0.697461,0.425052,0.909987,0.425052,0.909987,-0.425052,-0.697461,-0.425052,-0.778791,-0.408874,-0.847740,-0.362805,-0.893809,-0.293856,-0.909987,-0.212526,-0.909987,0.212526,-0.909987,0.212526,$1*%
%AMFreePoly5*
4,1,18,-1.000000,0.860000,-0.981731,0.951844,-0.929706,1.029706,-0.851844,1.081731,-0.760000,1.100000,0.760000,1.100000,0.851844,1.081731,0.929706,1.029706,0.981731,0.951844,1.000000,0.860000,1.000000,-0.860000,0.981731,-0.951844,0.929706,-1.029706,0.851844,-1.081731,0.760000,-1.100000,-0.300000,-1.100000,-1.000000,-0.400000,-1.000000,0.860000,-1.000000,0.860000,$1*%
%AMFreePoly6*
4,1,13,-1.000000,1.100000,0.760000,1.100000,0.851844,1.081731,0.929706,1.029706,0.981731,0.951844,1.000000,0.860000,1.000000,-0.860000,0.981731,-0.951844,0.929706,-1.029706,0.851844,-1.081731,0.760000,-1.100000,-1.000000,-1.100000,-1.000000,1.100000,-1.000000,1.100000,$1*%
G04 Aperture macros list end*
%ADD10C,0.150000*%
%ADD11C,0.200000*%
%ADD12C,0.010000*%
%ADD13C,0.120000*%
%ADD14C,0.100000*%
%ADD15C,0.099999*%
%ADD16C,1.524000*%
%ADD17C,4.700000*%
%ADD18C,1.397000*%
%ADD19C,1.200000*%
%ADD20FreePoly0,90.000000*%
%ADD21O,2.500000X1.700000*%
%ADD22FreePoly1,90.000000*%
%ADD23R,1.400000X1.400000*%
%ADD24RoundRect,0.300000X-0.300000X0.450000X-0.300000X-0.450000X0.300000X-0.450000X0.300000X0.450000X0*%
%ADD25RoundRect,0.300000X-0.300000X0.400000X-0.300000X-0.400000X0.300000X-0.400000X0.300000X0.400000X0*%
%ADD26C,1.400000*%
%ADD27RotRect,1.400000X1.400000X297.000000*%
%ADD28RoundRect,0.300000X-0.471598X0.264756X-0.063006X-0.537150X0.471598X-0.264756X0.063006X0.537150X0*%
%ADD29RoundRect,0.300000X-0.448898X0.220205X-0.085706X-0.492600X0.448898X-0.220205X0.085706X0.492600X0*%
%ADD30C,1.800000*%
%ADD31C,3.000000*%
%ADD32FreePoly2,180.000000*%
%ADD33FreePoly3,180.000000*%
%ADD34R,1.379987X0.840206*%
%ADD35C,4.900000*%
%ADD36C,1.000000*%
%ADD37FreePoly3,0.000000*%
%ADD38FreePoly4,0.000000*%
%ADD39FreePoly5,180.000000*%
%ADD40FreePoly6,180.000000*%
%ADD41FreePoly2,117.000000*%
%ADD42FreePoly3,117.000000*%
%ADD43RotRect,1.379987X0.840206X117.000000*%
%ADD44FreePoly3,297.000000*%
%ADD45FreePoly4,297.000000*%
%ADD46FreePoly5,117.000000*%
%ADD47FreePoly6,117.000000*%
%ADD48FreePoly2,195.000000*%
%ADD49FreePoly3,195.000000*%
%ADD50RotRect,1.379987X0.840206X195.000000*%
%ADD51FreePoly3,15.000000*%
%ADD52FreePoly4,15.000000*%
%ADD53FreePoly5,195.000000*%
%ADD54FreePoly6,195.000000*%
%ADD55RoundRect,0.300000X-0.393305X0.308725X-0.186250X-0.464016X0.393305X-0.308725X0.186250X0.464016X0*%
%ADD56RoundRect,0.300000X-0.406246X0.357021X-0.173309X-0.512312X0.406246X-0.357021X0.173309X0.512312X0*%
%ADD57RotRect,1.400000X1.400000X285.000000*%
%ADD58R,1.700000X1.700000*%
%ADD59O,1.700000X1.700000*%
%ADD60O,2.000000X4.000000*%
%ADD61HorizOval,3.000000X10.743351X4.102487X-10.743351X-4.102487X0*%
%ADD62HorizOval,2.000000X-0.934204X-0.356738X0.934204X0.356738X0*%
%ADD63C,4.000000*%
%ADD64C,2.000000*%
%ADD65R,3.200000X2.000000*%
G04 APERTURE END LIST*
D10*
X94384464Y-47599285D02*
X94741607Y-47849285D01*
X94384464Y-48027856D02*
X95134464Y-48027856D01*
X95134464Y-48027856D02*
X95134464Y-47742142D01*
X95134464Y-47742142D02*
X95098750Y-47670713D01*
X95098750Y-47670713D02*
X95063035Y-47634999D01*
X95063035Y-47634999D02*
X94991607Y-47599285D01*
X94991607Y-47599285D02*
X94884464Y-47599285D01*
X94884464Y-47599285D02*
X94813035Y-47634999D01*
X94813035Y-47634999D02*
X94777321Y-47670713D01*
X94777321Y-47670713D02*
X94741607Y-47742142D01*
X94741607Y-47742142D02*
X94741607Y-48027856D01*
X94777321Y-47277856D02*
X94777321Y-47027856D01*
X94384464Y-46920713D02*
X94384464Y-47277856D01*
X94384464Y-47277856D02*
X95134464Y-47277856D01*
X95134464Y-47277856D02*
X95134464Y-46920713D01*
X94420178Y-46634999D02*
X94384464Y-46527857D01*
X94384464Y-46527857D02*
X94384464Y-46349285D01*
X94384464Y-46349285D02*
X94420178Y-46277857D01*
X94420178Y-46277857D02*
X94455892Y-46242142D01*
X94455892Y-46242142D02*
X94527321Y-46206428D01*
X94527321Y-46206428D02*
X94598750Y-46206428D01*
X94598750Y-46206428D02*
X94670178Y-46242142D01*
X94670178Y-46242142D02*
X94705892Y-46277857D01*
X94705892Y-46277857D02*
X94741607Y-46349285D01*
X94741607Y-46349285D02*
X94777321Y-46492142D01*
X94777321Y-46492142D02*
X94813035Y-46563571D01*
X94813035Y-46563571D02*
X94848750Y-46599285D01*
X94848750Y-46599285D02*
X94920178Y-46634999D01*
X94920178Y-46634999D02*
X94991607Y-46634999D01*
X94991607Y-46634999D02*
X95063035Y-46599285D01*
X95063035Y-46599285D02*
X95098750Y-46563571D01*
X95098750Y-46563571D02*
X95134464Y-46492142D01*
X95134464Y-46492142D02*
X95134464Y-46313571D01*
X95134464Y-46313571D02*
X95098750Y-46206428D01*
X94777321Y-45884999D02*
X94777321Y-45634999D01*
X94384464Y-45527856D02*
X94384464Y-45884999D01*
X94384464Y-45884999D02*
X95134464Y-45884999D01*
X95134464Y-45884999D02*
X95134464Y-45527856D01*
X95134464Y-45313571D02*
X95134464Y-44885000D01*
X94384464Y-45099285D02*
X95134464Y-45099285D01*
D11*
X163069048Y-35652380D02*
X163069048Y-36366666D01*
X163069048Y-36366666D02*
X163116667Y-36509523D01*
X163116667Y-36509523D02*
X163211905Y-36604761D01*
X163211905Y-36604761D02*
X163354762Y-36652380D01*
X163354762Y-36652380D02*
X163450000Y-36652380D01*
X162116667Y-36652380D02*
X162592857Y-36652380D01*
X162592857Y-36652380D02*
X162592857Y-35652380D01*
X161211905Y-36557142D02*
X161259524Y-36604761D01*
X161259524Y-36604761D02*
X161402381Y-36652380D01*
X161402381Y-36652380D02*
X161497619Y-36652380D01*
X161497619Y-36652380D02*
X161640476Y-36604761D01*
X161640476Y-36604761D02*
X161735714Y-36509523D01*
X161735714Y-36509523D02*
X161783333Y-36414285D01*
X161783333Y-36414285D02*
X161830952Y-36223809D01*
X161830952Y-36223809D02*
X161830952Y-36080952D01*
X161830952Y-36080952D02*
X161783333Y-35890476D01*
X161783333Y-35890476D02*
X161735714Y-35795238D01*
X161735714Y-35795238D02*
X161640476Y-35700000D01*
X161640476Y-35700000D02*
X161497619Y-35652380D01*
X161497619Y-35652380D02*
X161402381Y-35652380D01*
X161402381Y-35652380D02*
X161259524Y-35700000D01*
X161259524Y-35700000D02*
X161211905Y-35747619D01*
X160497619Y-35652380D02*
X160497619Y-36366666D01*
X160497619Y-36366666D02*
X160545238Y-36509523D01*
X160545238Y-36509523D02*
X160640476Y-36604761D01*
X160640476Y-36604761D02*
X160783333Y-36652380D01*
X160783333Y-36652380D02*
X160878571Y-36652380D01*
X159545238Y-36652380D02*
X160021428Y-36652380D01*
X160021428Y-36652380D02*
X160021428Y-35652380D01*
X158640476Y-36557142D02*
X158688095Y-36604761D01*
X158688095Y-36604761D02*
X158830952Y-36652380D01*
X158830952Y-36652380D02*
X158926190Y-36652380D01*
X158926190Y-36652380D02*
X159069047Y-36604761D01*
X159069047Y-36604761D02*
X159164285Y-36509523D01*
X159164285Y-36509523D02*
X159211904Y-36414285D01*
X159211904Y-36414285D02*
X159259523Y-36223809D01*
X159259523Y-36223809D02*
X159259523Y-36080952D01*
X159259523Y-36080952D02*
X159211904Y-35890476D01*
X159211904Y-35890476D02*
X159164285Y-35795238D01*
X159164285Y-35795238D02*
X159069047Y-35700000D01*
X159069047Y-35700000D02*
X158926190Y-35652380D01*
X158926190Y-35652380D02*
X158830952Y-35652380D01*
X158830952Y-35652380D02*
X158688095Y-35700000D01*
X158688095Y-35700000D02*
X158640476Y-35747619D01*
X157926190Y-35652380D02*
X157926190Y-36366666D01*
X157926190Y-36366666D02*
X157973809Y-36509523D01*
X157973809Y-36509523D02*
X158069047Y-36604761D01*
X158069047Y-36604761D02*
X158211904Y-36652380D01*
X158211904Y-36652380D02*
X158307142Y-36652380D01*
X156973809Y-36652380D02*
X157449999Y-36652380D01*
X157449999Y-36652380D02*
X157449999Y-35652380D01*
X156069047Y-36557142D02*
X156116666Y-36604761D01*
X156116666Y-36604761D02*
X156259523Y-36652380D01*
X156259523Y-36652380D02*
X156354761Y-36652380D01*
X156354761Y-36652380D02*
X156497618Y-36604761D01*
X156497618Y-36604761D02*
X156592856Y-36509523D01*
X156592856Y-36509523D02*
X156640475Y-36414285D01*
X156640475Y-36414285D02*
X156688094Y-36223809D01*
X156688094Y-36223809D02*
X156688094Y-36080952D01*
X156688094Y-36080952D02*
X156640475Y-35890476D01*
X156640475Y-35890476D02*
X156592856Y-35795238D01*
X156592856Y-35795238D02*
X156497618Y-35700000D01*
X156497618Y-35700000D02*
X156354761Y-35652380D01*
X156354761Y-35652380D02*
X156259523Y-35652380D01*
X156259523Y-35652380D02*
X156116666Y-35700000D01*
X156116666Y-35700000D02*
X156069047Y-35747619D01*
X155354761Y-35652380D02*
X155354761Y-36366666D01*
X155354761Y-36366666D02*
X155402380Y-36509523D01*
X155402380Y-36509523D02*
X155497618Y-36604761D01*
X155497618Y-36604761D02*
X155640475Y-36652380D01*
X155640475Y-36652380D02*
X155735713Y-36652380D01*
X154402380Y-36652380D02*
X154878570Y-36652380D01*
X154878570Y-36652380D02*
X154878570Y-35652380D01*
X153497618Y-36557142D02*
X153545237Y-36604761D01*
X153545237Y-36604761D02*
X153688094Y-36652380D01*
X153688094Y-36652380D02*
X153783332Y-36652380D01*
X153783332Y-36652380D02*
X153926189Y-36604761D01*
X153926189Y-36604761D02*
X154021427Y-36509523D01*
X154021427Y-36509523D02*
X154069046Y-36414285D01*
X154069046Y-36414285D02*
X154116665Y-36223809D01*
X154116665Y-36223809D02*
X154116665Y-36080952D01*
X154116665Y-36080952D02*
X154069046Y-35890476D01*
X154069046Y-35890476D02*
X154021427Y-35795238D01*
X154021427Y-35795238D02*
X153926189Y-35700000D01*
X153926189Y-35700000D02*
X153783332Y-35652380D01*
X153783332Y-35652380D02*
X153688094Y-35652380D01*
X153688094Y-35652380D02*
X153545237Y-35700000D01*
X153545237Y-35700000D02*
X153497618Y-35747619D01*
D10*
X126992380Y-45236905D02*
X125992380Y-45236905D01*
X125992380Y-45236905D02*
X125992380Y-45475000D01*
X125992380Y-45475000D02*
X126040000Y-45617857D01*
X126040000Y-45617857D02*
X126135238Y-45713095D01*
X126135238Y-45713095D02*
X126230476Y-45760714D01*
X126230476Y-45760714D02*
X126420952Y-45808333D01*
X126420952Y-45808333D02*
X126563809Y-45808333D01*
X126563809Y-45808333D02*
X126754285Y-45760714D01*
X126754285Y-45760714D02*
X126849523Y-45713095D01*
X126849523Y-45713095D02*
X126944761Y-45617857D01*
X126944761Y-45617857D02*
X126992380Y-45475000D01*
X126992380Y-45475000D02*
X126992380Y-45236905D01*
X126992380Y-46760714D02*
X126992380Y-46189286D01*
X126992380Y-46475000D02*
X125992380Y-46475000D01*
X125992380Y-46475000D02*
X126135238Y-46379762D01*
X126135238Y-46379762D02*
X126230476Y-46284524D01*
X126230476Y-46284524D02*
X126278095Y-46189286D01*
X146042380Y-42736905D02*
X145042380Y-42736905D01*
X145042380Y-42736905D02*
X145042380Y-42975000D01*
X145042380Y-42975000D02*
X145090000Y-43117857D01*
X145090000Y-43117857D02*
X145185238Y-43213095D01*
X145185238Y-43213095D02*
X145280476Y-43260714D01*
X145280476Y-43260714D02*
X145470952Y-43308333D01*
X145470952Y-43308333D02*
X145613809Y-43308333D01*
X145613809Y-43308333D02*
X145804285Y-43260714D01*
X145804285Y-43260714D02*
X145899523Y-43213095D01*
X145899523Y-43213095D02*
X145994761Y-43117857D01*
X145994761Y-43117857D02*
X146042380Y-42975000D01*
X146042380Y-42975000D02*
X146042380Y-42736905D01*
X145137619Y-43689286D02*
X145090000Y-43736905D01*
X145090000Y-43736905D02*
X145042380Y-43832143D01*
X145042380Y-43832143D02*
X145042380Y-44070238D01*
X145042380Y-44070238D02*
X145090000Y-44165476D01*
X145090000Y-44165476D02*
X145137619Y-44213095D01*
X145137619Y-44213095D02*
X145232857Y-44260714D01*
X145232857Y-44260714D02*
X145328095Y-44260714D01*
X145328095Y-44260714D02*
X145470952Y-44213095D01*
X145470952Y-44213095D02*
X146042380Y-43641667D01*
X146042380Y-43641667D02*
X146042380Y-44260714D01*
X165592380Y-41361905D02*
X164592380Y-41361905D01*
X164592380Y-41361905D02*
X164592380Y-41600000D01*
X164592380Y-41600000D02*
X164640000Y-41742857D01*
X164640000Y-41742857D02*
X164735238Y-41838095D01*
X164735238Y-41838095D02*
X164830476Y-41885714D01*
X164830476Y-41885714D02*
X165020952Y-41933333D01*
X165020952Y-41933333D02*
X165163809Y-41933333D01*
X165163809Y-41933333D02*
X165354285Y-41885714D01*
X165354285Y-41885714D02*
X165449523Y-41838095D01*
X165449523Y-41838095D02*
X165544761Y-41742857D01*
X165544761Y-41742857D02*
X165592380Y-41600000D01*
X165592380Y-41600000D02*
X165592380Y-41361905D01*
X164592380Y-42266667D02*
X164592380Y-42885714D01*
X164592380Y-42885714D02*
X164973333Y-42552381D01*
X164973333Y-42552381D02*
X164973333Y-42695238D01*
X164973333Y-42695238D02*
X165020952Y-42790476D01*
X165020952Y-42790476D02*
X165068571Y-42838095D01*
X165068571Y-42838095D02*
X165163809Y-42885714D01*
X165163809Y-42885714D02*
X165401904Y-42885714D01*
X165401904Y-42885714D02*
X165497142Y-42838095D01*
X165497142Y-42838095D02*
X165544761Y-42790476D01*
X165544761Y-42790476D02*
X165592380Y-42695238D01*
X165592380Y-42695238D02*
X165592380Y-42409524D01*
X165592380Y-42409524D02*
X165544761Y-42314286D01*
X165544761Y-42314286D02*
X165497142Y-42266667D01*
X184142380Y-43111905D02*
X183142380Y-43111905D01*
X183142380Y-43111905D02*
X183142380Y-43350000D01*
X183142380Y-43350000D02*
X183190000Y-43492857D01*
X183190000Y-43492857D02*
X183285238Y-43588095D01*
X183285238Y-43588095D02*
X183380476Y-43635714D01*
X183380476Y-43635714D02*
X183570952Y-43683333D01*
X183570952Y-43683333D02*
X183713809Y-43683333D01*
X183713809Y-43683333D02*
X183904285Y-43635714D01*
X183904285Y-43635714D02*
X183999523Y-43588095D01*
X183999523Y-43588095D02*
X184094761Y-43492857D01*
X184094761Y-43492857D02*
X184142380Y-43350000D01*
X184142380Y-43350000D02*
X184142380Y-43111905D01*
X183475714Y-44540476D02*
X184142380Y-44540476D01*
X183094761Y-44302381D02*
X183809047Y-44064286D01*
X183809047Y-44064286D02*
X183809047Y-44683333D01*
X203192380Y-47511905D02*
X202192380Y-47511905D01*
X202192380Y-47511905D02*
X202192380Y-47750000D01*
X202192380Y-47750000D02*
X202240000Y-47892857D01*
X202240000Y-47892857D02*
X202335238Y-47988095D01*
X202335238Y-47988095D02*
X202430476Y-48035714D01*
X202430476Y-48035714D02*
X202620952Y-48083333D01*
X202620952Y-48083333D02*
X202763809Y-48083333D01*
X202763809Y-48083333D02*
X202954285Y-48035714D01*
X202954285Y-48035714D02*
X203049523Y-47988095D01*
X203049523Y-47988095D02*
X203144761Y-47892857D01*
X203144761Y-47892857D02*
X203192380Y-47750000D01*
X203192380Y-47750000D02*
X203192380Y-47511905D01*
X202192380Y-48988095D02*
X202192380Y-48511905D01*
X202192380Y-48511905D02*
X202668571Y-48464286D01*
X202668571Y-48464286D02*
X202620952Y-48511905D01*
X202620952Y-48511905D02*
X202573333Y-48607143D01*
X202573333Y-48607143D02*
X202573333Y-48845238D01*
X202573333Y-48845238D02*
X202620952Y-48940476D01*
X202620952Y-48940476D02*
X202668571Y-48988095D01*
X202668571Y-48988095D02*
X202763809Y-49035714D01*
X202763809Y-49035714D02*
X203001904Y-49035714D01*
X203001904Y-49035714D02*
X203097142Y-48988095D01*
X203097142Y-48988095D02*
X203144761Y-48940476D01*
X203144761Y-48940476D02*
X203192380Y-48845238D01*
X203192380Y-48845238D02*
X203192380Y-48607143D01*
X203192380Y-48607143D02*
X203144761Y-48511905D01*
X203144761Y-48511905D02*
X203097142Y-48464286D01*
X222242380Y-47886905D02*
X221242380Y-47886905D01*
X221242380Y-47886905D02*
X221242380Y-48125000D01*
X221242380Y-48125000D02*
X221290000Y-48267857D01*
X221290000Y-48267857D02*
X221385238Y-48363095D01*
X221385238Y-48363095D02*
X221480476Y-48410714D01*
X221480476Y-48410714D02*
X221670952Y-48458333D01*
X221670952Y-48458333D02*
X221813809Y-48458333D01*
X221813809Y-48458333D02*
X222004285Y-48410714D01*
X222004285Y-48410714D02*
X222099523Y-48363095D01*
X222099523Y-48363095D02*
X222194761Y-48267857D01*
X222194761Y-48267857D02*
X222242380Y-48125000D01*
X222242380Y-48125000D02*
X222242380Y-47886905D01*
X221242380Y-49315476D02*
X221242380Y-49125000D01*
X221242380Y-49125000D02*
X221290000Y-49029762D01*
X221290000Y-49029762D02*
X221337619Y-48982143D01*
X221337619Y-48982143D02*
X221480476Y-48886905D01*
X221480476Y-48886905D02*
X221670952Y-48839286D01*
X221670952Y-48839286D02*
X222051904Y-48839286D01*
X222051904Y-48839286D02*
X222147142Y-48886905D01*
X222147142Y-48886905D02*
X222194761Y-48934524D01*
X222194761Y-48934524D02*
X222242380Y-49029762D01*
X222242380Y-49029762D02*
X222242380Y-49220238D01*
X222242380Y-49220238D02*
X222194761Y-49315476D01*
X222194761Y-49315476D02*
X222147142Y-49363095D01*
X222147142Y-49363095D02*
X222051904Y-49410714D01*
X222051904Y-49410714D02*
X221813809Y-49410714D01*
X221813809Y-49410714D02*
X221718571Y-49363095D01*
X221718571Y-49363095D02*
X221670952Y-49315476D01*
X221670952Y-49315476D02*
X221623333Y-49220238D01*
X221623333Y-49220238D02*
X221623333Y-49029762D01*
X221623333Y-49029762D02*
X221670952Y-48934524D01*
X221670952Y-48934524D02*
X221718571Y-48886905D01*
X221718571Y-48886905D02*
X221813809Y-48839286D01*
X126992380Y-82860714D02*
X125992380Y-82860714D01*
X125992380Y-82860714D02*
X125992380Y-83098809D01*
X125992380Y-83098809D02*
X126040000Y-83241666D01*
X126040000Y-83241666D02*
X126135238Y-83336904D01*
X126135238Y-83336904D02*
X126230476Y-83384523D01*
X126230476Y-83384523D02*
X126420952Y-83432142D01*
X126420952Y-83432142D02*
X126563809Y-83432142D01*
X126563809Y-83432142D02*
X126754285Y-83384523D01*
X126754285Y-83384523D02*
X126849523Y-83336904D01*
X126849523Y-83336904D02*
X126944761Y-83241666D01*
X126944761Y-83241666D02*
X126992380Y-83098809D01*
X126992380Y-83098809D02*
X126992380Y-82860714D01*
X126992380Y-84384523D02*
X126992380Y-83813095D01*
X126992380Y-84098809D02*
X125992380Y-84098809D01*
X125992380Y-84098809D02*
X126135238Y-84003571D01*
X126135238Y-84003571D02*
X126230476Y-83908333D01*
X126230476Y-83908333D02*
X126278095Y-83813095D01*
X125992380Y-84717857D02*
X125992380Y-85336904D01*
X125992380Y-85336904D02*
X126373333Y-85003571D01*
X126373333Y-85003571D02*
X126373333Y-85146428D01*
X126373333Y-85146428D02*
X126420952Y-85241666D01*
X126420952Y-85241666D02*
X126468571Y-85289285D01*
X126468571Y-85289285D02*
X126563809Y-85336904D01*
X126563809Y-85336904D02*
X126801904Y-85336904D01*
X126801904Y-85336904D02*
X126897142Y-85289285D01*
X126897142Y-85289285D02*
X126944761Y-85241666D01*
X126944761Y-85241666D02*
X126992380Y-85146428D01*
X126992380Y-85146428D02*
X126992380Y-84860714D01*
X126992380Y-84860714D02*
X126944761Y-84765476D01*
X126944761Y-84765476D02*
X126897142Y-84717857D01*
X126992380Y-102660714D02*
X125992380Y-102660714D01*
X125992380Y-102660714D02*
X125992380Y-102898809D01*
X125992380Y-102898809D02*
X126040000Y-103041666D01*
X126040000Y-103041666D02*
X126135238Y-103136904D01*
X126135238Y-103136904D02*
X126230476Y-103184523D01*
X126230476Y-103184523D02*
X126420952Y-103232142D01*
X126420952Y-103232142D02*
X126563809Y-103232142D01*
X126563809Y-103232142D02*
X126754285Y-103184523D01*
X126754285Y-103184523D02*
X126849523Y-103136904D01*
X126849523Y-103136904D02*
X126944761Y-103041666D01*
X126944761Y-103041666D02*
X126992380Y-102898809D01*
X126992380Y-102898809D02*
X126992380Y-102660714D01*
X126992380Y-104184523D02*
X126992380Y-103613095D01*
X126992380Y-103898809D02*
X125992380Y-103898809D01*
X125992380Y-103898809D02*
X126135238Y-103803571D01*
X126135238Y-103803571D02*
X126230476Y-103708333D01*
X126230476Y-103708333D02*
X126278095Y-103613095D01*
X126992380Y-104660714D02*
X126992380Y-104851190D01*
X126992380Y-104851190D02*
X126944761Y-104946428D01*
X126944761Y-104946428D02*
X126897142Y-104994047D01*
X126897142Y-104994047D02*
X126754285Y-105089285D01*
X126754285Y-105089285D02*
X126563809Y-105136904D01*
X126563809Y-105136904D02*
X126182857Y-105136904D01*
X126182857Y-105136904D02*
X126087619Y-105089285D01*
X126087619Y-105089285D02*
X126040000Y-105041666D01*
X126040000Y-105041666D02*
X125992380Y-104946428D01*
X125992380Y-104946428D02*
X125992380Y-104755952D01*
X125992380Y-104755952D02*
X126040000Y-104660714D01*
X126040000Y-104660714D02*
X126087619Y-104613095D01*
X126087619Y-104613095D02*
X126182857Y-104565476D01*
X126182857Y-104565476D02*
X126420952Y-104565476D01*
X126420952Y-104565476D02*
X126516190Y-104613095D01*
X126516190Y-104613095D02*
X126563809Y-104660714D01*
X126563809Y-104660714D02*
X126611428Y-104755952D01*
X126611428Y-104755952D02*
X126611428Y-104946428D01*
X126611428Y-104946428D02*
X126563809Y-105041666D01*
X126563809Y-105041666D02*
X126516190Y-105089285D01*
X126516190Y-105089285D02*
X126420952Y-105136904D01*
X112037380Y-103935714D02*
X111037380Y-103935714D01*
X111037380Y-103935714D02*
X111037380Y-104173809D01*
X111037380Y-104173809D02*
X111085000Y-104316666D01*
X111085000Y-104316666D02*
X111180238Y-104411904D01*
X111180238Y-104411904D02*
X111275476Y-104459523D01*
X111275476Y-104459523D02*
X111465952Y-104507142D01*
X111465952Y-104507142D02*
X111608809Y-104507142D01*
X111608809Y-104507142D02*
X111799285Y-104459523D01*
X111799285Y-104459523D02*
X111894523Y-104411904D01*
X111894523Y-104411904D02*
X111989761Y-104316666D01*
X111989761Y-104316666D02*
X112037380Y-104173809D01*
X112037380Y-104173809D02*
X112037380Y-103935714D01*
X111132619Y-104888095D02*
X111085000Y-104935714D01*
X111085000Y-104935714D02*
X111037380Y-105030952D01*
X111037380Y-105030952D02*
X111037380Y-105269047D01*
X111037380Y-105269047D02*
X111085000Y-105364285D01*
X111085000Y-105364285D02*
X111132619Y-105411904D01*
X111132619Y-105411904D02*
X111227857Y-105459523D01*
X111227857Y-105459523D02*
X111323095Y-105459523D01*
X111323095Y-105459523D02*
X111465952Y-105411904D01*
X111465952Y-105411904D02*
X112037380Y-104840476D01*
X112037380Y-104840476D02*
X112037380Y-105459523D01*
X111037380Y-106364285D02*
X111037380Y-105888095D01*
X111037380Y-105888095D02*
X111513571Y-105840476D01*
X111513571Y-105840476D02*
X111465952Y-105888095D01*
X111465952Y-105888095D02*
X111418333Y-105983333D01*
X111418333Y-105983333D02*
X111418333Y-106221428D01*
X111418333Y-106221428D02*
X111465952Y-106316666D01*
X111465952Y-106316666D02*
X111513571Y-106364285D01*
X111513571Y-106364285D02*
X111608809Y-106411904D01*
X111608809Y-106411904D02*
X111846904Y-106411904D01*
X111846904Y-106411904D02*
X111942142Y-106364285D01*
X111942142Y-106364285D02*
X111989761Y-106316666D01*
X111989761Y-106316666D02*
X112037380Y-106221428D01*
X112037380Y-106221428D02*
X112037380Y-105983333D01*
X112037380Y-105983333D02*
X111989761Y-105888095D01*
X111989761Y-105888095D02*
X111942142Y-105840476D01*
X102819340Y-132073792D02*
X103710346Y-131619802D01*
X103710346Y-131619802D02*
X103602253Y-131407658D01*
X103602253Y-131407658D02*
X103494969Y-131301990D01*
X103494969Y-131301990D02*
X103366874Y-131260369D01*
X103366874Y-131260369D02*
X103260397Y-131261177D01*
X103260397Y-131261177D02*
X103069063Y-131305223D01*
X103069063Y-131305223D02*
X102941777Y-131370079D01*
X102941777Y-131370079D02*
X102793680Y-131498982D01*
X102793680Y-131498982D02*
X102730441Y-131584648D01*
X102730441Y-131584648D02*
X102688820Y-131712743D01*
X102688820Y-131712743D02*
X102711247Y-131861648D01*
X102711247Y-131861648D02*
X102819340Y-132073792D01*
X103193117Y-130814462D02*
X103213927Y-130750414D01*
X103213927Y-130750414D02*
X103213119Y-130643938D01*
X103213119Y-130643938D02*
X103105026Y-130431793D01*
X103105026Y-130431793D02*
X103019360Y-130368554D01*
X103019360Y-130368554D02*
X102955312Y-130347744D01*
X102955312Y-130347744D02*
X102848836Y-130348552D01*
X102848836Y-130348552D02*
X102763978Y-130391789D01*
X102763978Y-130391789D02*
X102658310Y-130499074D01*
X102658310Y-130499074D02*
X102408587Y-131267644D01*
X102408587Y-131267644D02*
X102127545Y-130716068D01*
X102629417Y-129498358D02*
X102715891Y-129668073D01*
X102715891Y-129668073D02*
X102716699Y-129774550D01*
X102716699Y-129774550D02*
X102695889Y-129838597D01*
X102695889Y-129838597D02*
X102611840Y-129988311D01*
X102611840Y-129988311D02*
X102463743Y-130117214D01*
X102463743Y-130117214D02*
X102124312Y-130290163D01*
X102124312Y-130290163D02*
X102017835Y-130290971D01*
X102017835Y-130290971D02*
X101953788Y-130270161D01*
X101953788Y-130270161D02*
X101868122Y-130206922D01*
X101868122Y-130206922D02*
X101781647Y-130037206D01*
X101781647Y-130037206D02*
X101780839Y-129930730D01*
X101780839Y-129930730D02*
X101801649Y-129866682D01*
X101801649Y-129866682D02*
X101864888Y-129781016D01*
X101864888Y-129781016D02*
X102077033Y-129672923D01*
X102077033Y-129672923D02*
X102183509Y-129672115D01*
X102183509Y-129672115D02*
X102247557Y-129692925D01*
X102247557Y-129692925D02*
X102333223Y-129756164D01*
X102333223Y-129756164D02*
X102419697Y-129925880D01*
X102419697Y-129925880D02*
X102420505Y-130032356D01*
X102420505Y-130032356D02*
X102399695Y-130096404D01*
X102399695Y-130096404D02*
X102336456Y-130182070D01*
X126992380Y-64586905D02*
X125992380Y-64586905D01*
X125992380Y-64586905D02*
X125992380Y-64825000D01*
X125992380Y-64825000D02*
X126040000Y-64967857D01*
X126040000Y-64967857D02*
X126135238Y-65063095D01*
X126135238Y-65063095D02*
X126230476Y-65110714D01*
X126230476Y-65110714D02*
X126420952Y-65158333D01*
X126420952Y-65158333D02*
X126563809Y-65158333D01*
X126563809Y-65158333D02*
X126754285Y-65110714D01*
X126754285Y-65110714D02*
X126849523Y-65063095D01*
X126849523Y-65063095D02*
X126944761Y-64967857D01*
X126944761Y-64967857D02*
X126992380Y-64825000D01*
X126992380Y-64825000D02*
X126992380Y-64586905D01*
X125992380Y-65491667D02*
X125992380Y-66158333D01*
X125992380Y-66158333D02*
X126992380Y-65729762D01*
X146042380Y-61786905D02*
X145042380Y-61786905D01*
X145042380Y-61786905D02*
X145042380Y-62025000D01*
X145042380Y-62025000D02*
X145090000Y-62167857D01*
X145090000Y-62167857D02*
X145185238Y-62263095D01*
X145185238Y-62263095D02*
X145280476Y-62310714D01*
X145280476Y-62310714D02*
X145470952Y-62358333D01*
X145470952Y-62358333D02*
X145613809Y-62358333D01*
X145613809Y-62358333D02*
X145804285Y-62310714D01*
X145804285Y-62310714D02*
X145899523Y-62263095D01*
X145899523Y-62263095D02*
X145994761Y-62167857D01*
X145994761Y-62167857D02*
X146042380Y-62025000D01*
X146042380Y-62025000D02*
X146042380Y-61786905D01*
X145470952Y-62929762D02*
X145423333Y-62834524D01*
X145423333Y-62834524D02*
X145375714Y-62786905D01*
X145375714Y-62786905D02*
X145280476Y-62739286D01*
X145280476Y-62739286D02*
X145232857Y-62739286D01*
X145232857Y-62739286D02*
X145137619Y-62786905D01*
X145137619Y-62786905D02*
X145090000Y-62834524D01*
X145090000Y-62834524D02*
X145042380Y-62929762D01*
X145042380Y-62929762D02*
X145042380Y-63120238D01*
X145042380Y-63120238D02*
X145090000Y-63215476D01*
X145090000Y-63215476D02*
X145137619Y-63263095D01*
X145137619Y-63263095D02*
X145232857Y-63310714D01*
X145232857Y-63310714D02*
X145280476Y-63310714D01*
X145280476Y-63310714D02*
X145375714Y-63263095D01*
X145375714Y-63263095D02*
X145423333Y-63215476D01*
X145423333Y-63215476D02*
X145470952Y-63120238D01*
X145470952Y-63120238D02*
X145470952Y-62929762D01*
X145470952Y-62929762D02*
X145518571Y-62834524D01*
X145518571Y-62834524D02*
X145566190Y-62786905D01*
X145566190Y-62786905D02*
X145661428Y-62739286D01*
X145661428Y-62739286D02*
X145851904Y-62739286D01*
X145851904Y-62739286D02*
X145947142Y-62786905D01*
X145947142Y-62786905D02*
X145994761Y-62834524D01*
X145994761Y-62834524D02*
X146042380Y-62929762D01*
X146042380Y-62929762D02*
X146042380Y-63120238D01*
X146042380Y-63120238D02*
X145994761Y-63215476D01*
X145994761Y-63215476D02*
X145947142Y-63263095D01*
X145947142Y-63263095D02*
X145851904Y-63310714D01*
X145851904Y-63310714D02*
X145661428Y-63310714D01*
X145661428Y-63310714D02*
X145566190Y-63263095D01*
X145566190Y-63263095D02*
X145518571Y-63215476D01*
X145518571Y-63215476D02*
X145470952Y-63120238D01*
X165092380Y-59286905D02*
X164092380Y-59286905D01*
X164092380Y-59286905D02*
X164092380Y-59525000D01*
X164092380Y-59525000D02*
X164140000Y-59667857D01*
X164140000Y-59667857D02*
X164235238Y-59763095D01*
X164235238Y-59763095D02*
X164330476Y-59810714D01*
X164330476Y-59810714D02*
X164520952Y-59858333D01*
X164520952Y-59858333D02*
X164663809Y-59858333D01*
X164663809Y-59858333D02*
X164854285Y-59810714D01*
X164854285Y-59810714D02*
X164949523Y-59763095D01*
X164949523Y-59763095D02*
X165044761Y-59667857D01*
X165044761Y-59667857D02*
X165092380Y-59525000D01*
X165092380Y-59525000D02*
X165092380Y-59286905D01*
X165092380Y-60334524D02*
X165092380Y-60525000D01*
X165092380Y-60525000D02*
X165044761Y-60620238D01*
X165044761Y-60620238D02*
X164997142Y-60667857D01*
X164997142Y-60667857D02*
X164854285Y-60763095D01*
X164854285Y-60763095D02*
X164663809Y-60810714D01*
X164663809Y-60810714D02*
X164282857Y-60810714D01*
X164282857Y-60810714D02*
X164187619Y-60763095D01*
X164187619Y-60763095D02*
X164140000Y-60715476D01*
X164140000Y-60715476D02*
X164092380Y-60620238D01*
X164092380Y-60620238D02*
X164092380Y-60429762D01*
X164092380Y-60429762D02*
X164140000Y-60334524D01*
X164140000Y-60334524D02*
X164187619Y-60286905D01*
X164187619Y-60286905D02*
X164282857Y-60239286D01*
X164282857Y-60239286D02*
X164520952Y-60239286D01*
X164520952Y-60239286D02*
X164616190Y-60286905D01*
X164616190Y-60286905D02*
X164663809Y-60334524D01*
X164663809Y-60334524D02*
X164711428Y-60429762D01*
X164711428Y-60429762D02*
X164711428Y-60620238D01*
X164711428Y-60620238D02*
X164663809Y-60715476D01*
X164663809Y-60715476D02*
X164616190Y-60763095D01*
X164616190Y-60763095D02*
X164520952Y-60810714D01*
X184142380Y-61185714D02*
X183142380Y-61185714D01*
X183142380Y-61185714D02*
X183142380Y-61423809D01*
X183142380Y-61423809D02*
X183190000Y-61566666D01*
X183190000Y-61566666D02*
X183285238Y-61661904D01*
X183285238Y-61661904D02*
X183380476Y-61709523D01*
X183380476Y-61709523D02*
X183570952Y-61757142D01*
X183570952Y-61757142D02*
X183713809Y-61757142D01*
X183713809Y-61757142D02*
X183904285Y-61709523D01*
X183904285Y-61709523D02*
X183999523Y-61661904D01*
X183999523Y-61661904D02*
X184094761Y-61566666D01*
X184094761Y-61566666D02*
X184142380Y-61423809D01*
X184142380Y-61423809D02*
X184142380Y-61185714D01*
X184142380Y-62709523D02*
X184142380Y-62138095D01*
X184142380Y-62423809D02*
X183142380Y-62423809D01*
X183142380Y-62423809D02*
X183285238Y-62328571D01*
X183285238Y-62328571D02*
X183380476Y-62233333D01*
X183380476Y-62233333D02*
X183428095Y-62138095D01*
X183142380Y-63328571D02*
X183142380Y-63423809D01*
X183142380Y-63423809D02*
X183190000Y-63519047D01*
X183190000Y-63519047D02*
X183237619Y-63566666D01*
X183237619Y-63566666D02*
X183332857Y-63614285D01*
X183332857Y-63614285D02*
X183523333Y-63661904D01*
X183523333Y-63661904D02*
X183761428Y-63661904D01*
X183761428Y-63661904D02*
X183951904Y-63614285D01*
X183951904Y-63614285D02*
X184047142Y-63566666D01*
X184047142Y-63566666D02*
X184094761Y-63519047D01*
X184094761Y-63519047D02*
X184142380Y-63423809D01*
X184142380Y-63423809D02*
X184142380Y-63328571D01*
X184142380Y-63328571D02*
X184094761Y-63233333D01*
X184094761Y-63233333D02*
X184047142Y-63185714D01*
X184047142Y-63185714D02*
X183951904Y-63138095D01*
X183951904Y-63138095D02*
X183761428Y-63090476D01*
X183761428Y-63090476D02*
X183523333Y-63090476D01*
X183523333Y-63090476D02*
X183332857Y-63138095D01*
X183332857Y-63138095D02*
X183237619Y-63185714D01*
X183237619Y-63185714D02*
X183190000Y-63233333D01*
X183190000Y-63233333D02*
X183142380Y-63328571D01*
X203192380Y-67085714D02*
X202192380Y-67085714D01*
X202192380Y-67085714D02*
X202192380Y-67323809D01*
X202192380Y-67323809D02*
X202240000Y-67466666D01*
X202240000Y-67466666D02*
X202335238Y-67561904D01*
X202335238Y-67561904D02*
X202430476Y-67609523D01*
X202430476Y-67609523D02*
X202620952Y-67657142D01*
X202620952Y-67657142D02*
X202763809Y-67657142D01*
X202763809Y-67657142D02*
X202954285Y-67609523D01*
X202954285Y-67609523D02*
X203049523Y-67561904D01*
X203049523Y-67561904D02*
X203144761Y-67466666D01*
X203144761Y-67466666D02*
X203192380Y-67323809D01*
X203192380Y-67323809D02*
X203192380Y-67085714D01*
X203192380Y-68609523D02*
X203192380Y-68038095D01*
X203192380Y-68323809D02*
X202192380Y-68323809D01*
X202192380Y-68323809D02*
X202335238Y-68228571D01*
X202335238Y-68228571D02*
X202430476Y-68133333D01*
X202430476Y-68133333D02*
X202478095Y-68038095D01*
X203192380Y-69561904D02*
X203192380Y-68990476D01*
X203192380Y-69276190D02*
X202192380Y-69276190D01*
X202192380Y-69276190D02*
X202335238Y-69180952D01*
X202335238Y-69180952D02*
X202430476Y-69085714D01*
X202430476Y-69085714D02*
X202478095Y-68990476D01*
X222242380Y-66210714D02*
X221242380Y-66210714D01*
X221242380Y-66210714D02*
X221242380Y-66448809D01*
X221242380Y-66448809D02*
X221290000Y-66591666D01*
X221290000Y-66591666D02*
X221385238Y-66686904D01*
X221385238Y-66686904D02*
X221480476Y-66734523D01*
X221480476Y-66734523D02*
X221670952Y-66782142D01*
X221670952Y-66782142D02*
X221813809Y-66782142D01*
X221813809Y-66782142D02*
X222004285Y-66734523D01*
X222004285Y-66734523D02*
X222099523Y-66686904D01*
X222099523Y-66686904D02*
X222194761Y-66591666D01*
X222194761Y-66591666D02*
X222242380Y-66448809D01*
X222242380Y-66448809D02*
X222242380Y-66210714D01*
X222242380Y-67734523D02*
X222242380Y-67163095D01*
X222242380Y-67448809D02*
X221242380Y-67448809D01*
X221242380Y-67448809D02*
X221385238Y-67353571D01*
X221385238Y-67353571D02*
X221480476Y-67258333D01*
X221480476Y-67258333D02*
X221528095Y-67163095D01*
X221337619Y-68115476D02*
X221290000Y-68163095D01*
X221290000Y-68163095D02*
X221242380Y-68258333D01*
X221242380Y-68258333D02*
X221242380Y-68496428D01*
X221242380Y-68496428D02*
X221290000Y-68591666D01*
X221290000Y-68591666D02*
X221337619Y-68639285D01*
X221337619Y-68639285D02*
X221432857Y-68686904D01*
X221432857Y-68686904D02*
X221528095Y-68686904D01*
X221528095Y-68686904D02*
X221670952Y-68639285D01*
X221670952Y-68639285D02*
X222242380Y-68067857D01*
X222242380Y-68067857D02*
X222242380Y-68686904D01*
X122697565Y-125045633D02*
X123663491Y-124786814D01*
X123663491Y-124786814D02*
X123601867Y-124556831D01*
X123601867Y-124556831D02*
X123518897Y-124431167D01*
X123518897Y-124431167D02*
X123402254Y-124363823D01*
X123402254Y-124363823D02*
X123297937Y-124342476D01*
X123297937Y-124342476D02*
X123101626Y-124345778D01*
X123101626Y-124345778D02*
X122963637Y-124382753D01*
X122963637Y-124382753D02*
X122791975Y-124478048D01*
X122791975Y-124478048D02*
X122712307Y-124548694D01*
X122712307Y-124548694D02*
X122644964Y-124665336D01*
X122644964Y-124665336D02*
X122635941Y-124815650D01*
X122635941Y-124815650D02*
X122697565Y-125045633D01*
X123325004Y-123891534D02*
X123358675Y-123833213D01*
X123358675Y-123833213D02*
X123380022Y-123728895D01*
X123380022Y-123728895D02*
X123318399Y-123498913D01*
X123318399Y-123498913D02*
X123247753Y-123419244D01*
X123247753Y-123419244D02*
X123189432Y-123385573D01*
X123189432Y-123385573D02*
X123085114Y-123364226D01*
X123085114Y-123364226D02*
X122993121Y-123388875D01*
X122993121Y-123388875D02*
X122867456Y-123471846D01*
X122867456Y-123471846D02*
X122463395Y-124171700D01*
X122463395Y-124171700D02*
X122303174Y-123573746D01*
X123182827Y-122992951D02*
X123010281Y-122349001D01*
X123010281Y-122349001D02*
X122155277Y-123021788D01*
X165092380Y-77735714D02*
X164092380Y-77735714D01*
X164092380Y-77735714D02*
X164092380Y-77973809D01*
X164092380Y-77973809D02*
X164140000Y-78116666D01*
X164140000Y-78116666D02*
X164235238Y-78211904D01*
X164235238Y-78211904D02*
X164330476Y-78259523D01*
X164330476Y-78259523D02*
X164520952Y-78307142D01*
X164520952Y-78307142D02*
X164663809Y-78307142D01*
X164663809Y-78307142D02*
X164854285Y-78259523D01*
X164854285Y-78259523D02*
X164949523Y-78211904D01*
X164949523Y-78211904D02*
X165044761Y-78116666D01*
X165044761Y-78116666D02*
X165092380Y-77973809D01*
X165092380Y-77973809D02*
X165092380Y-77735714D01*
X165092380Y-79259523D02*
X165092380Y-78688095D01*
X165092380Y-78973809D02*
X164092380Y-78973809D01*
X164092380Y-78973809D02*
X164235238Y-78878571D01*
X164235238Y-78878571D02*
X164330476Y-78783333D01*
X164330476Y-78783333D02*
X164378095Y-78688095D01*
X164092380Y-80164285D02*
X164092380Y-79688095D01*
X164092380Y-79688095D02*
X164568571Y-79640476D01*
X164568571Y-79640476D02*
X164520952Y-79688095D01*
X164520952Y-79688095D02*
X164473333Y-79783333D01*
X164473333Y-79783333D02*
X164473333Y-80021428D01*
X164473333Y-80021428D02*
X164520952Y-80116666D01*
X164520952Y-80116666D02*
X164568571Y-80164285D01*
X164568571Y-80164285D02*
X164663809Y-80211904D01*
X164663809Y-80211904D02*
X164901904Y-80211904D01*
X164901904Y-80211904D02*
X164997142Y-80164285D01*
X164997142Y-80164285D02*
X165044761Y-80116666D01*
X165044761Y-80116666D02*
X165092380Y-80021428D01*
X165092380Y-80021428D02*
X165092380Y-79783333D01*
X165092380Y-79783333D02*
X165044761Y-79688095D01*
X165044761Y-79688095D02*
X164997142Y-79640476D01*
X203192380Y-85135714D02*
X202192380Y-85135714D01*
X202192380Y-85135714D02*
X202192380Y-85373809D01*
X202192380Y-85373809D02*
X202240000Y-85516666D01*
X202240000Y-85516666D02*
X202335238Y-85611904D01*
X202335238Y-85611904D02*
X202430476Y-85659523D01*
X202430476Y-85659523D02*
X202620952Y-85707142D01*
X202620952Y-85707142D02*
X202763809Y-85707142D01*
X202763809Y-85707142D02*
X202954285Y-85659523D01*
X202954285Y-85659523D02*
X203049523Y-85611904D01*
X203049523Y-85611904D02*
X203144761Y-85516666D01*
X203144761Y-85516666D02*
X203192380Y-85373809D01*
X203192380Y-85373809D02*
X203192380Y-85135714D01*
X203192380Y-86659523D02*
X203192380Y-86088095D01*
X203192380Y-86373809D02*
X202192380Y-86373809D01*
X202192380Y-86373809D02*
X202335238Y-86278571D01*
X202335238Y-86278571D02*
X202430476Y-86183333D01*
X202430476Y-86183333D02*
X202478095Y-86088095D01*
X202192380Y-86992857D02*
X202192380Y-87659523D01*
X202192380Y-87659523D02*
X203192380Y-87230952D01*
X222242380Y-85260714D02*
X221242380Y-85260714D01*
X221242380Y-85260714D02*
X221242380Y-85498809D01*
X221242380Y-85498809D02*
X221290000Y-85641666D01*
X221290000Y-85641666D02*
X221385238Y-85736904D01*
X221385238Y-85736904D02*
X221480476Y-85784523D01*
X221480476Y-85784523D02*
X221670952Y-85832142D01*
X221670952Y-85832142D02*
X221813809Y-85832142D01*
X221813809Y-85832142D02*
X222004285Y-85784523D01*
X222004285Y-85784523D02*
X222099523Y-85736904D01*
X222099523Y-85736904D02*
X222194761Y-85641666D01*
X222194761Y-85641666D02*
X222242380Y-85498809D01*
X222242380Y-85498809D02*
X222242380Y-85260714D01*
X222242380Y-86784523D02*
X222242380Y-86213095D01*
X222242380Y-86498809D02*
X221242380Y-86498809D01*
X221242380Y-86498809D02*
X221385238Y-86403571D01*
X221385238Y-86403571D02*
X221480476Y-86308333D01*
X221480476Y-86308333D02*
X221528095Y-86213095D01*
X221670952Y-87355952D02*
X221623333Y-87260714D01*
X221623333Y-87260714D02*
X221575714Y-87213095D01*
X221575714Y-87213095D02*
X221480476Y-87165476D01*
X221480476Y-87165476D02*
X221432857Y-87165476D01*
X221432857Y-87165476D02*
X221337619Y-87213095D01*
X221337619Y-87213095D02*
X221290000Y-87260714D01*
X221290000Y-87260714D02*
X221242380Y-87355952D01*
X221242380Y-87355952D02*
X221242380Y-87546428D01*
X221242380Y-87546428D02*
X221290000Y-87641666D01*
X221290000Y-87641666D02*
X221337619Y-87689285D01*
X221337619Y-87689285D02*
X221432857Y-87736904D01*
X221432857Y-87736904D02*
X221480476Y-87736904D01*
X221480476Y-87736904D02*
X221575714Y-87689285D01*
X221575714Y-87689285D02*
X221623333Y-87641666D01*
X221623333Y-87641666D02*
X221670952Y-87546428D01*
X221670952Y-87546428D02*
X221670952Y-87355952D01*
X221670952Y-87355952D02*
X221718571Y-87260714D01*
X221718571Y-87260714D02*
X221766190Y-87213095D01*
X221766190Y-87213095D02*
X221861428Y-87165476D01*
X221861428Y-87165476D02*
X222051904Y-87165476D01*
X222051904Y-87165476D02*
X222147142Y-87213095D01*
X222147142Y-87213095D02*
X222194761Y-87260714D01*
X222194761Y-87260714D02*
X222242380Y-87355952D01*
X222242380Y-87355952D02*
X222242380Y-87546428D01*
X222242380Y-87546428D02*
X222194761Y-87641666D01*
X222194761Y-87641666D02*
X222147142Y-87689285D01*
X222147142Y-87689285D02*
X222051904Y-87736904D01*
X222051904Y-87736904D02*
X221861428Y-87736904D01*
X221861428Y-87736904D02*
X221766190Y-87689285D01*
X221766190Y-87689285D02*
X221718571Y-87641666D01*
X221718571Y-87641666D02*
X221670952Y-87546428D01*
X146042380Y-118460714D02*
X145042380Y-118460714D01*
X145042380Y-118460714D02*
X145042380Y-118698809D01*
X145042380Y-118698809D02*
X145090000Y-118841666D01*
X145090000Y-118841666D02*
X145185238Y-118936904D01*
X145185238Y-118936904D02*
X145280476Y-118984523D01*
X145280476Y-118984523D02*
X145470952Y-119032142D01*
X145470952Y-119032142D02*
X145613809Y-119032142D01*
X145613809Y-119032142D02*
X145804285Y-118984523D01*
X145804285Y-118984523D02*
X145899523Y-118936904D01*
X145899523Y-118936904D02*
X145994761Y-118841666D01*
X145994761Y-118841666D02*
X146042380Y-118698809D01*
X146042380Y-118698809D02*
X146042380Y-118460714D01*
X145137619Y-119413095D02*
X145090000Y-119460714D01*
X145090000Y-119460714D02*
X145042380Y-119555952D01*
X145042380Y-119555952D02*
X145042380Y-119794047D01*
X145042380Y-119794047D02*
X145090000Y-119889285D01*
X145090000Y-119889285D02*
X145137619Y-119936904D01*
X145137619Y-119936904D02*
X145232857Y-119984523D01*
X145232857Y-119984523D02*
X145328095Y-119984523D01*
X145328095Y-119984523D02*
X145470952Y-119936904D01*
X145470952Y-119936904D02*
X146042380Y-119365476D01*
X146042380Y-119365476D02*
X146042380Y-119984523D01*
X145470952Y-120555952D02*
X145423333Y-120460714D01*
X145423333Y-120460714D02*
X145375714Y-120413095D01*
X145375714Y-120413095D02*
X145280476Y-120365476D01*
X145280476Y-120365476D02*
X145232857Y-120365476D01*
X145232857Y-120365476D02*
X145137619Y-120413095D01*
X145137619Y-120413095D02*
X145090000Y-120460714D01*
X145090000Y-120460714D02*
X145042380Y-120555952D01*
X145042380Y-120555952D02*
X145042380Y-120746428D01*
X145042380Y-120746428D02*
X145090000Y-120841666D01*
X145090000Y-120841666D02*
X145137619Y-120889285D01*
X145137619Y-120889285D02*
X145232857Y-120936904D01*
X145232857Y-120936904D02*
X145280476Y-120936904D01*
X145280476Y-120936904D02*
X145375714Y-120889285D01*
X145375714Y-120889285D02*
X145423333Y-120841666D01*
X145423333Y-120841666D02*
X145470952Y-120746428D01*
X145470952Y-120746428D02*
X145470952Y-120555952D01*
X145470952Y-120555952D02*
X145518571Y-120460714D01*
X145518571Y-120460714D02*
X145566190Y-120413095D01*
X145566190Y-120413095D02*
X145661428Y-120365476D01*
X145661428Y-120365476D02*
X145851904Y-120365476D01*
X145851904Y-120365476D02*
X145947142Y-120413095D01*
X145947142Y-120413095D02*
X145994761Y-120460714D01*
X145994761Y-120460714D02*
X146042380Y-120555952D01*
X146042380Y-120555952D02*
X146042380Y-120746428D01*
X146042380Y-120746428D02*
X145994761Y-120841666D01*
X145994761Y-120841666D02*
X145947142Y-120889285D01*
X145947142Y-120889285D02*
X145851904Y-120936904D01*
X145851904Y-120936904D02*
X145661428Y-120936904D01*
X145661428Y-120936904D02*
X145566190Y-120889285D01*
X145566190Y-120889285D02*
X145518571Y-120841666D01*
X145518571Y-120841666D02*
X145470952Y-120746428D01*
X165092380Y-115960714D02*
X164092380Y-115960714D01*
X164092380Y-115960714D02*
X164092380Y-116198809D01*
X164092380Y-116198809D02*
X164140000Y-116341666D01*
X164140000Y-116341666D02*
X164235238Y-116436904D01*
X164235238Y-116436904D02*
X164330476Y-116484523D01*
X164330476Y-116484523D02*
X164520952Y-116532142D01*
X164520952Y-116532142D02*
X164663809Y-116532142D01*
X164663809Y-116532142D02*
X164854285Y-116484523D01*
X164854285Y-116484523D02*
X164949523Y-116436904D01*
X164949523Y-116436904D02*
X165044761Y-116341666D01*
X165044761Y-116341666D02*
X165092380Y-116198809D01*
X165092380Y-116198809D02*
X165092380Y-115960714D01*
X164187619Y-116913095D02*
X164140000Y-116960714D01*
X164140000Y-116960714D02*
X164092380Y-117055952D01*
X164092380Y-117055952D02*
X164092380Y-117294047D01*
X164092380Y-117294047D02*
X164140000Y-117389285D01*
X164140000Y-117389285D02*
X164187619Y-117436904D01*
X164187619Y-117436904D02*
X164282857Y-117484523D01*
X164282857Y-117484523D02*
X164378095Y-117484523D01*
X164378095Y-117484523D02*
X164520952Y-117436904D01*
X164520952Y-117436904D02*
X165092380Y-116865476D01*
X165092380Y-116865476D02*
X165092380Y-117484523D01*
X165092380Y-117960714D02*
X165092380Y-118151190D01*
X165092380Y-118151190D02*
X165044761Y-118246428D01*
X165044761Y-118246428D02*
X164997142Y-118294047D01*
X164997142Y-118294047D02*
X164854285Y-118389285D01*
X164854285Y-118389285D02*
X164663809Y-118436904D01*
X164663809Y-118436904D02*
X164282857Y-118436904D01*
X164282857Y-118436904D02*
X164187619Y-118389285D01*
X164187619Y-118389285D02*
X164140000Y-118341666D01*
X164140000Y-118341666D02*
X164092380Y-118246428D01*
X164092380Y-118246428D02*
X164092380Y-118055952D01*
X164092380Y-118055952D02*
X164140000Y-117960714D01*
X164140000Y-117960714D02*
X164187619Y-117913095D01*
X164187619Y-117913095D02*
X164282857Y-117865476D01*
X164282857Y-117865476D02*
X164520952Y-117865476D01*
X164520952Y-117865476D02*
X164616190Y-117913095D01*
X164616190Y-117913095D02*
X164663809Y-117960714D01*
X164663809Y-117960714D02*
X164711428Y-118055952D01*
X164711428Y-118055952D02*
X164711428Y-118246428D01*
X164711428Y-118246428D02*
X164663809Y-118341666D01*
X164663809Y-118341666D02*
X164616190Y-118389285D01*
X164616190Y-118389285D02*
X164520952Y-118436904D01*
X222242380Y-104310714D02*
X221242380Y-104310714D01*
X221242380Y-104310714D02*
X221242380Y-104548809D01*
X221242380Y-104548809D02*
X221290000Y-104691666D01*
X221290000Y-104691666D02*
X221385238Y-104786904D01*
X221385238Y-104786904D02*
X221480476Y-104834523D01*
X221480476Y-104834523D02*
X221670952Y-104882142D01*
X221670952Y-104882142D02*
X221813809Y-104882142D01*
X221813809Y-104882142D02*
X222004285Y-104834523D01*
X222004285Y-104834523D02*
X222099523Y-104786904D01*
X222099523Y-104786904D02*
X222194761Y-104691666D01*
X222194761Y-104691666D02*
X222242380Y-104548809D01*
X222242380Y-104548809D02*
X222242380Y-104310714D01*
X221337619Y-105263095D02*
X221290000Y-105310714D01*
X221290000Y-105310714D02*
X221242380Y-105405952D01*
X221242380Y-105405952D02*
X221242380Y-105644047D01*
X221242380Y-105644047D02*
X221290000Y-105739285D01*
X221290000Y-105739285D02*
X221337619Y-105786904D01*
X221337619Y-105786904D02*
X221432857Y-105834523D01*
X221432857Y-105834523D02*
X221528095Y-105834523D01*
X221528095Y-105834523D02*
X221670952Y-105786904D01*
X221670952Y-105786904D02*
X222242380Y-105215476D01*
X222242380Y-105215476D02*
X222242380Y-105834523D01*
X221575714Y-106691666D02*
X222242380Y-106691666D01*
X221194761Y-106453571D02*
X221909047Y-106215476D01*
X221909047Y-106215476D02*
X221909047Y-106834523D01*
X146042380Y-99410714D02*
X145042380Y-99410714D01*
X145042380Y-99410714D02*
X145042380Y-99648809D01*
X145042380Y-99648809D02*
X145090000Y-99791666D01*
X145090000Y-99791666D02*
X145185238Y-99886904D01*
X145185238Y-99886904D02*
X145280476Y-99934523D01*
X145280476Y-99934523D02*
X145470952Y-99982142D01*
X145470952Y-99982142D02*
X145613809Y-99982142D01*
X145613809Y-99982142D02*
X145804285Y-99934523D01*
X145804285Y-99934523D02*
X145899523Y-99886904D01*
X145899523Y-99886904D02*
X145994761Y-99791666D01*
X145994761Y-99791666D02*
X146042380Y-99648809D01*
X146042380Y-99648809D02*
X146042380Y-99410714D01*
X145137619Y-100363095D02*
X145090000Y-100410714D01*
X145090000Y-100410714D02*
X145042380Y-100505952D01*
X145042380Y-100505952D02*
X145042380Y-100744047D01*
X145042380Y-100744047D02*
X145090000Y-100839285D01*
X145090000Y-100839285D02*
X145137619Y-100886904D01*
X145137619Y-100886904D02*
X145232857Y-100934523D01*
X145232857Y-100934523D02*
X145328095Y-100934523D01*
X145328095Y-100934523D02*
X145470952Y-100886904D01*
X145470952Y-100886904D02*
X146042380Y-100315476D01*
X146042380Y-100315476D02*
X146042380Y-100934523D01*
X145042380Y-101553571D02*
X145042380Y-101648809D01*
X145042380Y-101648809D02*
X145090000Y-101744047D01*
X145090000Y-101744047D02*
X145137619Y-101791666D01*
X145137619Y-101791666D02*
X145232857Y-101839285D01*
X145232857Y-101839285D02*
X145423333Y-101886904D01*
X145423333Y-101886904D02*
X145661428Y-101886904D01*
X145661428Y-101886904D02*
X145851904Y-101839285D01*
X145851904Y-101839285D02*
X145947142Y-101791666D01*
X145947142Y-101791666D02*
X145994761Y-101744047D01*
X145994761Y-101744047D02*
X146042380Y-101648809D01*
X146042380Y-101648809D02*
X146042380Y-101553571D01*
X146042380Y-101553571D02*
X145994761Y-101458333D01*
X145994761Y-101458333D02*
X145947142Y-101410714D01*
X145947142Y-101410714D02*
X145851904Y-101363095D01*
X145851904Y-101363095D02*
X145661428Y-101315476D01*
X145661428Y-101315476D02*
X145423333Y-101315476D01*
X145423333Y-101315476D02*
X145232857Y-101363095D01*
X145232857Y-101363095D02*
X145137619Y-101410714D01*
X145137619Y-101410714D02*
X145090000Y-101458333D01*
X145090000Y-101458333D02*
X145042380Y-101553571D01*
X165092380Y-96910714D02*
X164092380Y-96910714D01*
X164092380Y-96910714D02*
X164092380Y-97148809D01*
X164092380Y-97148809D02*
X164140000Y-97291666D01*
X164140000Y-97291666D02*
X164235238Y-97386904D01*
X164235238Y-97386904D02*
X164330476Y-97434523D01*
X164330476Y-97434523D02*
X164520952Y-97482142D01*
X164520952Y-97482142D02*
X164663809Y-97482142D01*
X164663809Y-97482142D02*
X164854285Y-97434523D01*
X164854285Y-97434523D02*
X164949523Y-97386904D01*
X164949523Y-97386904D02*
X165044761Y-97291666D01*
X165044761Y-97291666D02*
X165092380Y-97148809D01*
X165092380Y-97148809D02*
X165092380Y-96910714D01*
X164187619Y-97863095D02*
X164140000Y-97910714D01*
X164140000Y-97910714D02*
X164092380Y-98005952D01*
X164092380Y-98005952D02*
X164092380Y-98244047D01*
X164092380Y-98244047D02*
X164140000Y-98339285D01*
X164140000Y-98339285D02*
X164187619Y-98386904D01*
X164187619Y-98386904D02*
X164282857Y-98434523D01*
X164282857Y-98434523D02*
X164378095Y-98434523D01*
X164378095Y-98434523D02*
X164520952Y-98386904D01*
X164520952Y-98386904D02*
X165092380Y-97815476D01*
X165092380Y-97815476D02*
X165092380Y-98434523D01*
X165092380Y-99386904D02*
X165092380Y-98815476D01*
X165092380Y-99101190D02*
X164092380Y-99101190D01*
X164092380Y-99101190D02*
X164235238Y-99005952D01*
X164235238Y-99005952D02*
X164330476Y-98910714D01*
X164330476Y-98910714D02*
X164378095Y-98815476D01*
X184142380Y-99285714D02*
X183142380Y-99285714D01*
X183142380Y-99285714D02*
X183142380Y-99523809D01*
X183142380Y-99523809D02*
X183190000Y-99666666D01*
X183190000Y-99666666D02*
X183285238Y-99761904D01*
X183285238Y-99761904D02*
X183380476Y-99809523D01*
X183380476Y-99809523D02*
X183570952Y-99857142D01*
X183570952Y-99857142D02*
X183713809Y-99857142D01*
X183713809Y-99857142D02*
X183904285Y-99809523D01*
X183904285Y-99809523D02*
X183999523Y-99761904D01*
X183999523Y-99761904D02*
X184094761Y-99666666D01*
X184094761Y-99666666D02*
X184142380Y-99523809D01*
X184142380Y-99523809D02*
X184142380Y-99285714D01*
X183237619Y-100238095D02*
X183190000Y-100285714D01*
X183190000Y-100285714D02*
X183142380Y-100380952D01*
X183142380Y-100380952D02*
X183142380Y-100619047D01*
X183142380Y-100619047D02*
X183190000Y-100714285D01*
X183190000Y-100714285D02*
X183237619Y-100761904D01*
X183237619Y-100761904D02*
X183332857Y-100809523D01*
X183332857Y-100809523D02*
X183428095Y-100809523D01*
X183428095Y-100809523D02*
X183570952Y-100761904D01*
X183570952Y-100761904D02*
X184142380Y-100190476D01*
X184142380Y-100190476D02*
X184142380Y-100809523D01*
X183237619Y-101190476D02*
X183190000Y-101238095D01*
X183190000Y-101238095D02*
X183142380Y-101333333D01*
X183142380Y-101333333D02*
X183142380Y-101571428D01*
X183142380Y-101571428D02*
X183190000Y-101666666D01*
X183190000Y-101666666D02*
X183237619Y-101714285D01*
X183237619Y-101714285D02*
X183332857Y-101761904D01*
X183332857Y-101761904D02*
X183428095Y-101761904D01*
X183428095Y-101761904D02*
X183570952Y-101714285D01*
X183570952Y-101714285D02*
X184142380Y-101142857D01*
X184142380Y-101142857D02*
X184142380Y-101761904D01*
X203192380Y-105185714D02*
X202192380Y-105185714D01*
X202192380Y-105185714D02*
X202192380Y-105423809D01*
X202192380Y-105423809D02*
X202240000Y-105566666D01*
X202240000Y-105566666D02*
X202335238Y-105661904D01*
X202335238Y-105661904D02*
X202430476Y-105709523D01*
X202430476Y-105709523D02*
X202620952Y-105757142D01*
X202620952Y-105757142D02*
X202763809Y-105757142D01*
X202763809Y-105757142D02*
X202954285Y-105709523D01*
X202954285Y-105709523D02*
X203049523Y-105661904D01*
X203049523Y-105661904D02*
X203144761Y-105566666D01*
X203144761Y-105566666D02*
X203192380Y-105423809D01*
X203192380Y-105423809D02*
X203192380Y-105185714D01*
X202287619Y-106138095D02*
X202240000Y-106185714D01*
X202240000Y-106185714D02*
X202192380Y-106280952D01*
X202192380Y-106280952D02*
X202192380Y-106519047D01*
X202192380Y-106519047D02*
X202240000Y-106614285D01*
X202240000Y-106614285D02*
X202287619Y-106661904D01*
X202287619Y-106661904D02*
X202382857Y-106709523D01*
X202382857Y-106709523D02*
X202478095Y-106709523D01*
X202478095Y-106709523D02*
X202620952Y-106661904D01*
X202620952Y-106661904D02*
X203192380Y-106090476D01*
X203192380Y-106090476D02*
X203192380Y-106709523D01*
X202192380Y-107042857D02*
X202192380Y-107661904D01*
X202192380Y-107661904D02*
X202573333Y-107328571D01*
X202573333Y-107328571D02*
X202573333Y-107471428D01*
X202573333Y-107471428D02*
X202620952Y-107566666D01*
X202620952Y-107566666D02*
X202668571Y-107614285D01*
X202668571Y-107614285D02*
X202763809Y-107661904D01*
X202763809Y-107661904D02*
X203001904Y-107661904D01*
X203001904Y-107661904D02*
X203097142Y-107614285D01*
X203097142Y-107614285D02*
X203144761Y-107566666D01*
X203144761Y-107566666D02*
X203192380Y-107471428D01*
X203192380Y-107471428D02*
X203192380Y-107185714D01*
X203192380Y-107185714D02*
X203144761Y-107090476D01*
X203144761Y-107090476D02*
X203097142Y-107042857D01*
X146042380Y-80360714D02*
X145042380Y-80360714D01*
X145042380Y-80360714D02*
X145042380Y-80598809D01*
X145042380Y-80598809D02*
X145090000Y-80741666D01*
X145090000Y-80741666D02*
X145185238Y-80836904D01*
X145185238Y-80836904D02*
X145280476Y-80884523D01*
X145280476Y-80884523D02*
X145470952Y-80932142D01*
X145470952Y-80932142D02*
X145613809Y-80932142D01*
X145613809Y-80932142D02*
X145804285Y-80884523D01*
X145804285Y-80884523D02*
X145899523Y-80836904D01*
X145899523Y-80836904D02*
X145994761Y-80741666D01*
X145994761Y-80741666D02*
X146042380Y-80598809D01*
X146042380Y-80598809D02*
X146042380Y-80360714D01*
X146042380Y-81884523D02*
X146042380Y-81313095D01*
X146042380Y-81598809D02*
X145042380Y-81598809D01*
X145042380Y-81598809D02*
X145185238Y-81503571D01*
X145185238Y-81503571D02*
X145280476Y-81408333D01*
X145280476Y-81408333D02*
X145328095Y-81313095D01*
X145375714Y-82741666D02*
X146042380Y-82741666D01*
X144994761Y-82503571D02*
X145709047Y-82265476D01*
X145709047Y-82265476D02*
X145709047Y-82884523D01*
X183642380Y-117460714D02*
X182642380Y-117460714D01*
X182642380Y-117460714D02*
X182642380Y-117698809D01*
X182642380Y-117698809D02*
X182690000Y-117841666D01*
X182690000Y-117841666D02*
X182785238Y-117936904D01*
X182785238Y-117936904D02*
X182880476Y-117984523D01*
X182880476Y-117984523D02*
X183070952Y-118032142D01*
X183070952Y-118032142D02*
X183213809Y-118032142D01*
X183213809Y-118032142D02*
X183404285Y-117984523D01*
X183404285Y-117984523D02*
X183499523Y-117936904D01*
X183499523Y-117936904D02*
X183594761Y-117841666D01*
X183594761Y-117841666D02*
X183642380Y-117698809D01*
X183642380Y-117698809D02*
X183642380Y-117460714D01*
X182642380Y-118365476D02*
X182642380Y-118984523D01*
X182642380Y-118984523D02*
X183023333Y-118651190D01*
X183023333Y-118651190D02*
X183023333Y-118794047D01*
X183023333Y-118794047D02*
X183070952Y-118889285D01*
X183070952Y-118889285D02*
X183118571Y-118936904D01*
X183118571Y-118936904D02*
X183213809Y-118984523D01*
X183213809Y-118984523D02*
X183451904Y-118984523D01*
X183451904Y-118984523D02*
X183547142Y-118936904D01*
X183547142Y-118936904D02*
X183594761Y-118889285D01*
X183594761Y-118889285D02*
X183642380Y-118794047D01*
X183642380Y-118794047D02*
X183642380Y-118508333D01*
X183642380Y-118508333D02*
X183594761Y-118413095D01*
X183594761Y-118413095D02*
X183547142Y-118365476D01*
X182642380Y-119603571D02*
X182642380Y-119698809D01*
X182642380Y-119698809D02*
X182690000Y-119794047D01*
X182690000Y-119794047D02*
X182737619Y-119841666D01*
X182737619Y-119841666D02*
X182832857Y-119889285D01*
X182832857Y-119889285D02*
X183023333Y-119936904D01*
X183023333Y-119936904D02*
X183261428Y-119936904D01*
X183261428Y-119936904D02*
X183451904Y-119889285D01*
X183451904Y-119889285D02*
X183547142Y-119841666D01*
X183547142Y-119841666D02*
X183594761Y-119794047D01*
X183594761Y-119794047D02*
X183642380Y-119698809D01*
X183642380Y-119698809D02*
X183642380Y-119603571D01*
X183642380Y-119603571D02*
X183594761Y-119508333D01*
X183594761Y-119508333D02*
X183547142Y-119460714D01*
X183547142Y-119460714D02*
X183451904Y-119413095D01*
X183451904Y-119413095D02*
X183261428Y-119365476D01*
X183261428Y-119365476D02*
X183023333Y-119365476D01*
X183023333Y-119365476D02*
X182832857Y-119413095D01*
X182832857Y-119413095D02*
X182737619Y-119460714D01*
X182737619Y-119460714D02*
X182690000Y-119508333D01*
X182690000Y-119508333D02*
X182642380Y-119603571D01*
X184142380Y-80235714D02*
X183142380Y-80235714D01*
X183142380Y-80235714D02*
X183142380Y-80473809D01*
X183142380Y-80473809D02*
X183190000Y-80616666D01*
X183190000Y-80616666D02*
X183285238Y-80711904D01*
X183285238Y-80711904D02*
X183380476Y-80759523D01*
X183380476Y-80759523D02*
X183570952Y-80807142D01*
X183570952Y-80807142D02*
X183713809Y-80807142D01*
X183713809Y-80807142D02*
X183904285Y-80759523D01*
X183904285Y-80759523D02*
X183999523Y-80711904D01*
X183999523Y-80711904D02*
X184094761Y-80616666D01*
X184094761Y-80616666D02*
X184142380Y-80473809D01*
X184142380Y-80473809D02*
X184142380Y-80235714D01*
X184142380Y-81759523D02*
X184142380Y-81188095D01*
X184142380Y-81473809D02*
X183142380Y-81473809D01*
X183142380Y-81473809D02*
X183285238Y-81378571D01*
X183285238Y-81378571D02*
X183380476Y-81283333D01*
X183380476Y-81283333D02*
X183428095Y-81188095D01*
X183142380Y-82616666D02*
X183142380Y-82426190D01*
X183142380Y-82426190D02*
X183190000Y-82330952D01*
X183190000Y-82330952D02*
X183237619Y-82283333D01*
X183237619Y-82283333D02*
X183380476Y-82188095D01*
X183380476Y-82188095D02*
X183570952Y-82140476D01*
X183570952Y-82140476D02*
X183951904Y-82140476D01*
X183951904Y-82140476D02*
X184047142Y-82188095D01*
X184047142Y-82188095D02*
X184094761Y-82235714D01*
X184094761Y-82235714D02*
X184142380Y-82330952D01*
X184142380Y-82330952D02*
X184142380Y-82521428D01*
X184142380Y-82521428D02*
X184094761Y-82616666D01*
X184094761Y-82616666D02*
X184047142Y-82664285D01*
X184047142Y-82664285D02*
X183951904Y-82711904D01*
X183951904Y-82711904D02*
X183713809Y-82711904D01*
X183713809Y-82711904D02*
X183618571Y-82664285D01*
X183618571Y-82664285D02*
X183570952Y-82616666D01*
X183570952Y-82616666D02*
X183523333Y-82521428D01*
X183523333Y-82521428D02*
X183523333Y-82330952D01*
X183523333Y-82330952D02*
X183570952Y-82235714D01*
X183570952Y-82235714D02*
X183618571Y-82188095D01*
X183618571Y-82188095D02*
X183713809Y-82140476D01*
G36*
X100390351Y-50213172D02*
G01*
X100502933Y-50810363D01*
X100918346Y-50981610D01*
X101333760Y-51152857D01*
X101832117Y-50813978D01*
X101930753Y-50747170D01*
X102061514Y-50659479D01*
X102174725Y-50584580D01*
X102264506Y-50526320D01*
X102324978Y-50488545D01*
X102350261Y-50475098D01*
X102365789Y-50484661D01*
X102412204Y-50524730D01*
X102482447Y-50590487D01*
X102570565Y-50675895D01*
X102670606Y-50774915D01*
X102776619Y-50881509D01*
X102882652Y-50989640D01*
X102982752Y-51093268D01*
X103070968Y-51186358D01*
X103141349Y-51262869D01*
X103187942Y-51316765D01*
X103204796Y-51342007D01*
X103200875Y-51352852D01*
X103173729Y-51401228D01*
X103124156Y-51480842D01*
X103056176Y-51585454D01*
X102973808Y-51708822D01*
X102881070Y-51844706D01*
X102830177Y-51918815D01*
X102742629Y-52047835D01*
X102667570Y-52160434D01*
X102609002Y-52250505D01*
X102570926Y-52311942D01*
X102557345Y-52338640D01*
X102557568Y-52340119D01*
X102569548Y-52373962D01*
X102597033Y-52443071D01*
X102636191Y-52538416D01*
X102683191Y-52650972D01*
X102734202Y-52771710D01*
X102785393Y-52891602D01*
X102832932Y-53001622D01*
X102872988Y-53092740D01*
X102901730Y-53155931D01*
X102915327Y-53182165D01*
X102923372Y-53184492D01*
X102972252Y-53194988D01*
X103059369Y-53212376D01*
X103177750Y-53235295D01*
X103320421Y-53262389D01*
X103480409Y-53292296D01*
X103564732Y-53308153D01*
X103719500Y-53338407D01*
X103854821Y-53366347D01*
X103963299Y-53390369D01*
X104037537Y-53408868D01*
X104070139Y-53420238D01*
X104075995Y-53431511D01*
X104085709Y-53486586D01*
X104093341Y-53578317D01*
X104098897Y-53698073D01*
X104102383Y-53837221D01*
X104103804Y-53987131D01*
X104103167Y-54139172D01*
X104100477Y-54284712D01*
X104095741Y-54415121D01*
X104088964Y-54521766D01*
X104080153Y-54596018D01*
X104069312Y-54629245D01*
X104062734Y-54632993D01*
X104013672Y-54649069D01*
X103928564Y-54670338D01*
X103817246Y-54694472D01*
X103689557Y-54719143D01*
X103646474Y-54727000D01*
X103447490Y-54763542D01*
X103291105Y-54792910D01*
X103171900Y-54816321D01*
X103084454Y-54834994D01*
X103023345Y-54850146D01*
X102983152Y-54862995D01*
X102958455Y-54874758D01*
X102943833Y-54886653D01*
X102942133Y-54888649D01*
X102918221Y-54930271D01*
X102882836Y-55006430D01*
X102839409Y-55108193D01*
X102791368Y-55226624D01*
X102742142Y-55352789D01*
X102695162Y-55477754D01*
X102653857Y-55592584D01*
X102621656Y-55688344D01*
X102601988Y-55756100D01*
X102598282Y-55786917D01*
X102600760Y-55790915D01*
X102626406Y-55829584D01*
X102674637Y-55900907D01*
X102740979Y-55998314D01*
X102820962Y-56115234D01*
X102910114Y-56245098D01*
X102934582Y-56280828D01*
X103020620Y-56408990D01*
X103094975Y-56523608D01*
X103153405Y-56617887D01*
X103191664Y-56685029D01*
X103205509Y-56718235D01*
X103202526Y-56726965D01*
X103171428Y-56769982D01*
X103110072Y-56840230D01*
X103022854Y-56932979D01*
X102914166Y-57043502D01*
X102788402Y-57167071D01*
X102716517Y-57236235D01*
X102602856Y-57343957D01*
X102503374Y-57436225D01*
X102423412Y-57508181D01*
X102368312Y-57554968D01*
X102343415Y-57571727D01*
X102326310Y-57565515D01*
X102273646Y-57536126D01*
X102197166Y-57488063D01*
X102106846Y-57427412D01*
X102042628Y-57383153D01*
X101914422Y-57295261D01*
X101777611Y-57201915D01*
X101652649Y-57117091D01*
X101407854Y-56951515D01*
X101202366Y-57062620D01*
X101153980Y-57088265D01*
X101065987Y-57132130D01*
X100997940Y-57162414D01*
X100961573Y-57173706D01*
X100949671Y-57159205D01*
X100920117Y-57103992D01*
X100876465Y-57012962D01*
X100821143Y-56891892D01*
X100756580Y-56746559D01*
X100685206Y-56582741D01*
X100609449Y-56406213D01*
X100531739Y-56222753D01*
X100454503Y-56038138D01*
X100380173Y-55858146D01*
X100311175Y-55688552D01*
X100249940Y-55535135D01*
X100198896Y-55403670D01*
X100160472Y-55299936D01*
X100137097Y-55229709D01*
X100131200Y-55198766D01*
X100131600Y-55197862D01*
X100159066Y-55169257D01*
X100216516Y-55124457D01*
X100292090Y-55072751D01*
X100315944Y-55056962D01*
X100497451Y-54907174D01*
X100647670Y-54728767D01*
X100763044Y-54529165D01*
X100840016Y-54315797D01*
X100875031Y-54096087D01*
X100864530Y-53877462D01*
X100821994Y-53683011D01*
X100745620Y-53486657D01*
X100634282Y-53311484D01*
X100481491Y-53145082D01*
X100421456Y-53091924D01*
X100227375Y-52960951D01*
X100017716Y-52872744D01*
X99798554Y-52826512D01*
X99575964Y-52821467D01*
X99356024Y-52856820D01*
X99144807Y-52931779D01*
X98948390Y-53045557D01*
X98772849Y-53197363D01*
X98624259Y-53386409D01*
X98595691Y-53433224D01*
X98498590Y-53647204D01*
X98447020Y-53870026D01*
X98439631Y-54095922D01*
X98475072Y-54319119D01*
X98551993Y-54533847D01*
X98669043Y-54734336D01*
X98824872Y-54914814D01*
X99018130Y-55069510D01*
X99024406Y-55073679D01*
X99099178Y-55126370D01*
X99155221Y-55171169D01*
X99180817Y-55198766D01*
X99177587Y-55220402D01*
X99157507Y-55283399D01*
X99121901Y-55381038D01*
X99073197Y-55507542D01*
X99013825Y-55657132D01*
X98946211Y-55824030D01*
X98872783Y-56002457D01*
X98795971Y-56186636D01*
X98718201Y-56370787D01*
X98641902Y-56549133D01*
X98569501Y-56715895D01*
X98503427Y-56865294D01*
X98446108Y-56991554D01*
X98399972Y-57088894D01*
X98367447Y-57151538D01*
X98350960Y-57173706D01*
X98337250Y-57170703D01*
X98283387Y-57149126D01*
X98203781Y-57111293D01*
X98110166Y-57062620D01*
X97904679Y-56951515D01*
X97659884Y-57117091D01*
X97587562Y-57166120D01*
X97453043Y-57257729D01*
X97318932Y-57349485D01*
X97205687Y-57427412D01*
X97143187Y-57469881D01*
X97061956Y-57522644D01*
X97001726Y-57558765D01*
X96972308Y-57572157D01*
X96959670Y-57566471D01*
X96913984Y-57531645D01*
X96843555Y-57470329D01*
X96754513Y-57388554D01*
X96652989Y-57292351D01*
X96545111Y-57187751D01*
X96437012Y-57080786D01*
X96334820Y-56977485D01*
X96244667Y-56883882D01*
X96172681Y-56806006D01*
X96124995Y-56749889D01*
X96107737Y-56721562D01*
X96108732Y-56716172D01*
X96129272Y-56672304D01*
X96173151Y-56596407D01*
X96236129Y-56495336D01*
X96313964Y-56375948D01*
X96402418Y-56245098D01*
X96427226Y-56209005D01*
X96514335Y-56082000D01*
X96591064Y-55969718D01*
X96652941Y-55878730D01*
X96695494Y-55815606D01*
X96714251Y-55786917D01*
X96714712Y-55785687D01*
X96709176Y-55750588D01*
X96688037Y-55679484D01*
X96654722Y-55581310D01*
X96612662Y-55465002D01*
X96565287Y-55339493D01*
X96516025Y-55213718D01*
X96468306Y-55096612D01*
X96425559Y-54997110D01*
X96391214Y-54924145D01*
X96368700Y-54886653D01*
X96366445Y-54884325D01*
X96350325Y-54872549D01*
X96323100Y-54860673D01*
X96279350Y-54847481D01*
X96213652Y-54831754D01*
X96120587Y-54812274D01*
X95994733Y-54787824D01*
X95830670Y-54757186D01*
X95622976Y-54719143D01*
X95579898Y-54711136D01*
X95456494Y-54686384D01*
X95352689Y-54662933D01*
X95278318Y-54643110D01*
X95243221Y-54629245D01*
X95237349Y-54617677D01*
X95227559Y-54562110D01*
X95219802Y-54469990D01*
X95214082Y-54349951D01*
X95210406Y-54210622D01*
X95208779Y-54060635D01*
X95209208Y-53908621D01*
X95211699Y-53763212D01*
X95216257Y-53633037D01*
X95222888Y-53526730D01*
X95231598Y-53452919D01*
X95242394Y-53420238D01*
X95253416Y-53415410D01*
X95308248Y-53400191D01*
X95400930Y-53378666D01*
X95524068Y-53352439D01*
X95670265Y-53323114D01*
X95832123Y-53292296D01*
X95920501Y-53275831D01*
X96071976Y-53247279D01*
X96202357Y-53222277D01*
X96304671Y-53202185D01*
X96371945Y-53188362D01*
X96397206Y-53182165D01*
X96398155Y-53180888D01*
X96414243Y-53148437D01*
X96444911Y-53080452D01*
X96486328Y-52985954D01*
X96534658Y-52873964D01*
X96586071Y-52753500D01*
X96636731Y-52633584D01*
X96682806Y-52523235D01*
X96720463Y-52431473D01*
X96745868Y-52367319D01*
X96755188Y-52339792D01*
X96751077Y-52330106D01*
X96723717Y-52284018D01*
X96674087Y-52206440D01*
X96606177Y-52103461D01*
X96523972Y-51981167D01*
X96431463Y-51845646D01*
X96380708Y-51771429D01*
X96293120Y-51641309D01*
X96218023Y-51527112D01*
X96159424Y-51435066D01*
X96121326Y-51371398D01*
X96107737Y-51342337D01*
X96117179Y-51326573D01*
X96156677Y-51279471D01*
X96221475Y-51208186D01*
X96305626Y-51118760D01*
X96403181Y-51017232D01*
X96508191Y-50909643D01*
X96614710Y-50802034D01*
X96716788Y-50700445D01*
X96808477Y-50610917D01*
X96883829Y-50539489D01*
X96936897Y-50492203D01*
X96961731Y-50475098D01*
X96975516Y-50481749D01*
X97026135Y-50512592D01*
X97107822Y-50565083D01*
X97214689Y-50635375D01*
X97340849Y-50719622D01*
X97480415Y-50813978D01*
X97978773Y-51152857D01*
X98394186Y-50981610D01*
X98809600Y-50810363D01*
X98922182Y-50213172D01*
X99034765Y-49615980D01*
X100277768Y-49615980D01*
X100390351Y-50213172D01*
G37*
D12*
X100390351Y-50213172D02*
X100502933Y-50810363D01*
X100918346Y-50981610D01*
X101333760Y-51152857D01*
X101832117Y-50813978D01*
X101930753Y-50747170D01*
X102061514Y-50659479D01*
X102174725Y-50584580D01*
X102264506Y-50526320D01*
X102324978Y-50488545D01*
X102350261Y-50475098D01*
X102365789Y-50484661D01*
X102412204Y-50524730D01*
X102482447Y-50590487D01*
X102570565Y-50675895D01*
X102670606Y-50774915D01*
X102776619Y-50881509D01*
X102882652Y-50989640D01*
X102982752Y-51093268D01*
X103070968Y-51186358D01*
X103141349Y-51262869D01*
X103187942Y-51316765D01*
X103204796Y-51342007D01*
X103200875Y-51352852D01*
X103173729Y-51401228D01*
X103124156Y-51480842D01*
X103056176Y-51585454D01*
X102973808Y-51708822D01*
X102881070Y-51844706D01*
X102830177Y-51918815D01*
X102742629Y-52047835D01*
X102667570Y-52160434D01*
X102609002Y-52250505D01*
X102570926Y-52311942D01*
X102557345Y-52338640D01*
X102557568Y-52340119D01*
X102569548Y-52373962D01*
X102597033Y-52443071D01*
X102636191Y-52538416D01*
X102683191Y-52650972D01*
X102734202Y-52771710D01*
X102785393Y-52891602D01*
X102832932Y-53001622D01*
X102872988Y-53092740D01*
X102901730Y-53155931D01*
X102915327Y-53182165D01*
X102923372Y-53184492D01*
X102972252Y-53194988D01*
X103059369Y-53212376D01*
X103177750Y-53235295D01*
X103320421Y-53262389D01*
X103480409Y-53292296D01*
X103564732Y-53308153D01*
X103719500Y-53338407D01*
X103854821Y-53366347D01*
X103963299Y-53390369D01*
X104037537Y-53408868D01*
X104070139Y-53420238D01*
X104075995Y-53431511D01*
X104085709Y-53486586D01*
X104093341Y-53578317D01*
X104098897Y-53698073D01*
X104102383Y-53837221D01*
X104103804Y-53987131D01*
X104103167Y-54139172D01*
X104100477Y-54284712D01*
X104095741Y-54415121D01*
X104088964Y-54521766D01*
X104080153Y-54596018D01*
X104069312Y-54629245D01*
X104062734Y-54632993D01*
X104013672Y-54649069D01*
X103928564Y-54670338D01*
X103817246Y-54694472D01*
X103689557Y-54719143D01*
X103646474Y-54727000D01*
X103447490Y-54763542D01*
X103291105Y-54792910D01*
X103171900Y-54816321D01*
X103084454Y-54834994D01*
X103023345Y-54850146D01*
X102983152Y-54862995D01*
X102958455Y-54874758D01*
X102943833Y-54886653D01*
X102942133Y-54888649D01*
X102918221Y-54930271D01*
X102882836Y-55006430D01*
X102839409Y-55108193D01*
X102791368Y-55226624D01*
X102742142Y-55352789D01*
X102695162Y-55477754D01*
X102653857Y-55592584D01*
X102621656Y-55688344D01*
X102601988Y-55756100D01*
X102598282Y-55786917D01*
X102600760Y-55790915D01*
X102626406Y-55829584D01*
X102674637Y-55900907D01*
X102740979Y-55998314D01*
X102820962Y-56115234D01*
X102910114Y-56245098D01*
X102934582Y-56280828D01*
X103020620Y-56408990D01*
X103094975Y-56523608D01*
X103153405Y-56617887D01*
X103191664Y-56685029D01*
X103205509Y-56718235D01*
X103202526Y-56726965D01*
X103171428Y-56769982D01*
X103110072Y-56840230D01*
X103022854Y-56932979D01*
X102914166Y-57043502D01*
X102788402Y-57167071D01*
X102716517Y-57236235D01*
X102602856Y-57343957D01*
X102503374Y-57436225D01*
X102423412Y-57508181D01*
X102368312Y-57554968D01*
X102343415Y-57571727D01*
X102326310Y-57565515D01*
X102273646Y-57536126D01*
X102197166Y-57488063D01*
X102106846Y-57427412D01*
X102042628Y-57383153D01*
X101914422Y-57295261D01*
X101777611Y-57201915D01*
X101652649Y-57117091D01*
X101407854Y-56951515D01*
X101202366Y-57062620D01*
X101153980Y-57088265D01*
X101065987Y-57132130D01*
X100997940Y-57162414D01*
X100961573Y-57173706D01*
X100949671Y-57159205D01*
X100920117Y-57103992D01*
X100876465Y-57012962D01*
X100821143Y-56891892D01*
X100756580Y-56746559D01*
X100685206Y-56582741D01*
X100609449Y-56406213D01*
X100531739Y-56222753D01*
X100454503Y-56038138D01*
X100380173Y-55858146D01*
X100311175Y-55688552D01*
X100249940Y-55535135D01*
X100198896Y-55403670D01*
X100160472Y-55299936D01*
X100137097Y-55229709D01*
X100131200Y-55198766D01*
X100131600Y-55197862D01*
X100159066Y-55169257D01*
X100216516Y-55124457D01*
X100292090Y-55072751D01*
X100315944Y-55056962D01*
X100497451Y-54907174D01*
X100647670Y-54728767D01*
X100763044Y-54529165D01*
X100840016Y-54315797D01*
X100875031Y-54096087D01*
X100864530Y-53877462D01*
X100821994Y-53683011D01*
X100745620Y-53486657D01*
X100634282Y-53311484D01*
X100481491Y-53145082D01*
X100421456Y-53091924D01*
X100227375Y-52960951D01*
X100017716Y-52872744D01*
X99798554Y-52826512D01*
X99575964Y-52821467D01*
X99356024Y-52856820D01*
X99144807Y-52931779D01*
X98948390Y-53045557D01*
X98772849Y-53197363D01*
X98624259Y-53386409D01*
X98595691Y-53433224D01*
X98498590Y-53647204D01*
X98447020Y-53870026D01*
X98439631Y-54095922D01*
X98475072Y-54319119D01*
X98551993Y-54533847D01*
X98669043Y-54734336D01*
X98824872Y-54914814D01*
X99018130Y-55069510D01*
X99024406Y-55073679D01*
X99099178Y-55126370D01*
X99155221Y-55171169D01*
X99180817Y-55198766D01*
X99177587Y-55220402D01*
X99157507Y-55283399D01*
X99121901Y-55381038D01*
X99073197Y-55507542D01*
X99013825Y-55657132D01*
X98946211Y-55824030D01*
X98872783Y-56002457D01*
X98795971Y-56186636D01*
X98718201Y-56370787D01*
X98641902Y-56549133D01*
X98569501Y-56715895D01*
X98503427Y-56865294D01*
X98446108Y-56991554D01*
X98399972Y-57088894D01*
X98367447Y-57151538D01*
X98350960Y-57173706D01*
X98337250Y-57170703D01*
X98283387Y-57149126D01*
X98203781Y-57111293D01*
X98110166Y-57062620D01*
X97904679Y-56951515D01*
X97659884Y-57117091D01*
X97587562Y-57166120D01*
X97453043Y-57257729D01*
X97318932Y-57349485D01*
X97205687Y-57427412D01*
X97143187Y-57469881D01*
X97061956Y-57522644D01*
X97001726Y-57558765D01*
X96972308Y-57572157D01*
X96959670Y-57566471D01*
X96913984Y-57531645D01*
X96843555Y-57470329D01*
X96754513Y-57388554D01*
X96652989Y-57292351D01*
X96545111Y-57187751D01*
X96437012Y-57080786D01*
X96334820Y-56977485D01*
X96244667Y-56883882D01*
X96172681Y-56806006D01*
X96124995Y-56749889D01*
X96107737Y-56721562D01*
X96108732Y-56716172D01*
X96129272Y-56672304D01*
X96173151Y-56596407D01*
X96236129Y-56495336D01*
X96313964Y-56375948D01*
X96402418Y-56245098D01*
X96427226Y-56209005D01*
X96514335Y-56082000D01*
X96591064Y-55969718D01*
X96652941Y-55878730D01*
X96695494Y-55815606D01*
X96714251Y-55786917D01*
X96714712Y-55785687D01*
X96709176Y-55750588D01*
X96688037Y-55679484D01*
X96654722Y-55581310D01*
X96612662Y-55465002D01*
X96565287Y-55339493D01*
X96516025Y-55213718D01*
X96468306Y-55096612D01*
X96425559Y-54997110D01*
X96391214Y-54924145D01*
X96368700Y-54886653D01*
X96366445Y-54884325D01*
X96350325Y-54872549D01*
X96323100Y-54860673D01*
X96279350Y-54847481D01*
X96213652Y-54831754D01*
X96120587Y-54812274D01*
X95994733Y-54787824D01*
X95830670Y-54757186D01*
X95622976Y-54719143D01*
X95579898Y-54711136D01*
X95456494Y-54686384D01*
X95352689Y-54662933D01*
X95278318Y-54643110D01*
X95243221Y-54629245D01*
X95237349Y-54617677D01*
X95227559Y-54562110D01*
X95219802Y-54469990D01*
X95214082Y-54349951D01*
X95210406Y-54210622D01*
X95208779Y-54060635D01*
X95209208Y-53908621D01*
X95211699Y-53763212D01*
X95216257Y-53633037D01*
X95222888Y-53526730D01*
X95231598Y-53452919D01*
X95242394Y-53420238D01*
X95253416Y-53415410D01*
X95308248Y-53400191D01*
X95400930Y-53378666D01*
X95524068Y-53352439D01*
X95670265Y-53323114D01*
X95832123Y-53292296D01*
X95920501Y-53275831D01*
X96071976Y-53247279D01*
X96202357Y-53222277D01*
X96304671Y-53202185D01*
X96371945Y-53188362D01*
X96397206Y-53182165D01*
X96398155Y-53180888D01*
X96414243Y-53148437D01*
X96444911Y-53080452D01*
X96486328Y-52985954D01*
X96534658Y-52873964D01*
X96586071Y-52753500D01*
X96636731Y-52633584D01*
X96682806Y-52523235D01*
X96720463Y-52431473D01*
X96745868Y-52367319D01*
X96755188Y-52339792D01*
X96751077Y-52330106D01*
X96723717Y-52284018D01*
X96674087Y-52206440D01*
X96606177Y-52103461D01*
X96523972Y-51981167D01*
X96431463Y-51845646D01*
X96380708Y-51771429D01*
X96293120Y-51641309D01*
X96218023Y-51527112D01*
X96159424Y-51435066D01*
X96121326Y-51371398D01*
X96107737Y-51342337D01*
X96117179Y-51326573D01*
X96156677Y-51279471D01*
X96221475Y-51208186D01*
X96305626Y-51118760D01*
X96403181Y-51017232D01*
X96508191Y-50909643D01*
X96614710Y-50802034D01*
X96716788Y-50700445D01*
X96808477Y-50610917D01*
X96883829Y-50539489D01*
X96936897Y-50492203D01*
X96961731Y-50475098D01*
X96975516Y-50481749D01*
X97026135Y-50512592D01*
X97107822Y-50565083D01*
X97214689Y-50635375D01*
X97340849Y-50719622D01*
X97480415Y-50813978D01*
X97978773Y-51152857D01*
X98394186Y-50981610D01*
X98809600Y-50810363D01*
X98922182Y-50213172D01*
X99034765Y-49615980D01*
X100277768Y-49615980D01*
X100390351Y-50213172D01*
G36*
X99864527Y-58467820D02*
G01*
X100008346Y-58503866D01*
X100113408Y-58570677D01*
X100180311Y-58668702D01*
X100209657Y-58798387D01*
X100203716Y-58922544D01*
X100160831Y-59027266D01*
X100078593Y-59104693D01*
X99955352Y-59156337D01*
X99789461Y-59183710D01*
X99681669Y-59198057D01*
X99583283Y-59229099D01*
X99532488Y-59274053D01*
X99529421Y-59332838D01*
X99549863Y-59369493D01*
X99613171Y-59412935D01*
X99703166Y-59433483D01*
X99808630Y-59430673D01*
X99918343Y-59404042D01*
X100021085Y-59353128D01*
X100123521Y-59285339D01*
X100213619Y-59376508D01*
X100303717Y-59467676D01*
X100229012Y-59528655D01*
X100199963Y-59549842D01*
X100118234Y-59597978D01*
X100029796Y-59639457D01*
X99959804Y-59663262D01*
X99857319Y-59680504D01*
X99730972Y-59680732D01*
X99576035Y-59661748D01*
X99436462Y-59613630D01*
X99337667Y-59537195D01*
X99279418Y-59432254D01*
X99261479Y-59298617D01*
X99274464Y-59181054D01*
X99316148Y-59084803D01*
X99391194Y-59015873D01*
X99504352Y-58970030D01*
X99660371Y-58943042D01*
X99678291Y-58941088D01*
X99775431Y-58928630D01*
X99854231Y-58915592D01*
X99899061Y-58904499D01*
X99914021Y-58895567D01*
X99939313Y-58849509D01*
X99935205Y-58790553D01*
X99901405Y-58739373D01*
X99883656Y-58728210D01*
X99809698Y-58710326D01*
X99714168Y-58711529D01*
X99614553Y-58730561D01*
X99528338Y-58766168D01*
X99437748Y-58819618D01*
X99367480Y-58737505D01*
X99350429Y-58716644D01*
X99312015Y-58660761D01*
X99296200Y-58622887D01*
X99312807Y-58599664D01*
X99364186Y-58563412D01*
X99438374Y-58524402D01*
X99448827Y-58519633D01*
X99546658Y-58482229D01*
X99640958Y-58464345D01*
X99757979Y-58460754D01*
X99864527Y-58467820D01*
G37*
X99864527Y-58467820D02*
X100008346Y-58503866D01*
X100113408Y-58570677D01*
X100180311Y-58668702D01*
X100209657Y-58798387D01*
X100203716Y-58922544D01*
X100160831Y-59027266D01*
X100078593Y-59104693D01*
X99955352Y-59156337D01*
X99789461Y-59183710D01*
X99681669Y-59198057D01*
X99583283Y-59229099D01*
X99532488Y-59274053D01*
X99529421Y-59332838D01*
X99549863Y-59369493D01*
X99613171Y-59412935D01*
X99703166Y-59433483D01*
X99808630Y-59430673D01*
X99918343Y-59404042D01*
X100021085Y-59353128D01*
X100123521Y-59285339D01*
X100213619Y-59376508D01*
X100303717Y-59467676D01*
X100229012Y-59528655D01*
X100199963Y-59549842D01*
X100118234Y-59597978D01*
X100029796Y-59639457D01*
X99959804Y-59663262D01*
X99857319Y-59680504D01*
X99730972Y-59680732D01*
X99576035Y-59661748D01*
X99436462Y-59613630D01*
X99337667Y-59537195D01*
X99279418Y-59432254D01*
X99261479Y-59298617D01*
X99274464Y-59181054D01*
X99316148Y-59084803D01*
X99391194Y-59015873D01*
X99504352Y-58970030D01*
X99660371Y-58943042D01*
X99678291Y-58941088D01*
X99775431Y-58928630D01*
X99854231Y-58915592D01*
X99899061Y-58904499D01*
X99914021Y-58895567D01*
X99939313Y-58849509D01*
X99935205Y-58790553D01*
X99901405Y-58739373D01*
X99883656Y-58728210D01*
X99809698Y-58710326D01*
X99714168Y-58711529D01*
X99614553Y-58730561D01*
X99528338Y-58766168D01*
X99437748Y-58819618D01*
X99367480Y-58737505D01*
X99350429Y-58716644D01*
X99312015Y-58660761D01*
X99296200Y-58622887D01*
X99312807Y-58599664D01*
X99364186Y-58563412D01*
X99438374Y-58524402D01*
X99448827Y-58519633D01*
X99546658Y-58482229D01*
X99640958Y-58464345D01*
X99757979Y-58460754D01*
X99864527Y-58467820D01*
G36*
X103047177Y-61167808D02*
G01*
X103049840Y-61224559D01*
X103049558Y-61227844D01*
X103019214Y-61355772D01*
X102951719Y-61451986D01*
X102843717Y-61521318D01*
X102787906Y-61538186D01*
X102692310Y-61551333D01*
X102587772Y-61554472D01*
X102493455Y-61547237D01*
X102428525Y-61529262D01*
X102389087Y-61514864D01*
X102350475Y-61529262D01*
X102336351Y-61537604D01*
X102279978Y-61551131D01*
X102203737Y-61556471D01*
X102084208Y-61556471D01*
X102084208Y-61129278D01*
X102358129Y-61129278D01*
X102367336Y-61202143D01*
X102403668Y-61266239D01*
X102424461Y-61280110D01*
X102498675Y-61301731D01*
X102591327Y-61307129D01*
X102682185Y-61296162D01*
X102751020Y-61268686D01*
X102785312Y-61232358D01*
X102806364Y-61167808D01*
X102787694Y-61116639D01*
X102725976Y-61072148D01*
X102626764Y-61043605D01*
X102495890Y-61033530D01*
X102358129Y-61033530D01*
X102358129Y-61129278D01*
X102084208Y-61129278D01*
X102084208Y-61074565D01*
X102084217Y-61032890D01*
X102084671Y-60875810D01*
X102086375Y-60759029D01*
X102090102Y-60674788D01*
X102096628Y-60615329D01*
X102106725Y-60572891D01*
X102121169Y-60539716D01*
X102140733Y-60508045D01*
X102203666Y-60433837D01*
X102292847Y-60377180D01*
X102409997Y-60345922D01*
X102564370Y-60336313D01*
X102569388Y-60336323D01*
X102676697Y-60341170D01*
X102772745Y-60353252D01*
X102838292Y-60370191D01*
X102856262Y-60378679D01*
X102913457Y-60414627D01*
X102965216Y-60457352D01*
X102999270Y-60495800D01*
X103003352Y-60518916D01*
X102995386Y-60525164D01*
X102908592Y-60591855D01*
X102850556Y-60631188D01*
X102812182Y-60647057D01*
X102784376Y-60643359D01*
X102758044Y-60623990D01*
X102709447Y-60599809D01*
X102627550Y-60583687D01*
X102534990Y-60579505D01*
X102451236Y-60588015D01*
X102395752Y-60609972D01*
X102392833Y-60612644D01*
X102367900Y-60662836D01*
X102358129Y-60737755D01*
X102358129Y-60834314D01*
X102588472Y-60834407D01*
X102694282Y-60836082D01*
X102783349Y-60843368D01*
X102847062Y-60858357D01*
X102898538Y-60883110D01*
X102910517Y-60890712D01*
X102997183Y-60974282D01*
X103043281Y-61084790D01*
X103047177Y-61167808D01*
G37*
X103047177Y-61167808D02*
X103049840Y-61224559D01*
X103049558Y-61227844D01*
X103019214Y-61355772D01*
X102951719Y-61451986D01*
X102843717Y-61521318D01*
X102787906Y-61538186D01*
X102692310Y-61551333D01*
X102587772Y-61554472D01*
X102493455Y-61547237D01*
X102428525Y-61529262D01*
X102389087Y-61514864D01*
X102350475Y-61529262D01*
X102336351Y-61537604D01*
X102279978Y-61551131D01*
X102203737Y-61556471D01*
X102084208Y-61556471D01*
X102084208Y-61129278D01*
X102358129Y-61129278D01*
X102367336Y-61202143D01*
X102403668Y-61266239D01*
X102424461Y-61280110D01*
X102498675Y-61301731D01*
X102591327Y-61307129D01*
X102682185Y-61296162D01*
X102751020Y-61268686D01*
X102785312Y-61232358D01*
X102806364Y-61167808D01*
X102787694Y-61116639D01*
X102725976Y-61072148D01*
X102626764Y-61043605D01*
X102495890Y-61033530D01*
X102358129Y-61033530D01*
X102358129Y-61129278D01*
X102084208Y-61129278D01*
X102084208Y-61074565D01*
X102084217Y-61032890D01*
X102084671Y-60875810D01*
X102086375Y-60759029D01*
X102090102Y-60674788D01*
X102096628Y-60615329D01*
X102106725Y-60572891D01*
X102121169Y-60539716D01*
X102140733Y-60508045D01*
X102203666Y-60433837D01*
X102292847Y-60377180D01*
X102409997Y-60345922D01*
X102564370Y-60336313D01*
X102569388Y-60336323D01*
X102676697Y-60341170D01*
X102772745Y-60353252D01*
X102838292Y-60370191D01*
X102856262Y-60378679D01*
X102913457Y-60414627D01*
X102965216Y-60457352D01*
X102999270Y-60495800D01*
X103003352Y-60518916D01*
X102995386Y-60525164D01*
X102908592Y-60591855D01*
X102850556Y-60631188D01*
X102812182Y-60647057D01*
X102784376Y-60643359D01*
X102758044Y-60623990D01*
X102709447Y-60599809D01*
X102627550Y-60583687D01*
X102534990Y-60579505D01*
X102451236Y-60588015D01*
X102395752Y-60609972D01*
X102392833Y-60612644D01*
X102367900Y-60662836D01*
X102358129Y-60737755D01*
X102358129Y-60834314D01*
X102588472Y-60834407D01*
X102694282Y-60836082D01*
X102783349Y-60843368D01*
X102847062Y-60858357D01*
X102898538Y-60883110D01*
X102910517Y-60890712D01*
X102997183Y-60974282D01*
X103043281Y-61084790D01*
X103047177Y-61167808D01*
G36*
X101835188Y-61556471D02*
G01*
X101586168Y-61556471D01*
X101586168Y-61172111D01*
X101585893Y-61082706D01*
X101583061Y-60934629D01*
X101575893Y-60825003D01*
X101562833Y-60746252D01*
X101542325Y-60690798D01*
X101512815Y-60651061D01*
X101472748Y-60619465D01*
X101429007Y-60595921D01*
X101377213Y-60589246D01*
X101303548Y-60604090D01*
X101279876Y-60610271D01*
X101220786Y-60619572D01*
X101178535Y-60606245D01*
X101129565Y-60564996D01*
X101120272Y-60556026D01*
X101068896Y-60500534D01*
X101035764Y-60455415D01*
X101031219Y-60444545D01*
X101040225Y-60404409D01*
X101085891Y-60372320D01*
X101157963Y-60349799D01*
X101246188Y-60338367D01*
X101340311Y-60339544D01*
X101430079Y-60354850D01*
X101505237Y-60385806D01*
X101529060Y-60400260D01*
X101569166Y-60421417D01*
X101584013Y-60416572D01*
X101586168Y-60385712D01*
X101586674Y-60374633D01*
X101598687Y-60350091D01*
X101635953Y-60338921D01*
X101710678Y-60336275D01*
X101835188Y-60336275D01*
X101835188Y-61556471D01*
G37*
X101835188Y-61556471D02*
X101586168Y-61556471D01*
X101586168Y-61172111D01*
X101585893Y-61082706D01*
X101583061Y-60934629D01*
X101575893Y-60825003D01*
X101562833Y-60746252D01*
X101542325Y-60690798D01*
X101512815Y-60651061D01*
X101472748Y-60619465D01*
X101429007Y-60595921D01*
X101377213Y-60589246D01*
X101303548Y-60604090D01*
X101279876Y-60610271D01*
X101220786Y-60619572D01*
X101178535Y-60606245D01*
X101129565Y-60564996D01*
X101120272Y-60556026D01*
X101068896Y-60500534D01*
X101035764Y-60455415D01*
X101031219Y-60444545D01*
X101040225Y-60404409D01*
X101085891Y-60372320D01*
X101157963Y-60349799D01*
X101246188Y-60338367D01*
X101340311Y-60339544D01*
X101430079Y-60354850D01*
X101505237Y-60385806D01*
X101529060Y-60400260D01*
X101569166Y-60421417D01*
X101584013Y-60416572D01*
X101586168Y-60385712D01*
X101586674Y-60374633D01*
X101598687Y-60350091D01*
X101635953Y-60338921D01*
X101710678Y-60336275D01*
X101835188Y-60336275D01*
X101835188Y-61556471D01*
G36*
X96276559Y-58459381D02*
G01*
X96337606Y-58478439D01*
X96412786Y-58510115D01*
X96449186Y-58527138D01*
X96475457Y-58530215D01*
X96481266Y-58506620D01*
X96481272Y-58505952D01*
X96493573Y-58483426D01*
X96535998Y-58471879D01*
X96618227Y-58468628D01*
X96755188Y-58468628D01*
X96755188Y-59663922D01*
X96481266Y-59663922D01*
X96481266Y-58839779D01*
X96413171Y-58776670D01*
X96391897Y-58758735D01*
X96328528Y-58728091D01*
X96250493Y-58726863D01*
X96144237Y-58753903D01*
X96108418Y-58755615D01*
X96066400Y-58729383D01*
X96010474Y-58667035D01*
X95983345Y-58632547D01*
X95951260Y-58583852D01*
X95946316Y-58552855D01*
X95964280Y-58526707D01*
X96019427Y-58493641D01*
X96105080Y-58467472D01*
X96198009Y-58454496D01*
X96276559Y-58459381D01*
G37*
X96276559Y-58459381D02*
X96337606Y-58478439D01*
X96412786Y-58510115D01*
X96449186Y-58527138D01*
X96475457Y-58530215D01*
X96481266Y-58506620D01*
X96481272Y-58505952D01*
X96493573Y-58483426D01*
X96535998Y-58471879D01*
X96618227Y-58468628D01*
X96755188Y-58468628D01*
X96755188Y-59663922D01*
X96481266Y-59663922D01*
X96481266Y-58839779D01*
X96413171Y-58776670D01*
X96391897Y-58758735D01*
X96328528Y-58728091D01*
X96250493Y-58726863D01*
X96144237Y-58753903D01*
X96108418Y-58755615D01*
X96066400Y-58729383D01*
X96010474Y-58667035D01*
X95983345Y-58632547D01*
X95951260Y-58583852D01*
X95946316Y-58552855D01*
X95964280Y-58526707D01*
X96019427Y-58493641D01*
X96105080Y-58467472D01*
X96198009Y-58454496D01*
X96276559Y-58459381D01*
G36*
X97253227Y-58856245D02*
G01*
X97255328Y-59030624D01*
X97263550Y-59171460D01*
X97280208Y-59273825D01*
X97307608Y-59343458D01*
X97348060Y-59386093D01*
X97403869Y-59407468D01*
X97477345Y-59413318D01*
X97547500Y-59408097D01*
X97604160Y-59387659D01*
X97645343Y-59346254D01*
X97673357Y-59278147D01*
X97690510Y-59177600D01*
X97699109Y-59038879D01*
X97701463Y-58856245D01*
X97701463Y-58468628D01*
X97950482Y-58468628D01*
X97950482Y-58935928D01*
X97950055Y-59060659D01*
X97946735Y-59221955D01*
X97938404Y-59344965D01*
X97923043Y-59436729D01*
X97898636Y-59504291D01*
X97863164Y-59554691D01*
X97814609Y-59594971D01*
X97750952Y-59632174D01*
X97617279Y-59679270D01*
X97477772Y-59682342D01*
X97346241Y-59638971D01*
X97288852Y-59610857D01*
X97260381Y-59606654D01*
X97253227Y-59626520D01*
X97241349Y-59648826D01*
X97198833Y-59660576D01*
X97116266Y-59663922D01*
X96979306Y-59663922D01*
X96979306Y-58468628D01*
X97253227Y-58468628D01*
X97253227Y-58856245D01*
G37*
X97253227Y-58856245D02*
X97255328Y-59030624D01*
X97263550Y-59171460D01*
X97280208Y-59273825D01*
X97307608Y-59343458D01*
X97348060Y-59386093D01*
X97403869Y-59407468D01*
X97477345Y-59413318D01*
X97547500Y-59408097D01*
X97604160Y-59387659D01*
X97645343Y-59346254D01*
X97673357Y-59278147D01*
X97690510Y-59177600D01*
X97699109Y-59038879D01*
X97701463Y-58856245D01*
X97701463Y-58468628D01*
X97950482Y-58468628D01*
X97950482Y-58935928D01*
X97950055Y-59060659D01*
X97946735Y-59221955D01*
X97938404Y-59344965D01*
X97923043Y-59436729D01*
X97898636Y-59504291D01*
X97863164Y-59554691D01*
X97814609Y-59594971D01*
X97750952Y-59632174D01*
X97617279Y-59679270D01*
X97477772Y-59682342D01*
X97346241Y-59638971D01*
X97288852Y-59610857D01*
X97260381Y-59606654D01*
X97253227Y-59626520D01*
X97241349Y-59648826D01*
X97198833Y-59660576D01*
X97116266Y-59663922D01*
X96979306Y-59663922D01*
X96979306Y-58468628D01*
X97253227Y-58468628D01*
X97253227Y-58856245D01*
G36*
X101036442Y-60959052D02*
G01*
X101036696Y-61039570D01*
X101033539Y-61146032D01*
X101027191Y-61220192D01*
X101026103Y-61226989D01*
X100983377Y-61348555D01*
X100905351Y-61451619D01*
X100802991Y-61521444D01*
X100693071Y-61550346D01*
X100557868Y-61548103D01*
X100433493Y-61509351D01*
X100401096Y-61492998D01*
X100359437Y-61475475D01*
X100343584Y-61480927D01*
X100341070Y-61509351D01*
X100339916Y-61523525D01*
X100325009Y-61544488D01*
X100283606Y-61554140D01*
X100204110Y-61556471D01*
X100067149Y-61556471D01*
X100067149Y-60958607D01*
X100341070Y-60958607D01*
X100343033Y-61062181D01*
X100351000Y-61131138D01*
X100368009Y-61178379D01*
X100397100Y-61217968D01*
X100473913Y-61276831D01*
X100563803Y-61296564D01*
X100650971Y-61272162D01*
X100724386Y-61204090D01*
X100743792Y-61154278D01*
X100758127Y-61066070D01*
X100764428Y-60959052D01*
X100762443Y-60849284D01*
X100751916Y-60752827D01*
X100732593Y-60685743D01*
X100726420Y-60674742D01*
X100666910Y-60619453D01*
X100586263Y-60594959D01*
X100499650Y-60600656D01*
X100422239Y-60635940D01*
X100369203Y-60700208D01*
X100367011Y-60705613D01*
X100353860Y-60765921D01*
X100344583Y-60856039D01*
X100341070Y-60958607D01*
X100067149Y-60958607D01*
X100067149Y-59863137D01*
X100341070Y-59863137D01*
X100341070Y-60443601D01*
X100391807Y-60397685D01*
X100440659Y-60369146D01*
X100533119Y-60345290D01*
X100641202Y-60337603D01*
X100746753Y-60347040D01*
X100831617Y-60374557D01*
X100892358Y-60413699D01*
X100954924Y-60480379D01*
X100997032Y-60570053D01*
X101022344Y-60691355D01*
X101034523Y-60852918D01*
X101036313Y-60918225D01*
X101036442Y-60959052D01*
G37*
X101036442Y-60959052D02*
X101036696Y-61039570D01*
X101033539Y-61146032D01*
X101027191Y-61220192D01*
X101026103Y-61226989D01*
X100983377Y-61348555D01*
X100905351Y-61451619D01*
X100802991Y-61521444D01*
X100693071Y-61550346D01*
X100557868Y-61548103D01*
X100433493Y-61509351D01*
X100401096Y-61492998D01*
X100359437Y-61475475D01*
X100343584Y-61480927D01*
X100341070Y-61509351D01*
X100339916Y-61523525D01*
X100325009Y-61544488D01*
X100283606Y-61554140D01*
X100204110Y-61556471D01*
X100067149Y-61556471D01*
X100067149Y-60958607D01*
X100341070Y-60958607D01*
X100343033Y-61062181D01*
X100351000Y-61131138D01*
X100368009Y-61178379D01*
X100397100Y-61217968D01*
X100473913Y-61276831D01*
X100563803Y-61296564D01*
X100650971Y-61272162D01*
X100724386Y-61204090D01*
X100743792Y-61154278D01*
X100758127Y-61066070D01*
X100764428Y-60959052D01*
X100762443Y-60849284D01*
X100751916Y-60752827D01*
X100732593Y-60685743D01*
X100726420Y-60674742D01*
X100666910Y-60619453D01*
X100586263Y-60594959D01*
X100499650Y-60600656D01*
X100422239Y-60635940D01*
X100369203Y-60700208D01*
X100367011Y-60705613D01*
X100353860Y-60765921D01*
X100344583Y-60856039D01*
X100341070Y-60958607D01*
X100067149Y-60958607D01*
X100067149Y-59863137D01*
X100341070Y-59863137D01*
X100341070Y-60443601D01*
X100391807Y-60397685D01*
X100440659Y-60369146D01*
X100533119Y-60345290D01*
X100641202Y-60337603D01*
X100746753Y-60347040D01*
X100831617Y-60374557D01*
X100892358Y-60413699D01*
X100954924Y-60480379D01*
X100997032Y-60570053D01*
X101022344Y-60691355D01*
X101034523Y-60852918D01*
X101036313Y-60918225D01*
X101036442Y-60959052D01*
G36*
X96639242Y-60352675D02*
G01*
X96714477Y-60387886D01*
X96780090Y-60439497D01*
X96780090Y-60387886D01*
X96781725Y-60368290D01*
X96796938Y-60347513D01*
X96838079Y-60338337D01*
X96917051Y-60336275D01*
X97054012Y-60336275D01*
X97054012Y-61556471D01*
X96780090Y-61556471D01*
X96780090Y-61159211D01*
X96780057Y-61136405D01*
X96777720Y-60976089D01*
X96771985Y-60845500D01*
X96763261Y-60751314D01*
X96751958Y-60700208D01*
X96741579Y-60680915D01*
X96677685Y-60620406D01*
X96590654Y-60593622D01*
X96495621Y-60606117D01*
X96472311Y-60614586D01*
X96422654Y-60629555D01*
X96388716Y-60624907D01*
X96354567Y-60594479D01*
X96304276Y-60532111D01*
X96222709Y-60429123D01*
X96280040Y-60382699D01*
X96334540Y-60354755D01*
X96430271Y-60335883D01*
X96538173Y-60335265D01*
X96639242Y-60352675D01*
G37*
X96639242Y-60352675D02*
X96714477Y-60387886D01*
X96780090Y-60439497D01*
X96780090Y-60387886D01*
X96781725Y-60368290D01*
X96796938Y-60347513D01*
X96838079Y-60338337D01*
X96917051Y-60336275D01*
X97054012Y-60336275D01*
X97054012Y-61556471D01*
X96780090Y-61556471D01*
X96780090Y-61159211D01*
X96780057Y-61136405D01*
X96777720Y-60976089D01*
X96771985Y-60845500D01*
X96763261Y-60751314D01*
X96751958Y-60700208D01*
X96741579Y-60680915D01*
X96677685Y-60620406D01*
X96590654Y-60593622D01*
X96495621Y-60606117D01*
X96472311Y-60614586D01*
X96422654Y-60629555D01*
X96388716Y-60624907D01*
X96354567Y-60594479D01*
X96304276Y-60532111D01*
X96222709Y-60429123D01*
X96280040Y-60382699D01*
X96334540Y-60354755D01*
X96430271Y-60335883D01*
X96538173Y-60335265D01*
X96639242Y-60352675D01*
G36*
X103048220Y-58911611D02*
G01*
X103049290Y-58916685D01*
X103058003Y-59091108D01*
X103055826Y-59167224D01*
X103031276Y-59333570D01*
X102977177Y-59464728D01*
X102890699Y-59566101D01*
X102769012Y-59643096D01*
X102650966Y-59679039D01*
X102502878Y-59685915D01*
X102353465Y-59659468D01*
X102220189Y-59601037D01*
X102170800Y-59568532D01*
X102116385Y-59526868D01*
X102091557Y-59499452D01*
X102092964Y-59488140D01*
X102120756Y-59449597D01*
X102172989Y-59402901D01*
X102263508Y-59333858D01*
X102369575Y-59386831D01*
X102398257Y-59399943D01*
X102482688Y-59428441D01*
X102553454Y-59439804D01*
X102605636Y-59430441D01*
X102687523Y-59385351D01*
X102756354Y-59315355D01*
X102795724Y-59234363D01*
X102811764Y-59165882D01*
X102059306Y-59165882D01*
X102059445Y-59035147D01*
X102060584Y-58993713D01*
X102068899Y-58904805D01*
X102333227Y-58904805D01*
X102333712Y-58909899D01*
X102347404Y-58925760D01*
X102386095Y-58935505D01*
X102458034Y-58940413D01*
X102571474Y-58941765D01*
X102608759Y-58941749D01*
X102705590Y-58940854D01*
X102763800Y-58936988D01*
X102792023Y-58927968D01*
X102798890Y-58911611D01*
X102793034Y-58885735D01*
X102792140Y-58882802D01*
X102741690Y-58792759D01*
X102662159Y-58730766D01*
X102567320Y-58707686D01*
X102532264Y-58709532D01*
X102467198Y-58731611D01*
X102404778Y-58787766D01*
X102387964Y-58807621D01*
X102348854Y-58864326D01*
X102333227Y-58904805D01*
X102068899Y-58904805D01*
X102069968Y-58893376D01*
X102085705Y-58810349D01*
X102102953Y-58763868D01*
X102163596Y-58662769D01*
X102244811Y-58570951D01*
X102330698Y-58508037D01*
X102355513Y-58496354D01*
X102500007Y-58457600D01*
X102647559Y-58461686D01*
X102786284Y-58506882D01*
X102904296Y-58591461D01*
X102968127Y-58669461D01*
X103020318Y-58779343D01*
X103048220Y-58911611D01*
G37*
X103048220Y-58911611D02*
X103049290Y-58916685D01*
X103058003Y-59091108D01*
X103055826Y-59167224D01*
X103031276Y-59333570D01*
X102977177Y-59464728D01*
X102890699Y-59566101D01*
X102769012Y-59643096D01*
X102650966Y-59679039D01*
X102502878Y-59685915D01*
X102353465Y-59659468D01*
X102220189Y-59601037D01*
X102170800Y-59568532D01*
X102116385Y-59526868D01*
X102091557Y-59499452D01*
X102092964Y-59488140D01*
X102120756Y-59449597D01*
X102172989Y-59402901D01*
X102263508Y-59333858D01*
X102369575Y-59386831D01*
X102398257Y-59399943D01*
X102482688Y-59428441D01*
X102553454Y-59439804D01*
X102605636Y-59430441D01*
X102687523Y-59385351D01*
X102756354Y-59315355D01*
X102795724Y-59234363D01*
X102811764Y-59165882D01*
X102059306Y-59165882D01*
X102059445Y-59035147D01*
X102060584Y-58993713D01*
X102068899Y-58904805D01*
X102333227Y-58904805D01*
X102333712Y-58909899D01*
X102347404Y-58925760D01*
X102386095Y-58935505D01*
X102458034Y-58940413D01*
X102571474Y-58941765D01*
X102608759Y-58941749D01*
X102705590Y-58940854D01*
X102763800Y-58936988D01*
X102792023Y-58927968D01*
X102798890Y-58911611D01*
X102793034Y-58885735D01*
X102792140Y-58882802D01*
X102741690Y-58792759D01*
X102662159Y-58730766D01*
X102567320Y-58707686D01*
X102532264Y-58709532D01*
X102467198Y-58731611D01*
X102404778Y-58787766D01*
X102387964Y-58807621D01*
X102348854Y-58864326D01*
X102333227Y-58904805D01*
X102068899Y-58904805D01*
X102069968Y-58893376D01*
X102085705Y-58810349D01*
X102102953Y-58763868D01*
X102163596Y-58662769D01*
X102244811Y-58570951D01*
X102330698Y-58508037D01*
X102355513Y-58496354D01*
X102500007Y-58457600D01*
X102647559Y-58461686D01*
X102786284Y-58506882D01*
X102904296Y-58591461D01*
X102968127Y-58669461D01*
X103020318Y-58779343D01*
X103048220Y-58911611D01*
G36*
X99138784Y-59053145D02*
G01*
X99139670Y-59152173D01*
X99132722Y-59230982D01*
X99102016Y-59381438D01*
X99047093Y-59496246D01*
X98963497Y-59582966D01*
X98846775Y-59649155D01*
X98801456Y-59664908D01*
X98684090Y-59684562D01*
X98560583Y-59684027D01*
X98456368Y-59662439D01*
X98454320Y-59661655D01*
X98370335Y-59612251D01*
X98285487Y-59535770D01*
X98215083Y-59448311D01*
X98174431Y-59365969D01*
X98162380Y-59305779D01*
X98152063Y-59193084D01*
X98150334Y-59092632D01*
X98401219Y-59092632D01*
X98416217Y-59213119D01*
X98451452Y-59312123D01*
X98504834Y-59376815D01*
X98525067Y-59387922D01*
X98602223Y-59408111D01*
X98691466Y-59412265D01*
X98766545Y-59398235D01*
X98795849Y-59378116D01*
X98836981Y-59307760D01*
X98862863Y-59197645D01*
X98871855Y-59053145D01*
X98871711Y-59011549D01*
X98868587Y-58927264D01*
X98858199Y-58872281D01*
X98836405Y-58831655D01*
X98799064Y-58790437D01*
X98728010Y-58740481D01*
X98635508Y-58720057D01*
X98546135Y-58739509D01*
X98471927Y-58795771D01*
X98424918Y-58885775D01*
X98408545Y-58963494D01*
X98401219Y-59092632D01*
X98150334Y-59092632D01*
X98149854Y-59064738D01*
X98155389Y-58936993D01*
X98168305Y-58826101D01*
X98188239Y-58748315D01*
X98234670Y-58660245D01*
X98333215Y-58551959D01*
X98459170Y-58483364D01*
X98608791Y-58456213D01*
X98778332Y-58472259D01*
X98806542Y-58479094D01*
X98937918Y-58538040D01*
X99036915Y-58634814D01*
X99103537Y-58769423D01*
X99137787Y-58941874D01*
X99138784Y-59053145D01*
G37*
X99138784Y-59053145D02*
X99139670Y-59152173D01*
X99132722Y-59230982D01*
X99102016Y-59381438D01*
X99047093Y-59496246D01*
X98963497Y-59582966D01*
X98846775Y-59649155D01*
X98801456Y-59664908D01*
X98684090Y-59684562D01*
X98560583Y-59684027D01*
X98456368Y-59662439D01*
X98454320Y-59661655D01*
X98370335Y-59612251D01*
X98285487Y-59535770D01*
X98215083Y-59448311D01*
X98174431Y-59365969D01*
X98162380Y-59305779D01*
X98152063Y-59193084D01*
X98150334Y-59092632D01*
X98401219Y-59092632D01*
X98416217Y-59213119D01*
X98451452Y-59312123D01*
X98504834Y-59376815D01*
X98525067Y-59387922D01*
X98602223Y-59408111D01*
X98691466Y-59412265D01*
X98766545Y-59398235D01*
X98795849Y-59378116D01*
X98836981Y-59307760D01*
X98862863Y-59197645D01*
X98871855Y-59053145D01*
X98871711Y-59011549D01*
X98868587Y-58927264D01*
X98858199Y-58872281D01*
X98836405Y-58831655D01*
X98799064Y-58790437D01*
X98728010Y-58740481D01*
X98635508Y-58720057D01*
X98546135Y-58739509D01*
X98471927Y-58795771D01*
X98424918Y-58885775D01*
X98408545Y-58963494D01*
X98401219Y-59092632D01*
X98150334Y-59092632D01*
X98149854Y-59064738D01*
X98155389Y-58936993D01*
X98168305Y-58826101D01*
X98188239Y-58748315D01*
X98234670Y-58660245D01*
X98333215Y-58551959D01*
X98459170Y-58483364D01*
X98608791Y-58456213D01*
X98778332Y-58472259D01*
X98806542Y-58479094D01*
X98937918Y-58538040D01*
X99036915Y-58634814D01*
X99103537Y-58769423D01*
X99137787Y-58941874D01*
X99138784Y-59053145D01*
G36*
X101416623Y-58466271D02*
G01*
X101530139Y-58501937D01*
X101580190Y-58526177D01*
X101605363Y-58528681D01*
X101611070Y-58506620D01*
X101611076Y-58505952D01*
X101623377Y-58483426D01*
X101665801Y-58471879D01*
X101748031Y-58468628D01*
X101884992Y-58468628D01*
X101884992Y-59663922D01*
X101611070Y-59663922D01*
X101611070Y-59251907D01*
X101610883Y-59112779D01*
X101609602Y-58998493D01*
X101606175Y-58918519D01*
X101599549Y-58864708D01*
X101588671Y-58828912D01*
X101572488Y-58802982D01*
X101549947Y-58778770D01*
X101519244Y-58753017D01*
X101430956Y-58718416D01*
X101338282Y-58728571D01*
X101253388Y-58783298D01*
X101229123Y-58808768D01*
X101211704Y-58834545D01*
X101200021Y-58868848D01*
X101192929Y-58919933D01*
X101189281Y-58996056D01*
X101187932Y-59105471D01*
X101187737Y-59256435D01*
X101187737Y-59663922D01*
X100913815Y-59663922D01*
X100914362Y-59221912D01*
X100914399Y-59202223D01*
X100916775Y-59014209D01*
X100924070Y-58868159D01*
X100938162Y-58756971D01*
X100960924Y-58673544D01*
X100994231Y-58610775D01*
X101039958Y-58561561D01*
X101099981Y-58518802D01*
X101161957Y-58489199D01*
X101286772Y-58462305D01*
X101416623Y-58466271D01*
G37*
X101416623Y-58466271D02*
X101530139Y-58501937D01*
X101580190Y-58526177D01*
X101605363Y-58528681D01*
X101611070Y-58506620D01*
X101611076Y-58505952D01*
X101623377Y-58483426D01*
X101665801Y-58471879D01*
X101748031Y-58468628D01*
X101884992Y-58468628D01*
X101884992Y-59663922D01*
X101611070Y-59663922D01*
X101611070Y-59251907D01*
X101610883Y-59112779D01*
X101609602Y-58998493D01*
X101606175Y-58918519D01*
X101599549Y-58864708D01*
X101588671Y-58828912D01*
X101572488Y-58802982D01*
X101549947Y-58778770D01*
X101519244Y-58753017D01*
X101430956Y-58718416D01*
X101338282Y-58728571D01*
X101253388Y-58783298D01*
X101229123Y-58808768D01*
X101211704Y-58834545D01*
X101200021Y-58868848D01*
X101192929Y-58919933D01*
X101189281Y-58996056D01*
X101187932Y-59105471D01*
X101187737Y-59256435D01*
X101187737Y-59663922D01*
X100913815Y-59663922D01*
X100914362Y-59221912D01*
X100914399Y-59202223D01*
X100916775Y-59014209D01*
X100924070Y-58868159D01*
X100938162Y-58756971D01*
X100960924Y-58673544D01*
X100994231Y-58610775D01*
X101039958Y-58561561D01*
X101099981Y-58518802D01*
X101161957Y-58489199D01*
X101286772Y-58462305D01*
X101416623Y-58466271D01*
G36*
X98259182Y-61188122D02*
G01*
X98261477Y-61228738D01*
X98231436Y-61341789D01*
X98166149Y-61438505D01*
X98067115Y-61508077D01*
X98057396Y-61512305D01*
X97949037Y-61542767D01*
X97826940Y-61554642D01*
X97710855Y-61547382D01*
X97620531Y-61520441D01*
X97584451Y-61502865D01*
X97557973Y-61498674D01*
X97552051Y-61520594D01*
X97540833Y-61540866D01*
X97497430Y-61552938D01*
X97413186Y-61556471D01*
X97274321Y-61556471D01*
X97281712Y-61120686D01*
X97552051Y-61120686D01*
X97561430Y-61185829D01*
X97601855Y-61257647D01*
X97616776Y-61270848D01*
X97677935Y-61298620D01*
X97769943Y-61305766D01*
X97825152Y-61302974D01*
X97928458Y-61281952D01*
X97992488Y-61242782D01*
X98014084Y-61188122D01*
X97990086Y-61120628D01*
X97976084Y-61102964D01*
X97913544Y-61063345D01*
X97814564Y-61040722D01*
X97673448Y-61033530D01*
X97552051Y-61033530D01*
X97552051Y-61120686D01*
X97281712Y-61120686D01*
X97282451Y-61077108D01*
X97284660Y-60966258D01*
X97290478Y-60800305D01*
X97300284Y-60673409D01*
X97316016Y-60578654D01*
X97339611Y-60509120D01*
X97373008Y-60457890D01*
X97418144Y-60418046D01*
X97476956Y-60382669D01*
X97507297Y-60369163D01*
X97612258Y-60343669D01*
X97738851Y-60333129D01*
X97869734Y-60337350D01*
X97987562Y-60356140D01*
X98074992Y-60389305D01*
X98105404Y-60408562D01*
X98175422Y-60465636D01*
X98199120Y-60513427D01*
X98193365Y-60522662D01*
X98157499Y-60554919D01*
X98099598Y-60597950D01*
X98069996Y-60618091D01*
X98019585Y-60646629D01*
X97986827Y-60649354D01*
X97956412Y-60629657D01*
X97880609Y-60589766D01*
X97778612Y-60573361D01*
X97674378Y-60585920D01*
X97672406Y-60586489D01*
X97598888Y-60618431D01*
X97562498Y-60668428D01*
X97552432Y-60751116D01*
X97552051Y-60829780D01*
X97811947Y-60838273D01*
X97853353Y-60839670D01*
X97957744Y-60844528D01*
X98027727Y-60852161D01*
X98075030Y-60865425D01*
X98111385Y-60887181D01*
X98148521Y-60920285D01*
X98209837Y-60996855D01*
X98254776Y-61110157D01*
X98259182Y-61188122D01*
G37*
X98259182Y-61188122D02*
X98261477Y-61228738D01*
X98231436Y-61341789D01*
X98166149Y-61438505D01*
X98067115Y-61508077D01*
X98057396Y-61512305D01*
X97949037Y-61542767D01*
X97826940Y-61554642D01*
X97710855Y-61547382D01*
X97620531Y-61520441D01*
X97584451Y-61502865D01*
X97557973Y-61498674D01*
X97552051Y-61520594D01*
X97540833Y-61540866D01*
X97497430Y-61552938D01*
X97413186Y-61556471D01*
X97274321Y-61556471D01*
X97281712Y-61120686D01*
X97552051Y-61120686D01*
X97561430Y-61185829D01*
X97601855Y-61257647D01*
X97616776Y-61270848D01*
X97677935Y-61298620D01*
X97769943Y-61305766D01*
X97825152Y-61302974D01*
X97928458Y-61281952D01*
X97992488Y-61242782D01*
X98014084Y-61188122D01*
X97990086Y-61120628D01*
X97976084Y-61102964D01*
X97913544Y-61063345D01*
X97814564Y-61040722D01*
X97673448Y-61033530D01*
X97552051Y-61033530D01*
X97552051Y-61120686D01*
X97281712Y-61120686D01*
X97282451Y-61077108D01*
X97284660Y-60966258D01*
X97290478Y-60800305D01*
X97300284Y-60673409D01*
X97316016Y-60578654D01*
X97339611Y-60509120D01*
X97373008Y-60457890D01*
X97418144Y-60418046D01*
X97476956Y-60382669D01*
X97507297Y-60369163D01*
X97612258Y-60343669D01*
X97738851Y-60333129D01*
X97869734Y-60337350D01*
X97987562Y-60356140D01*
X98074992Y-60389305D01*
X98105404Y-60408562D01*
X98175422Y-60465636D01*
X98199120Y-60513427D01*
X98193365Y-60522662D01*
X98157499Y-60554919D01*
X98099598Y-60597950D01*
X98069996Y-60618091D01*
X98019585Y-60646629D01*
X97986827Y-60649354D01*
X97956412Y-60629657D01*
X97880609Y-60589766D01*
X97778612Y-60573361D01*
X97674378Y-60585920D01*
X97672406Y-60586489D01*
X97598888Y-60618431D01*
X97562498Y-60668428D01*
X97552432Y-60751116D01*
X97552051Y-60829780D01*
X97811947Y-60838273D01*
X97853353Y-60839670D01*
X97957744Y-60844528D01*
X98027727Y-60852161D01*
X98075030Y-60865425D01*
X98111385Y-60887181D01*
X98148521Y-60920285D01*
X98209837Y-60996855D01*
X98254776Y-61110157D01*
X98259182Y-61188122D01*
G36*
X99337987Y-60727297D02*
G01*
X99371653Y-60827741D01*
X99411478Y-60938935D01*
X99444734Y-61023172D01*
X99468671Y-61073587D01*
X99480541Y-61083318D01*
X99483405Y-61074856D01*
X99498908Y-61022953D01*
X99523600Y-60936265D01*
X99554740Y-60824497D01*
X99589587Y-60697353D01*
X99684391Y-60348726D01*
X99829143Y-60341163D01*
X99841362Y-60340557D01*
X99919420Y-60339755D01*
X99956929Y-60347768D01*
X99961706Y-60366065D01*
X99955672Y-60383934D01*
X99935820Y-60445095D01*
X99904740Y-60541960D01*
X99864647Y-60667602D01*
X99817754Y-60815091D01*
X99766278Y-60977500D01*
X99583038Y-61556471D01*
X99353822Y-61556471D01*
X99245818Y-61189167D01*
X99225875Y-61121720D01*
X99189017Y-60999101D01*
X99157522Y-60896930D01*
X99134227Y-60824336D01*
X99121967Y-60790446D01*
X99118474Y-60787918D01*
X99101475Y-60809778D01*
X99077206Y-60867586D01*
X99049699Y-60952309D01*
X99048245Y-60957285D01*
X99011417Y-61082322D01*
X98969279Y-61223896D01*
X98930667Y-61352316D01*
X98868056Y-61559044D01*
X98637128Y-61544020D01*
X98530187Y-61207843D01*
X98483236Y-61060128D01*
X98430643Y-60894458D01*
X98380282Y-60735638D01*
X98338595Y-60603971D01*
X98253944Y-60336275D01*
X98537146Y-60336275D01*
X98605789Y-60591520D01*
X98624038Y-60658963D01*
X98658550Y-60784697D01*
X98690510Y-60899083D01*
X98714806Y-60983726D01*
X98755180Y-61120686D01*
X98883941Y-60734706D01*
X99012703Y-60348726D01*
X99111189Y-60341332D01*
X99209676Y-60333939D01*
X99337987Y-60727297D01*
G37*
X99337987Y-60727297D02*
X99371653Y-60827741D01*
X99411478Y-60938935D01*
X99444734Y-61023172D01*
X99468671Y-61073587D01*
X99480541Y-61083318D01*
X99483405Y-61074856D01*
X99498908Y-61022953D01*
X99523600Y-60936265D01*
X99554740Y-60824497D01*
X99589587Y-60697353D01*
X99684391Y-60348726D01*
X99829143Y-60341163D01*
X99841362Y-60340557D01*
X99919420Y-60339755D01*
X99956929Y-60347768D01*
X99961706Y-60366065D01*
X99955672Y-60383934D01*
X99935820Y-60445095D01*
X99904740Y-60541960D01*
X99864647Y-60667602D01*
X99817754Y-60815091D01*
X99766278Y-60977500D01*
X99583038Y-61556471D01*
X99353822Y-61556471D01*
X99245818Y-61189167D01*
X99225875Y-61121720D01*
X99189017Y-60999101D01*
X99157522Y-60896930D01*
X99134227Y-60824336D01*
X99121967Y-60790446D01*
X99118474Y-60787918D01*
X99101475Y-60809778D01*
X99077206Y-60867586D01*
X99049699Y-60952309D01*
X99048245Y-60957285D01*
X99011417Y-61082322D01*
X98969279Y-61223896D01*
X98930667Y-61352316D01*
X98868056Y-61559044D01*
X98637128Y-61544020D01*
X98530187Y-61207843D01*
X98483236Y-61060128D01*
X98430643Y-60894458D01*
X98380282Y-60735638D01*
X98338595Y-60603971D01*
X98253944Y-60336275D01*
X98537146Y-60336275D01*
X98605789Y-60591520D01*
X98624038Y-60658963D01*
X98658550Y-60784697D01*
X98690510Y-60899083D01*
X98714806Y-60983726D01*
X98755180Y-61120686D01*
X98883941Y-60734706D01*
X99012703Y-60348726D01*
X99111189Y-60341332D01*
X99209676Y-60333939D01*
X99337987Y-60727297D01*
G36*
X104175972Y-59086582D02*
G01*
X104175972Y-61559073D01*
X104045237Y-61551547D01*
X103914502Y-61544020D01*
X103908286Y-61145588D01*
X103906447Y-61048704D01*
X103901227Y-60903146D01*
X103892267Y-60796334D01*
X103877920Y-60721087D01*
X103856538Y-60670227D01*
X103826476Y-60636574D01*
X103786084Y-60612947D01*
X103710295Y-60588818D01*
X103634924Y-60598194D01*
X103555334Y-60649763D01*
X103478717Y-60714231D01*
X103478717Y-61556471D01*
X103204796Y-61556471D01*
X103204796Y-61099701D01*
X103205059Y-60956531D01*
X103206516Y-60829309D01*
X103210018Y-60736184D01*
X103216414Y-60668713D01*
X103226552Y-60618454D01*
X103241280Y-60576966D01*
X103261446Y-60535805D01*
X103266227Y-60527066D01*
X103329818Y-60441954D01*
X103404244Y-60382476D01*
X103493972Y-60351245D01*
X103612789Y-60337342D01*
X103731776Y-60344872D01*
X103828582Y-60374267D01*
X103902051Y-60412259D01*
X103902051Y-59590015D01*
X103801384Y-59642486D01*
X103759333Y-59661549D01*
X103626603Y-59688506D01*
X103494696Y-59669874D01*
X103372422Y-59607929D01*
X103268589Y-59504943D01*
X103252323Y-59480738D01*
X103236690Y-59445256D01*
X103226493Y-59397015D01*
X103220605Y-59326757D01*
X103217899Y-59225221D01*
X103217413Y-59119428D01*
X103480476Y-59119428D01*
X103480698Y-59207779D01*
X103487452Y-59266700D01*
X103502633Y-59308752D01*
X103528134Y-59346499D01*
X103560528Y-59381594D01*
X103612331Y-59408154D01*
X103690384Y-59414902D01*
X103759335Y-59409029D01*
X103827582Y-59379641D01*
X103871535Y-59320107D01*
X103895067Y-59224423D01*
X103902051Y-59086582D01*
X103900245Y-59013254D01*
X103882218Y-58874833D01*
X103845025Y-58781233D01*
X103788876Y-58733116D01*
X103732166Y-58719579D01*
X103633403Y-58725925D01*
X103549957Y-58765223D01*
X103529985Y-58783244D01*
X103508822Y-58814422D01*
X103495738Y-58860833D01*
X103487968Y-58934000D01*
X103482749Y-59045448D01*
X103480476Y-59119428D01*
X103217413Y-59119428D01*
X103217247Y-59083149D01*
X103217470Y-59018324D01*
X103221287Y-58867538D01*
X103231920Y-58754896D01*
X103252052Y-58671885D01*
X103284370Y-58609991D01*
X103331559Y-58560700D01*
X103396305Y-58515499D01*
X103448808Y-58489560D01*
X103573288Y-58460953D01*
X103704498Y-58464851D01*
X103821119Y-58501935D01*
X103871170Y-58526176D01*
X103896343Y-58528681D01*
X103902051Y-58506620D01*
X103902056Y-58505952D01*
X103914357Y-58483426D01*
X103956782Y-58471879D01*
X104039012Y-58468628D01*
X104175972Y-58468628D01*
X104175972Y-59086582D01*
G37*
X104175972Y-59086582D02*
X104175972Y-61559073D01*
X104045237Y-61551547D01*
X103914502Y-61544020D01*
X103908286Y-61145588D01*
X103906447Y-61048704D01*
X103901227Y-60903146D01*
X103892267Y-60796334D01*
X103877920Y-60721087D01*
X103856538Y-60670227D01*
X103826476Y-60636574D01*
X103786084Y-60612947D01*
X103710295Y-60588818D01*
X103634924Y-60598194D01*
X103555334Y-60649763D01*
X103478717Y-60714231D01*
X103478717Y-61556471D01*
X103204796Y-61556471D01*
X103204796Y-61099701D01*
X103205059Y-60956531D01*
X103206516Y-60829309D01*
X103210018Y-60736184D01*
X103216414Y-60668713D01*
X103226552Y-60618454D01*
X103241280Y-60576966D01*
X103261446Y-60535805D01*
X103266227Y-60527066D01*
X103329818Y-60441954D01*
X103404244Y-60382476D01*
X103493972Y-60351245D01*
X103612789Y-60337342D01*
X103731776Y-60344872D01*
X103828582Y-60374267D01*
X103902051Y-60412259D01*
X103902051Y-59590015D01*
X103801384Y-59642486D01*
X103759333Y-59661549D01*
X103626603Y-59688506D01*
X103494696Y-59669874D01*
X103372422Y-59607929D01*
X103268589Y-59504943D01*
X103252323Y-59480738D01*
X103236690Y-59445256D01*
X103226493Y-59397015D01*
X103220605Y-59326757D01*
X103217899Y-59225221D01*
X103217413Y-59119428D01*
X103480476Y-59119428D01*
X103480698Y-59207779D01*
X103487452Y-59266700D01*
X103502633Y-59308752D01*
X103528134Y-59346499D01*
X103560528Y-59381594D01*
X103612331Y-59408154D01*
X103690384Y-59414902D01*
X103759335Y-59409029D01*
X103827582Y-59379641D01*
X103871535Y-59320107D01*
X103895067Y-59224423D01*
X103902051Y-59086582D01*
X103900245Y-59013254D01*
X103882218Y-58874833D01*
X103845025Y-58781233D01*
X103788876Y-58733116D01*
X103732166Y-58719579D01*
X103633403Y-58725925D01*
X103549957Y-58765223D01*
X103529985Y-58783244D01*
X103508822Y-58814422D01*
X103495738Y-58860833D01*
X103487968Y-58934000D01*
X103482749Y-59045448D01*
X103480476Y-59119428D01*
X103217413Y-59119428D01*
X103217247Y-59083149D01*
X103217470Y-59018324D01*
X103221287Y-58867538D01*
X103231920Y-58754896D01*
X103252052Y-58671885D01*
X103284370Y-58609991D01*
X103331559Y-58560700D01*
X103396305Y-58515499D01*
X103448808Y-58489560D01*
X103573288Y-58460953D01*
X103704498Y-58464851D01*
X103821119Y-58501935D01*
X103871170Y-58526176D01*
X103896343Y-58528681D01*
X103902051Y-58506620D01*
X103902056Y-58505952D01*
X103914357Y-58483426D01*
X103956782Y-58471879D01*
X104039012Y-58468628D01*
X104175972Y-58468628D01*
X104175972Y-59086582D01*
G36*
X105343873Y-59063944D02*
G01*
X105342535Y-59134666D01*
X105339320Y-59212653D01*
X105332022Y-59307754D01*
X105319590Y-59375160D01*
X105299060Y-59428570D01*
X105267468Y-59481685D01*
X105266123Y-59483699D01*
X105188333Y-59569755D01*
X105093155Y-59635391D01*
X104982477Y-59674339D01*
X104836880Y-59686985D01*
X104694180Y-59662119D01*
X104566626Y-59602198D01*
X104466470Y-59509681D01*
X104437716Y-59465967D01*
X104384018Y-59330073D01*
X104357387Y-59162408D01*
X104357842Y-59119997D01*
X104625480Y-59119997D01*
X104625984Y-59199314D01*
X104634394Y-59252267D01*
X104653555Y-59292956D01*
X104686315Y-59335479D01*
X104731775Y-59377676D01*
X104822697Y-59415333D01*
X104920325Y-59408338D01*
X105013631Y-59356002D01*
X105039951Y-59331006D01*
X105068053Y-59288214D01*
X105083637Y-59228068D01*
X105092470Y-59134348D01*
X105094903Y-59063944D01*
X105081573Y-58920168D01*
X105040664Y-58817231D01*
X104971998Y-58754567D01*
X104891506Y-58724560D01*
X104795511Y-58727086D01*
X104706528Y-58777746D01*
X104685255Y-58797031D01*
X104658410Y-58830774D01*
X104642483Y-58874920D01*
X104633646Y-58942601D01*
X104628072Y-59046950D01*
X104625480Y-59119997D01*
X104357842Y-59119997D01*
X104359441Y-58971126D01*
X104362062Y-58943996D01*
X104398635Y-58770229D01*
X104466298Y-58635334D01*
X104565195Y-58539163D01*
X104695470Y-58481568D01*
X104857267Y-58462402D01*
X104918396Y-58464201D01*
X105043756Y-58486211D01*
X105146263Y-58538746D01*
X105241832Y-58628686D01*
X105257117Y-58646737D01*
X105298341Y-58707530D01*
X105325434Y-58776367D01*
X105340457Y-58863600D01*
X105345471Y-58979582D01*
X105343873Y-59063944D01*
G37*
X105343873Y-59063944D02*
X105342535Y-59134666D01*
X105339320Y-59212653D01*
X105332022Y-59307754D01*
X105319590Y-59375160D01*
X105299060Y-59428570D01*
X105267468Y-59481685D01*
X105266123Y-59483699D01*
X105188333Y-59569755D01*
X105093155Y-59635391D01*
X104982477Y-59674339D01*
X104836880Y-59686985D01*
X104694180Y-59662119D01*
X104566626Y-59602198D01*
X104466470Y-59509681D01*
X104437716Y-59465967D01*
X104384018Y-59330073D01*
X104357387Y-59162408D01*
X104357842Y-59119997D01*
X104625480Y-59119997D01*
X104625984Y-59199314D01*
X104634394Y-59252267D01*
X104653555Y-59292956D01*
X104686315Y-59335479D01*
X104731775Y-59377676D01*
X104822697Y-59415333D01*
X104920325Y-59408338D01*
X105013631Y-59356002D01*
X105039951Y-59331006D01*
X105068053Y-59288214D01*
X105083637Y-59228068D01*
X105092470Y-59134348D01*
X105094903Y-59063944D01*
X105081573Y-58920168D01*
X105040664Y-58817231D01*
X104971998Y-58754567D01*
X104891506Y-58724560D01*
X104795511Y-58727086D01*
X104706528Y-58777746D01*
X104685255Y-58797031D01*
X104658410Y-58830774D01*
X104642483Y-58874920D01*
X104633646Y-58942601D01*
X104628072Y-59046950D01*
X104625480Y-59119997D01*
X104357842Y-59119997D01*
X104359441Y-58971126D01*
X104362062Y-58943996D01*
X104398635Y-58770229D01*
X104466298Y-58635334D01*
X104565195Y-58539163D01*
X104695470Y-58481568D01*
X104857267Y-58462402D01*
X104918396Y-58464201D01*
X105043756Y-58486211D01*
X105146263Y-58538746D01*
X105241832Y-58628686D01*
X105257117Y-58646737D01*
X105298341Y-58707530D01*
X105325434Y-58776367D01*
X105340457Y-58863600D01*
X105345471Y-58979582D01*
X105343873Y-59063944D01*
G36*
X95576058Y-58474329D02*
G01*
X95711935Y-58527267D01*
X95826852Y-58614655D01*
X95911730Y-58734680D01*
X95917462Y-58746918D01*
X95953852Y-58866281D01*
X95972033Y-59008864D01*
X95971890Y-59157318D01*
X95953307Y-59294297D01*
X95916169Y-59402451D01*
X95870316Y-59477831D01*
X95769386Y-59584620D01*
X95643186Y-59652500D01*
X95535214Y-59679950D01*
X95370805Y-59682947D01*
X95213481Y-59641549D01*
X95073968Y-59557546D01*
X94983671Y-59483116D01*
X95065001Y-59399205D01*
X95116382Y-59349496D01*
X95162858Y-59321820D01*
X95205952Y-59327914D01*
X95261070Y-59365098D01*
X95283048Y-59379655D01*
X95375895Y-59409449D01*
X95482612Y-59409431D01*
X95582525Y-59378723D01*
X95620146Y-59354064D01*
X95675330Y-59281245D01*
X95702995Y-59174290D01*
X95704775Y-59028517D01*
X95704770Y-59028435D01*
X95684187Y-58898014D01*
X95638845Y-58807587D01*
X95564235Y-58751652D01*
X95455845Y-58724704D01*
X95387588Y-58721079D01*
X95327948Y-58735921D01*
X95266782Y-58778918D01*
X95187629Y-58845520D01*
X95087389Y-58764965D01*
X95050767Y-58734105D01*
X95005024Y-58689889D01*
X94987149Y-58663832D01*
X94993479Y-58652089D01*
X95029938Y-58616036D01*
X95088018Y-58570185D01*
X95133461Y-58540348D01*
X95277741Y-58479056D01*
X95428300Y-58457654D01*
X95576058Y-58474329D01*
G37*
X95576058Y-58474329D02*
X95711935Y-58527267D01*
X95826852Y-58614655D01*
X95911730Y-58734680D01*
X95917462Y-58746918D01*
X95953852Y-58866281D01*
X95972033Y-59008864D01*
X95971890Y-59157318D01*
X95953307Y-59294297D01*
X95916169Y-59402451D01*
X95870316Y-59477831D01*
X95769386Y-59584620D01*
X95643186Y-59652500D01*
X95535214Y-59679950D01*
X95370805Y-59682947D01*
X95213481Y-59641549D01*
X95073968Y-59557546D01*
X94983671Y-59483116D01*
X95065001Y-59399205D01*
X95116382Y-59349496D01*
X95162858Y-59321820D01*
X95205952Y-59327914D01*
X95261070Y-59365098D01*
X95283048Y-59379655D01*
X95375895Y-59409449D01*
X95482612Y-59409431D01*
X95582525Y-59378723D01*
X95620146Y-59354064D01*
X95675330Y-59281245D01*
X95702995Y-59174290D01*
X95704775Y-59028517D01*
X95704770Y-59028435D01*
X95684187Y-58898014D01*
X95638845Y-58807587D01*
X95564235Y-58751652D01*
X95455845Y-58724704D01*
X95387588Y-58721079D01*
X95327948Y-58735921D01*
X95266782Y-58778918D01*
X95187629Y-58845520D01*
X95087389Y-58764965D01*
X95050767Y-58734105D01*
X95005024Y-58689889D01*
X94987149Y-58663832D01*
X94993479Y-58652089D01*
X95029938Y-58616036D01*
X95088018Y-58570185D01*
X95133461Y-58540348D01*
X95277741Y-58479056D01*
X95428300Y-58457654D01*
X95576058Y-58474329D01*
G36*
X96222003Y-60811033D02*
G01*
X96231457Y-60946373D01*
X96228219Y-61039330D01*
X96198727Y-61217105D01*
X96138046Y-61356892D01*
X96045639Y-61459689D01*
X95920972Y-61526496D01*
X95880693Y-61538300D01*
X95736870Y-61554786D01*
X95585006Y-61540873D01*
X95447835Y-61497935D01*
X95399511Y-61473565D01*
X95330224Y-61431819D01*
X95288234Y-61397468D01*
X95282034Y-61389620D01*
X95270436Y-61360917D01*
X95287147Y-61329714D01*
X95338038Y-61282459D01*
X95362597Y-61261887D01*
X95410977Y-61224242D01*
X95436344Y-61208855D01*
X95443611Y-61210440D01*
X95485261Y-61227574D01*
X95547443Y-61257647D01*
X95567717Y-61267540D01*
X95687317Y-61304275D01*
X95791223Y-61294805D01*
X95882338Y-61238971D01*
X95892939Y-61228654D01*
X95943626Y-61164031D01*
X95972587Y-61102010D01*
X95988626Y-61033530D01*
X95236168Y-61033530D01*
X95236307Y-60902794D01*
X95236387Y-60889792D01*
X95246546Y-60784903D01*
X95510090Y-60784903D01*
X95513202Y-60806657D01*
X95529179Y-60821649D01*
X95567260Y-60829970D01*
X95636677Y-60833549D01*
X95746659Y-60834314D01*
X95807803Y-60833521D01*
X95898055Y-60828888D01*
X95960133Y-60821038D01*
X95983227Y-60811033D01*
X95963531Y-60728677D01*
X95905868Y-60651811D01*
X95822701Y-60598484D01*
X95726628Y-60580038D01*
X95655895Y-60600832D01*
X95585188Y-60651664D01*
X95531439Y-60717892D01*
X95510090Y-60784903D01*
X95246546Y-60784903D01*
X95251965Y-60728950D01*
X95297309Y-60598106D01*
X95376429Y-60485313D01*
X95424696Y-60437600D01*
X95524380Y-60373731D01*
X95643410Y-60342784D01*
X95793760Y-60340607D01*
X95866385Y-60349139D01*
X96000444Y-60393440D01*
X96103082Y-60474069D01*
X96175197Y-60592271D01*
X96217689Y-60749291D01*
X96222003Y-60811033D01*
G37*
X96222003Y-60811033D02*
X96231457Y-60946373D01*
X96228219Y-61039330D01*
X96198727Y-61217105D01*
X96138046Y-61356892D01*
X96045639Y-61459689D01*
X95920972Y-61526496D01*
X95880693Y-61538300D01*
X95736870Y-61554786D01*
X95585006Y-61540873D01*
X95447835Y-61497935D01*
X95399511Y-61473565D01*
X95330224Y-61431819D01*
X95288234Y-61397468D01*
X95282034Y-61389620D01*
X95270436Y-61360917D01*
X95287147Y-61329714D01*
X95338038Y-61282459D01*
X95362597Y-61261887D01*
X95410977Y-61224242D01*
X95436344Y-61208855D01*
X95443611Y-61210440D01*
X95485261Y-61227574D01*
X95547443Y-61257647D01*
X95567717Y-61267540D01*
X95687317Y-61304275D01*
X95791223Y-61294805D01*
X95882338Y-61238971D01*
X95892939Y-61228654D01*
X95943626Y-61164031D01*
X95972587Y-61102010D01*
X95988626Y-61033530D01*
X95236168Y-61033530D01*
X95236307Y-60902794D01*
X95236387Y-60889792D01*
X95246546Y-60784903D01*
X95510090Y-60784903D01*
X95513202Y-60806657D01*
X95529179Y-60821649D01*
X95567260Y-60829970D01*
X95636677Y-60833549D01*
X95746659Y-60834314D01*
X95807803Y-60833521D01*
X95898055Y-60828888D01*
X95960133Y-60821038D01*
X95983227Y-60811033D01*
X95963531Y-60728677D01*
X95905868Y-60651811D01*
X95822701Y-60598484D01*
X95726628Y-60580038D01*
X95655895Y-60600832D01*
X95585188Y-60651664D01*
X95531439Y-60717892D01*
X95510090Y-60784903D01*
X95246546Y-60784903D01*
X95251965Y-60728950D01*
X95297309Y-60598106D01*
X95376429Y-60485313D01*
X95424696Y-60437600D01*
X95524380Y-60373731D01*
X95643410Y-60342784D01*
X95793760Y-60340607D01*
X95866385Y-60349139D01*
X96000444Y-60393440D01*
X96103082Y-60474069D01*
X96175197Y-60592271D01*
X96217689Y-60749291D01*
X96222003Y-60811033D01*
G36*
X94941324Y-58918035D02*
G01*
X94954283Y-58986032D01*
X94951077Y-59176632D01*
X94950660Y-59180380D01*
X94914856Y-59355271D01*
X94850166Y-59491247D01*
X94754576Y-59591296D01*
X94626070Y-59658405D01*
X94602481Y-59666079D01*
X94456268Y-59688696D01*
X94305051Y-59676084D01*
X94164467Y-59631017D01*
X94050154Y-59556269D01*
X93964529Y-59477157D01*
X94055544Y-59405191D01*
X94146559Y-59333224D01*
X94256245Y-59386514D01*
X94383162Y-59429695D01*
X94495205Y-59430987D01*
X94586874Y-59391314D01*
X94652840Y-59311683D01*
X94676488Y-59263968D01*
X94689689Y-59223189D01*
X94682051Y-59195641D01*
X94647780Y-59178731D01*
X94581085Y-59169864D01*
X94476171Y-59166445D01*
X94327247Y-59165882D01*
X93966168Y-59165882D01*
X93966168Y-58993190D01*
X93968866Y-58917376D01*
X94223102Y-58917376D01*
X94235312Y-58931321D01*
X94271465Y-58938578D01*
X94340180Y-58941332D01*
X94450079Y-58941765D01*
X94509011Y-58941073D01*
X94602007Y-58936500D01*
X94665090Y-58928491D01*
X94688325Y-58918035D01*
X94682380Y-58879456D01*
X94640479Y-58805634D01*
X94570655Y-58744990D01*
X94487416Y-58708362D01*
X94405271Y-58706589D01*
X94343438Y-58735960D01*
X94273373Y-58802800D01*
X94228823Y-58885735D01*
X94226213Y-58894562D01*
X94223102Y-58917376D01*
X93968866Y-58917376D01*
X93969419Y-58901853D01*
X93978963Y-58811484D01*
X93992598Y-58750396D01*
X94002537Y-58727074D01*
X94074883Y-58623202D01*
X94179417Y-58536569D01*
X94301666Y-58479845D01*
X94365430Y-58464355D01*
X94517362Y-58457304D01*
X94652739Y-58493174D01*
X94767839Y-58567974D01*
X94858944Y-58677711D01*
X94922332Y-58818395D01*
X94941324Y-58918035D01*
G37*
X94941324Y-58918035D02*
X94954283Y-58986032D01*
X94951077Y-59176632D01*
X94950660Y-59180380D01*
X94914856Y-59355271D01*
X94850166Y-59491247D01*
X94754576Y-59591296D01*
X94626070Y-59658405D01*
X94602481Y-59666079D01*
X94456268Y-59688696D01*
X94305051Y-59676084D01*
X94164467Y-59631017D01*
X94050154Y-59556269D01*
X93964529Y-59477157D01*
X94055544Y-59405191D01*
X94146559Y-59333224D01*
X94256245Y-59386514D01*
X94383162Y-59429695D01*
X94495205Y-59430987D01*
X94586874Y-59391314D01*
X94652840Y-59311683D01*
X94676488Y-59263968D01*
X94689689Y-59223189D01*
X94682051Y-59195641D01*
X94647780Y-59178731D01*
X94581085Y-59169864D01*
X94476171Y-59166445D01*
X94327247Y-59165882D01*
X93966168Y-59165882D01*
X93966168Y-58993190D01*
X93968866Y-58917376D01*
X94223102Y-58917376D01*
X94235312Y-58931321D01*
X94271465Y-58938578D01*
X94340180Y-58941332D01*
X94450079Y-58941765D01*
X94509011Y-58941073D01*
X94602007Y-58936500D01*
X94665090Y-58928491D01*
X94688325Y-58918035D01*
X94682380Y-58879456D01*
X94640479Y-58805634D01*
X94570655Y-58744990D01*
X94487416Y-58708362D01*
X94405271Y-58706589D01*
X94343438Y-58735960D01*
X94273373Y-58802800D01*
X94228823Y-58885735D01*
X94226213Y-58894562D01*
X94223102Y-58917376D01*
X93968866Y-58917376D01*
X93969419Y-58901853D01*
X93978963Y-58811484D01*
X93992598Y-58750396D01*
X94002537Y-58727074D01*
X94074883Y-58623202D01*
X94179417Y-58536569D01*
X94301666Y-58479845D01*
X94365430Y-58464355D01*
X94517362Y-58457304D01*
X94652739Y-58493174D01*
X94767839Y-58567974D01*
X94858944Y-58677711D01*
X94922332Y-58818395D01*
X94941324Y-58918035D01*
D10*
X88000000Y-85800000D02*
X88000000Y-79800000D01*
X88000000Y-84050000D02*
X88000000Y-78050000D01*
X100000000Y-84050000D02*
X88000000Y-84050000D01*
X88000000Y-78050000D02*
X100000000Y-78050000D01*
X100000000Y-78050000D02*
X100000000Y-84050000D01*
X89890093Y-37646000D02*
X107670093Y-37646000D01*
X89890093Y-40186000D02*
X92430093Y-40186000D01*
X89890093Y-70666000D02*
X89890093Y-37646000D01*
X89890093Y-70666000D02*
X89890093Y-40186000D01*
X91838684Y-47825000D02*
X91838684Y-45265745D01*
X92430093Y-40186000D02*
X92430093Y-70666000D01*
X92430093Y-70666000D02*
X89890093Y-70666000D01*
X93981132Y-45265745D02*
X93981132Y-47825000D01*
X105130093Y-40186000D02*
X107670093Y-40186000D01*
X105130093Y-70666000D02*
X105130093Y-40186000D01*
X107670093Y-37646000D02*
X107670093Y-70666000D01*
X107670093Y-70666000D02*
X105130093Y-70666000D01*
X93981132Y-45265745D02*
G75*
G03*
X91838684Y-45265745I-1071224J0D01*
G01*
X91838684Y-47825000D02*
G75*
G03*
X93981132Y-47825000I1071224J0D01*
G01*
D13*
X127925000Y-40975000D02*
X129325000Y-40975000D01*
D14*
X128625000Y-45225000D02*
X128625000Y-45625000D01*
X128625000Y-45625000D02*
X128075000Y-45625000D01*
X128625000Y-45625000D02*
X129175000Y-45625000D01*
X128625000Y-45625000D02*
X128225000Y-46225000D01*
X128225000Y-46225000D02*
X129025000Y-46225000D01*
X128625000Y-46225000D02*
X128625000Y-46725000D01*
X129025000Y-46225000D02*
X128625000Y-45625000D01*
D13*
X146975000Y-38475000D02*
X148375000Y-38475000D01*
D14*
X147675000Y-42725000D02*
X147675000Y-43125000D01*
X147675000Y-43125000D02*
X147125000Y-43125000D01*
X147675000Y-43125000D02*
X148225000Y-43125000D01*
X147675000Y-43125000D02*
X147275000Y-43725000D01*
X147275000Y-43725000D02*
X148075000Y-43725000D01*
X147675000Y-43725000D02*
X147675000Y-44225000D01*
X148075000Y-43725000D02*
X147675000Y-43125000D01*
D13*
X166525000Y-37100000D02*
X167925000Y-37100000D01*
D14*
X167225000Y-41350000D02*
X167225000Y-41750000D01*
X167225000Y-41750000D02*
X166675000Y-41750000D01*
X167225000Y-41750000D02*
X167775000Y-41750000D01*
X167225000Y-41750000D02*
X166825000Y-42350000D01*
X166825000Y-42350000D02*
X167625000Y-42350000D01*
X167225000Y-42350000D02*
X167225000Y-42850000D01*
X167625000Y-42350000D02*
X167225000Y-41750000D01*
D13*
X185075000Y-38850000D02*
X186475000Y-38850000D01*
D14*
X185775000Y-43100000D02*
X185775000Y-43500000D01*
X185775000Y-43500000D02*
X185225000Y-43500000D01*
X185775000Y-43500000D02*
X186325000Y-43500000D01*
X185775000Y-43500000D02*
X185375000Y-44100000D01*
X185375000Y-44100000D02*
X186175000Y-44100000D01*
X185775000Y-44100000D02*
X185775000Y-44600000D01*
X186175000Y-44100000D02*
X185775000Y-43500000D01*
D13*
X204125000Y-43250000D02*
X205525000Y-43250000D01*
D14*
X204825000Y-47500000D02*
X204825000Y-47900000D01*
X204825000Y-47900000D02*
X204275000Y-47900000D01*
X204825000Y-47900000D02*
X205375000Y-47900000D01*
X204825000Y-47900000D02*
X204425000Y-48500000D01*
X204425000Y-48500000D02*
X205225000Y-48500000D01*
X204825000Y-48500000D02*
X204825000Y-49000000D01*
X205225000Y-48500000D02*
X204825000Y-47900000D01*
D13*
X223175000Y-43625000D02*
X224575000Y-43625000D01*
D14*
X223875000Y-47875000D02*
X223875000Y-48275000D01*
X223875000Y-48275000D02*
X223325000Y-48275000D01*
X223875000Y-48275000D02*
X224425000Y-48275000D01*
X223875000Y-48275000D02*
X223475000Y-48875000D01*
X223475000Y-48875000D02*
X224275000Y-48875000D01*
X223875000Y-48875000D02*
X223875000Y-49375000D01*
X224275000Y-48875000D02*
X223875000Y-48275000D01*
D13*
X127925000Y-79075000D02*
X129325000Y-79075000D01*
D14*
X128625000Y-83325000D02*
X128625000Y-83725000D01*
X128625000Y-83725000D02*
X128075000Y-83725000D01*
X128625000Y-83725000D02*
X129175000Y-83725000D01*
X128625000Y-83725000D02*
X128225000Y-84325000D01*
X128225000Y-84325000D02*
X129025000Y-84325000D01*
X128625000Y-84325000D02*
X128625000Y-84825000D01*
X129025000Y-84325000D02*
X128625000Y-83725000D01*
D13*
X127925000Y-98875000D02*
X129325000Y-98875000D01*
D14*
X128625000Y-103125000D02*
X128625000Y-103525000D01*
X128625000Y-103525000D02*
X128075000Y-103525000D01*
X128625000Y-103525000D02*
X129175000Y-103525000D01*
X128625000Y-103525000D02*
X128225000Y-104125000D01*
X128225000Y-104125000D02*
X129025000Y-104125000D01*
X128625000Y-104125000D02*
X128625000Y-104625000D01*
X129025000Y-104125000D02*
X128625000Y-103525000D01*
D13*
X109410000Y-99670000D02*
X110810000Y-99670000D01*
D14*
X110110000Y-103920000D02*
X110110000Y-104320000D01*
X110110000Y-104320000D02*
X109560000Y-104320000D01*
X110110000Y-104320000D02*
X110660000Y-104320000D01*
X110110000Y-104320000D02*
X109710000Y-104920000D01*
X109710000Y-104920000D02*
X110510000Y-104920000D01*
X110110000Y-104920000D02*
X110110000Y-105420000D01*
X110510000Y-104920000D02*
X110110000Y-104320000D01*
D13*
X101483761Y-125779849D02*
X102731170Y-125144262D01*
D14*
X104036925Y-129248833D02*
X104218521Y-129605236D01*
X104218521Y-129605236D02*
X103728468Y-129854930D01*
X104218521Y-129605236D02*
X104708575Y-129355541D01*
X104218521Y-129605236D02*
X104134513Y-130321436D01*
X104134513Y-130321436D02*
X104847318Y-129958243D01*
X104490916Y-130139840D02*
X104717911Y-130585343D01*
X104847318Y-129958243D02*
X104218521Y-129605236D01*
D10*
X124290000Y-46700000D02*
X124290000Y-45570000D01*
X124290000Y-45570000D02*
X122396000Y-45570000D01*
X122350000Y-46700000D02*
X124274000Y-46700000D01*
D14*
X124120000Y-46470000D02*
G75*
G03*
X124120000Y-46470000I-50000J0D01*
G01*
D10*
X162390000Y-41700000D02*
X162390000Y-40570000D01*
X162390000Y-40570000D02*
X160496000Y-40570000D01*
X160450000Y-41700000D02*
X162374000Y-41700000D01*
D14*
X162220000Y-41470000D02*
G75*
G03*
X162220000Y-41470000I-50000J0D01*
G01*
D10*
X124290000Y-84800000D02*
X124290000Y-83670000D01*
X124290000Y-83670000D02*
X122396000Y-83670000D01*
X122350000Y-84800000D02*
X124274000Y-84800000D01*
D14*
X124120000Y-84570000D02*
G75*
G03*
X124120000Y-84570000I-50000J0D01*
G01*
D10*
X143340000Y-82300000D02*
X143340000Y-81170000D01*
X143340000Y-81170000D02*
X141446000Y-81170000D01*
X141400000Y-82300000D02*
X143324000Y-82300000D01*
D14*
X143170000Y-82070000D02*
G75*
G03*
X143170000Y-82070000I-50000J0D01*
G01*
D10*
X162390000Y-98850000D02*
X162390000Y-97720000D01*
X162390000Y-97720000D02*
X160496000Y-97720000D01*
X160450000Y-98850000D02*
X162374000Y-98850000D01*
D14*
X162220000Y-98620000D02*
G75*
G03*
X162220000Y-98620000I-50000J0D01*
G01*
D10*
X200490000Y-106250000D02*
X200490000Y-105120000D01*
X200490000Y-105120000D02*
X198596000Y-105120000D01*
X198550000Y-106250000D02*
X200474000Y-106250000D01*
D14*
X200320000Y-106020000D02*
G75*
G03*
X200320000Y-106020000I-50000J0D01*
G01*
D10*
X101433992Y-135675005D02*
X102440829Y-135161995D01*
X102440829Y-135161995D02*
X101580971Y-133474429D01*
X100553250Y-133946452D02*
X101426728Y-135660749D01*
D15*
X101589045Y-135374566D02*
G75*
G03*
X101589045Y-135374566I-49999J0D01*
G01*
D13*
X94060386Y-73075000D02*
X94060386Y-75615000D01*
X94060386Y-75615000D02*
X103280435Y-75615000D01*
X104219615Y-73075000D02*
X94060386Y-73075000D01*
X104219615Y-74675771D02*
X103280435Y-75614951D01*
X104219615Y-74675771D02*
X104219615Y-73075000D01*
D10*
X120358460Y-124244462D02*
X120065994Y-123152965D01*
X120065994Y-123152965D02*
X118236531Y-123643169D01*
X118484564Y-124746570D02*
X120343005Y-124248603D01*
D15*
X120136427Y-124079239D02*
G75*
G03*
X120136427Y-124079239I-49999J0D01*
G01*
D10*
X219540000Y-68150000D02*
X219540000Y-67020000D01*
X219540000Y-67020000D02*
X217646000Y-67020000D01*
X217600000Y-68150000D02*
X219524000Y-68150000D01*
D14*
X219370000Y-67920000D02*
G75*
G03*
X219370000Y-67920000I-50000J0D01*
G01*
D10*
X219540000Y-87200000D02*
X219540000Y-86070000D01*
X219540000Y-86070000D02*
X217646000Y-86070000D01*
X217600000Y-87200000D02*
X219524000Y-87200000D01*
D14*
X219370000Y-86970000D02*
G75*
G03*
X219370000Y-86970000I-50000J0D01*
G01*
D10*
X219540000Y-106250000D02*
X219540000Y-105120000D01*
X219540000Y-105120000D02*
X217646000Y-105120000D01*
X217600000Y-106250000D02*
X219524000Y-106250000D01*
D14*
X219370000Y-106020000D02*
G75*
G03*
X219370000Y-106020000I-50000J0D01*
G01*
D10*
X181440000Y-44200000D02*
X181440000Y-43070000D01*
X181440000Y-43070000D02*
X179546000Y-43070000D01*
X179500000Y-44200000D02*
X181424000Y-44200000D01*
D14*
X181270000Y-43970000D02*
G75*
G03*
X181270000Y-43970000I-50000J0D01*
G01*
D13*
X127925000Y-60325000D02*
X129325000Y-60325000D01*
D14*
X128625000Y-64575000D02*
X128625000Y-64975000D01*
X128625000Y-64975000D02*
X128075000Y-64975000D01*
X128625000Y-64975000D02*
X129175000Y-64975000D01*
X128625000Y-64975000D02*
X128225000Y-65575000D01*
X128225000Y-65575000D02*
X129025000Y-65575000D01*
X128625000Y-65575000D02*
X128625000Y-66075000D01*
X129025000Y-65575000D02*
X128625000Y-64975000D01*
D13*
X146975000Y-57525000D02*
X148375000Y-57525000D01*
D14*
X147675000Y-61775000D02*
X147675000Y-62175000D01*
X147675000Y-62175000D02*
X147125000Y-62175000D01*
X147675000Y-62175000D02*
X148225000Y-62175000D01*
X147675000Y-62175000D02*
X147275000Y-62775000D01*
X147275000Y-62775000D02*
X148075000Y-62775000D01*
X147675000Y-62775000D02*
X147675000Y-63275000D01*
X148075000Y-62775000D02*
X147675000Y-62175000D01*
D13*
X166025000Y-55025000D02*
X167425000Y-55025000D01*
D14*
X166725000Y-59275000D02*
X166725000Y-59675000D01*
X166725000Y-59675000D02*
X166175000Y-59675000D01*
X166725000Y-59675000D02*
X167275000Y-59675000D01*
X166725000Y-59675000D02*
X166325000Y-60275000D01*
X166325000Y-60275000D02*
X167125000Y-60275000D01*
X166725000Y-60275000D02*
X166725000Y-60775000D01*
X167125000Y-60275000D02*
X166725000Y-59675000D01*
D13*
X185075000Y-57400000D02*
X186475000Y-57400000D01*
D14*
X185775000Y-61650000D02*
X185775000Y-62050000D01*
X185775000Y-62050000D02*
X185225000Y-62050000D01*
X185775000Y-62050000D02*
X186325000Y-62050000D01*
X185775000Y-62050000D02*
X185375000Y-62650000D01*
X185375000Y-62650000D02*
X186175000Y-62650000D01*
X185775000Y-62650000D02*
X185775000Y-63150000D01*
X186175000Y-62650000D02*
X185775000Y-62050000D01*
D13*
X204125000Y-63300000D02*
X205525000Y-63300000D01*
D14*
X204825000Y-67550000D02*
X204825000Y-67950000D01*
X204825000Y-67950000D02*
X204275000Y-67950000D01*
X204825000Y-67950000D02*
X205375000Y-67950000D01*
X204825000Y-67950000D02*
X204425000Y-68550000D01*
X204425000Y-68550000D02*
X205225000Y-68550000D01*
X204825000Y-68550000D02*
X204825000Y-69050000D01*
X205225000Y-68550000D02*
X204825000Y-67950000D01*
D13*
X223175000Y-62425000D02*
X224575000Y-62425000D01*
D14*
X223875000Y-66675000D02*
X223875000Y-67075000D01*
X223875000Y-67075000D02*
X223325000Y-67075000D01*
X223875000Y-67075000D02*
X224425000Y-67075000D01*
X223875000Y-67075000D02*
X223475000Y-67675000D01*
X223475000Y-67675000D02*
X224275000Y-67675000D01*
X223875000Y-67675000D02*
X223875000Y-68175000D01*
X224275000Y-67675000D02*
X223875000Y-67075000D01*
D10*
X200490000Y-49100000D02*
X200490000Y-47970000D01*
X200490000Y-47970000D02*
X198596000Y-47970000D01*
X198550000Y-49100000D02*
X200474000Y-49100000D01*
D14*
X200320000Y-48870000D02*
G75*
G03*
X200320000Y-48870000I-50000J0D01*
G01*
D10*
X143340000Y-63250000D02*
X143340000Y-62120000D01*
X143340000Y-62120000D02*
X141446000Y-62120000D01*
X141400000Y-63250000D02*
X143324000Y-63250000D01*
D14*
X143170000Y-63020000D02*
G75*
G03*
X143170000Y-63020000I-50000J0D01*
G01*
D10*
X181440000Y-63250000D02*
X181440000Y-62120000D01*
X181440000Y-62120000D02*
X179546000Y-62120000D01*
X179500000Y-63250000D02*
X181424000Y-63250000D01*
D14*
X181270000Y-63020000D02*
G75*
G03*
X181270000Y-63020000I-50000J0D01*
G01*
D10*
X162390000Y-60750000D02*
X162390000Y-59620000D01*
X162390000Y-59620000D02*
X160496000Y-59620000D01*
X160450000Y-60750000D02*
X162374000Y-60750000D01*
D14*
X162220000Y-60520000D02*
G75*
G03*
X162220000Y-60520000I-50000J0D01*
G01*
D10*
X181440000Y-82300000D02*
X181440000Y-81170000D01*
X181440000Y-81170000D02*
X179546000Y-81170000D01*
X179500000Y-82300000D02*
X181424000Y-82300000D01*
D14*
X181270000Y-82070000D02*
G75*
G03*
X181270000Y-82070000I-50000J0D01*
G01*
D10*
X219540000Y-49100000D02*
X219540000Y-47970000D01*
X219540000Y-47970000D02*
X217646000Y-47970000D01*
X217600000Y-49100000D02*
X219524000Y-49100000D01*
D14*
X219370000Y-48870000D02*
G75*
G03*
X219370000Y-48870000I-50000J0D01*
G01*
D10*
X124290000Y-65800000D02*
X124290000Y-64670000D01*
X124290000Y-64670000D02*
X122396000Y-64670000D01*
X122350000Y-65800000D02*
X124274000Y-65800000D01*
D14*
X124120000Y-65570000D02*
G75*
G03*
X124120000Y-65570000I-50000J0D01*
G01*
D10*
X181440000Y-120400000D02*
X181440000Y-119270000D01*
X181440000Y-119270000D02*
X179546000Y-119270000D01*
X179500000Y-120400000D02*
X181424000Y-120400000D01*
D14*
X181270000Y-120170000D02*
G75*
G03*
X181270000Y-120170000I-50000J0D01*
G01*
D10*
X200490000Y-68150000D02*
X200490000Y-67020000D01*
X200490000Y-67020000D02*
X198596000Y-67020000D01*
X198550000Y-68150000D02*
X200474000Y-68150000D01*
D14*
X200320000Y-67920000D02*
G75*
G03*
X200320000Y-67920000I-50000J0D01*
G01*
D10*
X181440000Y-101350000D02*
X181440000Y-100220000D01*
X181440000Y-100220000D02*
X179546000Y-100220000D01*
X179500000Y-101350000D02*
X181424000Y-101350000D01*
D14*
X181270000Y-101120000D02*
G75*
G03*
X181270000Y-101120000I-50000J0D01*
G01*
D10*
X200490000Y-87200000D02*
X200490000Y-86070000D01*
X200490000Y-86070000D02*
X198596000Y-86070000D01*
X198550000Y-87200000D02*
X200474000Y-87200000D01*
D14*
X200320000Y-86970000D02*
G75*
G03*
X200320000Y-86970000I-50000J0D01*
G01*
D10*
X162390000Y-117900000D02*
X162390000Y-116770000D01*
X162390000Y-116770000D02*
X160496000Y-116770000D01*
X160450000Y-117900000D02*
X162374000Y-117900000D01*
D14*
X162220000Y-117670000D02*
G75*
G03*
X162220000Y-117670000I-50000J0D01*
G01*
D10*
X162390000Y-79800000D02*
X162390000Y-78670000D01*
X162390000Y-78670000D02*
X160496000Y-78670000D01*
X160450000Y-79800000D02*
X162374000Y-79800000D01*
D14*
X162220000Y-79570000D02*
G75*
G03*
X162220000Y-79570000I-50000J0D01*
G01*
D10*
X143340000Y-44200000D02*
X143340000Y-43070000D01*
X143340000Y-43070000D02*
X141446000Y-43070000D01*
X141400000Y-44200000D02*
X143324000Y-44200000D01*
D14*
X143170000Y-43970000D02*
G75*
G03*
X143170000Y-43970000I-50000J0D01*
G01*
X125121075Y-123397954D02*
X124579413Y-122921926D01*
X124734705Y-123501481D02*
X124864114Y-123984444D01*
X124348334Y-123605009D02*
X125121075Y-123397954D01*
X124579413Y-122921926D02*
X124348334Y-123605009D01*
X124579413Y-122921926D02*
X125110673Y-122779575D01*
X124579413Y-122921926D02*
X124048154Y-123064276D01*
X124475886Y-122535556D02*
X124579413Y-122921926D01*
D13*
X122699757Y-118611544D02*
X124052053Y-118249198D01*
D10*
X143340000Y-101350000D02*
X143340000Y-100220000D01*
X143340000Y-100220000D02*
X141446000Y-100220000D01*
X141400000Y-101350000D02*
X143324000Y-101350000D01*
D14*
X143170000Y-101120000D02*
G75*
G03*
X143170000Y-101120000I-50000J0D01*
G01*
D13*
X166025000Y-73950000D02*
X167425000Y-73950000D01*
D14*
X166725000Y-78200000D02*
X166725000Y-78600000D01*
X166725000Y-78600000D02*
X166175000Y-78600000D01*
X166725000Y-78600000D02*
X167275000Y-78600000D01*
X166725000Y-78600000D02*
X166325000Y-79200000D01*
X166325000Y-79200000D02*
X167125000Y-79200000D01*
X166725000Y-79200000D02*
X166725000Y-79700000D01*
X167125000Y-79200000D02*
X166725000Y-78600000D01*
D13*
X204125000Y-81350000D02*
X205525000Y-81350000D01*
D14*
X204825000Y-85600000D02*
X204825000Y-86000000D01*
X204825000Y-86000000D02*
X204275000Y-86000000D01*
X204825000Y-86000000D02*
X205375000Y-86000000D01*
X204825000Y-86000000D02*
X204425000Y-86600000D01*
X204425000Y-86600000D02*
X205225000Y-86600000D01*
X204825000Y-86600000D02*
X204825000Y-87100000D01*
X205225000Y-86600000D02*
X204825000Y-86000000D01*
D13*
X223175000Y-81475000D02*
X224575000Y-81475000D01*
D14*
X223875000Y-85725000D02*
X223875000Y-86125000D01*
X223875000Y-86125000D02*
X223325000Y-86125000D01*
X223875000Y-86125000D02*
X224425000Y-86125000D01*
X223875000Y-86125000D02*
X223475000Y-86725000D01*
X223475000Y-86725000D02*
X224275000Y-86725000D01*
X223875000Y-86725000D02*
X223875000Y-87225000D01*
X224275000Y-86725000D02*
X223875000Y-86125000D01*
D13*
X146975000Y-114675000D02*
X148375000Y-114675000D01*
D14*
X147675000Y-118925000D02*
X147675000Y-119325000D01*
X147675000Y-119325000D02*
X147125000Y-119325000D01*
X147675000Y-119325000D02*
X148225000Y-119325000D01*
X147675000Y-119325000D02*
X147275000Y-119925000D01*
X147275000Y-119925000D02*
X148075000Y-119925000D01*
X147675000Y-119925000D02*
X147675000Y-120425000D01*
X148075000Y-119925000D02*
X147675000Y-119325000D01*
D13*
X166025000Y-112175000D02*
X167425000Y-112175000D01*
D14*
X166725000Y-116425000D02*
X166725000Y-116825000D01*
X166725000Y-116825000D02*
X166175000Y-116825000D01*
X166725000Y-116825000D02*
X167275000Y-116825000D01*
X166725000Y-116825000D02*
X166325000Y-117425000D01*
X166325000Y-117425000D02*
X167125000Y-117425000D01*
X166725000Y-117425000D02*
X166725000Y-117925000D01*
X167125000Y-117425000D02*
X166725000Y-116825000D01*
D13*
X223175000Y-100525000D02*
X224575000Y-100525000D01*
D14*
X223875000Y-104775000D02*
X223875000Y-105175000D01*
X223875000Y-105175000D02*
X223325000Y-105175000D01*
X223875000Y-105175000D02*
X224425000Y-105175000D01*
X223875000Y-105175000D02*
X223475000Y-105775000D01*
X223475000Y-105775000D02*
X224275000Y-105775000D01*
X223875000Y-105775000D02*
X223875000Y-106275000D01*
X224275000Y-105775000D02*
X223875000Y-105175000D01*
D13*
X146975000Y-95625000D02*
X148375000Y-95625000D01*
D14*
X147675000Y-99875000D02*
X147675000Y-100275000D01*
X147675000Y-100275000D02*
X147125000Y-100275000D01*
X147675000Y-100275000D02*
X148225000Y-100275000D01*
X147675000Y-100275000D02*
X147275000Y-100875000D01*
X147275000Y-100875000D02*
X148075000Y-100875000D01*
X147675000Y-100875000D02*
X147675000Y-101375000D01*
X148075000Y-100875000D02*
X147675000Y-100275000D01*
D13*
X166025000Y-93125000D02*
X167425000Y-93125000D01*
D14*
X166725000Y-97375000D02*
X166725000Y-97775000D01*
X166725000Y-97775000D02*
X166175000Y-97775000D01*
X166725000Y-97775000D02*
X167275000Y-97775000D01*
X166725000Y-97775000D02*
X166325000Y-98375000D01*
X166325000Y-98375000D02*
X167125000Y-98375000D01*
X166725000Y-98375000D02*
X166725000Y-98875000D01*
X167125000Y-98375000D02*
X166725000Y-97775000D01*
D13*
X185075000Y-95500000D02*
X186475000Y-95500000D01*
D14*
X185775000Y-99750000D02*
X185775000Y-100150000D01*
X185775000Y-100150000D02*
X185225000Y-100150000D01*
X185775000Y-100150000D02*
X186325000Y-100150000D01*
X185775000Y-100150000D02*
X185375000Y-100750000D01*
X185375000Y-100750000D02*
X186175000Y-100750000D01*
X185775000Y-100750000D02*
X185775000Y-101250000D01*
X186175000Y-100750000D02*
X185775000Y-100150000D01*
D13*
X204125000Y-101400000D02*
X205525000Y-101400000D01*
D14*
X204825000Y-105650000D02*
X204825000Y-106050000D01*
X204825000Y-106050000D02*
X204275000Y-106050000D01*
X204825000Y-106050000D02*
X205375000Y-106050000D01*
X204825000Y-106050000D02*
X204425000Y-106650000D01*
X204425000Y-106650000D02*
X205225000Y-106650000D01*
X204825000Y-106650000D02*
X204825000Y-107150000D01*
X205225000Y-106650000D02*
X204825000Y-106050000D01*
D13*
X146975000Y-76575000D02*
X148375000Y-76575000D01*
D14*
X147675000Y-80825000D02*
X147675000Y-81225000D01*
X147675000Y-81225000D02*
X147125000Y-81225000D01*
X147675000Y-81225000D02*
X148225000Y-81225000D01*
X147675000Y-81225000D02*
X147275000Y-81825000D01*
X147275000Y-81825000D02*
X148075000Y-81825000D01*
X147675000Y-81825000D02*
X147675000Y-82325000D01*
X148075000Y-81825000D02*
X147675000Y-81225000D01*
D13*
X184575000Y-113675000D02*
X185975000Y-113675000D01*
D14*
X185275000Y-117925000D02*
X185275000Y-118325000D01*
X185275000Y-118325000D02*
X184725000Y-118325000D01*
X185275000Y-118325000D02*
X185825000Y-118325000D01*
X185275000Y-118325000D02*
X184875000Y-118925000D01*
X184875000Y-118925000D02*
X185675000Y-118925000D01*
X185275000Y-118925000D02*
X185275000Y-119425000D01*
X185675000Y-118925000D02*
X185275000Y-118325000D01*
D10*
X143340000Y-120400000D02*
X143340000Y-119270000D01*
X143340000Y-119270000D02*
X141446000Y-119270000D01*
X141400000Y-120400000D02*
X143324000Y-120400000D01*
D14*
X143170000Y-120170000D02*
G75*
G03*
X143170000Y-120170000I-50000J0D01*
G01*
D13*
X185075000Y-76450000D02*
X186475000Y-76450000D01*
D14*
X185775000Y-80700000D02*
X185775000Y-81100000D01*
X185775000Y-81100000D02*
X185225000Y-81100000D01*
X185775000Y-81100000D02*
X186325000Y-81100000D01*
X185775000Y-81100000D02*
X185375000Y-81700000D01*
X185375000Y-81700000D02*
X186175000Y-81700000D01*
X185775000Y-81700000D02*
X185775000Y-82200000D01*
X186175000Y-81700000D02*
X185775000Y-81100000D01*
D10*
X124290000Y-103850000D02*
X124290000Y-102720000D01*
X124290000Y-102720000D02*
X122396000Y-102720000D01*
X122350000Y-103850000D02*
X124274000Y-103850000D01*
D14*
X124120000Y-103620000D02*
G75*
G03*
X124120000Y-103620000I-50000J0D01*
G01*
D13*
X106100000Y-110400000D02*
X106100000Y-98600000D01*
X102000000Y-110400000D02*
X106100000Y-110400000D01*
X102000000Y-98600000D02*
X106100000Y-98600000D01*
X100500000Y-104500000D02*
X99500000Y-104500000D01*
X100000000Y-105000000D02*
X100000000Y-104000000D01*
X98000000Y-110400000D02*
X93900000Y-110400000D01*
X93900000Y-110400000D02*
X93900000Y-108000000D01*
X93900000Y-105800000D02*
X93900000Y-103200000D01*
X93900000Y-101000000D02*
X93900000Y-98600000D01*
X93900000Y-98600000D02*
X98000000Y-98600000D01*
X103000000Y-104500000D02*
G75*
G03*
X103000000Y-104500000I-3000000J0D01*
G01*
D16*
X108149908Y-42725745D03*
X108149908Y-45265745D03*
X108149908Y-47805745D03*
X108149908Y-50345745D03*
X108149908Y-52885745D03*
X108149908Y-55425745D03*
X108149908Y-57965745D03*
X108149908Y-60505745D03*
X108149908Y-63045745D03*
X108149908Y-65585745D03*
X108149908Y-68125745D03*
X108149908Y-70665745D03*
X92909908Y-70665745D03*
X92909908Y-68125745D03*
X92909908Y-65585745D03*
X92909908Y-63045745D03*
X92909908Y-60505745D03*
X92909908Y-57965745D03*
X92909908Y-55425745D03*
X92909908Y-52885745D03*
X92909908Y-50345745D03*
X92909908Y-47805745D03*
X92909908Y-45265745D03*
X92909908Y-42725745D03*
%LPC*%
D17*
X206000000Y-60500000D03*
D18*
X107290000Y-85960000D03*
X107290000Y-77880000D03*
X109531965Y-85960000D03*
X109531965Y-77880000D03*
D19*
X89500000Y-82800000D03*
X96500000Y-82800000D03*
X89500000Y-81050000D03*
X96500000Y-81050000D03*
D20*
X98299999Y-78949999D03*
D21*
X94299999Y-78949999D03*
X91299999Y-78949999D03*
D22*
X99799999Y-83149999D03*
D16*
X108149908Y-42725745D03*
X108149908Y-45265745D03*
X108149908Y-47805745D03*
X108149908Y-50345745D03*
X108149908Y-52885745D03*
X108149908Y-55425745D03*
X108149908Y-57965745D03*
X108149908Y-60505745D03*
X108149908Y-63045745D03*
X108149908Y-65585745D03*
X108149908Y-68125745D03*
X108149908Y-70665745D03*
X92909908Y-70665745D03*
X92909908Y-68125745D03*
X92909908Y-65585745D03*
X92909908Y-63045745D03*
X92909908Y-60505745D03*
X92909908Y-57965745D03*
X92909908Y-55425745D03*
X92909908Y-52885745D03*
X92909908Y-50345745D03*
X92909908Y-47805745D03*
X92909908Y-45265745D03*
X92909908Y-42725745D03*
D23*
X128624999Y-41974999D03*
D24*
X128625000Y-44025000D03*
D25*
X128625000Y-47875000D03*
D26*
X128625000Y-49975000D03*
D23*
X147674999Y-39474999D03*
D24*
X147675000Y-41525000D03*
D25*
X147675000Y-45375000D03*
D26*
X147675000Y-47475000D03*
D23*
X167224999Y-38099999D03*
D24*
X167225000Y-40150000D03*
D25*
X167225000Y-44000000D03*
D26*
X167225000Y-46100000D03*
D23*
X185774999Y-39849999D03*
D24*
X185775000Y-41900000D03*
D25*
X185775000Y-45750000D03*
D26*
X185775000Y-47850000D03*
D23*
X204824999Y-44249999D03*
D24*
X204825000Y-46300000D03*
D25*
X204825000Y-50150000D03*
D26*
X204825000Y-52250000D03*
D23*
X223874999Y-44624999D03*
D24*
X223875000Y-46675000D03*
D25*
X223875000Y-50525000D03*
D26*
X223875000Y-52625000D03*
D23*
X128624999Y-80074999D03*
D24*
X128625000Y-82125000D03*
D25*
X128625000Y-85975000D03*
D26*
X128625000Y-88075000D03*
D23*
X128624999Y-99874999D03*
D24*
X128625000Y-101925000D03*
D25*
X128625000Y-105775000D03*
D26*
X128625000Y-107875000D03*
D23*
X110109999Y-100669999D03*
D24*
X110110000Y-102720000D03*
D25*
X110110000Y-106570000D03*
D26*
X110110000Y-108670000D03*
D27*
X102561455Y-126353061D03*
D28*
X103492137Y-128179625D03*
D29*
X105240000Y-131610000D03*
D26*
X106193380Y-133481114D03*
D30*
X126050000Y-50000000D03*
D31*
X125550000Y-53700000D03*
D32*
X123404992Y-46139999D03*
D33*
X123239999Y-44389999D03*
D34*
X123020005Y-46139999D03*
D31*
X120550000Y-55900000D03*
D35*
X120550000Y-50000000D03*
D36*
X120550000Y-46799730D03*
X120550000Y-43800000D03*
D37*
X117860012Y-46134896D03*
D38*
X117859999Y-44385051D03*
D31*
X115550000Y-53700000D03*
D30*
X115050000Y-50000000D03*
D39*
X123549999Y-55899999D03*
D40*
X112274999Y-53699999D03*
D30*
X164150000Y-45000000D03*
D31*
X163650000Y-48700000D03*
D32*
X161504992Y-41139999D03*
D33*
X161339999Y-39389999D03*
D34*
X161120005Y-41139999D03*
D31*
X158650000Y-50900000D03*
D35*
X158650000Y-45000000D03*
D36*
X158650000Y-41799730D03*
X158650000Y-38800000D03*
D37*
X155960012Y-41134896D03*
D38*
X155959999Y-39385051D03*
D31*
X153650000Y-48700000D03*
D30*
X153150000Y-45000000D03*
D39*
X161649999Y-50899999D03*
D40*
X150374999Y-48699999D03*
D30*
X126050000Y-88100000D03*
D31*
X125550000Y-91800000D03*
D32*
X123404992Y-84239999D03*
D33*
X123239999Y-82489999D03*
D34*
X123020005Y-84239999D03*
D31*
X120550000Y-94000000D03*
D35*
X120550000Y-88100000D03*
D36*
X120550000Y-84899730D03*
X120550000Y-81900000D03*
D37*
X117860012Y-84234896D03*
D38*
X117859999Y-82485051D03*
D31*
X115550000Y-91800000D03*
D30*
X115050000Y-88100000D03*
D39*
X123549999Y-93999999D03*
D40*
X112274999Y-91799999D03*
D30*
X145100000Y-85600000D03*
D31*
X144600000Y-89300000D03*
D32*
X142454992Y-81739999D03*
D33*
X142289999Y-79989999D03*
D34*
X142070005Y-81739999D03*
D31*
X139600000Y-91500000D03*
D35*
X139600000Y-85600000D03*
D36*
X139600000Y-82399730D03*
X139600000Y-79400000D03*
D37*
X136910012Y-81734896D03*
D38*
X136909999Y-79985051D03*
D31*
X134600000Y-89300000D03*
D30*
X134100000Y-85600000D03*
D39*
X142599999Y-91499999D03*
D40*
X131324999Y-89299999D03*
D30*
X164150000Y-102150000D03*
D31*
X163650000Y-105850000D03*
D32*
X161504992Y-98289999D03*
D33*
X161339999Y-96539999D03*
D34*
X161120005Y-98289999D03*
D31*
X158650000Y-108050000D03*
D35*
X158650000Y-102150000D03*
D36*
X158650000Y-98949730D03*
X158650000Y-95950000D03*
D37*
X155960012Y-98284896D03*
D38*
X155959999Y-96535051D03*
D31*
X153650000Y-105850000D03*
D30*
X153150000Y-102150000D03*
D39*
X161649999Y-108049999D03*
D40*
X150374999Y-105849999D03*
D30*
X202250000Y-109550000D03*
D31*
X201750000Y-113250000D03*
D32*
X199604992Y-105689999D03*
D33*
X199439999Y-103939999D03*
D34*
X199220005Y-105689999D03*
D31*
X196750000Y-115450000D03*
D35*
X196750000Y-109550000D03*
D36*
X196750000Y-106349730D03*
X196750000Y-103350000D03*
D37*
X194060012Y-105684896D03*
D38*
X194059999Y-103935051D03*
D31*
X191750000Y-113250000D03*
D30*
X191250000Y-109550000D03*
D39*
X199749999Y-115449999D03*
D40*
X188474999Y-113249999D03*
D30*
X99292694Y-138741345D03*
D31*
X95768974Y-139975606D03*
D41*
X101531170Y-134632222D03*
D42*
X103015526Y-133690729D03*
D43*
X101356389Y-134289196D03*
D31*
X91538808Y-136519353D03*
D35*
X96795746Y-133840809D03*
D36*
X99647207Y-132387917D03*
X102319986Y-131026068D03*
D44*
X99018348Y-129689292D03*
D45*
X100577466Y-128894867D03*
D31*
X91229069Y-131065541D03*
D30*
X94298798Y-128940273D03*
D46*
X92900778Y-139192372D03*
D47*
X89742249Y-128147494D03*
D18*
X96595000Y-75710000D03*
X99135000Y-75710000D03*
X101675000Y-75710000D03*
X104215000Y-75710000D03*
D30*
X122912592Y-126976495D03*
D31*
X123387260Y-130679830D03*
D48*
X119358669Y-123932599D03*
D49*
X118746365Y-122284932D03*
D50*
X118986800Y-124032241D03*
D31*
X119127032Y-134098962D03*
D35*
X117600000Y-128400000D03*
D36*
X116771709Y-125308777D03*
X115995322Y-122411260D03*
D51*
X114001309Y-125362816D03*
D52*
X113548403Y-123672599D03*
D31*
X113728001Y-133268021D03*
D30*
X112287408Y-129823505D03*
D53*
X122024809Y-133322504D03*
D54*
X110564593Y-134115652D03*
D30*
X221300000Y-71450000D03*
D31*
X220800000Y-75150000D03*
D32*
X218654992Y-67589999D03*
D33*
X218489999Y-65839999D03*
D34*
X218270005Y-67589999D03*
D31*
X215800000Y-77350000D03*
D35*
X215800000Y-71450000D03*
D36*
X215800000Y-68249730D03*
X215800000Y-65250000D03*
D37*
X213110012Y-67584896D03*
D38*
X213109999Y-65835051D03*
D31*
X210800000Y-75150000D03*
D30*
X210300000Y-71450000D03*
D39*
X218799999Y-77349999D03*
D40*
X207524999Y-75149999D03*
D30*
X221300000Y-90500000D03*
D31*
X220800000Y-94200000D03*
D32*
X218654992Y-86639999D03*
D33*
X218489999Y-84889999D03*
D34*
X218270005Y-86639999D03*
D31*
X215800000Y-96400000D03*
D35*
X215800000Y-90500000D03*
D36*
X215800000Y-87299730D03*
X215800000Y-84300000D03*
D37*
X213110012Y-86634896D03*
D38*
X213109999Y-84885051D03*
D31*
X210800000Y-94200000D03*
D30*
X210300000Y-90500000D03*
D39*
X218799999Y-96399999D03*
D40*
X207524999Y-94199999D03*
D30*
X221300000Y-109550000D03*
D31*
X220800000Y-113250000D03*
D32*
X218654992Y-105689999D03*
D33*
X218489999Y-103939999D03*
D34*
X218270005Y-105689999D03*
D31*
X215800000Y-115450000D03*
D35*
X215800000Y-109550000D03*
D36*
X215800000Y-106349730D03*
X215800000Y-103350000D03*
D37*
X213110012Y-105684896D03*
D38*
X213109999Y-103935051D03*
D31*
X210800000Y-113250000D03*
D30*
X210300000Y-109550000D03*
D39*
X218799999Y-115449999D03*
D40*
X207524999Y-113249999D03*
D30*
X183200000Y-47500000D03*
D31*
X182700000Y-51200000D03*
D32*
X180554992Y-43639999D03*
D33*
X180389999Y-41889999D03*
D34*
X180170005Y-43639999D03*
D31*
X177700000Y-53400000D03*
D35*
X177700000Y-47500000D03*
D36*
X177700000Y-44299730D03*
X177700000Y-41300000D03*
D37*
X175010012Y-43634896D03*
D38*
X175009999Y-41885051D03*
D31*
X172700000Y-51200000D03*
D30*
X172200000Y-47500000D03*
D39*
X180699999Y-53399999D03*
D40*
X169424999Y-51199999D03*
D23*
X128624999Y-61324999D03*
D24*
X128625000Y-63375000D03*
D25*
X128625000Y-67225000D03*
D26*
X128625000Y-69325000D03*
D23*
X147674999Y-58524999D03*
D24*
X147675000Y-60575000D03*
D25*
X147675000Y-64425000D03*
D26*
X147675000Y-66525000D03*
D23*
X166724999Y-56024999D03*
D24*
X166725000Y-58075000D03*
D25*
X166725000Y-61925000D03*
D26*
X166725000Y-64025000D03*
D23*
X185774999Y-58399999D03*
D24*
X185775000Y-60450000D03*
D25*
X185775000Y-64300000D03*
D26*
X185775000Y-66400000D03*
D23*
X204824999Y-64299999D03*
D24*
X204825000Y-66350000D03*
D25*
X204825000Y-70200000D03*
D26*
X204825000Y-72300000D03*
D23*
X223874999Y-63424999D03*
D24*
X223875000Y-65475000D03*
D25*
X223875000Y-69325000D03*
D26*
X223875000Y-71425000D03*
D30*
X202250000Y-52400000D03*
D31*
X201750000Y-56100000D03*
D32*
X199604992Y-48539999D03*
D33*
X199439999Y-46789999D03*
D34*
X199220005Y-48539999D03*
D31*
X196750000Y-58300000D03*
D35*
X196750000Y-52400000D03*
D36*
X196750000Y-49199730D03*
X196750000Y-46200000D03*
D37*
X194060012Y-48534896D03*
D38*
X194059999Y-46785051D03*
D31*
X191750000Y-56100000D03*
D30*
X191250000Y-52400000D03*
D39*
X199749999Y-58299999D03*
D40*
X188474999Y-56099999D03*
D30*
X145100000Y-66550000D03*
D31*
X144600000Y-70250000D03*
D32*
X142454992Y-62689999D03*
D33*
X142289999Y-60939999D03*
D34*
X142070005Y-62689999D03*
D31*
X139600000Y-72450000D03*
D35*
X139600000Y-66550000D03*
D36*
X139600000Y-63349730D03*
X139600000Y-60350000D03*
D37*
X136910012Y-62684896D03*
D38*
X136909999Y-60935051D03*
D31*
X134600000Y-70250000D03*
D30*
X134100000Y-66550000D03*
D39*
X142599999Y-72449999D03*
D40*
X131324999Y-70249999D03*
D30*
X183200000Y-66550000D03*
D31*
X182700000Y-70250000D03*
D32*
X180554992Y-62689999D03*
D33*
X180389999Y-60939999D03*
D34*
X180170005Y-62689999D03*
D31*
X177700000Y-72450000D03*
D35*
X177700000Y-66550000D03*
D36*
X177700000Y-63349730D03*
X177700000Y-60350000D03*
D37*
X175010012Y-62684896D03*
D38*
X175009999Y-60935051D03*
D31*
X172700000Y-70250000D03*
D30*
X172200000Y-66550000D03*
D39*
X180699999Y-72449999D03*
D40*
X169424999Y-70249999D03*
D30*
X164150000Y-64050000D03*
D31*
X163650000Y-67750000D03*
D32*
X161504992Y-60189999D03*
D33*
X161339999Y-58439999D03*
D34*
X161120005Y-60189999D03*
D31*
X158650000Y-69950000D03*
D35*
X158650000Y-64050000D03*
D36*
X158650000Y-60849730D03*
X158650000Y-57850000D03*
D37*
X155960012Y-60184896D03*
D38*
X155959999Y-58435051D03*
D31*
X153650000Y-67750000D03*
D30*
X153150000Y-64050000D03*
D39*
X161649999Y-69949999D03*
D40*
X150374999Y-67749999D03*
D30*
X183200000Y-85600000D03*
D31*
X182700000Y-89300000D03*
D32*
X180554992Y-81739999D03*
D33*
X180389999Y-79989999D03*
D34*
X180170005Y-81739999D03*
D31*
X177700000Y-91500000D03*
D35*
X177700000Y-85600000D03*
D36*
X177700000Y-82399730D03*
X177700000Y-79400000D03*
D37*
X175010012Y-81734896D03*
D38*
X175009999Y-79985051D03*
D31*
X172700000Y-89300000D03*
D30*
X172200000Y-85600000D03*
D39*
X180699999Y-91499999D03*
D40*
X169424999Y-89299999D03*
D30*
X221300000Y-52400000D03*
D31*
X220800000Y-56100000D03*
D32*
X218654992Y-48539999D03*
D33*
X218489999Y-46789999D03*
D34*
X218270005Y-48539999D03*
D31*
X215800000Y-58300000D03*
D35*
X215800000Y-52400000D03*
D36*
X215800000Y-49199730D03*
X215800000Y-46200000D03*
D37*
X213110012Y-48534896D03*
D38*
X213109999Y-46785051D03*
D31*
X210800000Y-56100000D03*
D30*
X210300000Y-52400000D03*
D39*
X218799999Y-58299999D03*
D40*
X207524999Y-56099999D03*
D30*
X126050000Y-69100000D03*
D31*
X125550000Y-72800000D03*
D32*
X123404992Y-65239999D03*
D33*
X123239999Y-63489999D03*
D34*
X123020005Y-65239999D03*
D31*
X120550000Y-75000000D03*
D35*
X120550000Y-69100000D03*
D36*
X120550000Y-65899730D03*
X120550000Y-62900000D03*
D37*
X117860012Y-65234896D03*
D38*
X117859999Y-63485051D03*
D31*
X115550000Y-72800000D03*
D30*
X115050000Y-69100000D03*
D39*
X123549999Y-74999999D03*
D40*
X112274999Y-72799999D03*
D30*
X183200000Y-123700000D03*
D31*
X182700000Y-127400000D03*
D32*
X180554992Y-119839999D03*
D33*
X180389999Y-118089999D03*
D34*
X180170005Y-119839999D03*
D31*
X177700000Y-129600000D03*
D35*
X177700000Y-123700000D03*
D36*
X177700000Y-120499730D03*
X177700000Y-117500000D03*
D37*
X175010012Y-119834896D03*
D38*
X175009999Y-118085051D03*
D31*
X172700000Y-127400000D03*
D30*
X172200000Y-123700000D03*
D39*
X180699999Y-129599999D03*
D40*
X169424999Y-127399999D03*
D30*
X202250000Y-71450000D03*
D31*
X201750000Y-75150000D03*
D32*
X199604992Y-67589999D03*
D33*
X199439999Y-65839999D03*
D34*
X199220005Y-67589999D03*
D31*
X196750000Y-77350000D03*
D35*
X196750000Y-71450000D03*
D36*
X196750000Y-68249730D03*
X196750000Y-65250000D03*
D37*
X194060012Y-67584896D03*
D38*
X194059999Y-65835051D03*
D31*
X191750000Y-75150000D03*
D30*
X191250000Y-71450000D03*
D39*
X199749999Y-77349999D03*
D40*
X188474999Y-75149999D03*
D30*
X183200000Y-104650000D03*
D31*
X182700000Y-108350000D03*
D32*
X180554992Y-100789999D03*
D33*
X180389999Y-99039999D03*
D34*
X180170005Y-100789999D03*
D31*
X177700000Y-110550000D03*
D35*
X177700000Y-104650000D03*
D36*
X177700000Y-101449730D03*
X177700000Y-98450000D03*
D37*
X175010012Y-100784896D03*
D38*
X175009999Y-99035051D03*
D31*
X172700000Y-108350000D03*
D30*
X172200000Y-104650000D03*
D39*
X180699999Y-110549999D03*
D40*
X169424999Y-108349999D03*
D30*
X202250000Y-90500000D03*
D31*
X201750000Y-94200000D03*
D32*
X199604992Y-86639999D03*
D33*
X199439999Y-84889999D03*
D34*
X199220005Y-86639999D03*
D31*
X196750000Y-96400000D03*
D35*
X196750000Y-90500000D03*
D36*
X196750000Y-87299730D03*
X196750000Y-84300000D03*
D37*
X194060012Y-86634896D03*
D38*
X194059999Y-84885051D03*
D31*
X191750000Y-94200000D03*
D30*
X191250000Y-90500000D03*
D39*
X199749999Y-96399999D03*
D40*
X188474999Y-94199999D03*
D30*
X164150000Y-121200000D03*
D31*
X163650000Y-124900000D03*
D32*
X161504992Y-117339999D03*
D33*
X161339999Y-115589999D03*
D34*
X161120005Y-117339999D03*
D31*
X158650000Y-127100000D03*
D35*
X158650000Y-121200000D03*
D36*
X158650000Y-117999730D03*
X158650000Y-115000000D03*
D37*
X155960012Y-117334896D03*
D38*
X155959999Y-115585051D03*
D31*
X153650000Y-124900000D03*
D30*
X153150000Y-121200000D03*
D39*
X161649999Y-127099999D03*
D40*
X150374999Y-124899999D03*
D30*
X164150000Y-83100000D03*
D31*
X163650000Y-86800000D03*
D32*
X161504992Y-79239999D03*
D33*
X161339999Y-77489999D03*
D34*
X161120005Y-79239999D03*
D31*
X158650000Y-89000000D03*
D35*
X158650000Y-83100000D03*
D36*
X158650000Y-79899730D03*
X158650000Y-76900000D03*
D37*
X155960012Y-79234896D03*
D38*
X155959999Y-77485051D03*
D31*
X153650000Y-86800000D03*
D30*
X153150000Y-83100000D03*
D39*
X161649999Y-88999999D03*
D40*
X150374999Y-86799999D03*
D30*
X145100000Y-47500000D03*
D31*
X144600000Y-51200000D03*
D32*
X142454992Y-43639999D03*
D33*
X142289999Y-41889999D03*
D34*
X142070005Y-43639999D03*
D31*
X139600000Y-53400000D03*
D35*
X139600000Y-47500000D03*
D36*
X139600000Y-44299730D03*
X139600000Y-41300000D03*
D37*
X136910012Y-43634896D03*
D38*
X136909999Y-41885051D03*
D31*
X134600000Y-51200000D03*
D30*
X134100000Y-47500000D03*
D39*
X142599999Y-53399999D03*
D40*
X131324999Y-51199999D03*
D26*
X125705276Y-127123703D03*
D55*
X125161756Y-125095259D03*
D56*
X124165303Y-121376445D03*
D57*
X123634723Y-119396296D03*
D30*
X145100000Y-104650000D03*
D31*
X144600000Y-108350000D03*
D32*
X142454992Y-100789999D03*
D33*
X142289999Y-99039999D03*
D34*
X142070005Y-100789999D03*
D31*
X139600000Y-110550000D03*
D35*
X139600000Y-104650000D03*
D36*
X139600000Y-101449730D03*
X139600000Y-98450000D03*
D37*
X136910012Y-100784896D03*
D38*
X136909999Y-99035051D03*
D31*
X134600000Y-108350000D03*
D30*
X134100000Y-104650000D03*
D39*
X142599999Y-110549999D03*
D40*
X131324999Y-108349999D03*
D23*
X166724999Y-74949999D03*
D24*
X166725000Y-77000000D03*
D25*
X166725000Y-80850000D03*
D26*
X166725000Y-82950000D03*
D23*
X204824999Y-82349999D03*
D24*
X204825000Y-84400000D03*
D25*
X204825000Y-88250000D03*
D26*
X204825000Y-90350000D03*
D23*
X223874999Y-82474999D03*
D24*
X223875000Y-84525000D03*
D25*
X223875000Y-88375000D03*
D26*
X223875000Y-90475000D03*
D23*
X147674999Y-115674999D03*
D24*
X147675000Y-117725000D03*
D25*
X147675000Y-121575000D03*
D26*
X147675000Y-123675000D03*
D23*
X166724999Y-113174999D03*
D24*
X166725000Y-115225000D03*
D25*
X166725000Y-119075000D03*
D26*
X166725000Y-121175000D03*
D23*
X223874999Y-101524999D03*
D24*
X223875000Y-103575000D03*
D25*
X223875000Y-107425000D03*
D26*
X223875000Y-109525000D03*
D23*
X147674999Y-96624999D03*
D24*
X147675000Y-98675000D03*
D25*
X147675000Y-102525000D03*
D26*
X147675000Y-104625000D03*
D23*
X166724999Y-94124999D03*
D24*
X166725000Y-96175000D03*
D25*
X166725000Y-100025000D03*
D26*
X166725000Y-102125000D03*
D23*
X185774999Y-96499999D03*
D24*
X185775000Y-98550000D03*
D25*
X185775000Y-102400000D03*
D26*
X185775000Y-104500000D03*
D23*
X204824999Y-102399999D03*
D24*
X204825000Y-104450000D03*
D25*
X204825000Y-108300000D03*
D26*
X204825000Y-110400000D03*
D23*
X147674999Y-77574999D03*
D24*
X147675000Y-79625000D03*
D25*
X147675000Y-83475000D03*
D26*
X147675000Y-85575000D03*
D23*
X185274999Y-114674999D03*
D24*
X185275000Y-116725000D03*
D25*
X185275000Y-120575000D03*
D26*
X185275000Y-122675000D03*
D30*
X145100000Y-123700000D03*
D31*
X144600000Y-127400000D03*
D32*
X142454992Y-119839999D03*
D33*
X142289999Y-118089999D03*
D34*
X142070005Y-119839999D03*
D31*
X139600000Y-129600000D03*
D35*
X139600000Y-123700000D03*
D36*
X139600000Y-120499730D03*
X139600000Y-117500000D03*
D37*
X136910012Y-119834896D03*
D38*
X136909999Y-118085051D03*
D31*
X134600000Y-127400000D03*
D30*
X134100000Y-123700000D03*
D39*
X142599999Y-129599999D03*
D40*
X131324999Y-127399999D03*
D31*
X96833857Y-94650000D03*
X96833857Y-114250000D03*
X107733857Y-94650000D03*
X107733857Y-114250000D03*
D58*
X89783856Y-99549999D03*
D59*
X89783856Y-102089999D03*
X89783856Y-104629999D03*
X89783856Y-107169999D03*
X89783856Y-109709999D03*
D36*
X188840000Y-125465000D03*
D60*
X188839999Y-129464999D03*
D36*
X188840000Y-133465000D03*
X193840000Y-123570000D03*
D60*
X193839999Y-127569999D03*
D36*
X193840000Y-131570000D03*
D61*
X198259999Y-120324999D03*
D36*
X198840000Y-121675000D03*
D60*
X198839999Y-125674999D03*
D36*
X198840000Y-129675000D03*
X203840000Y-119780000D03*
D60*
X203839999Y-123779999D03*
D36*
X203840000Y-127780000D03*
X208850000Y-117885000D03*
D60*
X208849999Y-121884999D03*
D36*
X208850000Y-125885000D03*
D62*
X212586817Y-124458047D03*
D36*
X216323636Y-123031096D03*
D23*
X185774999Y-77449999D03*
D24*
X185775000Y-79500000D03*
D25*
X185775000Y-83350000D03*
D26*
X185775000Y-85450000D03*
D30*
X126050000Y-107150000D03*
D31*
X125550000Y-110850000D03*
D32*
X123404992Y-103289999D03*
D33*
X123239999Y-101539999D03*
D34*
X123020005Y-103289999D03*
D31*
X120550000Y-113050000D03*
D35*
X120550000Y-107150000D03*
D36*
X120550000Y-103949730D03*
X120550000Y-100950000D03*
D37*
X117860012Y-103284896D03*
D38*
X117859999Y-101535051D03*
D31*
X115550000Y-110850000D03*
D30*
X115050000Y-107150000D03*
D39*
X123549999Y-113049999D03*
D40*
X112274999Y-110849999D03*
D17*
X103520000Y-119790000D03*
D63*
X91500000Y-89050000D03*
X107000000Y-89050000D03*
D64*
X107500000Y-107000000D03*
X107500000Y-102000000D03*
X107500000Y-104500000D03*
D65*
X99999999Y-110099999D03*
X99999999Y-98899999D03*
D64*
X93000000Y-102000000D03*
X93000000Y-107000000D03*
D17*
X206000000Y-98500000D03*
X130527120Y-57573640D03*
X130375120Y-95852640D03*
M02*
