G04 #@! TF.GenerationSoftware,KiCad,Pcbnew,(7.0.0-0)*
G04 #@! TF.CreationDate,2023-04-04T19:06:55-07:00*
G04 #@! TF.ProjectId,SofleKeyboard,536f666c-654b-4657-9962-6f6172642e6b,rev?*
G04 #@! TF.SameCoordinates,Original*
G04 #@! TF.FileFunction,Profile,NP*
%FSLAX46Y46*%
G04 Gerber Fmt 4.6, Leading zero omitted, Abs format (unit mm)*
G04 Created by KiCad (PCBNEW (7.0.0-0)) date 2023-04-04 19:06:55*
%MOMM*%
%LPD*%
G01*
G04 APERTURE LIST*
G04 #@! TA.AperFunction,Profile*
%ADD10C,0.100000*%
G04 #@! TD*
G04 APERTURE END LIST*
D10*
X92939326Y-148635238D02*
X82470000Y-128160000D01*
X171050000Y-34950000D02*
X224881310Y-42350671D01*
X82412647Y-127061224D02*
X88203906Y-115204224D01*
X138320000Y-134001274D02*
X187281274Y-134001274D01*
X149100000Y-34950000D02*
X89420000Y-37090000D01*
X224984147Y-119654598D02*
X187710950Y-133922503D01*
X88269764Y-114850868D02*
X88270669Y-38242163D01*
X149100000Y-34950000D02*
X171050000Y-34950000D01*
X137950000Y-134059269D02*
X94460656Y-149120453D01*
X225849999Y-43500000D02*
X225852723Y-118676068D01*
X225849965Y-43500001D02*
G75*
G03*
X224881310Y-42350671I-1213165J-39599D01*
G01*
X138320000Y-134001277D02*
G75*
G03*
X137950000Y-134059269I0J-1209323D01*
G01*
X82412615Y-127061210D02*
G75*
G03*
X82470001Y-128160000I1108685J-492990D01*
G01*
X88203901Y-115204222D02*
G75*
G03*
X88269764Y-114850868I-1146001J396422D01*
G01*
X92939312Y-148635246D02*
G75*
G03*
X94460656Y-149120453I1042688J641646D01*
G01*
X224984136Y-119654558D02*
G75*
G03*
X225852723Y-118676068I-311936J1151658D01*
G01*
X89420001Y-37090025D02*
G75*
G03*
X88270670Y-38242163I65399J-1214575D01*
G01*
X187281274Y-134001264D02*
G75*
G03*
X187710950Y-133922502I26J1211264D01*
G01*
X122250000Y-46800000D02*
X122250000Y-43800000D01*
X122250000Y-46800000D02*
X118850000Y-46800000D01*
X122250000Y-43800000D02*
X118850000Y-43800000D01*
X118850000Y-43800000D02*
X118850000Y-46800000D01*
X160350000Y-41800000D02*
X160350000Y-38800000D01*
X160350000Y-41800000D02*
X156950000Y-41800000D01*
X160350000Y-38800000D02*
X156950000Y-38800000D01*
X156950000Y-38800000D02*
X156950000Y-41800000D01*
X122250000Y-84900000D02*
X122250000Y-81900000D01*
X122250000Y-84900000D02*
X118850000Y-84900000D01*
X122250000Y-81900000D02*
X118850000Y-81900000D01*
X118850000Y-81900000D02*
X118850000Y-84900000D01*
X141300000Y-82400000D02*
X141300000Y-79400000D01*
X141300000Y-82400000D02*
X137900000Y-82400000D01*
X141300000Y-79400000D02*
X137900000Y-79400000D01*
X137900000Y-79400000D02*
X137900000Y-82400000D01*
X160350000Y-98950000D02*
X160350000Y-95950000D01*
X160350000Y-98950000D02*
X156950000Y-98950000D01*
X160350000Y-95950000D02*
X156950000Y-95950000D01*
X156950000Y-95950000D02*
X156950000Y-98950000D01*
X198450000Y-106350000D02*
X198450000Y-103350000D01*
X198450000Y-106350000D02*
X195050000Y-106350000D01*
X198450000Y-103350000D02*
X195050000Y-103350000D01*
X195050000Y-103350000D02*
X195050000Y-106350000D01*
X100418751Y-133902750D02*
X103091770Y-132540779D01*
X100418751Y-133902750D02*
X98875183Y-130873328D01*
X103091770Y-132540779D02*
X101548203Y-129511357D01*
X101548203Y-129511357D02*
X98875183Y-130873328D01*
X118413853Y-124869045D02*
X117637396Y-121971268D01*
X118413853Y-124869045D02*
X115129705Y-125749030D01*
X117637396Y-121971268D02*
X114353248Y-122851252D01*
X114353248Y-122851252D02*
X115129705Y-125749030D01*
X217500000Y-68250000D02*
X217500000Y-65250000D01*
X217500000Y-68250000D02*
X214100000Y-68250000D01*
X217500000Y-65250000D02*
X214100000Y-65250000D01*
X214100000Y-65250000D02*
X214100000Y-68250000D01*
X217500000Y-87300000D02*
X217500000Y-84300000D01*
X217500000Y-87300000D02*
X214100000Y-87300000D01*
X217500000Y-84300000D02*
X214100000Y-84300000D01*
X214100000Y-84300000D02*
X214100000Y-87300000D01*
X217500000Y-106350000D02*
X217500000Y-103350000D01*
X217500000Y-106350000D02*
X214100000Y-106350000D01*
X217500000Y-103350000D02*
X214100000Y-103350000D01*
X214100000Y-103350000D02*
X214100000Y-106350000D01*
X179400000Y-44300000D02*
X179400000Y-41300000D01*
X179400000Y-44300000D02*
X176000000Y-44300000D01*
X179400000Y-41300000D02*
X176000000Y-41300000D01*
X176000000Y-41300000D02*
X176000000Y-44300000D01*
X198450000Y-49200000D02*
X198450000Y-46200000D01*
X198450000Y-49200000D02*
X195050000Y-49200000D01*
X198450000Y-46200000D02*
X195050000Y-46200000D01*
X195050000Y-46200000D02*
X195050000Y-49200000D01*
X141300000Y-63350000D02*
X141300000Y-60350000D01*
X141300000Y-63350000D02*
X137900000Y-63350000D01*
X141300000Y-60350000D02*
X137900000Y-60350000D01*
X137900000Y-60350000D02*
X137900000Y-63350000D01*
X179400000Y-63350000D02*
X179400000Y-60350000D01*
X179400000Y-63350000D02*
X176000000Y-63350000D01*
X179400000Y-60350000D02*
X176000000Y-60350000D01*
X176000000Y-60350000D02*
X176000000Y-63350000D01*
X160350000Y-60850000D02*
X160350000Y-57850000D01*
X160350000Y-60850000D02*
X156950000Y-60850000D01*
X160350000Y-57850000D02*
X156950000Y-57850000D01*
X156950000Y-57850000D02*
X156950000Y-60850000D01*
X179400000Y-82400000D02*
X179400000Y-79400000D01*
X179400000Y-82400000D02*
X176000000Y-82400000D01*
X179400000Y-79400000D02*
X176000000Y-79400000D01*
X176000000Y-79400000D02*
X176000000Y-82400000D01*
X217500000Y-49200000D02*
X217500000Y-46200000D01*
X217500000Y-49200000D02*
X214100000Y-49200000D01*
X217500000Y-46200000D02*
X214100000Y-46200000D01*
X214100000Y-46200000D02*
X214100000Y-49200000D01*
X122250000Y-65900000D02*
X122250000Y-62900000D01*
X122250000Y-65900000D02*
X118850000Y-65900000D01*
X122250000Y-62900000D02*
X118850000Y-62900000D01*
X118850000Y-62900000D02*
X118850000Y-65900000D01*
X179400000Y-120500000D02*
X179400000Y-117500000D01*
X179400000Y-120500000D02*
X176000000Y-120500000D01*
X179400000Y-117500000D02*
X176000000Y-117500000D01*
X176000000Y-117500000D02*
X176000000Y-120500000D01*
X198450000Y-68250000D02*
X198450000Y-65250000D01*
X198450000Y-68250000D02*
X195050000Y-68250000D01*
X198450000Y-65250000D02*
X195050000Y-65250000D01*
X195050000Y-65250000D02*
X195050000Y-68250000D01*
X179400000Y-101450000D02*
X179400000Y-98450000D01*
X179400000Y-101450000D02*
X176000000Y-101450000D01*
X179400000Y-98450000D02*
X176000000Y-98450000D01*
X176000000Y-98450000D02*
X176000000Y-101450000D01*
X198450000Y-87300000D02*
X198450000Y-84300000D01*
X198450000Y-87300000D02*
X195050000Y-87300000D01*
X198450000Y-84300000D02*
X195050000Y-84300000D01*
X195050000Y-84300000D02*
X195050000Y-87300000D01*
X160350000Y-118000000D02*
X160350000Y-115000000D01*
X160350000Y-118000000D02*
X156950000Y-118000000D01*
X160350000Y-115000000D02*
X156950000Y-115000000D01*
X156950000Y-115000000D02*
X156950000Y-118000000D01*
X160350000Y-79900000D02*
X160350000Y-76900000D01*
X160350000Y-79900000D02*
X156950000Y-79900000D01*
X160350000Y-76900000D02*
X156950000Y-76900000D01*
X156950000Y-76900000D02*
X156950000Y-79900000D01*
X141300000Y-44300000D02*
X141300000Y-41300000D01*
X141300000Y-44300000D02*
X137900000Y-44300000D01*
X141300000Y-41300000D02*
X137900000Y-41300000D01*
X137900000Y-41300000D02*
X137900000Y-44300000D01*
X141300000Y-101450000D02*
X141300000Y-98450000D01*
X141300000Y-101450000D02*
X137900000Y-101450000D01*
X141300000Y-98450000D02*
X137900000Y-98450000D01*
X137900000Y-98450000D02*
X137900000Y-101450000D01*
X141300000Y-120500000D02*
X141300000Y-117500000D01*
X141300000Y-120500000D02*
X137900000Y-120500000D01*
X141300000Y-117500000D02*
X137900000Y-117500000D01*
X137900000Y-117500000D02*
X137900000Y-120500000D01*
X122250000Y-103950000D02*
X122250000Y-100950000D01*
X122250000Y-103950000D02*
X118850000Y-103950000D01*
X122250000Y-100950000D02*
X118850000Y-100950000D01*
X118850000Y-100950000D02*
X118850000Y-103950000D01*
M02*
