M48
; DRILL file {KiCad (7.0.0-0)} date Wednesday, April 05, 2023 at 09:36:05 AM
; FORMAT={-:-/ absolute / metric / decimal}
; #@! TF.CreationDate,2023-04-05T09:36:05-07:00
; #@! TF.GenerationSoftware,Kicad,Pcbnew,(7.0.0-0)
; #@! TF.FileFunction,Plated,1,2,PTH
FMAT,2
METRIC
; #@! TA.AperFunction,Plated,PTH,ViaDrill
T1C0.200
; #@! TA.AperFunction,Plated,PTH,ComponentDrill
T2C0.200
; #@! TA.AperFunction,Plated,PTH,ViaDrill
T3C0.300
; #@! TA.AperFunction,Plated,PTH,ComponentDrill
T4C0.813
; #@! TA.AperFunction,Plated,PTH,ComponentDrill
T5C0.900
; #@! TA.AperFunction,Plated,PTH,ComponentDrill
T6C1.000
; #@! TA.AperFunction,Plated,PTH,ComponentDrill
T7C1.500
; #@! TA.AperFunction,Plated,PTH,ComponentDrill
T8C2.200
; #@! TA.AperFunction,Plated,PTH,ComponentDrill
T9C4.100
%
G90
G05
T1
X95.07Y-51.64
X97.63Y-54.21
X100.02Y-52.886
X100.64Y-122.99
X100.788Y-55.426
X101.317Y-58.001
X101.842Y-60.541
X102.367Y-63.081
X102.92Y-65.53
X103.09Y-81.925
X103.444Y-68.13
X103.5Y-69.49
X104.505Y-61.805
X104.526Y-51.63
X104.546Y-44.07
X104.567Y-41.53
X104.587Y-64.34
X104.608Y-66.89
X104.629Y-59.31
X104.649Y-54.23
X104.66Y-56.71
X105.566Y-101.386
X107.82Y-134.9
X108.465Y-72.278
X108.48Y-72.877
X110.81Y-117.26
X112.07Y-103.27
X112.52Y-99.88
X112.61Y-75.43
X113.09Y-105.62
X113.57Y-117.84
X121.05Y-125.14
X123.62Y-117.245
X127.374Y-116.666
X127.39Y-115.88
X132.1Y-40.125
X132.16Y-114.73
X149.625Y-38.6
X149.83Y-130.42
X149.85Y-117.34
X168.425Y-113.35
X168.963Y-118.688
X168.963Y-130.433
X170.1Y-38.5
X175.01Y-39.59
X189.275Y-41.375
X194.1Y-101.274
X208.35Y-42.8
T2
X89.193Y-133.899
X89.467Y-137.575
X90.016Y-128.906
X92.28Y-139.957
X93.365Y-135.589
X96.803Y-142.226
X98.329Y-130.815
X99.49Y-128.688
X100.004Y-129.699
X100.145Y-134.379
X102.029Y-133.671
X102.221Y-129.73
X102.554Y-134.7
X103.319Y-131.886
X111.363Y-134.005
X113.075Y-53.8
X113.075Y-72.9
X113.075Y-91.9
X113.075Y-110.95
X113.12Y-124.693
X114.216Y-124.401
X114.707Y-122.239
X114.959Y-126.271
X116.076Y-135.848
X117.044Y-121.613
X117.15Y-56.8
X117.15Y-75.9
X117.15Y-94.9
X117.15Y-113.95
X117.182Y-45.26
X117.182Y-64.36
X117.182Y-83.36
X117.182Y-102.41
X118.316Y-45.261
X118.316Y-64.361
X118.316Y-83.361
X118.316Y-102.411
X118.522Y-123.246
X118.55Y-47.26
X118.55Y-66.36
X118.55Y-85.36
X118.55Y-104.41
X118.596Y-132.119
X118.823Y-125.236
X119.35Y-43.3
X119.35Y-62.4
X119.35Y-81.4
X119.35Y-100.45
X119.638Y-122.947
X119.729Y-136.345
X120.55Y-53.85
X120.55Y-72.95
X120.55Y-91.95
X120.55Y-111.0
X120.55Y-58.225
X120.55Y-77.325
X120.55Y-96.325
X120.55Y-115.375
X121.77Y-43.3
X121.77Y-62.4
X121.77Y-81.4
X121.77Y-100.45
X122.55Y-47.26
X122.55Y-66.36
X122.55Y-85.36
X122.55Y-104.41
X122.644Y-134.088
X122.775Y-45.26
X122.775Y-64.36
X122.775Y-83.36
X122.775Y-102.41
X123.93Y-45.26
X123.93Y-64.36
X123.93Y-83.36
X123.93Y-102.41
X123.95Y-56.8
X123.95Y-75.9
X123.95Y-94.9
X123.95Y-113.95
X125.804Y-130.136
X128.025Y-53.8
X128.025Y-72.9
X128.025Y-91.9
X128.025Y-110.95
X132.125Y-51.3
X132.125Y-70.35
X132.125Y-89.4
X132.125Y-108.45
X132.125Y-127.5
X136.2Y-54.3
X136.2Y-73.35
X136.2Y-92.4
X136.2Y-111.45
X136.2Y-130.5
X136.232Y-42.76
X136.232Y-61.81
X136.232Y-80.86
X136.232Y-99.91
X136.232Y-118.96
X137.366Y-42.761
X137.366Y-61.811
X137.366Y-80.861
X137.366Y-99.911
X137.366Y-118.961
X137.6Y-44.76
X137.6Y-63.81
X137.6Y-82.86
X137.6Y-101.91
X137.6Y-120.96
X138.4Y-40.8
X138.4Y-59.85
X138.4Y-78.9
X138.4Y-97.95
X138.4Y-117.0
X139.6Y-51.35
X139.6Y-70.4
X139.6Y-89.45
X139.6Y-108.5
X139.6Y-127.55
X139.6Y-55.725
X139.6Y-74.775
X139.6Y-93.825
X139.6Y-112.875
X139.6Y-131.925
X140.82Y-40.8
X140.82Y-59.85
X140.82Y-78.9
X140.82Y-97.95
X140.82Y-117.0
X141.6Y-44.76
X141.6Y-63.81
X141.6Y-82.86
X141.6Y-101.91
X141.6Y-120.96
X141.825Y-42.76
X141.825Y-61.81
X141.825Y-80.86
X141.825Y-99.91
X141.825Y-118.96
X142.98Y-42.76
X142.98Y-61.81
X142.98Y-80.86
X142.98Y-99.91
X142.98Y-118.96
X143.0Y-54.3
X143.0Y-73.35
X143.0Y-92.4
X143.0Y-111.45
X143.0Y-130.5
X147.075Y-51.3
X147.075Y-70.35
X147.075Y-89.4
X147.075Y-108.45
X147.075Y-127.5
X151.175Y-48.8
X151.175Y-67.85
X151.175Y-86.9
X151.175Y-105.95
X151.175Y-125.0
X155.25Y-51.8
X155.25Y-70.85
X155.25Y-89.9
X155.25Y-108.95
X155.25Y-128.0
X155.282Y-40.26
X155.282Y-59.31
X155.282Y-78.36
X155.282Y-97.41
X155.282Y-116.46
X156.416Y-40.261
X156.416Y-59.311
X156.416Y-78.361
X156.416Y-97.411
X156.416Y-116.461
X156.65Y-42.26
X156.65Y-61.31
X156.65Y-80.36
X156.65Y-99.41
X156.65Y-118.46
X157.45Y-38.3
X157.45Y-57.35
X157.45Y-76.4
X157.45Y-95.45
X157.45Y-114.5
X158.65Y-48.85
X158.65Y-67.9
X158.65Y-86.95
X158.65Y-106.0
X158.65Y-125.05
X158.65Y-53.225
X158.65Y-72.275
X158.65Y-91.325
X158.65Y-110.375
X158.65Y-129.425
X159.87Y-38.3
X159.87Y-57.35
X159.87Y-76.4
X159.87Y-95.45
X159.87Y-114.5
X160.65Y-42.26
X160.65Y-61.31
X160.65Y-80.36
X160.65Y-99.41
X160.65Y-118.46
X160.875Y-40.26
X160.875Y-59.31
X160.875Y-78.36
X160.875Y-97.41
X160.875Y-116.46
X162.03Y-40.26
X162.03Y-59.31
X162.03Y-78.36
X162.03Y-97.41
X162.03Y-116.46
X162.05Y-51.8
X162.05Y-70.85
X162.05Y-89.9
X162.05Y-108.95
X162.05Y-128.0
X166.125Y-48.8
X166.125Y-67.85
X166.125Y-86.9
X166.125Y-105.95
X166.125Y-125.0
X170.225Y-51.3
X170.225Y-70.35
X170.225Y-89.4
X170.225Y-108.45
X170.225Y-127.5
X174.3Y-54.3
X174.3Y-73.35
X174.3Y-92.4
X174.3Y-111.45
X174.3Y-130.5
X174.332Y-42.76
X174.332Y-61.81
X174.332Y-80.86
X174.332Y-99.91
X174.332Y-118.96
X175.466Y-42.761
X175.466Y-61.811
X175.466Y-80.861
X175.466Y-99.911
X175.466Y-118.961
X175.7Y-44.76
X175.7Y-63.81
X175.7Y-82.86
X175.7Y-101.91
X175.7Y-120.96
X176.5Y-40.8
X176.5Y-59.85
X176.5Y-78.9
X176.5Y-97.95
X176.5Y-117.0
X177.7Y-51.35
X177.7Y-70.4
X177.7Y-89.45
X177.7Y-108.5
X177.7Y-127.55
X177.7Y-55.725
X177.7Y-74.775
X177.7Y-93.825
X177.7Y-112.875
X177.7Y-131.925
X178.92Y-40.8
X178.92Y-59.85
X178.92Y-78.9
X178.92Y-97.95
X178.92Y-117.0
X179.7Y-44.76
X179.7Y-63.81
X179.7Y-82.86
X179.7Y-101.91
X179.7Y-120.96
X179.925Y-42.76
X179.925Y-61.81
X179.925Y-80.86
X179.925Y-99.91
X179.925Y-118.96
X181.08Y-42.76
X181.08Y-61.81
X181.08Y-80.86
X181.08Y-99.91
X181.08Y-118.96
X181.1Y-54.3
X181.1Y-73.35
X181.1Y-92.4
X181.1Y-111.45
X181.1Y-130.5
X185.175Y-51.3
X185.175Y-70.35
X185.175Y-89.4
X185.175Y-108.45
X185.175Y-127.5
X189.275Y-56.2
X189.275Y-75.25
X189.275Y-94.3
X189.275Y-113.35
X193.35Y-59.2
X193.35Y-78.25
X193.35Y-97.3
X193.35Y-116.35
X193.382Y-47.66
X193.382Y-66.71
X193.382Y-85.76
X193.382Y-104.81
X194.516Y-47.661
X194.516Y-66.711
X194.516Y-85.761
X194.516Y-104.811
X194.75Y-49.66
X194.75Y-68.71
X194.75Y-87.76
X194.75Y-106.81
X195.55Y-45.7
X195.55Y-64.75
X195.55Y-83.8
X195.55Y-102.85
X196.75Y-56.25
X196.75Y-75.3
X196.75Y-94.35
X196.75Y-113.4
X196.75Y-60.625
X196.75Y-79.675
X196.75Y-98.725
X196.75Y-117.775
X197.97Y-45.7
X197.97Y-64.75
X197.97Y-83.8
X197.97Y-102.85
X198.75Y-49.66
X198.75Y-68.71
X198.75Y-87.76
X198.75Y-106.81
X198.975Y-47.66
X198.975Y-66.71
X198.975Y-85.76
X198.975Y-104.81
X200.13Y-47.66
X200.13Y-66.71
X200.13Y-85.76
X200.13Y-104.81
X200.15Y-59.2
X200.15Y-78.25
X200.15Y-97.3
X200.15Y-116.35
X204.225Y-56.2
X204.225Y-75.25
X204.225Y-94.3
X204.225Y-113.35
X208.325Y-56.2
X208.325Y-75.25
X208.325Y-94.3
X208.325Y-113.35
X212.4Y-59.2
X212.4Y-78.25
X212.4Y-97.3
X212.4Y-116.35
X212.432Y-47.66
X212.432Y-66.71
X212.432Y-85.76
X212.432Y-104.81
X213.566Y-47.661
X213.566Y-66.711
X213.566Y-85.761
X213.566Y-104.811
X213.8Y-49.66
X213.8Y-68.71
X213.8Y-87.76
X213.8Y-106.81
X214.6Y-45.7
X214.6Y-64.75
X214.6Y-83.8
X214.6Y-102.85
X215.8Y-56.25
X215.8Y-75.3
X215.8Y-94.35
X215.8Y-113.4
X215.8Y-60.625
X215.8Y-79.675
X215.8Y-98.725
X215.8Y-117.775
X217.02Y-45.7
X217.02Y-64.75
X217.02Y-83.8
X217.02Y-102.85
X217.8Y-49.66
X217.8Y-68.71
X217.8Y-87.76
X217.8Y-106.81
X218.025Y-47.66
X218.025Y-66.71
X218.025Y-85.76
X218.025Y-104.81
X219.18Y-47.66
X219.18Y-66.71
X219.18Y-85.76
X219.18Y-104.81
X219.2Y-59.2
X219.2Y-78.25
X219.2Y-97.3
X219.2Y-116.35
X223.275Y-56.2
X223.275Y-75.25
X223.275Y-94.3
X223.275Y-113.35
T3
X98.93Y-50.346
X100.776Y-105.204
X101.48Y-138.67
X119.35Y-59.3
X119.35Y-97.65
X119.36Y-77.8
X123.31Y-78.79
X126.75Y-41.37
X141.24Y-57.02
X141.25Y-95.1
X142.23Y-113.19
X142.27Y-76.9
X142.3Y-75.0
X157.425Y-54.4
X157.47Y-92.525
X157.475Y-73.6
X161.35Y-73.6
X179.325Y-95.075
X179.35Y-57.0
X180.4Y-76.225
X180.405Y-74.995
X195.55Y-61.9
X195.55Y-80.95
X195.55Y-99.925
X199.55Y-80.9
X217.4Y-100.025
X218.5Y-80.95
X218.51Y-79.88
T4
X91.16Y-41.456
X91.16Y-43.996
X91.16Y-46.536
X91.16Y-49.076
X91.16Y-51.616
X91.16Y-54.156
X91.16Y-56.696
X91.16Y-59.236
X91.16Y-61.776
X91.16Y-64.316
X91.16Y-66.856
X91.16Y-69.396
X92.91Y-42.726
X92.91Y-45.266
X92.91Y-47.806
X92.91Y-50.346
X92.91Y-52.886
X92.91Y-55.426
X92.91Y-57.966
X92.91Y-60.506
X92.91Y-63.046
X92.91Y-65.586
X92.91Y-68.126
X92.91Y-70.666
X95.33Y-74.345
X96.595Y-75.71
X97.87Y-74.345
X99.135Y-75.71
X100.41Y-74.345
X101.675Y-75.71
X102.95Y-74.345
X104.215Y-75.71
X106.4Y-41.456
X106.4Y-43.996
X106.4Y-46.536
X106.4Y-49.076
X106.4Y-51.616
X106.4Y-54.156
X106.4Y-56.696
X106.4Y-59.236
X106.4Y-61.776
X106.4Y-64.316
X106.4Y-66.856
X106.4Y-69.396
X107.29Y-77.88
X107.29Y-85.96
X108.15Y-42.726
X108.15Y-45.266
X108.15Y-47.806
X108.15Y-50.346
X108.15Y-52.886
X108.15Y-55.426
X108.15Y-57.966
X108.15Y-60.506
X108.15Y-63.046
X108.15Y-65.586
X108.15Y-68.126
X108.15Y-70.666
X109.532Y-77.88
X109.532Y-85.96
T5
X102.561Y-126.353
X106.193Y-133.481
X110.11Y-100.67
X110.11Y-108.67
X123.635Y-119.396
X125.705Y-127.124
X128.625Y-41.975
X128.625Y-49.975
X128.625Y-61.325
X128.625Y-69.325
X128.625Y-80.075
X128.625Y-88.075
X128.625Y-99.875
X128.625Y-107.875
X147.675Y-39.475
X147.675Y-47.475
X147.675Y-58.525
X147.675Y-66.525
X147.675Y-77.575
X147.675Y-85.575
X147.675Y-96.625
X147.675Y-104.625
X147.675Y-115.675
X147.675Y-123.675
X166.725Y-56.025
X166.725Y-64.025
X166.725Y-74.95
X166.725Y-82.95
X166.725Y-94.125
X166.725Y-102.125
X166.725Y-113.175
X166.725Y-121.175
X167.225Y-38.1
X167.225Y-46.1
X185.275Y-114.675
X185.275Y-122.675
X185.775Y-39.85
X185.775Y-47.85
X185.775Y-58.4
X185.775Y-66.4
X185.775Y-77.45
X185.775Y-85.45
X185.775Y-96.5
X185.775Y-104.5
X204.825Y-44.25
X204.825Y-52.25
X204.825Y-64.3
X204.825Y-72.3
X204.825Y-82.35
X204.825Y-90.35
X204.825Y-102.4
X204.825Y-110.4
X223.875Y-44.625
X223.875Y-52.625
X223.875Y-63.425
X223.875Y-71.425
X223.875Y-82.475
X223.875Y-90.475
X223.875Y-101.525
X223.875Y-109.525
T6
X89.784Y-99.55
X89.784Y-102.09
X89.784Y-104.63
X89.784Y-107.17
X89.784Y-109.71
X93.0Y-102.0
X93.0Y-107.0
X107.5Y-102.0
X107.5Y-104.5
X107.5Y-107.0
T8
X91.5Y-89.05
X107.0Y-89.05
T9
X103.52Y-119.79
X130.375Y-95.853
X130.527Y-57.574
X206.0Y-60.5
X206.0Y-98.5
T6
X91.05Y-78.95G85X91.55Y-78.95
G05
X91.05Y-84.9G85X91.55Y-84.9
G05
X94.05Y-78.95G85X94.55Y-78.95
G05
X94.05Y-84.9G85X94.55Y-84.9
G05
X98.05Y-78.95G85X98.55Y-78.95
G05
X98.05Y-84.9G85X98.55Y-84.9
G05
X99.55Y-80.7G85X100.05Y-80.7
G05
X99.55Y-83.15G85X100.05Y-83.15
G05
T7
X100.65Y-98.9G85X99.35Y-98.9
G05
X100.65Y-110.1G85X99.35Y-110.1
G05
T0
M30
