M48
; DRILL file {KiCad (7.0.0-0)} date Tuesday, April 04, 2023 at 07:06:51 PM
; FORMAT={-:-/ absolute / metric / decimal}
; #@! TF.CreationDate,2023-04-04T19:06:51-07:00
; #@! TF.GenerationSoftware,Kicad,Pcbnew,(7.0.0-0)
; #@! TF.FileFunction,NonPlated,1,2,NPTH
FMAT,2
METRIC
; #@! TA.AperFunction,NonPlated,NPTH,ComponentDrill
T1C0.300
; #@! TA.AperFunction,NonPlated,NPTH,ComponentDrill
T2C1.000
; #@! TA.AperFunction,NonPlated,NPTH,ComponentDrill
T3C1.200
; #@! TA.AperFunction,NonPlated,NPTH,ComponentDrill
T4C1.800
; #@! TA.AperFunction,NonPlated,NPTH,ComponentDrill
T5C2.000
; #@! TA.AperFunction,NonPlated,NPTH,ComponentDrill
T6C3.000
; #@! TA.AperFunction,NonPlated,NPTH,ComponentDrill
T7C4.800
%
G90
G05
T2
X99.647Y-132.388
X102.32Y-131.026
X115.995Y-122.411
X116.772Y-125.309
X120.55Y-43.8
X120.55Y-46.8
X120.55Y-62.9
X120.55Y-65.9
X120.55Y-81.9
X120.55Y-84.9
X120.55Y-100.95
X120.55Y-103.95
X139.6Y-41.3
X139.6Y-44.3
X139.6Y-60.35
X139.6Y-63.35
X139.6Y-79.4
X139.6Y-82.4
X139.6Y-98.45
X139.6Y-101.45
X139.6Y-117.5
X139.6Y-120.5
X158.65Y-38.8
X158.65Y-41.8
X158.65Y-57.85
X158.65Y-60.85
X158.65Y-76.9
X158.65Y-79.9
X158.65Y-95.95
X158.65Y-98.95
X158.65Y-115.0
X158.65Y-118.0
X177.7Y-41.3
X177.7Y-44.3
X177.7Y-60.35
X177.7Y-63.35
X177.7Y-79.4
X177.7Y-82.4
X177.7Y-98.45
X177.7Y-101.45
X177.7Y-117.5
X177.7Y-120.5
X188.84Y-125.465
X188.84Y-133.465
X193.84Y-123.57
X193.84Y-131.57
X196.75Y-46.2
X196.75Y-49.2
X196.75Y-65.25
X196.75Y-68.25
X196.75Y-84.3
X196.75Y-87.3
X196.75Y-103.35
X196.75Y-106.35
X198.84Y-121.675
X198.84Y-129.675
X203.84Y-119.78
X203.84Y-127.78
X208.85Y-117.885
X208.85Y-125.885
X215.8Y-46.2
X215.8Y-49.2
X215.8Y-65.25
X215.8Y-68.25
X215.8Y-84.3
X215.8Y-87.3
X215.8Y-103.35
X215.8Y-106.35
X216.324Y-123.031
T3
X89.5Y-81.05
X89.5Y-82.8
X96.5Y-81.05
X96.5Y-82.8
T4
X94.299Y-128.94
X99.293Y-138.741
X112.287Y-129.824
X115.05Y-50.0
X115.05Y-69.1
X115.05Y-88.1
X115.05Y-107.15
X122.913Y-126.976
X126.05Y-50.0
X126.05Y-69.1
X126.05Y-88.1
X126.05Y-107.15
X134.1Y-47.5
X134.1Y-66.55
X134.1Y-85.6
X134.1Y-104.65
X134.1Y-123.7
X145.1Y-47.5
X145.1Y-66.55
X145.1Y-85.6
X145.1Y-104.65
X145.1Y-123.7
X153.15Y-45.0
X153.15Y-64.05
X153.15Y-83.1
X153.15Y-102.15
X153.15Y-121.2
X164.15Y-45.0
X164.15Y-64.05
X164.15Y-83.1
X164.15Y-102.15
X164.15Y-121.2
X172.2Y-47.5
X172.2Y-66.55
X172.2Y-85.6
X172.2Y-104.65
X172.2Y-123.7
X183.2Y-47.5
X183.2Y-66.55
X183.2Y-85.6
X183.2Y-104.65
X183.2Y-123.7
X191.25Y-52.4
X191.25Y-71.45
X191.25Y-90.5
X191.25Y-109.55
X202.25Y-52.4
X202.25Y-71.45
X202.25Y-90.5
X202.25Y-109.55
X210.3Y-52.4
X210.3Y-71.45
X210.3Y-90.5
X210.3Y-109.55
X221.3Y-52.4
X221.3Y-71.45
X221.3Y-90.5
X221.3Y-109.55
T6
X91.229Y-131.066
X91.539Y-136.519
X95.769Y-139.976
X96.834Y-94.65
X96.834Y-114.25
X107.734Y-94.65
X107.734Y-114.25
X113.728Y-133.268
X115.55Y-53.7
X115.55Y-72.8
X115.55Y-91.8
X115.55Y-110.85
X119.127Y-134.099
X120.55Y-55.9
X120.55Y-75.0
X120.55Y-94.0
X120.55Y-113.05
X123.387Y-130.68
X125.55Y-53.7
X125.55Y-72.8
X125.55Y-91.8
X125.55Y-110.85
X134.6Y-51.2
X134.6Y-70.25
X134.6Y-89.3
X134.6Y-108.35
X134.6Y-127.4
X139.6Y-53.4
X139.6Y-72.45
X139.6Y-91.5
X139.6Y-110.55
X139.6Y-129.6
X144.6Y-51.2
X144.6Y-70.25
X144.6Y-89.3
X144.6Y-108.35
X144.6Y-127.4
X153.65Y-48.7
X153.65Y-67.75
X153.65Y-86.8
X153.65Y-105.85
X153.65Y-124.9
X158.65Y-50.9
X158.65Y-69.95
X158.65Y-89.0
X158.65Y-108.05
X158.65Y-127.1
X163.65Y-48.7
X163.65Y-67.75
X163.65Y-86.8
X163.65Y-105.85
X163.65Y-124.9
X172.7Y-51.2
X172.7Y-70.25
X172.7Y-89.3
X172.7Y-108.35
X172.7Y-127.4
X177.7Y-53.4
X177.7Y-72.45
X177.7Y-91.5
X177.7Y-110.55
X177.7Y-129.6
X182.7Y-51.2
X182.7Y-70.25
X182.7Y-89.3
X182.7Y-108.35
X182.7Y-127.4
X191.75Y-56.1
X191.75Y-75.15
X191.75Y-94.2
X191.75Y-113.25
X196.75Y-58.3
X196.75Y-77.35
X196.75Y-96.4
X196.75Y-115.45
X201.75Y-56.1
X201.75Y-75.15
X201.75Y-94.2
X201.75Y-113.25
X210.8Y-56.1
X210.8Y-75.15
X210.8Y-94.2
X210.8Y-113.25
X215.8Y-58.3
X215.8Y-77.35
X215.8Y-96.4
X215.8Y-115.45
X220.8Y-56.1
X220.8Y-75.15
X220.8Y-94.2
X220.8Y-113.25
T7
X96.796Y-133.841
X117.6Y-128.4
X120.55Y-50.0
X120.55Y-69.1
X120.55Y-88.1
X120.55Y-107.15
X139.6Y-47.5
X139.6Y-66.55
X139.6Y-85.6
X139.6Y-104.65
X139.6Y-123.7
X158.65Y-45.0
X158.65Y-64.05
X158.65Y-83.1
X158.65Y-102.15
X158.65Y-121.2
X177.7Y-47.5
X177.7Y-66.55
X177.7Y-85.6
X177.7Y-104.65
X177.7Y-123.7
X196.75Y-52.4
X196.75Y-71.45
X196.75Y-90.5
X196.75Y-109.55
X215.8Y-52.4
X215.8Y-71.45
X215.8Y-90.5
X215.8Y-109.55
T1
X99.38Y-126.688G85X99.062Y-126.064
G05
X104.419Y-136.578G85X104.102Y-135.954
G05
X111.141Y-124.385G85X110.465Y-124.566
G05
X115.35Y-44.45G85X114.65Y-44.45
G05
X115.35Y-63.55G85X114.65Y-63.55
G05
X115.35Y-82.55G85X114.65Y-82.55
G05
X115.35Y-101.6G85X114.65Y-101.6
G05
X121.863Y-121.512G85X121.186Y-121.693
G05
X126.45Y-44.45G85X125.75Y-44.45
G05
X126.45Y-63.55G85X125.75Y-63.55
G05
X126.45Y-82.55G85X125.75Y-82.55
G05
X126.45Y-101.6G85X125.75Y-101.6
G05
X134.4Y-41.95G85X133.7Y-41.95
G05
X134.4Y-61.0G85X133.7Y-61.0
G05
X134.4Y-80.05G85X133.7Y-80.05
G05
X134.4Y-99.1G85X133.7Y-99.1
G05
X134.4Y-118.15G85X133.7Y-118.15
G05
X145.5Y-41.95G85X144.8Y-41.95
G05
X145.5Y-61.0G85X144.8Y-61.0
G05
X145.5Y-80.05G85X144.8Y-80.05
G05
X145.5Y-99.1G85X144.8Y-99.1
G05
X145.5Y-118.15G85X144.8Y-118.15
G05
X153.45Y-39.45G85X152.75Y-39.45
G05
X153.45Y-58.5G85X152.75Y-58.5
G05
X153.45Y-77.55G85X152.75Y-77.55
G05
X153.45Y-96.6G85X152.75Y-96.6
G05
X153.45Y-115.65G85X152.75Y-115.65
G05
X164.55Y-39.45G85X163.85Y-39.45
G05
X164.55Y-58.5G85X163.85Y-58.5
G05
X164.55Y-77.55G85X163.85Y-77.55
G05
X164.55Y-96.6G85X163.85Y-96.6
G05
X164.55Y-115.65G85X163.85Y-115.65
G05
X172.5Y-41.95G85X171.8Y-41.95
G05
X172.5Y-61.0G85X171.8Y-61.0
G05
X172.5Y-80.05G85X171.8Y-80.05
G05
X172.5Y-99.1G85X171.8Y-99.1
G05
X172.5Y-118.15G85X171.8Y-118.15
G05
X183.6Y-41.95G85X182.9Y-41.95
G05
X183.6Y-61.0G85X182.9Y-61.0
G05
X183.6Y-80.05G85X182.9Y-80.05
G05
X183.6Y-99.1G85X182.9Y-99.1
G05
X183.6Y-118.15G85X182.9Y-118.15
G05
X191.55Y-46.85G85X190.85Y-46.85
G05
X191.55Y-65.9G85X190.85Y-65.9
G05
X191.55Y-84.95G85X190.85Y-84.95
G05
X191.55Y-104.0G85X190.85Y-104.0
G05
X202.65Y-46.85G85X201.95Y-46.85
G05
X202.65Y-65.9G85X201.95Y-65.9
G05
X202.65Y-84.95G85X201.95Y-84.95
G05
X202.65Y-104.0G85X201.95Y-104.0
G05
X210.6Y-46.85G85X209.9Y-46.85
G05
X210.6Y-65.9G85X209.9Y-65.9
G05
X210.6Y-84.95G85X209.9Y-84.95
G05
X210.6Y-104.0G85X209.9Y-104.0
G05
X221.7Y-46.85G85X221.0Y-46.85
G05
X221.7Y-65.9G85X221.0Y-65.9
G05
X221.7Y-84.95G85X221.0Y-84.95
G05
X221.7Y-104.0G85X221.0Y-104.0
G05
T5
X188.84Y-130.465G85X188.84Y-128.465
G05
X193.84Y-128.57G85X193.84Y-126.57
G05
X198.84Y-126.675G85X198.84Y-124.675
G05
X203.84Y-124.78G85X203.84Y-122.78
G05
X208.85Y-122.885G85X208.85Y-120.885
G05
X213.521Y-124.101G85X211.653Y-124.815
G05
T6
X187.517Y-124.427G85X209.003Y-116.223
G05
T0
M30
