G04 #@! TF.GenerationSoftware,KiCad,Pcbnew,(7.0.0-0)*
G04 #@! TF.CreationDate,2023-04-05T09:36:02-07:00*
G04 #@! TF.ProjectId,SofleKeyboard,536f666c-654b-4657-9962-6f6172642e6b,rev?*
G04 #@! TF.SameCoordinates,Original*
G04 #@! TF.FileFunction,Soldermask,Top*
G04 #@! TF.FilePolarity,Negative*
%FSLAX46Y46*%
G04 Gerber Fmt 4.6, Leading zero omitted, Abs format (unit mm)*
G04 Created by KiCad (PCBNEW (7.0.0-0)) date 2023-04-05 09:36:02*
%MOMM*%
%LPD*%
G01*
G04 APERTURE LIST*
G04 Aperture macros list*
%AMRoundRect*
0 Rectangle with rounded corners*
0 $1 Rounding radius*
0 $2 $3 $4 $5 $6 $7 $8 $9 X,Y pos of 4 corners*
0 Add a 4 corners polygon primitive as box body*
4,1,4,$2,$3,$4,$5,$6,$7,$8,$9,$2,$3,0*
0 Add four circle primitives for the rounded corners*
1,1,$1+$1,$2,$3*
1,1,$1+$1,$4,$5*
1,1,$1+$1,$6,$7*
1,1,$1+$1,$8,$9*
0 Add four rect primitives between the rounded corners*
20,1,$1+$1,$2,$3,$4,$5,0*
20,1,$1+$1,$4,$5,$6,$7,0*
20,1,$1+$1,$6,$7,$8,$9,0*
20,1,$1+$1,$8,$9,$2,$3,0*%
%AMHorizOval*
0 Thick line with rounded ends*
0 $1 width*
0 $2 $3 position (X,Y) of the first rounded end (center of the circle)*
0 $4 $5 position (X,Y) of the second rounded end (center of the circle)*
0 Add line between two ends*
20,1,$1,$2,$3,$4,$5,0*
0 Add two circle primitives to create the rounded ends*
1,1,$1,$2,$3*
1,1,$1,$4,$5*%
%AMRotRect*
0 Rectangle, with rotation*
0 The origin of the aperture is its center*
0 $1 length*
0 $2 width*
0 $3 Rotation angle, in degrees counterclockwise*
0 Add horizontal line*
21,1,$1,$2,0,0,$3*%
%AMFreePoly0*
4,1,28,-0.850000,0.400000,-0.842219,0.514750,-0.797860,0.693119,-0.716195,0.857783,-0.601041,1.001041,-0.457783,1.116195,-0.293119,1.197860,-0.114750,1.242219,0.000000,1.250000,0.114750,1.242219,0.293119,1.197860,0.457783,1.116195,0.601041,1.001041,0.716195,0.857783,0.797860,0.693119,0.842219,0.514750,0.850000,0.400000,0.850000,-0.400000,0.000000,-1.250000,-0.114750,-1.242219,
-0.293119,-1.197860,-0.457783,-1.116195,-0.601041,-1.001041,-0.716195,-0.857783,-0.797860,-0.693119,-0.842219,-0.514750,-0.850000,-0.400000,-0.850000,0.400000,-0.850000,0.400000,$1*%
%AMFreePoly1*
4,1,28,-0.850000,0.400000,-0.842219,0.514750,-0.797860,0.693119,-0.716195,0.857783,-0.601041,1.001041,-0.457783,1.116195,-0.293119,1.197860,-0.114750,1.242219,0.000000,1.250000,0.850000,0.400000,0.850000,-0.400000,0.842219,-0.514750,0.797860,-0.693119,0.716195,-0.857783,0.601041,-1.001041,0.457783,-1.116195,0.293119,-1.197860,0.114750,-1.242219,0.000000,-1.250000,-0.114750,-1.242219,
-0.293119,-1.197860,-0.457783,-1.116195,-0.601041,-1.001041,-0.716195,-0.857783,-0.797860,-0.693119,-0.842219,-0.514750,-0.850000,-0.400000,-0.850000,0.400000,-0.850000,0.400000,$1*%
%AMFreePoly2*
4,1,18,-0.744993,0.210051,-0.729004,0.290434,-0.683470,0.358580,-0.615324,0.404114,-0.534941,0.420103,0.324890,0.420103,0.744993,0.000000,0.744993,-0.210051,0.729004,-0.290434,0.683470,-0.358580,0.615324,-0.404114,0.534941,-0.420103,-0.534941,-0.420103,-0.615324,-0.404114,-0.683470,-0.358580,-0.729004,-0.290434,-0.744993,-0.210051,-0.744993,0.210051,-0.744993,0.210051,$1*%
%AMFreePoly3*
4,1,13,-0.915000,0.425000,0.702500,0.425000,0.783820,0.408824,0.852760,0.362760,0.898824,0.293820,0.915000,0.212500,0.915000,-0.212500,0.898824,-0.293820,0.852760,-0.362760,0.783820,-0.408824,0.702500,-0.425000,-0.915000,-0.425000,-0.915000,0.425000,-0.915000,0.425000,$1*%
%AMFreePoly4*
4,1,13,-0.909999,0.425000,0.697499,0.425000,0.778819,0.408824,0.847759,0.362760,0.893823,0.293820,0.909999,0.212500,0.909999,-0.212500,0.893823,-0.293820,0.847759,-0.362760,0.778819,-0.408824,0.697499,-0.425000,-0.909999,-0.425000,-0.909999,0.425000,-0.909999,0.425000,$1*%
%AMFreePoly5*
4,1,18,-1.000000,0.860000,-0.981731,0.951844,-0.929706,1.029706,-0.851844,1.081731,-0.760000,1.100000,0.760000,1.100000,0.851844,1.081731,0.929706,1.029706,0.981731,0.951844,1.000000,0.860000,1.000000,-0.400000,0.300000,-1.100000,-0.760000,-1.100000,-0.851844,-1.081731,-0.929706,-1.029706,-0.981731,-0.951844,-1.000000,-0.860000,-1.000000,0.860000,-1.000000,0.860000,$1*%
%AMFreePoly6*
4,1,13,-1.000000,0.860000,-0.981731,0.951844,-0.929706,1.029706,-0.851844,1.081731,-0.760000,1.100000,1.000000,1.100000,1.000000,-1.100000,-0.760000,-1.100000,-0.851844,-1.081731,-0.929706,-1.029706,-0.981731,-0.951844,-1.000000,-0.860000,-1.000000,0.860000,-1.000000,0.860000,$1*%
%AMFreePoly7*
4,1,19,0.000000,0.744911,0.071157,0.744911,0.207708,0.704816,0.327430,0.627875,0.420627,0.520320,0.479746,0.390866,0.500000,0.250000,0.500000,-0.250000,0.479746,-0.390866,0.420627,-0.520320,0.327430,-0.627875,0.207708,-0.704816,0.071157,-0.744911,0.000000,-0.744911,0.000000,-0.750000,-0.500000,-0.750000,-0.500000,0.750000,0.000000,0.750000,0.000000,0.744911,0.000000,0.744911,
$1*%
%AMFreePoly8*
4,1,19,0.500000,-0.750000,0.000000,-0.750000,0.000000,-0.744911,-0.071157,-0.744911,-0.207708,-0.704816,-0.327430,-0.627875,-0.420627,-0.520320,-0.479746,-0.390866,-0.500000,-0.250000,-0.500000,0.250000,-0.479746,0.390866,-0.420627,0.520320,-0.327430,0.627875,-0.207708,0.704816,-0.071157,0.744911,0.000000,0.744911,0.000000,0.750000,0.500000,0.750000,0.500000,-0.750000,0.500000,-0.750000,
$1*%
%AMFreePoly9*
4,1,19,0.000000,0.744911,0.071157,0.744911,0.207708,0.704816,0.327430,0.627875,0.420627,0.520320,0.479746,0.390866,0.500000,0.250000,0.500000,-0.250000,0.479746,-0.390866,0.420627,-0.520320,0.327430,-0.627875,0.207708,-0.704816,0.071157,-0.744911,0.000000,-0.744911,0.000000,-0.750000,-0.550000,-0.750000,-0.550000,0.750000,0.000000,0.750000,0.000000,0.744911,0.000000,0.744911,
$1*%
%AMFreePoly10*
4,1,19,0.550000,-0.750000,0.000000,-0.750000,0.000000,-0.744911,-0.071157,-0.744911,-0.207708,-0.704816,-0.327430,-0.627875,-0.420627,-0.520320,-0.479746,-0.390866,-0.500000,-0.250000,-0.500000,0.250000,-0.479746,0.390866,-0.420627,0.520320,-0.327430,0.627875,-0.207708,0.704816,-0.071157,0.744911,0.000000,0.744911,0.000000,0.750000,0.550000,0.750000,0.550000,-0.750000,0.550000,-0.750000,
$1*%
G04 Aperture macros list end*
%ADD10C,4.700000*%
%ADD11C,1.397000*%
%ADD12C,1.200000*%
%ADD13FreePoly0,90.000000*%
%ADD14O,2.500000X1.700000*%
%ADD15FreePoly1,90.000000*%
%ADD16C,1.524000*%
%ADD17R,1.400000X1.400000*%
%ADD18RoundRect,0.300000X-0.300000X0.400000X-0.300000X-0.400000X0.300000X-0.400000X0.300000X0.400000X0*%
%ADD19C,1.400000*%
%ADD20RotRect,1.400000X1.400000X297.000000*%
%ADD21RoundRect,0.300000X-0.448898X0.220205X-0.085706X-0.492600X0.448898X-0.220205X0.085706X0.492600X0*%
%ADD22C,1.800000*%
%ADD23C,3.000000*%
%ADD24FreePoly2,0.000000*%
%ADD25FreePoly3,0.000000*%
%ADD26R,1.379987X0.840206*%
%ADD27C,4.900000*%
%ADD28C,1.000000*%
%ADD29FreePoly3,180.000000*%
%ADD30FreePoly4,180.000000*%
%ADD31FreePoly5,180.000000*%
%ADD32FreePoly6,180.000000*%
%ADD33FreePoly2,297.000000*%
%ADD34FreePoly3,297.000000*%
%ADD35RotRect,1.379987X0.840206X297.000000*%
%ADD36FreePoly3,117.000000*%
%ADD37FreePoly4,117.000000*%
%ADD38FreePoly5,117.000000*%
%ADD39FreePoly6,117.000000*%
%ADD40FreePoly2,15.000000*%
%ADD41FreePoly3,15.000000*%
%ADD42RotRect,1.379987X0.840206X15.000000*%
%ADD43FreePoly3,195.000000*%
%ADD44FreePoly4,195.000000*%
%ADD45FreePoly5,195.000000*%
%ADD46FreePoly6,195.000000*%
%ADD47RoundRect,0.300000X-0.393305X0.308725X-0.186250X-0.464016X0.393305X-0.308725X0.186250X0.464016X0*%
%ADD48RotRect,1.400000X1.400000X285.000000*%
%ADD49R,1.700000X1.700000*%
%ADD50O,1.700000X1.700000*%
%ADD51FreePoly7,0.000000*%
%ADD52FreePoly8,0.000000*%
%ADD53FreePoly9,0.000000*%
%ADD54R,1.000000X1.500000*%
%ADD55FreePoly10,0.000000*%
%ADD56O,2.000000X4.000000*%
%ADD57HorizOval,3.000000X10.743351X4.102487X-10.743351X-4.102487X0*%
%ADD58HorizOval,2.000000X-0.934204X-0.356738X0.934204X0.356738X0*%
%ADD59C,4.000000*%
%ADD60C,2.000000*%
%ADD61R,3.200000X2.000000*%
G04 APERTURE END LIST*
D10*
X206000000Y-60500000D03*
D11*
X107290000Y-85960000D03*
X107290000Y-77880000D03*
X109531965Y-85960000D03*
X109531965Y-77880000D03*
D12*
X89500000Y-82800000D03*
X96500000Y-82800000D03*
X89500000Y-81050000D03*
X96500000Y-81050000D03*
D13*
X98299999Y-84899999D03*
D14*
X94299999Y-84899999D03*
X91299999Y-84899999D03*
D15*
X99799999Y-80699999D03*
D16*
X91160093Y-41456000D03*
X91160093Y-43996000D03*
X91160093Y-46536000D03*
X91160093Y-49076000D03*
X91160093Y-51616000D03*
X91160093Y-54156000D03*
X91160093Y-56696000D03*
X91160093Y-59236000D03*
X91160093Y-61776000D03*
X91160093Y-64316000D03*
X91160093Y-66856000D03*
X91160093Y-69396000D03*
X106400093Y-69396000D03*
X106400093Y-66856000D03*
X106400093Y-64316000D03*
X106400093Y-61776000D03*
X106400093Y-59236000D03*
X106400093Y-56696000D03*
X106400093Y-54156000D03*
X106400093Y-51616000D03*
X106400093Y-49076000D03*
X106400093Y-46536000D03*
X106400093Y-43996000D03*
X106400093Y-41456000D03*
D17*
X128624999Y-41974999D03*
D18*
X128625000Y-44075000D03*
X128625000Y-47875000D03*
D19*
X128625000Y-49975000D03*
D17*
X147674999Y-39474999D03*
D18*
X147675000Y-41575000D03*
X147675000Y-45375000D03*
D19*
X147675000Y-47475000D03*
D17*
X167224999Y-38099999D03*
D18*
X167225000Y-40200000D03*
X167225000Y-44000000D03*
D19*
X167225000Y-46100000D03*
D17*
X185774999Y-39849999D03*
D18*
X185775000Y-41950000D03*
X185775000Y-45750000D03*
D19*
X185775000Y-47850000D03*
D17*
X204824999Y-44249999D03*
D18*
X204825000Y-46350000D03*
X204825000Y-50150000D03*
D19*
X204825000Y-52250000D03*
D17*
X223874999Y-44624999D03*
D18*
X223875000Y-46725000D03*
X223875000Y-50525000D03*
D19*
X223875000Y-52625000D03*
D17*
X128624999Y-80074999D03*
D18*
X128625000Y-82175000D03*
X128625000Y-85975000D03*
D19*
X128625000Y-88075000D03*
D17*
X128624999Y-99874999D03*
D18*
X128625000Y-101975000D03*
X128625000Y-105775000D03*
D19*
X128625000Y-107875000D03*
D17*
X110109999Y-100669999D03*
D18*
X110110000Y-102770000D03*
X110110000Y-106570000D03*
D19*
X110110000Y-108670000D03*
D20*
X102561455Y-126353061D03*
D21*
X103514836Y-128224176D03*
X105240000Y-131610000D03*
D19*
X106193380Y-133481114D03*
D22*
X126050000Y-50000000D03*
D23*
X125550000Y-53700000D03*
D24*
X123404986Y-44379999D03*
D25*
X123234999Y-46134999D03*
D26*
X123019999Y-44379999D03*
D23*
X120550000Y-55900000D03*
D27*
X120550000Y-50000000D03*
D28*
X120550000Y-46799730D03*
X120550000Y-43800000D03*
D29*
X117865000Y-44374999D03*
D30*
X117860000Y-46134999D03*
D23*
X115550000Y-53700000D03*
D22*
X115050000Y-50000000D03*
D31*
X117549999Y-55899999D03*
D32*
X128824999Y-53699999D03*
D22*
X164150000Y-45000000D03*
D23*
X163650000Y-48700000D03*
D24*
X161504986Y-39379999D03*
D25*
X161334999Y-41134999D03*
D26*
X161119999Y-39379999D03*
D23*
X158650000Y-50900000D03*
D27*
X158650000Y-45000000D03*
D28*
X158650000Y-41799730D03*
X158650000Y-38800000D03*
D29*
X155965000Y-39374999D03*
D30*
X155960000Y-41134999D03*
D23*
X153650000Y-48700000D03*
D22*
X153150000Y-45000000D03*
D31*
X155649999Y-50899999D03*
D32*
X166924999Y-48699999D03*
D22*
X126050000Y-88100000D03*
D23*
X125550000Y-91800000D03*
D24*
X123404986Y-82479999D03*
D25*
X123234999Y-84234999D03*
D26*
X123019999Y-82479999D03*
D23*
X120550000Y-94000000D03*
D27*
X120550000Y-88100000D03*
D28*
X120550000Y-84899730D03*
X120550000Y-81900000D03*
D29*
X117865000Y-82474999D03*
D30*
X117860000Y-84234999D03*
D23*
X115550000Y-91800000D03*
D22*
X115050000Y-88100000D03*
D31*
X117549999Y-93999999D03*
D32*
X128824999Y-91799999D03*
D22*
X145100000Y-85600000D03*
D23*
X144600000Y-89300000D03*
D24*
X142454986Y-79979999D03*
D25*
X142284999Y-81734999D03*
D26*
X142069999Y-79979999D03*
D23*
X139600000Y-91500000D03*
D27*
X139600000Y-85600000D03*
D28*
X139600000Y-82399730D03*
X139600000Y-79400000D03*
D29*
X136915000Y-79974999D03*
D30*
X136910000Y-81734999D03*
D23*
X134600000Y-89300000D03*
D22*
X134100000Y-85600000D03*
D31*
X136599999Y-91499999D03*
D32*
X147874999Y-89299999D03*
D22*
X164150000Y-102150000D03*
D23*
X163650000Y-105850000D03*
D24*
X161504986Y-96529999D03*
D25*
X161334999Y-98284999D03*
D26*
X161119999Y-96529999D03*
D23*
X158650000Y-108050000D03*
D27*
X158650000Y-102150000D03*
D28*
X158650000Y-98949730D03*
X158650000Y-95950000D03*
D29*
X155965000Y-96524999D03*
D30*
X155960000Y-98284999D03*
D23*
X153650000Y-105850000D03*
D22*
X153150000Y-102150000D03*
D31*
X155649999Y-108049999D03*
D32*
X166924999Y-105849999D03*
D22*
X202250000Y-109550000D03*
D23*
X201750000Y-113250000D03*
D24*
X199604986Y-103929999D03*
D25*
X199434999Y-105684999D03*
D26*
X199219999Y-103929999D03*
D23*
X196750000Y-115450000D03*
D27*
X196750000Y-109550000D03*
D28*
X196750000Y-106349730D03*
X196750000Y-103350000D03*
D29*
X194065000Y-103924999D03*
D30*
X194060000Y-105684999D03*
D23*
X191750000Y-113250000D03*
D22*
X191250000Y-109550000D03*
D31*
X193749999Y-115449999D03*
D32*
X205024999Y-113249999D03*
D22*
X99292694Y-138741345D03*
D23*
X95768974Y-139975606D03*
D33*
X103099339Y-133833193D03*
D34*
X101458450Y-134478487D03*
D35*
X102924558Y-133490168D03*
D23*
X91538808Y-136519353D03*
D27*
X96795746Y-133840809D03*
D28*
X99647207Y-132387917D03*
X102319986Y-131026068D03*
D36*
X100588693Y-128894760D03*
D37*
X99018251Y-129689328D03*
D23*
X91229069Y-131065541D03*
D22*
X94298798Y-128940273D03*
D38*
X90176835Y-133846332D03*
D39*
X97255792Y-142893652D03*
D11*
X102950000Y-74345000D03*
X100410000Y-74345000D03*
X97870000Y-74345000D03*
X95330000Y-74345000D03*
D22*
X122912592Y-126976495D03*
D23*
X123387260Y-130679830D03*
D40*
X118903142Y-122232571D03*
D41*
X119193174Y-123971767D03*
D42*
X118531273Y-122332213D03*
D23*
X119127032Y-134098962D03*
D27*
X117600000Y-128400000D03*
D28*
X116771709Y-125308777D03*
X115995322Y-122411260D03*
D43*
X113550632Y-123661595D03*
D44*
X114001324Y-125362919D03*
D23*
X113728001Y-133268021D03*
D22*
X112287408Y-129823505D03*
D45*
X116229254Y-134875419D03*
D46*
X126550666Y-129832197D03*
D22*
X221300000Y-71450000D03*
D23*
X220800000Y-75150000D03*
D24*
X218654986Y-65829999D03*
D25*
X218484999Y-67584999D03*
D26*
X218269999Y-65829999D03*
D23*
X215800000Y-77350000D03*
D27*
X215800000Y-71450000D03*
D28*
X215800000Y-68249730D03*
X215800000Y-65250000D03*
D29*
X213115000Y-65824999D03*
D30*
X213110000Y-67584999D03*
D23*
X210800000Y-75150000D03*
D22*
X210300000Y-71450000D03*
D31*
X212799999Y-77349999D03*
D32*
X224074999Y-75149999D03*
D22*
X221300000Y-90500000D03*
D23*
X220800000Y-94200000D03*
D24*
X218654986Y-84879999D03*
D25*
X218484999Y-86634999D03*
D26*
X218269999Y-84879999D03*
D23*
X215800000Y-96400000D03*
D27*
X215800000Y-90500000D03*
D28*
X215800000Y-87299730D03*
X215800000Y-84300000D03*
D29*
X213115000Y-84874999D03*
D30*
X213110000Y-86634999D03*
D23*
X210800000Y-94200000D03*
D22*
X210300000Y-90500000D03*
D31*
X212799999Y-96399999D03*
D32*
X224074999Y-94199999D03*
D22*
X221300000Y-109550000D03*
D23*
X220800000Y-113250000D03*
D24*
X218654986Y-103929999D03*
D25*
X218484999Y-105684999D03*
D26*
X218269999Y-103929999D03*
D23*
X215800000Y-115450000D03*
D27*
X215800000Y-109550000D03*
D28*
X215800000Y-106349730D03*
X215800000Y-103350000D03*
D29*
X213115000Y-103924999D03*
D30*
X213110000Y-105684999D03*
D23*
X210800000Y-113250000D03*
D22*
X210300000Y-109550000D03*
D31*
X212799999Y-115449999D03*
D32*
X224074999Y-113249999D03*
D22*
X183200000Y-47500000D03*
D23*
X182700000Y-51200000D03*
D24*
X180554986Y-41879999D03*
D25*
X180384999Y-43634999D03*
D26*
X180169999Y-41879999D03*
D23*
X177700000Y-53400000D03*
D27*
X177700000Y-47500000D03*
D28*
X177700000Y-44299730D03*
X177700000Y-41300000D03*
D29*
X175015000Y-41874999D03*
D30*
X175010000Y-43634999D03*
D23*
X172700000Y-51200000D03*
D22*
X172200000Y-47500000D03*
D31*
X174699999Y-53399999D03*
D32*
X185974999Y-51199999D03*
D17*
X128624999Y-61324999D03*
D18*
X128625000Y-63425000D03*
X128625000Y-67225000D03*
D19*
X128625000Y-69325000D03*
D17*
X147674999Y-58524999D03*
D18*
X147675000Y-60625000D03*
X147675000Y-64425000D03*
D19*
X147675000Y-66525000D03*
D17*
X166724999Y-56024999D03*
D18*
X166725000Y-58125000D03*
X166725000Y-61925000D03*
D19*
X166725000Y-64025000D03*
D17*
X185774999Y-58399999D03*
D18*
X185775000Y-60500000D03*
X185775000Y-64300000D03*
D19*
X185775000Y-66400000D03*
D17*
X204824999Y-64299999D03*
D18*
X204825000Y-66400000D03*
X204825000Y-70200000D03*
D19*
X204825000Y-72300000D03*
D17*
X223874999Y-63424999D03*
D18*
X223875000Y-65525000D03*
X223875000Y-69325000D03*
D19*
X223875000Y-71425000D03*
D22*
X202250000Y-52400000D03*
D23*
X201750000Y-56100000D03*
D24*
X199604986Y-46779999D03*
D25*
X199434999Y-48534999D03*
D26*
X199219999Y-46779999D03*
D23*
X196750000Y-58300000D03*
D27*
X196750000Y-52400000D03*
D28*
X196750000Y-49199730D03*
X196750000Y-46200000D03*
D29*
X194065000Y-46774999D03*
D30*
X194060000Y-48534999D03*
D23*
X191750000Y-56100000D03*
D22*
X191250000Y-52400000D03*
D31*
X193749999Y-58299999D03*
D32*
X205024999Y-56099999D03*
D22*
X145100000Y-66550000D03*
D23*
X144600000Y-70250000D03*
D24*
X142454986Y-60929999D03*
D25*
X142284999Y-62684999D03*
D26*
X142069999Y-60929999D03*
D23*
X139600000Y-72450000D03*
D27*
X139600000Y-66550000D03*
D28*
X139600000Y-63349730D03*
X139600000Y-60350000D03*
D29*
X136915000Y-60924999D03*
D30*
X136910000Y-62684999D03*
D23*
X134600000Y-70250000D03*
D22*
X134100000Y-66550000D03*
D31*
X136599999Y-72449999D03*
D32*
X147874999Y-70249999D03*
D22*
X183200000Y-66550000D03*
D23*
X182700000Y-70250000D03*
D24*
X180554986Y-60929999D03*
D25*
X180384999Y-62684999D03*
D26*
X180169999Y-60929999D03*
D23*
X177700000Y-72450000D03*
D27*
X177700000Y-66550000D03*
D28*
X177700000Y-63349730D03*
X177700000Y-60350000D03*
D29*
X175015000Y-60924999D03*
D30*
X175010000Y-62684999D03*
D23*
X172700000Y-70250000D03*
D22*
X172200000Y-66550000D03*
D31*
X174699999Y-72449999D03*
D32*
X185974999Y-70249999D03*
D22*
X164150000Y-64050000D03*
D23*
X163650000Y-67750000D03*
D24*
X161504986Y-58429999D03*
D25*
X161334999Y-60184999D03*
D26*
X161119999Y-58429999D03*
D23*
X158650000Y-69950000D03*
D27*
X158650000Y-64050000D03*
D28*
X158650000Y-60849730D03*
X158650000Y-57850000D03*
D29*
X155965000Y-58424999D03*
D30*
X155960000Y-60184999D03*
D23*
X153650000Y-67750000D03*
D22*
X153150000Y-64050000D03*
D31*
X155649999Y-69949999D03*
D32*
X166924999Y-67749999D03*
D22*
X183200000Y-85600000D03*
D23*
X182700000Y-89300000D03*
D24*
X180554986Y-79979999D03*
D25*
X180384999Y-81734999D03*
D26*
X180169999Y-79979999D03*
D23*
X177700000Y-91500000D03*
D27*
X177700000Y-85600000D03*
D28*
X177700000Y-82399730D03*
X177700000Y-79400000D03*
D29*
X175015000Y-79974999D03*
D30*
X175010000Y-81734999D03*
D23*
X172700000Y-89300000D03*
D22*
X172200000Y-85600000D03*
D31*
X174699999Y-91499999D03*
D32*
X185974999Y-89299999D03*
D22*
X221300000Y-52400000D03*
D23*
X220800000Y-56100000D03*
D24*
X218654986Y-46779999D03*
D25*
X218484999Y-48534999D03*
D26*
X218269999Y-46779999D03*
D23*
X215800000Y-58300000D03*
D27*
X215800000Y-52400000D03*
D28*
X215800000Y-49199730D03*
X215800000Y-46200000D03*
D29*
X213115000Y-46774999D03*
D30*
X213110000Y-48534999D03*
D23*
X210800000Y-56100000D03*
D22*
X210300000Y-52400000D03*
D31*
X212799999Y-58299999D03*
D32*
X224074999Y-56099999D03*
D22*
X126050000Y-69100000D03*
D23*
X125550000Y-72800000D03*
D24*
X123404986Y-63479999D03*
D25*
X123234999Y-65234999D03*
D26*
X123019999Y-63479999D03*
D23*
X120550000Y-75000000D03*
D27*
X120550000Y-69100000D03*
D28*
X120550000Y-65899730D03*
X120550000Y-62900000D03*
D29*
X117865000Y-63474999D03*
D30*
X117860000Y-65234999D03*
D23*
X115550000Y-72800000D03*
D22*
X115050000Y-69100000D03*
D31*
X117549999Y-74999999D03*
D32*
X128824999Y-72799999D03*
D22*
X183200000Y-123700000D03*
D23*
X182700000Y-127400000D03*
D24*
X180554986Y-118079999D03*
D25*
X180384999Y-119834999D03*
D26*
X180169999Y-118079999D03*
D23*
X177700000Y-129600000D03*
D27*
X177700000Y-123700000D03*
D28*
X177700000Y-120499730D03*
X177700000Y-117500000D03*
D29*
X175015000Y-118074999D03*
D30*
X175010000Y-119834999D03*
D23*
X172700000Y-127400000D03*
D22*
X172200000Y-123700000D03*
D31*
X174699999Y-129599999D03*
D32*
X185974999Y-127399999D03*
D22*
X202250000Y-71450000D03*
D23*
X201750000Y-75150000D03*
D24*
X199604986Y-65829999D03*
D25*
X199434999Y-67584999D03*
D26*
X199219999Y-65829999D03*
D23*
X196750000Y-77350000D03*
D27*
X196750000Y-71450000D03*
D28*
X196750000Y-68249730D03*
X196750000Y-65250000D03*
D29*
X194065000Y-65824999D03*
D30*
X194060000Y-67584999D03*
D23*
X191750000Y-75150000D03*
D22*
X191250000Y-71450000D03*
D31*
X193749999Y-77349999D03*
D32*
X205024999Y-75149999D03*
D22*
X183200000Y-104650000D03*
D23*
X182700000Y-108350000D03*
D24*
X180554986Y-99029999D03*
D25*
X180384999Y-100784999D03*
D26*
X180169999Y-99029999D03*
D23*
X177700000Y-110550000D03*
D27*
X177700000Y-104650000D03*
D28*
X177700000Y-101449730D03*
X177700000Y-98450000D03*
D29*
X175015000Y-99024999D03*
D30*
X175010000Y-100784999D03*
D23*
X172700000Y-108350000D03*
D22*
X172200000Y-104650000D03*
D31*
X174699999Y-110549999D03*
D32*
X185974999Y-108349999D03*
D22*
X202250000Y-90500000D03*
D23*
X201750000Y-94200000D03*
D24*
X199604986Y-84879999D03*
D25*
X199434999Y-86634999D03*
D26*
X199219999Y-84879999D03*
D23*
X196750000Y-96400000D03*
D27*
X196750000Y-90500000D03*
D28*
X196750000Y-87299730D03*
X196750000Y-84300000D03*
D29*
X194065000Y-84874999D03*
D30*
X194060000Y-86634999D03*
D23*
X191750000Y-94200000D03*
D22*
X191250000Y-90500000D03*
D31*
X193749999Y-96399999D03*
D32*
X205024999Y-94199999D03*
D22*
X164150000Y-121200000D03*
D23*
X163650000Y-124900000D03*
D24*
X161504986Y-115579999D03*
D25*
X161334999Y-117334999D03*
D26*
X161119999Y-115579999D03*
D23*
X158650000Y-127100000D03*
D27*
X158650000Y-121200000D03*
D28*
X158650000Y-117999730D03*
X158650000Y-115000000D03*
D29*
X155965000Y-115574999D03*
D30*
X155960000Y-117334999D03*
D23*
X153650000Y-124900000D03*
D22*
X153150000Y-121200000D03*
D31*
X155649999Y-127099999D03*
D32*
X166924999Y-124899999D03*
D22*
X164150000Y-83100000D03*
D23*
X163650000Y-86800000D03*
D24*
X161504986Y-77479999D03*
D25*
X161334999Y-79234999D03*
D26*
X161119999Y-77479999D03*
D23*
X158650000Y-89000000D03*
D27*
X158650000Y-83100000D03*
D28*
X158650000Y-79899730D03*
X158650000Y-76900000D03*
D29*
X155965000Y-77474999D03*
D30*
X155960000Y-79234999D03*
D23*
X153650000Y-86800000D03*
D22*
X153150000Y-83100000D03*
D31*
X155649999Y-88999999D03*
D32*
X166924999Y-86799999D03*
D22*
X145100000Y-47500000D03*
D23*
X144600000Y-51200000D03*
D24*
X142454986Y-41879999D03*
D25*
X142284999Y-43634999D03*
D26*
X142069999Y-41879999D03*
D23*
X139600000Y-53400000D03*
D27*
X139600000Y-47500000D03*
D28*
X139600000Y-44299730D03*
X139600000Y-41300000D03*
D29*
X136915000Y-41874999D03*
D30*
X136910000Y-43634999D03*
D23*
X134600000Y-51200000D03*
D22*
X134100000Y-47500000D03*
D31*
X136599999Y-53399999D03*
D32*
X147874999Y-51199999D03*
D19*
X125705276Y-127123703D03*
D47*
X125161756Y-125095259D03*
X124178244Y-121424741D03*
D48*
X123634723Y-119396296D03*
D22*
X145100000Y-104650000D03*
D23*
X144600000Y-108350000D03*
D24*
X142454986Y-99029999D03*
D25*
X142284999Y-100784999D03*
D26*
X142069999Y-99029999D03*
D23*
X139600000Y-110550000D03*
D27*
X139600000Y-104650000D03*
D28*
X139600000Y-101449730D03*
X139600000Y-98450000D03*
D29*
X136915000Y-99024999D03*
D30*
X136910000Y-100784999D03*
D23*
X134600000Y-108350000D03*
D22*
X134100000Y-104650000D03*
D31*
X136599999Y-110549999D03*
D32*
X147874999Y-108349999D03*
D17*
X166724999Y-74949999D03*
D18*
X166725000Y-77050000D03*
X166725000Y-80850000D03*
D19*
X166725000Y-82950000D03*
D17*
X204824999Y-82349999D03*
D18*
X204825000Y-84450000D03*
X204825000Y-88250000D03*
D19*
X204825000Y-90350000D03*
D17*
X223874999Y-82474999D03*
D18*
X223875000Y-84575000D03*
X223875000Y-88375000D03*
D19*
X223875000Y-90475000D03*
D17*
X147674999Y-115674999D03*
D18*
X147675000Y-117775000D03*
X147675000Y-121575000D03*
D19*
X147675000Y-123675000D03*
D17*
X166724999Y-113174999D03*
D18*
X166725000Y-115275000D03*
X166725000Y-119075000D03*
D19*
X166725000Y-121175000D03*
D17*
X223874999Y-101524999D03*
D18*
X223875000Y-103625000D03*
X223875000Y-107425000D03*
D19*
X223875000Y-109525000D03*
D17*
X147674999Y-96624999D03*
D18*
X147675000Y-98725000D03*
X147675000Y-102525000D03*
D19*
X147675000Y-104625000D03*
D17*
X166724999Y-94124999D03*
D18*
X166725000Y-96225000D03*
X166725000Y-100025000D03*
D19*
X166725000Y-102125000D03*
D17*
X185774999Y-96499999D03*
D18*
X185775000Y-98600000D03*
X185775000Y-102400000D03*
D19*
X185775000Y-104500000D03*
D17*
X204824999Y-102399999D03*
D18*
X204825000Y-104500000D03*
X204825000Y-108300000D03*
D19*
X204825000Y-110400000D03*
D17*
X147674999Y-77574999D03*
D18*
X147675000Y-79675000D03*
X147675000Y-83475000D03*
D19*
X147675000Y-85575000D03*
D17*
X185274999Y-114674999D03*
D18*
X185275000Y-116775000D03*
X185275000Y-120575000D03*
D19*
X185275000Y-122675000D03*
D22*
X145100000Y-123700000D03*
D23*
X144600000Y-127400000D03*
D24*
X142454986Y-118079999D03*
D25*
X142284999Y-119834999D03*
D26*
X142069999Y-118079999D03*
D23*
X139600000Y-129600000D03*
D27*
X139600000Y-123700000D03*
D28*
X139600000Y-120499730D03*
X139600000Y-117500000D03*
D29*
X136915000Y-118074999D03*
D30*
X136910000Y-119834999D03*
D23*
X134600000Y-127400000D03*
D22*
X134100000Y-123700000D03*
D31*
X136599999Y-129599999D03*
D32*
X147874999Y-127399999D03*
D23*
X96833857Y-94650000D03*
X96833857Y-114250000D03*
X107733857Y-94650000D03*
X107733857Y-114250000D03*
D49*
X89783856Y-99549999D03*
D50*
X89783856Y-102089999D03*
X89783856Y-104629999D03*
X89783856Y-107169999D03*
X89783856Y-109709999D03*
D51*
X104390000Y-81925000D03*
D52*
X103090000Y-81925000D03*
D53*
X105040000Y-85410000D03*
D54*
X103739999Y-85409999D03*
D55*
X102440000Y-85410000D03*
D28*
X188840000Y-125465000D03*
D56*
X188839999Y-129464999D03*
D28*
X188840000Y-133465000D03*
X193840000Y-123570000D03*
D56*
X193839999Y-127569999D03*
D28*
X193840000Y-131570000D03*
D57*
X198259999Y-120324999D03*
D28*
X198840000Y-121675000D03*
D56*
X198839999Y-125674999D03*
D28*
X198840000Y-129675000D03*
X203840000Y-119780000D03*
D56*
X203839999Y-123779999D03*
D28*
X203840000Y-127780000D03*
X208850000Y-117885000D03*
D56*
X208849999Y-121884999D03*
D28*
X208850000Y-125885000D03*
D58*
X212586817Y-124458047D03*
D28*
X216323636Y-123031096D03*
D17*
X185774999Y-77449999D03*
D18*
X185775000Y-79550000D03*
X185775000Y-83350000D03*
D19*
X185775000Y-85450000D03*
D22*
X126050000Y-107150000D03*
D23*
X125550000Y-110850000D03*
D24*
X123404986Y-101529999D03*
D25*
X123234999Y-103284999D03*
D26*
X123019999Y-101529999D03*
D23*
X120550000Y-113050000D03*
D27*
X120550000Y-107150000D03*
D28*
X120550000Y-103949730D03*
X120550000Y-100950000D03*
D29*
X117865000Y-101524999D03*
D30*
X117860000Y-103284999D03*
D23*
X115550000Y-110850000D03*
D22*
X115050000Y-107150000D03*
D31*
X117549999Y-113049999D03*
D32*
X128824999Y-110849999D03*
D10*
X103520000Y-119790000D03*
D59*
X91500000Y-89050000D03*
X107000000Y-89050000D03*
D60*
X107500000Y-107000000D03*
X107500000Y-102000000D03*
X107500000Y-104500000D03*
D61*
X99999999Y-110099999D03*
X99999999Y-98899999D03*
D60*
X93000000Y-102000000D03*
X93000000Y-107000000D03*
D10*
X206000000Y-98500000D03*
X130527120Y-57573640D03*
X130375120Y-95852640D03*
M02*
