%TF.GenerationSoftware,KiCad,Pcbnew,(7.0.0-0)*%
%TF.CreationDate,2023-04-09T15:37:51-07:00*%
%TF.ProjectId,sofle_click_keyplate_B,736f666c-655f-4636-9c69-636b5f6b6579,rev?*%
%TF.SameCoordinates,Original*%
%TF.FileFunction,Profile,NP*%
%FSLAX46Y46*%
G04 Gerber Fmt 4.6, Leading zero omitted, Abs format (unit mm)*
G04 Created by KiCad (PCBNEW (7.0.0-0)) date 2023-04-09 15:37:51*
%MOMM*%
%LPD*%
G01*
G04 APERTURE LIST*
%TA.AperFunction,Profile*%
%ADD10C,0.100000*%
%TD*%
%TA.AperFunction,Profile*%
%ADD11C,0.120000*%
%TD*%
G04 APERTURE END LIST*
D10*
X163994214Y-137744214D02*
X183044214Y-137749214D01*
X185044214Y-135749214D02*
X185054189Y-125599214D01*
X163994214Y-37474214D02*
X166869214Y-37474214D01*
X163994214Y-137744214D02*
X163994214Y-37474214D01*
X187019214Y-123624214D02*
X220669213Y-123624214D01*
X166869214Y-37474214D02*
X220700524Y-44874885D01*
X221669179Y-46024216D02*
X221669213Y-122624214D01*
X183044214Y-137749214D02*
G75*
G03*
X185044214Y-135749214I-14J2000014D01*
G01*
X221669177Y-46024216D02*
G75*
G03*
X220700529Y-44874863I-1213177J-39584D01*
G01*
X187019214Y-123624214D02*
G75*
G03*
X185054189Y-125599214I9986J-1974986D01*
G01*
X220669213Y-123624213D02*
G75*
G03*
X221669213Y-122624214I-13J1000013D01*
G01*
D11*
%TO.C,SW6*%
X218619214Y-61924214D02*
X204619214Y-61924214D01*
X204619214Y-61924214D02*
X204619214Y-47924214D01*
X204619214Y-47924214D02*
X218619214Y-47924214D01*
X218619214Y-47924214D02*
X218619214Y-61924214D01*
%TO.C,SW10*%
X180519214Y-76074214D02*
X166519214Y-76074214D01*
X166519214Y-76074214D02*
X166519214Y-62074214D01*
X166519214Y-62074214D02*
X180519214Y-62074214D01*
X180519214Y-62074214D02*
X180519214Y-76074214D01*
%TO.C,SW23*%
X199569214Y-119074214D02*
X185569214Y-119074214D01*
X185569214Y-119074214D02*
X185569214Y-105074214D01*
X185569214Y-105074214D02*
X199569214Y-105074214D01*
X199569214Y-105074214D02*
X199569214Y-119074214D01*
%TO.C,SW24*%
X218619214Y-119074214D02*
X204619214Y-119074214D01*
X204619214Y-119074214D02*
X204619214Y-105074214D01*
X204619214Y-105074214D02*
X218619214Y-105074214D01*
X218619214Y-105074214D02*
X218619214Y-119074214D01*
%TO.C,SW12*%
X218619214Y-80974214D02*
X204619214Y-80974214D01*
X204619214Y-80974214D02*
X204619214Y-66974214D01*
X204619214Y-66974214D02*
X218619214Y-66974214D01*
X218619214Y-66974214D02*
X218619214Y-80974214D01*
%TO.C,SW18*%
X218619214Y-100024214D02*
X204619214Y-100024214D01*
X204619214Y-100024214D02*
X204619214Y-86024214D01*
X204619214Y-86024214D02*
X218619214Y-86024214D01*
X218619214Y-86024214D02*
X218619214Y-100024214D01*
%TO.C,SW30*%
X180519214Y-133224214D02*
X166519214Y-133224214D01*
X166519214Y-133224214D02*
X166519214Y-119224214D01*
X166519214Y-119224214D02*
X180519214Y-119224214D01*
X180519214Y-119224214D02*
X180519214Y-133224214D01*
%TO.C,SW11*%
X199569214Y-80974214D02*
X185569214Y-80974214D01*
X185569214Y-80974214D02*
X185569214Y-66974214D01*
X185569214Y-66974214D02*
X199569214Y-66974214D01*
X199569214Y-66974214D02*
X199569214Y-80974214D01*
%TO.C,SW22*%
X180519214Y-114174214D02*
X166519214Y-114174214D01*
X166519214Y-114174214D02*
X166519214Y-100174214D01*
X166519214Y-100174214D02*
X180519214Y-100174214D01*
X180519214Y-100174214D02*
X180519214Y-114174214D01*
%TO.C,SW17*%
X199569214Y-100024214D02*
X185569214Y-100024214D01*
X185569214Y-100024214D02*
X185569214Y-86024214D01*
X185569214Y-86024214D02*
X199569214Y-86024214D01*
X199569214Y-86024214D02*
X199569214Y-100024214D01*
%TO.C,SW4*%
X180519214Y-57024214D02*
X166519214Y-57024214D01*
X166519214Y-57024214D02*
X166519214Y-43024214D01*
X166519214Y-43024214D02*
X180519214Y-43024214D01*
X180519214Y-43024214D02*
X180519214Y-57024214D01*
%TO.C,SW16*%
X180519214Y-95124214D02*
X166519214Y-95124214D01*
X166519214Y-95124214D02*
X166519214Y-81124214D01*
X166519214Y-81124214D02*
X180519214Y-81124214D01*
X180519214Y-81124214D02*
X180519214Y-95124214D01*
%TO.C,SW5*%
X199569214Y-61924214D02*
X185569214Y-61924214D01*
X185569214Y-61924214D02*
X185569214Y-47924214D01*
X185569214Y-47924214D02*
X199569214Y-47924214D01*
X199569214Y-47924214D02*
X199569214Y-61924214D01*
%TD*%
M02*
