%TF.GenerationSoftware,KiCad,Pcbnew,(7.0.0-0)*%
%TF.CreationDate,2023-04-09T15:39:07-07:00*%
%TF.ProjectId,sofle_click_keyplate_A,736f666c-655f-4636-9c69-636b5f6b6579,rev?*%
%TF.SameCoordinates,Original*%
%TF.FileFunction,Profile,NP*%
%FSLAX46Y46*%
G04 Gerber Fmt 4.6, Leading zero omitted, Abs format (unit mm)*
G04 Created by KiCad (PCBNEW (7.0.0-0)) date 2023-04-09 15:39:07*
%MOMM*%
%LPD*%
G01*
G04 APERTURE LIST*
%TA.AperFunction,Profile*%
%ADD10C,0.100000*%
%TD*%
%TA.AperFunction,Profile*%
%ADD11C,0.150000*%
%TD*%
%TA.AperFunction,Profile*%
%ADD12C,0.120000*%
%TD*%
G04 APERTURE END LIST*
D10*
X123809214Y-141399216D02*
G75*
G03*
X122133645Y-142313725I4386J-2000284D01*
G01*
X107519214Y-146804215D02*
G75*
G03*
X106759968Y-147774214I239986J-969985D01*
G01*
X88776321Y-98818426D02*
G75*
G03*
X89776326Y-97818426I-21J1000026D01*
G01*
X73541862Y-133235438D02*
G75*
G03*
X73599258Y-134334189I1108638J-492962D01*
G01*
X140254214Y-82249214D02*
X121204214Y-82249214D01*
X88776321Y-98818426D02*
X77504214Y-98824214D01*
X105759214Y-155334214D02*
G75*
G03*
X106759214Y-154334214I-14J1000014D01*
G01*
X123809214Y-141399214D02*
X159304214Y-141399214D01*
X98154214Y-92047107D02*
G75*
G03*
X99154207Y-91047107I-14J1000007D01*
G01*
X140254214Y-82249214D02*
X140254214Y-79749214D01*
D11*
X99154214Y-91047107D02*
X99159214Y-84749214D01*
D10*
X73599246Y-134334196D02*
X84065742Y-154811190D01*
X159304214Y-79749214D02*
X140254214Y-79749214D01*
X90776321Y-92041321D02*
X98154214Y-92047107D01*
X106759965Y-147774214D02*
X106759214Y-154334214D01*
X77504214Y-98824214D02*
G75*
G03*
X76504214Y-99824214I-14J-999986D01*
G01*
X121204214Y-84749214D02*
X99159214Y-84749214D01*
X90776321Y-92041321D02*
G75*
G03*
X89776321Y-93041321I-21J-999979D01*
G01*
X76504214Y-127174214D02*
X76504214Y-99824214D01*
X107519214Y-146804214D02*
X120914605Y-143248938D01*
X89776321Y-97818426D02*
X89776321Y-93041321D01*
X73541862Y-133235438D02*
X76504214Y-127174214D01*
D11*
X159304214Y-79749214D02*
X159304214Y-141399214D01*
D10*
X105759214Y-155334214D02*
X84859214Y-155334213D01*
X120914605Y-143248938D02*
G75*
G03*
X122133644Y-142313725I-519705J1939538D01*
G01*
X121204214Y-82249214D02*
X121204214Y-84749214D01*
X84065744Y-154811189D02*
G75*
G03*
X84859210Y-155334241I963456J598189D01*
G01*
D12*
%TO.C,SW20*%
X137729214Y-117824214D02*
X123729214Y-117824214D01*
X123729214Y-117824214D02*
X123729214Y-103824214D01*
X123729214Y-103824214D02*
X137729214Y-103824214D01*
X137729214Y-103824214D02*
X137729214Y-117824214D01*
%TO.C,SW29*%
X156779214Y-134374214D02*
X142779214Y-134374214D01*
X142779214Y-134374214D02*
X142779214Y-120374214D01*
X142779214Y-120374214D02*
X156779214Y-120374214D01*
X156779214Y-120374214D02*
X156779214Y-134374214D01*
%TO.C,SW14*%
X137729214Y-98774214D02*
X123729214Y-98774214D01*
X123729214Y-98774214D02*
X123729214Y-84774214D01*
X123729214Y-84774214D02*
X137729214Y-84774214D01*
X137729214Y-84774214D02*
X137729214Y-98774214D01*
%TO.C,SW26*%
X84865848Y-149430002D02*
X78509981Y-136955911D01*
X78509981Y-136955911D02*
X90984072Y-130600044D01*
X90984072Y-130600044D02*
X97339939Y-143074135D01*
X97339939Y-143074135D02*
X84865848Y-149430002D01*
%TO.C,SW21*%
X156779214Y-115324214D02*
X142779214Y-115324214D01*
X142779214Y-115324214D02*
X142779214Y-101324214D01*
X142779214Y-101324214D02*
X156779214Y-101324214D01*
X156779214Y-101324214D02*
X156779214Y-115324214D01*
%TO.C,SW27*%
X117302428Y-139523961D02*
X103779467Y-143147428D01*
X103779467Y-143147428D02*
X100156000Y-129624467D01*
X100156000Y-129624467D02*
X113678961Y-126001000D01*
X113678961Y-126001000D02*
X117302428Y-139523961D01*
D11*
%TO.C,SW25*%
X98929214Y-117174214D02*
X98929214Y-104174214D01*
X98929214Y-104174214D02*
X83329214Y-104174214D01*
X83329214Y-117174214D02*
X98929214Y-117174214D01*
X83329214Y-110174214D02*
X83329214Y-117174214D01*
X83329214Y-104174214D02*
X83329214Y-110174214D01*
D12*
%TO.C,SW13*%
X118679214Y-101274214D02*
X104679214Y-101274214D01*
X104679214Y-101274214D02*
X104679214Y-87274214D01*
X104679214Y-87274214D02*
X118679214Y-87274214D01*
X118679214Y-87274214D02*
X118679214Y-101274214D01*
%TO.C,SW15*%
X156779214Y-96274214D02*
X142779214Y-96274214D01*
X142779214Y-96274214D02*
X142779214Y-82274214D01*
X142779214Y-82274214D02*
X156779214Y-82274214D01*
X156779214Y-82274214D02*
X156779214Y-96274214D01*
%TO.C,SW19*%
X118679214Y-120324214D02*
X104679214Y-120324214D01*
X104679214Y-120324214D02*
X104679214Y-106324214D01*
X104679214Y-106324214D02*
X118679214Y-106324214D01*
X118679214Y-106324214D02*
X118679214Y-120324214D01*
%TO.C,SW28*%
X137729214Y-136874214D02*
X123729214Y-136874214D01*
X123729214Y-136874214D02*
X123729214Y-122874214D01*
X123729214Y-122874214D02*
X137729214Y-122874214D01*
X137729214Y-122874214D02*
X137729214Y-136874214D01*
%TD*%
M02*
