%TF.GenerationSoftware,KiCad,Pcbnew,(7.0.0-0)*%
%TF.CreationDate,2023-04-10T14:36:22-07:00*%
%TF.ProjectId,Sofle_loud_bottom,536f666c-655f-46c6-9f75-645f626f7474,rev?*%
%TF.SameCoordinates,Original*%
%TF.FileFunction,Legend,Top*%
%TF.FilePolarity,Positive*%
%FSLAX46Y46*%
G04 Gerber Fmt 4.6, Leading zero omitted, Abs format (unit mm)*
G04 Created by KiCad (PCBNEW (7.0.0-0)) date 2023-04-10 14:36:22*
%MOMM*%
%LPD*%
G01*
G04 APERTURE LIST*
%ADD10C,0.150000*%
G04 APERTURE END LIST*
D10*
%TO.C,*%
%TO.C,TH5*%
X124134286Y-97017380D02*
X124705714Y-97017380D01*
X124420000Y-98017380D02*
X124420000Y-97017380D01*
X125039048Y-98017380D02*
X125039048Y-97017380D01*
X125039048Y-97493571D02*
X125610476Y-97493571D01*
X125610476Y-98017380D02*
X125610476Y-97017380D01*
X126562857Y-97017380D02*
X126086667Y-97017380D01*
X126086667Y-97017380D02*
X126039048Y-97493571D01*
X126039048Y-97493571D02*
X126086667Y-97445952D01*
X126086667Y-97445952D02*
X126181905Y-97398333D01*
X126181905Y-97398333D02*
X126420000Y-97398333D01*
X126420000Y-97398333D02*
X126515238Y-97445952D01*
X126515238Y-97445952D02*
X126562857Y-97493571D01*
X126562857Y-97493571D02*
X126610476Y-97588809D01*
X126610476Y-97588809D02*
X126610476Y-97826904D01*
X126610476Y-97826904D02*
X126562857Y-97922142D01*
X126562857Y-97922142D02*
X126515238Y-97969761D01*
X126515238Y-97969761D02*
X126420000Y-98017380D01*
X126420000Y-98017380D02*
X126181905Y-98017380D01*
X126181905Y-98017380D02*
X126086667Y-97969761D01*
X126086667Y-97969761D02*
X126039048Y-97922142D01*
%TO.C,TH6*%
X200879286Y-99582380D02*
X201450714Y-99582380D01*
X201165000Y-100582380D02*
X201165000Y-99582380D01*
X201784048Y-100582380D02*
X201784048Y-99582380D01*
X201784048Y-100058571D02*
X202355476Y-100058571D01*
X202355476Y-100582380D02*
X202355476Y-99582380D01*
X203260238Y-99582380D02*
X203069762Y-99582380D01*
X203069762Y-99582380D02*
X202974524Y-99630000D01*
X202974524Y-99630000D02*
X202926905Y-99677619D01*
X202926905Y-99677619D02*
X202831667Y-99820476D01*
X202831667Y-99820476D02*
X202784048Y-100010952D01*
X202784048Y-100010952D02*
X202784048Y-100391904D01*
X202784048Y-100391904D02*
X202831667Y-100487142D01*
X202831667Y-100487142D02*
X202879286Y-100534761D01*
X202879286Y-100534761D02*
X202974524Y-100582380D01*
X202974524Y-100582380D02*
X203165000Y-100582380D01*
X203165000Y-100582380D02*
X203260238Y-100534761D01*
X203260238Y-100534761D02*
X203307857Y-100487142D01*
X203307857Y-100487142D02*
X203355476Y-100391904D01*
X203355476Y-100391904D02*
X203355476Y-100153809D01*
X203355476Y-100153809D02*
X203307857Y-100058571D01*
X203307857Y-100058571D02*
X203260238Y-100010952D01*
X203260238Y-100010952D02*
X203165000Y-99963333D01*
X203165000Y-99963333D02*
X202974524Y-99963333D01*
X202974524Y-99963333D02*
X202879286Y-100010952D01*
X202879286Y-100010952D02*
X202831667Y-100058571D01*
X202831667Y-100058571D02*
X202784048Y-100153809D01*
%TO.C,TH7*%
X96137380Y-123495713D02*
X96137380Y-122924285D01*
X97137380Y-123209999D02*
X96137380Y-123209999D01*
X97137380Y-122590951D02*
X96137380Y-122590951D01*
X96613571Y-122590951D02*
X96613571Y-122019523D01*
X97137380Y-122019523D02*
X96137380Y-122019523D01*
X96137380Y-121638570D02*
X96137380Y-120971904D01*
X96137380Y-120971904D02*
X97137380Y-121400475D01*
%TO.C,TH1*%
X83779286Y-96017380D02*
X84350714Y-96017380D01*
X84065000Y-97017380D02*
X84065000Y-96017380D01*
X84684048Y-97017380D02*
X84684048Y-96017380D01*
X84684048Y-96493571D02*
X85255476Y-96493571D01*
X85255476Y-97017380D02*
X85255476Y-96017380D01*
X86255476Y-97017380D02*
X85684048Y-97017380D01*
X85969762Y-97017380D02*
X85969762Y-96017380D01*
X85969762Y-96017380D02*
X85874524Y-96160238D01*
X85874524Y-96160238D02*
X85779286Y-96255476D01*
X85779286Y-96255476D02*
X85684048Y-96303095D01*
%TO.C,TH3*%
X124044286Y-59067380D02*
X124615714Y-59067380D01*
X124330000Y-60067380D02*
X124330000Y-59067380D01*
X124949048Y-60067380D02*
X124949048Y-59067380D01*
X124949048Y-59543571D02*
X125520476Y-59543571D01*
X125520476Y-60067380D02*
X125520476Y-59067380D01*
X125901429Y-59067380D02*
X126520476Y-59067380D01*
X126520476Y-59067380D02*
X126187143Y-59448333D01*
X126187143Y-59448333D02*
X126330000Y-59448333D01*
X126330000Y-59448333D02*
X126425238Y-59495952D01*
X126425238Y-59495952D02*
X126472857Y-59543571D01*
X126472857Y-59543571D02*
X126520476Y-59638809D01*
X126520476Y-59638809D02*
X126520476Y-59876904D01*
X126520476Y-59876904D02*
X126472857Y-59972142D01*
X126472857Y-59972142D02*
X126425238Y-60019761D01*
X126425238Y-60019761D02*
X126330000Y-60067380D01*
X126330000Y-60067380D02*
X126044286Y-60067380D01*
X126044286Y-60067380D02*
X125949048Y-60019761D01*
X125949048Y-60019761D02*
X125901429Y-59972142D01*
%TO.C,TH2*%
X97940339Y-88815932D02*
X98511767Y-88815932D01*
X98226053Y-89815932D02*
X98226053Y-88815932D01*
X98845101Y-89815932D02*
X98845101Y-88815932D01*
X98845101Y-89292123D02*
X99416529Y-89292123D01*
X99416529Y-89815932D02*
X99416529Y-88815932D01*
X99845101Y-88911171D02*
X99892720Y-88863552D01*
X99892720Y-88863552D02*
X99987958Y-88815932D01*
X99987958Y-88815932D02*
X100226053Y-88815932D01*
X100226053Y-88815932D02*
X100321291Y-88863552D01*
X100321291Y-88863552D02*
X100368910Y-88911171D01*
X100368910Y-88911171D02*
X100416529Y-89006409D01*
X100416529Y-89006409D02*
X100416529Y-89101647D01*
X100416529Y-89101647D02*
X100368910Y-89244504D01*
X100368910Y-89244504D02*
X99797482Y-89815932D01*
X99797482Y-89815932D02*
X100416529Y-89815932D01*
%TO.C,TH4*%
X200894286Y-61467380D02*
X201465714Y-61467380D01*
X201180000Y-62467380D02*
X201180000Y-61467380D01*
X201799048Y-62467380D02*
X201799048Y-61467380D01*
X201799048Y-61943571D02*
X202370476Y-61943571D01*
X202370476Y-62467380D02*
X202370476Y-61467380D01*
X203275238Y-61800714D02*
X203275238Y-62467380D01*
X203037143Y-61419761D02*
X202799048Y-62134047D01*
X202799048Y-62134047D02*
X203418095Y-62134047D01*
%TD*%
M02*
