G04 #@! TF.GenerationSoftware,KiCad,Pcbnew,(7.0.0-0)*
G04 #@! TF.CreationDate,2023-03-20T18:34:57-07:00*
G04 #@! TF.ProjectId,SofleKeyboard,536f666c-654b-4657-9962-6f6172642e6b,rev?*
G04 #@! TF.SameCoordinates,Original*
G04 #@! TF.FileFunction,Soldermask,Top*
G04 #@! TF.FilePolarity,Negative*
%FSLAX46Y46*%
G04 Gerber Fmt 4.6, Leading zero omitted, Abs format (unit mm)*
G04 Created by KiCad (PCBNEW (7.0.0-0)) date 2023-03-20 18:34:57*
%MOMM*%
%LPD*%
G01*
G04 APERTURE LIST*
G04 Aperture macros list*
%AMRoundRect*
0 Rectangle with rounded corners*
0 $1 Rounding radius*
0 $2 $3 $4 $5 $6 $7 $8 $9 X,Y pos of 4 corners*
0 Add a 4 corners polygon primitive as box body*
4,1,4,$2,$3,$4,$5,$6,$7,$8,$9,$2,$3,0*
0 Add four circle primitives for the rounded corners*
1,1,$1+$1,$2,$3*
1,1,$1+$1,$4,$5*
1,1,$1+$1,$6,$7*
1,1,$1+$1,$8,$9*
0 Add four rect primitives between the rounded corners*
20,1,$1+$1,$2,$3,$4,$5,0*
20,1,$1+$1,$4,$5,$6,$7,0*
20,1,$1+$1,$6,$7,$8,$9,0*
20,1,$1+$1,$8,$9,$2,$3,0*%
%AMFreePoly0*
4,1,28,-0.850000,0.400000,-0.842219,0.514750,-0.797860,0.693119,-0.716195,0.857783,-0.601041,1.001041,-0.457783,1.116195,-0.293119,1.197860,-0.114750,1.242219,0.000000,1.250000,0.114750,1.242219,0.293119,1.197860,0.457783,1.116195,0.601041,1.001041,0.716195,0.857783,0.797860,0.693119,0.842219,0.514750,0.850000,0.400000,0.850000,-0.400000,0.000000,-1.250000,-0.114750,-1.242219,
-0.293119,-1.197860,-0.457783,-1.116195,-0.601041,-1.001041,-0.716195,-0.857783,-0.797860,-0.693119,-0.842219,-0.514750,-0.850000,-0.400000,-0.850000,0.400000,-0.850000,0.400000,$1*%
%AMFreePoly1*
4,1,28,-0.850000,0.400000,-0.842219,0.514750,-0.797860,0.693119,-0.716195,0.857783,-0.601041,1.001041,-0.457783,1.116195,-0.293119,1.197860,-0.114750,1.242219,0.000000,1.250000,0.850000,0.400000,0.850000,-0.400000,0.842219,-0.514750,0.797860,-0.693119,0.716195,-0.857783,0.601041,-1.001041,0.457783,-1.116195,0.293119,-1.197860,0.114750,-1.242219,0.000000,-1.250000,-0.114750,-1.242219,
-0.293119,-1.197860,-0.457783,-1.116195,-0.601041,-1.001041,-0.716195,-0.857783,-0.797860,-0.693119,-0.842219,-0.514750,-0.850000,-0.400000,-0.850000,0.400000,-0.850000,0.400000,$1*%
%AMFreePoly2*
4,1,18,-0.800000,0.908000,-0.785385,0.981475,-0.743765,1.043765,-0.681475,1.085385,-0.608000,1.100000,0.608000,1.100000,0.681475,1.085385,0.743765,1.043765,0.785385,0.981475,0.800000,0.908000,0.800000,-0.700000,0.400000,-1.100000,-0.608000,-1.100000,-0.681475,-1.085385,-0.743765,-1.043765,-0.785385,-0.981475,-0.800000,-0.908000,-0.800000,0.908000,-0.800000,0.908000,$1*%
%AMFreePoly3*
4,1,13,-0.800000,0.908000,-0.785385,0.981475,-0.743765,1.043765,-0.681475,1.085385,-0.608000,1.100000,0.800000,1.100000,0.800000,-1.100000,-0.608000,-1.100000,-0.681475,-1.085385,-0.743765,-1.043765,-0.785385,-0.981475,-0.800000,-0.908000,-0.800000,0.908000,-0.800000,0.908000,$1*%
G04 Aperture macros list end*
%ADD10C,0.100000*%
%ADD11C,1.397000*%
%ADD12C,1.200000*%
%ADD13FreePoly0,90.000000*%
%ADD14O,2.500000X1.700000*%
%ADD15FreePoly1,90.000000*%
%ADD16C,4.700000*%
%ADD17C,1.524000*%
%ADD18R,1.143000X0.635000*%
%ADD19C,2.000000*%
%ADD20R,1.650000X1.650000*%
%ADD21RoundRect,0.225000X-0.375000X0.225000X-0.375000X-0.225000X0.375000X-0.225000X0.375000X0.225000X0*%
%ADD22C,1.650000*%
%ADD23C,1.800000*%
%ADD24C,3.000000*%
%ADD25C,4.800000*%
%ADD26C,1.000000*%
%ADD27FreePoly2,180.000000*%
%ADD28FreePoly3,180.000000*%
%ADD29FreePoly2,120.000000*%
%ADD30FreePoly3,120.000000*%
%ADD31C,4.000000*%
%ADD32R,3.200000X2.000000*%
%ADD33FreePoly2,195.000000*%
%ADD34FreePoly3,195.000000*%
%ADD35R,1.700000X1.700000*%
%ADD36O,1.700000X1.700000*%
G04 APERTURE END LIST*
G36*
X124100000Y-46510000D02*
G01*
X122400000Y-46510000D01*
X122400000Y-45760000D01*
X124100000Y-45760000D01*
X124100000Y-46510000D01*
G37*
D10*
X124100000Y-46510000D02*
X122400000Y-46510000D01*
X122400000Y-45760000D01*
X124100000Y-45760000D01*
X124100000Y-46510000D01*
G36*
X118700000Y-46510000D02*
G01*
X117000000Y-46510000D01*
X117000000Y-45760000D01*
X118700000Y-45760000D01*
X118700000Y-46510000D01*
G37*
X118700000Y-46510000D02*
X117000000Y-46510000D01*
X117000000Y-45760000D01*
X118700000Y-45760000D01*
X118700000Y-46510000D01*
G36*
X118700000Y-44760000D02*
G01*
X117000000Y-44760000D01*
X117000000Y-44010000D01*
X118700000Y-44010000D01*
X118700000Y-44760000D01*
G37*
X118700000Y-44760000D02*
X117000000Y-44760000D01*
X117000000Y-44010000D01*
X118700000Y-44010000D01*
X118700000Y-44760000D01*
G36*
X124100000Y-44430000D02*
G01*
X124100000Y-44760000D01*
X122400000Y-44760000D01*
X122400000Y-44010000D01*
X123680000Y-44010000D01*
X124100000Y-44430000D01*
G37*
X124100000Y-44430000D02*
X124100000Y-44760000D01*
X122400000Y-44760000D01*
X122400000Y-44010000D01*
X123680000Y-44010000D01*
X124100000Y-44430000D01*
G36*
X162200000Y-41510000D02*
G01*
X160500000Y-41510000D01*
X160500000Y-40760000D01*
X162200000Y-40760000D01*
X162200000Y-41510000D01*
G37*
X162200000Y-41510000D02*
X160500000Y-41510000D01*
X160500000Y-40760000D01*
X162200000Y-40760000D01*
X162200000Y-41510000D01*
G36*
X156800000Y-41510000D02*
G01*
X155100000Y-41510000D01*
X155100000Y-40760000D01*
X156800000Y-40760000D01*
X156800000Y-41510000D01*
G37*
X156800000Y-41510000D02*
X155100000Y-41510000D01*
X155100000Y-40760000D01*
X156800000Y-40760000D01*
X156800000Y-41510000D01*
G36*
X156800000Y-39760000D02*
G01*
X155100000Y-39760000D01*
X155100000Y-39010000D01*
X156800000Y-39010000D01*
X156800000Y-39760000D01*
G37*
X156800000Y-39760000D02*
X155100000Y-39760000D01*
X155100000Y-39010000D01*
X156800000Y-39010000D01*
X156800000Y-39760000D01*
G36*
X162200000Y-39430000D02*
G01*
X162200000Y-39760000D01*
X160500000Y-39760000D01*
X160500000Y-39010000D01*
X161780000Y-39010000D01*
X162200000Y-39430000D01*
G37*
X162200000Y-39430000D02*
X162200000Y-39760000D01*
X160500000Y-39760000D01*
X160500000Y-39010000D01*
X161780000Y-39010000D01*
X162200000Y-39430000D01*
G36*
X124100000Y-84610000D02*
G01*
X122400000Y-84610000D01*
X122400000Y-83860000D01*
X124100000Y-83860000D01*
X124100000Y-84610000D01*
G37*
X124100000Y-84610000D02*
X122400000Y-84610000D01*
X122400000Y-83860000D01*
X124100000Y-83860000D01*
X124100000Y-84610000D01*
G36*
X118700000Y-84610000D02*
G01*
X117000000Y-84610000D01*
X117000000Y-83860000D01*
X118700000Y-83860000D01*
X118700000Y-84610000D01*
G37*
X118700000Y-84610000D02*
X117000000Y-84610000D01*
X117000000Y-83860000D01*
X118700000Y-83860000D01*
X118700000Y-84610000D01*
G36*
X118700000Y-82860000D02*
G01*
X117000000Y-82860000D01*
X117000000Y-82110000D01*
X118700000Y-82110000D01*
X118700000Y-82860000D01*
G37*
X118700000Y-82860000D02*
X117000000Y-82860000D01*
X117000000Y-82110000D01*
X118700000Y-82110000D01*
X118700000Y-82860000D01*
G36*
X124100000Y-82530000D02*
G01*
X124100000Y-82860000D01*
X122400000Y-82860000D01*
X122400000Y-82110000D01*
X123680000Y-82110000D01*
X124100000Y-82530000D01*
G37*
X124100000Y-82530000D02*
X124100000Y-82860000D01*
X122400000Y-82860000D01*
X122400000Y-82110000D01*
X123680000Y-82110000D01*
X124100000Y-82530000D01*
G36*
X143150000Y-82110000D02*
G01*
X141450000Y-82110000D01*
X141450000Y-81360000D01*
X143150000Y-81360000D01*
X143150000Y-82110000D01*
G37*
X143150000Y-82110000D02*
X141450000Y-82110000D01*
X141450000Y-81360000D01*
X143150000Y-81360000D01*
X143150000Y-82110000D01*
G36*
X137750000Y-82110000D02*
G01*
X136050000Y-82110000D01*
X136050000Y-81360000D01*
X137750000Y-81360000D01*
X137750000Y-82110000D01*
G37*
X137750000Y-82110000D02*
X136050000Y-82110000D01*
X136050000Y-81360000D01*
X137750000Y-81360000D01*
X137750000Y-82110000D01*
G36*
X137750000Y-80360000D02*
G01*
X136050000Y-80360000D01*
X136050000Y-79610000D01*
X137750000Y-79610000D01*
X137750000Y-80360000D01*
G37*
X137750000Y-80360000D02*
X136050000Y-80360000D01*
X136050000Y-79610000D01*
X137750000Y-79610000D01*
X137750000Y-80360000D01*
G36*
X143150000Y-80030000D02*
G01*
X143150000Y-80360000D01*
X141450000Y-80360000D01*
X141450000Y-79610000D01*
X142730000Y-79610000D01*
X143150000Y-80030000D01*
G37*
X143150000Y-80030000D02*
X143150000Y-80360000D01*
X141450000Y-80360000D01*
X141450000Y-79610000D01*
X142730000Y-79610000D01*
X143150000Y-80030000D01*
G36*
X162200000Y-98660000D02*
G01*
X160500000Y-98660000D01*
X160500000Y-97910000D01*
X162200000Y-97910000D01*
X162200000Y-98660000D01*
G37*
X162200000Y-98660000D02*
X160500000Y-98660000D01*
X160500000Y-97910000D01*
X162200000Y-97910000D01*
X162200000Y-98660000D01*
G36*
X156800000Y-98660000D02*
G01*
X155100000Y-98660000D01*
X155100000Y-97910000D01*
X156800000Y-97910000D01*
X156800000Y-98660000D01*
G37*
X156800000Y-98660000D02*
X155100000Y-98660000D01*
X155100000Y-97910000D01*
X156800000Y-97910000D01*
X156800000Y-98660000D01*
G36*
X156800000Y-96910000D02*
G01*
X155100000Y-96910000D01*
X155100000Y-96160000D01*
X156800000Y-96160000D01*
X156800000Y-96910000D01*
G37*
X156800000Y-96910000D02*
X155100000Y-96910000D01*
X155100000Y-96160000D01*
X156800000Y-96160000D01*
X156800000Y-96910000D01*
G36*
X162200000Y-96580000D02*
G01*
X162200000Y-96910000D01*
X160500000Y-96910000D01*
X160500000Y-96160000D01*
X161780000Y-96160000D01*
X162200000Y-96580000D01*
G37*
X162200000Y-96580000D02*
X162200000Y-96910000D01*
X160500000Y-96910000D01*
X160500000Y-96160000D01*
X161780000Y-96160000D01*
X162200000Y-96580000D01*
G36*
X200300000Y-106060000D02*
G01*
X198600000Y-106060000D01*
X198600000Y-105310000D01*
X200300000Y-105310000D01*
X200300000Y-106060000D01*
G37*
X200300000Y-106060000D02*
X198600000Y-106060000D01*
X198600000Y-105310000D01*
X200300000Y-105310000D01*
X200300000Y-106060000D01*
G36*
X194900000Y-106060000D02*
G01*
X193200000Y-106060000D01*
X193200000Y-105310000D01*
X194900000Y-105310000D01*
X194900000Y-106060000D01*
G37*
X194900000Y-106060000D02*
X193200000Y-106060000D01*
X193200000Y-105310000D01*
X194900000Y-105310000D01*
X194900000Y-106060000D01*
G36*
X194900000Y-104310000D02*
G01*
X193200000Y-104310000D01*
X193200000Y-103560000D01*
X194900000Y-103560000D01*
X194900000Y-104310000D01*
G37*
X194900000Y-104310000D02*
X193200000Y-104310000D01*
X193200000Y-103560000D01*
X194900000Y-103560000D01*
X194900000Y-104310000D01*
G36*
X200300000Y-103980000D02*
G01*
X200300000Y-104310000D01*
X198600000Y-104310000D01*
X198600000Y-103560000D01*
X199880000Y-103560000D01*
X200300000Y-103980000D01*
G37*
X200300000Y-103980000D02*
X200300000Y-104310000D01*
X198600000Y-104310000D01*
X198600000Y-103560000D01*
X199880000Y-103560000D01*
X200300000Y-103980000D01*
G36*
X102156948Y-134354390D02*
G01*
X101507429Y-134729390D01*
X100657429Y-133257147D01*
X101306948Y-132882147D01*
X102156948Y-134354390D01*
G37*
X102156948Y-134354390D02*
X101507429Y-134729390D01*
X100657429Y-133257147D01*
X101306948Y-132882147D01*
X102156948Y-134354390D01*
G36*
X99456948Y-129677853D02*
G01*
X98807429Y-130052853D01*
X97957429Y-128580610D01*
X98606948Y-128205610D01*
X99456948Y-129677853D01*
G37*
X99456948Y-129677853D02*
X98807429Y-130052853D01*
X97957429Y-128580610D01*
X98606948Y-128205610D01*
X99456948Y-129677853D01*
G36*
X100972492Y-128802853D02*
G01*
X100322973Y-129177853D01*
X99472973Y-127705610D01*
X100122492Y-127330610D01*
X100972492Y-128802853D01*
G37*
X100972492Y-128802853D02*
X100322973Y-129177853D01*
X99472973Y-127705610D01*
X100122492Y-127330610D01*
X100972492Y-128802853D01*
G36*
X103462492Y-133115660D02*
G01*
X103308761Y-133689390D01*
X103022973Y-133854390D01*
X102172973Y-132382147D01*
X102822492Y-132007147D01*
X103462492Y-133115660D01*
G37*
X103462492Y-133115660D02*
X103308761Y-133689390D01*
X103022973Y-133854390D01*
X102172973Y-132382147D01*
X102822492Y-132007147D01*
X103462492Y-133115660D01*
G36*
X120125758Y-124110111D02*
G01*
X118483684Y-124550104D01*
X118289570Y-123825659D01*
X119931644Y-123385667D01*
X120125758Y-124110111D01*
G37*
X120125758Y-124110111D02*
X118483684Y-124550104D01*
X118289570Y-123825659D01*
X119931644Y-123385667D01*
X120125758Y-124110111D01*
G36*
X114909759Y-125507734D02*
G01*
X113267685Y-125947726D01*
X113073571Y-125223282D01*
X114715644Y-124783290D01*
X114909759Y-125507734D01*
G37*
X114909759Y-125507734D02*
X113267685Y-125947726D01*
X113073571Y-125223282D01*
X114715644Y-124783290D01*
X114909759Y-125507734D01*
G36*
X114456825Y-123817364D02*
G01*
X112814752Y-124257356D01*
X112620637Y-123532912D01*
X114262711Y-123092920D01*
X114456825Y-123817364D01*
G37*
X114456825Y-123817364D02*
X112814752Y-124257356D01*
X112620637Y-123532912D01*
X114262711Y-123092920D01*
X114456825Y-123817364D01*
G36*
X119587415Y-122100986D02*
G01*
X119672825Y-122419741D01*
X118030751Y-122859733D01*
X117836637Y-122135289D01*
X119073022Y-121804001D01*
X119587415Y-122100986D01*
G37*
X119587415Y-122100986D02*
X119672825Y-122419741D01*
X118030751Y-122859733D01*
X117836637Y-122135289D01*
X119073022Y-121804001D01*
X119587415Y-122100986D01*
G36*
X219350000Y-67960000D02*
G01*
X217650000Y-67960000D01*
X217650000Y-67210000D01*
X219350000Y-67210000D01*
X219350000Y-67960000D01*
G37*
X219350000Y-67960000D02*
X217650000Y-67960000D01*
X217650000Y-67210000D01*
X219350000Y-67210000D01*
X219350000Y-67960000D01*
G36*
X213950000Y-67960000D02*
G01*
X212250000Y-67960000D01*
X212250000Y-67210000D01*
X213950000Y-67210000D01*
X213950000Y-67960000D01*
G37*
X213950000Y-67960000D02*
X212250000Y-67960000D01*
X212250000Y-67210000D01*
X213950000Y-67210000D01*
X213950000Y-67960000D01*
G36*
X213950000Y-66210000D02*
G01*
X212250000Y-66210000D01*
X212250000Y-65460000D01*
X213950000Y-65460000D01*
X213950000Y-66210000D01*
G37*
X213950000Y-66210000D02*
X212250000Y-66210000D01*
X212250000Y-65460000D01*
X213950000Y-65460000D01*
X213950000Y-66210000D01*
G36*
X219350000Y-65880000D02*
G01*
X219350000Y-66210000D01*
X217650000Y-66210000D01*
X217650000Y-65460000D01*
X218930000Y-65460000D01*
X219350000Y-65880000D01*
G37*
X219350000Y-65880000D02*
X219350000Y-66210000D01*
X217650000Y-66210000D01*
X217650000Y-65460000D01*
X218930000Y-65460000D01*
X219350000Y-65880000D01*
G36*
X219350000Y-87010000D02*
G01*
X217650000Y-87010000D01*
X217650000Y-86260000D01*
X219350000Y-86260000D01*
X219350000Y-87010000D01*
G37*
X219350000Y-87010000D02*
X217650000Y-87010000D01*
X217650000Y-86260000D01*
X219350000Y-86260000D01*
X219350000Y-87010000D01*
G36*
X213950000Y-87010000D02*
G01*
X212250000Y-87010000D01*
X212250000Y-86260000D01*
X213950000Y-86260000D01*
X213950000Y-87010000D01*
G37*
X213950000Y-87010000D02*
X212250000Y-87010000D01*
X212250000Y-86260000D01*
X213950000Y-86260000D01*
X213950000Y-87010000D01*
G36*
X213950000Y-85260000D02*
G01*
X212250000Y-85260000D01*
X212250000Y-84510000D01*
X213950000Y-84510000D01*
X213950000Y-85260000D01*
G37*
X213950000Y-85260000D02*
X212250000Y-85260000D01*
X212250000Y-84510000D01*
X213950000Y-84510000D01*
X213950000Y-85260000D01*
G36*
X219350000Y-84930000D02*
G01*
X219350000Y-85260000D01*
X217650000Y-85260000D01*
X217650000Y-84510000D01*
X218930000Y-84510000D01*
X219350000Y-84930000D01*
G37*
X219350000Y-84930000D02*
X219350000Y-85260000D01*
X217650000Y-85260000D01*
X217650000Y-84510000D01*
X218930000Y-84510000D01*
X219350000Y-84930000D01*
G36*
X219350000Y-106060000D02*
G01*
X217650000Y-106060000D01*
X217650000Y-105310000D01*
X219350000Y-105310000D01*
X219350000Y-106060000D01*
G37*
X219350000Y-106060000D02*
X217650000Y-106060000D01*
X217650000Y-105310000D01*
X219350000Y-105310000D01*
X219350000Y-106060000D01*
G36*
X213950000Y-106060000D02*
G01*
X212250000Y-106060000D01*
X212250000Y-105310000D01*
X213950000Y-105310000D01*
X213950000Y-106060000D01*
G37*
X213950000Y-106060000D02*
X212250000Y-106060000D01*
X212250000Y-105310000D01*
X213950000Y-105310000D01*
X213950000Y-106060000D01*
G36*
X213950000Y-104310000D02*
G01*
X212250000Y-104310000D01*
X212250000Y-103560000D01*
X213950000Y-103560000D01*
X213950000Y-104310000D01*
G37*
X213950000Y-104310000D02*
X212250000Y-104310000D01*
X212250000Y-103560000D01*
X213950000Y-103560000D01*
X213950000Y-104310000D01*
G36*
X219350000Y-103980000D02*
G01*
X219350000Y-104310000D01*
X217650000Y-104310000D01*
X217650000Y-103560000D01*
X218930000Y-103560000D01*
X219350000Y-103980000D01*
G37*
X219350000Y-103980000D02*
X219350000Y-104310000D01*
X217650000Y-104310000D01*
X217650000Y-103560000D01*
X218930000Y-103560000D01*
X219350000Y-103980000D01*
G36*
X181250000Y-44010000D02*
G01*
X179550000Y-44010000D01*
X179550000Y-43260000D01*
X181250000Y-43260000D01*
X181250000Y-44010000D01*
G37*
X181250000Y-44010000D02*
X179550000Y-44010000D01*
X179550000Y-43260000D01*
X181250000Y-43260000D01*
X181250000Y-44010000D01*
G36*
X175850000Y-44010000D02*
G01*
X174150000Y-44010000D01*
X174150000Y-43260000D01*
X175850000Y-43260000D01*
X175850000Y-44010000D01*
G37*
X175850000Y-44010000D02*
X174150000Y-44010000D01*
X174150000Y-43260000D01*
X175850000Y-43260000D01*
X175850000Y-44010000D01*
G36*
X175850000Y-42260000D02*
G01*
X174150000Y-42260000D01*
X174150000Y-41510000D01*
X175850000Y-41510000D01*
X175850000Y-42260000D01*
G37*
X175850000Y-42260000D02*
X174150000Y-42260000D01*
X174150000Y-41510000D01*
X175850000Y-41510000D01*
X175850000Y-42260000D01*
G36*
X181250000Y-41930000D02*
G01*
X181250000Y-42260000D01*
X179550000Y-42260000D01*
X179550000Y-41510000D01*
X180830000Y-41510000D01*
X181250000Y-41930000D01*
G37*
X181250000Y-41930000D02*
X181250000Y-42260000D01*
X179550000Y-42260000D01*
X179550000Y-41510000D01*
X180830000Y-41510000D01*
X181250000Y-41930000D01*
G36*
X200300000Y-48910000D02*
G01*
X198600000Y-48910000D01*
X198600000Y-48160000D01*
X200300000Y-48160000D01*
X200300000Y-48910000D01*
G37*
X200300000Y-48910000D02*
X198600000Y-48910000D01*
X198600000Y-48160000D01*
X200300000Y-48160000D01*
X200300000Y-48910000D01*
G36*
X194900000Y-48910000D02*
G01*
X193200000Y-48910000D01*
X193200000Y-48160000D01*
X194900000Y-48160000D01*
X194900000Y-48910000D01*
G37*
X194900000Y-48910000D02*
X193200000Y-48910000D01*
X193200000Y-48160000D01*
X194900000Y-48160000D01*
X194900000Y-48910000D01*
G36*
X194900000Y-47160000D02*
G01*
X193200000Y-47160000D01*
X193200000Y-46410000D01*
X194900000Y-46410000D01*
X194900000Y-47160000D01*
G37*
X194900000Y-47160000D02*
X193200000Y-47160000D01*
X193200000Y-46410000D01*
X194900000Y-46410000D01*
X194900000Y-47160000D01*
G36*
X200300000Y-46830000D02*
G01*
X200300000Y-47160000D01*
X198600000Y-47160000D01*
X198600000Y-46410000D01*
X199880000Y-46410000D01*
X200300000Y-46830000D01*
G37*
X200300000Y-46830000D02*
X200300000Y-47160000D01*
X198600000Y-47160000D01*
X198600000Y-46410000D01*
X199880000Y-46410000D01*
X200300000Y-46830000D01*
G36*
X143150000Y-63060000D02*
G01*
X141450000Y-63060000D01*
X141450000Y-62310000D01*
X143150000Y-62310000D01*
X143150000Y-63060000D01*
G37*
X143150000Y-63060000D02*
X141450000Y-63060000D01*
X141450000Y-62310000D01*
X143150000Y-62310000D01*
X143150000Y-63060000D01*
G36*
X137750000Y-63060000D02*
G01*
X136050000Y-63060000D01*
X136050000Y-62310000D01*
X137750000Y-62310000D01*
X137750000Y-63060000D01*
G37*
X137750000Y-63060000D02*
X136050000Y-63060000D01*
X136050000Y-62310000D01*
X137750000Y-62310000D01*
X137750000Y-63060000D01*
G36*
X137750000Y-61310000D02*
G01*
X136050000Y-61310000D01*
X136050000Y-60560000D01*
X137750000Y-60560000D01*
X137750000Y-61310000D01*
G37*
X137750000Y-61310000D02*
X136050000Y-61310000D01*
X136050000Y-60560000D01*
X137750000Y-60560000D01*
X137750000Y-61310000D01*
G36*
X143150000Y-60980000D02*
G01*
X143150000Y-61310000D01*
X141450000Y-61310000D01*
X141450000Y-60560000D01*
X142730000Y-60560000D01*
X143150000Y-60980000D01*
G37*
X143150000Y-60980000D02*
X143150000Y-61310000D01*
X141450000Y-61310000D01*
X141450000Y-60560000D01*
X142730000Y-60560000D01*
X143150000Y-60980000D01*
G36*
X181250000Y-63060000D02*
G01*
X179550000Y-63060000D01*
X179550000Y-62310000D01*
X181250000Y-62310000D01*
X181250000Y-63060000D01*
G37*
X181250000Y-63060000D02*
X179550000Y-63060000D01*
X179550000Y-62310000D01*
X181250000Y-62310000D01*
X181250000Y-63060000D01*
G36*
X175850000Y-63060000D02*
G01*
X174150000Y-63060000D01*
X174150000Y-62310000D01*
X175850000Y-62310000D01*
X175850000Y-63060000D01*
G37*
X175850000Y-63060000D02*
X174150000Y-63060000D01*
X174150000Y-62310000D01*
X175850000Y-62310000D01*
X175850000Y-63060000D01*
G36*
X175850000Y-61310000D02*
G01*
X174150000Y-61310000D01*
X174150000Y-60560000D01*
X175850000Y-60560000D01*
X175850000Y-61310000D01*
G37*
X175850000Y-61310000D02*
X174150000Y-61310000D01*
X174150000Y-60560000D01*
X175850000Y-60560000D01*
X175850000Y-61310000D01*
G36*
X181250000Y-60980000D02*
G01*
X181250000Y-61310000D01*
X179550000Y-61310000D01*
X179550000Y-60560000D01*
X180830000Y-60560000D01*
X181250000Y-60980000D01*
G37*
X181250000Y-60980000D02*
X181250000Y-61310000D01*
X179550000Y-61310000D01*
X179550000Y-60560000D01*
X180830000Y-60560000D01*
X181250000Y-60980000D01*
G36*
X162200000Y-60560000D02*
G01*
X160500000Y-60560000D01*
X160500000Y-59810000D01*
X162200000Y-59810000D01*
X162200000Y-60560000D01*
G37*
X162200000Y-60560000D02*
X160500000Y-60560000D01*
X160500000Y-59810000D01*
X162200000Y-59810000D01*
X162200000Y-60560000D01*
G36*
X156800000Y-60560000D02*
G01*
X155100000Y-60560000D01*
X155100000Y-59810000D01*
X156800000Y-59810000D01*
X156800000Y-60560000D01*
G37*
X156800000Y-60560000D02*
X155100000Y-60560000D01*
X155100000Y-59810000D01*
X156800000Y-59810000D01*
X156800000Y-60560000D01*
G36*
X156800000Y-58810000D02*
G01*
X155100000Y-58810000D01*
X155100000Y-58060000D01*
X156800000Y-58060000D01*
X156800000Y-58810000D01*
G37*
X156800000Y-58810000D02*
X155100000Y-58810000D01*
X155100000Y-58060000D01*
X156800000Y-58060000D01*
X156800000Y-58810000D01*
G36*
X162200000Y-58480000D02*
G01*
X162200000Y-58810000D01*
X160500000Y-58810000D01*
X160500000Y-58060000D01*
X161780000Y-58060000D01*
X162200000Y-58480000D01*
G37*
X162200000Y-58480000D02*
X162200000Y-58810000D01*
X160500000Y-58810000D01*
X160500000Y-58060000D01*
X161780000Y-58060000D01*
X162200000Y-58480000D01*
G36*
X181250000Y-82110000D02*
G01*
X179550000Y-82110000D01*
X179550000Y-81360000D01*
X181250000Y-81360000D01*
X181250000Y-82110000D01*
G37*
X181250000Y-82110000D02*
X179550000Y-82110000D01*
X179550000Y-81360000D01*
X181250000Y-81360000D01*
X181250000Y-82110000D01*
G36*
X175850000Y-82110000D02*
G01*
X174150000Y-82110000D01*
X174150000Y-81360000D01*
X175850000Y-81360000D01*
X175850000Y-82110000D01*
G37*
X175850000Y-82110000D02*
X174150000Y-82110000D01*
X174150000Y-81360000D01*
X175850000Y-81360000D01*
X175850000Y-82110000D01*
G36*
X175850000Y-80360000D02*
G01*
X174150000Y-80360000D01*
X174150000Y-79610000D01*
X175850000Y-79610000D01*
X175850000Y-80360000D01*
G37*
X175850000Y-80360000D02*
X174150000Y-80360000D01*
X174150000Y-79610000D01*
X175850000Y-79610000D01*
X175850000Y-80360000D01*
G36*
X181250000Y-80030000D02*
G01*
X181250000Y-80360000D01*
X179550000Y-80360000D01*
X179550000Y-79610000D01*
X180830000Y-79610000D01*
X181250000Y-80030000D01*
G37*
X181250000Y-80030000D02*
X181250000Y-80360000D01*
X179550000Y-80360000D01*
X179550000Y-79610000D01*
X180830000Y-79610000D01*
X181250000Y-80030000D01*
G36*
X219350000Y-48910000D02*
G01*
X217650000Y-48910000D01*
X217650000Y-48160000D01*
X219350000Y-48160000D01*
X219350000Y-48910000D01*
G37*
X219350000Y-48910000D02*
X217650000Y-48910000D01*
X217650000Y-48160000D01*
X219350000Y-48160000D01*
X219350000Y-48910000D01*
G36*
X213950000Y-48910000D02*
G01*
X212250000Y-48910000D01*
X212250000Y-48160000D01*
X213950000Y-48160000D01*
X213950000Y-48910000D01*
G37*
X213950000Y-48910000D02*
X212250000Y-48910000D01*
X212250000Y-48160000D01*
X213950000Y-48160000D01*
X213950000Y-48910000D01*
G36*
X213950000Y-47160000D02*
G01*
X212250000Y-47160000D01*
X212250000Y-46410000D01*
X213950000Y-46410000D01*
X213950000Y-47160000D01*
G37*
X213950000Y-47160000D02*
X212250000Y-47160000D01*
X212250000Y-46410000D01*
X213950000Y-46410000D01*
X213950000Y-47160000D01*
G36*
X219350000Y-46830000D02*
G01*
X219350000Y-47160000D01*
X217650000Y-47160000D01*
X217650000Y-46410000D01*
X218930000Y-46410000D01*
X219350000Y-46830000D01*
G37*
X219350000Y-46830000D02*
X219350000Y-47160000D01*
X217650000Y-47160000D01*
X217650000Y-46410000D01*
X218930000Y-46410000D01*
X219350000Y-46830000D01*
G36*
X124100000Y-65610000D02*
G01*
X122400000Y-65610000D01*
X122400000Y-64860000D01*
X124100000Y-64860000D01*
X124100000Y-65610000D01*
G37*
X124100000Y-65610000D02*
X122400000Y-65610000D01*
X122400000Y-64860000D01*
X124100000Y-64860000D01*
X124100000Y-65610000D01*
G36*
X118700000Y-65610000D02*
G01*
X117000000Y-65610000D01*
X117000000Y-64860000D01*
X118700000Y-64860000D01*
X118700000Y-65610000D01*
G37*
X118700000Y-65610000D02*
X117000000Y-65610000D01*
X117000000Y-64860000D01*
X118700000Y-64860000D01*
X118700000Y-65610000D01*
G36*
X118700000Y-63860000D02*
G01*
X117000000Y-63860000D01*
X117000000Y-63110000D01*
X118700000Y-63110000D01*
X118700000Y-63860000D01*
G37*
X118700000Y-63860000D02*
X117000000Y-63860000D01*
X117000000Y-63110000D01*
X118700000Y-63110000D01*
X118700000Y-63860000D01*
G36*
X124100000Y-63530000D02*
G01*
X124100000Y-63860000D01*
X122400000Y-63860000D01*
X122400000Y-63110000D01*
X123680000Y-63110000D01*
X124100000Y-63530000D01*
G37*
X124100000Y-63530000D02*
X124100000Y-63860000D01*
X122400000Y-63860000D01*
X122400000Y-63110000D01*
X123680000Y-63110000D01*
X124100000Y-63530000D01*
G36*
X181250000Y-120210000D02*
G01*
X179550000Y-120210000D01*
X179550000Y-119460000D01*
X181250000Y-119460000D01*
X181250000Y-120210000D01*
G37*
X181250000Y-120210000D02*
X179550000Y-120210000D01*
X179550000Y-119460000D01*
X181250000Y-119460000D01*
X181250000Y-120210000D01*
G36*
X175850000Y-120210000D02*
G01*
X174150000Y-120210000D01*
X174150000Y-119460000D01*
X175850000Y-119460000D01*
X175850000Y-120210000D01*
G37*
X175850000Y-120210000D02*
X174150000Y-120210000D01*
X174150000Y-119460000D01*
X175850000Y-119460000D01*
X175850000Y-120210000D01*
G36*
X175850000Y-118460000D02*
G01*
X174150000Y-118460000D01*
X174150000Y-117710000D01*
X175850000Y-117710000D01*
X175850000Y-118460000D01*
G37*
X175850000Y-118460000D02*
X174150000Y-118460000D01*
X174150000Y-117710000D01*
X175850000Y-117710000D01*
X175850000Y-118460000D01*
G36*
X181250000Y-118130000D02*
G01*
X181250000Y-118460000D01*
X179550000Y-118460000D01*
X179550000Y-117710000D01*
X180830000Y-117710000D01*
X181250000Y-118130000D01*
G37*
X181250000Y-118130000D02*
X181250000Y-118460000D01*
X179550000Y-118460000D01*
X179550000Y-117710000D01*
X180830000Y-117710000D01*
X181250000Y-118130000D01*
G36*
X200300000Y-67960000D02*
G01*
X198600000Y-67960000D01*
X198600000Y-67210000D01*
X200300000Y-67210000D01*
X200300000Y-67960000D01*
G37*
X200300000Y-67960000D02*
X198600000Y-67960000D01*
X198600000Y-67210000D01*
X200300000Y-67210000D01*
X200300000Y-67960000D01*
G36*
X194900000Y-67960000D02*
G01*
X193200000Y-67960000D01*
X193200000Y-67210000D01*
X194900000Y-67210000D01*
X194900000Y-67960000D01*
G37*
X194900000Y-67960000D02*
X193200000Y-67960000D01*
X193200000Y-67210000D01*
X194900000Y-67210000D01*
X194900000Y-67960000D01*
G36*
X194900000Y-66210000D02*
G01*
X193200000Y-66210000D01*
X193200000Y-65460000D01*
X194900000Y-65460000D01*
X194900000Y-66210000D01*
G37*
X194900000Y-66210000D02*
X193200000Y-66210000D01*
X193200000Y-65460000D01*
X194900000Y-65460000D01*
X194900000Y-66210000D01*
G36*
X200300000Y-65880000D02*
G01*
X200300000Y-66210000D01*
X198600000Y-66210000D01*
X198600000Y-65460000D01*
X199880000Y-65460000D01*
X200300000Y-65880000D01*
G37*
X200300000Y-65880000D02*
X200300000Y-66210000D01*
X198600000Y-66210000D01*
X198600000Y-65460000D01*
X199880000Y-65460000D01*
X200300000Y-65880000D01*
G36*
X181250000Y-101160000D02*
G01*
X179550000Y-101160000D01*
X179550000Y-100410000D01*
X181250000Y-100410000D01*
X181250000Y-101160000D01*
G37*
X181250000Y-101160000D02*
X179550000Y-101160000D01*
X179550000Y-100410000D01*
X181250000Y-100410000D01*
X181250000Y-101160000D01*
G36*
X175850000Y-101160000D02*
G01*
X174150000Y-101160000D01*
X174150000Y-100410000D01*
X175850000Y-100410000D01*
X175850000Y-101160000D01*
G37*
X175850000Y-101160000D02*
X174150000Y-101160000D01*
X174150000Y-100410000D01*
X175850000Y-100410000D01*
X175850000Y-101160000D01*
G36*
X175850000Y-99410000D02*
G01*
X174150000Y-99410000D01*
X174150000Y-98660000D01*
X175850000Y-98660000D01*
X175850000Y-99410000D01*
G37*
X175850000Y-99410000D02*
X174150000Y-99410000D01*
X174150000Y-98660000D01*
X175850000Y-98660000D01*
X175850000Y-99410000D01*
G36*
X181250000Y-99080000D02*
G01*
X181250000Y-99410000D01*
X179550000Y-99410000D01*
X179550000Y-98660000D01*
X180830000Y-98660000D01*
X181250000Y-99080000D01*
G37*
X181250000Y-99080000D02*
X181250000Y-99410000D01*
X179550000Y-99410000D01*
X179550000Y-98660000D01*
X180830000Y-98660000D01*
X181250000Y-99080000D01*
G36*
X200300000Y-87010000D02*
G01*
X198600000Y-87010000D01*
X198600000Y-86260000D01*
X200300000Y-86260000D01*
X200300000Y-87010000D01*
G37*
X200300000Y-87010000D02*
X198600000Y-87010000D01*
X198600000Y-86260000D01*
X200300000Y-86260000D01*
X200300000Y-87010000D01*
G36*
X194900000Y-87010000D02*
G01*
X193200000Y-87010000D01*
X193200000Y-86260000D01*
X194900000Y-86260000D01*
X194900000Y-87010000D01*
G37*
X194900000Y-87010000D02*
X193200000Y-87010000D01*
X193200000Y-86260000D01*
X194900000Y-86260000D01*
X194900000Y-87010000D01*
G36*
X194900000Y-85260000D02*
G01*
X193200000Y-85260000D01*
X193200000Y-84510000D01*
X194900000Y-84510000D01*
X194900000Y-85260000D01*
G37*
X194900000Y-85260000D02*
X193200000Y-85260000D01*
X193200000Y-84510000D01*
X194900000Y-84510000D01*
X194900000Y-85260000D01*
G36*
X200300000Y-84930000D02*
G01*
X200300000Y-85260000D01*
X198600000Y-85260000D01*
X198600000Y-84510000D01*
X199880000Y-84510000D01*
X200300000Y-84930000D01*
G37*
X200300000Y-84930000D02*
X200300000Y-85260000D01*
X198600000Y-85260000D01*
X198600000Y-84510000D01*
X199880000Y-84510000D01*
X200300000Y-84930000D01*
G36*
X162200000Y-117710000D02*
G01*
X160500000Y-117710000D01*
X160500000Y-116960000D01*
X162200000Y-116960000D01*
X162200000Y-117710000D01*
G37*
X162200000Y-117710000D02*
X160500000Y-117710000D01*
X160500000Y-116960000D01*
X162200000Y-116960000D01*
X162200000Y-117710000D01*
G36*
X156800000Y-117710000D02*
G01*
X155100000Y-117710000D01*
X155100000Y-116960000D01*
X156800000Y-116960000D01*
X156800000Y-117710000D01*
G37*
X156800000Y-117710000D02*
X155100000Y-117710000D01*
X155100000Y-116960000D01*
X156800000Y-116960000D01*
X156800000Y-117710000D01*
G36*
X156800000Y-115960000D02*
G01*
X155100000Y-115960000D01*
X155100000Y-115210000D01*
X156800000Y-115210000D01*
X156800000Y-115960000D01*
G37*
X156800000Y-115960000D02*
X155100000Y-115960000D01*
X155100000Y-115210000D01*
X156800000Y-115210000D01*
X156800000Y-115960000D01*
G36*
X162200000Y-115630000D02*
G01*
X162200000Y-115960000D01*
X160500000Y-115960000D01*
X160500000Y-115210000D01*
X161780000Y-115210000D01*
X162200000Y-115630000D01*
G37*
X162200000Y-115630000D02*
X162200000Y-115960000D01*
X160500000Y-115960000D01*
X160500000Y-115210000D01*
X161780000Y-115210000D01*
X162200000Y-115630000D01*
G36*
X162200000Y-79610000D02*
G01*
X160500000Y-79610000D01*
X160500000Y-78860000D01*
X162200000Y-78860000D01*
X162200000Y-79610000D01*
G37*
X162200000Y-79610000D02*
X160500000Y-79610000D01*
X160500000Y-78860000D01*
X162200000Y-78860000D01*
X162200000Y-79610000D01*
G36*
X156800000Y-79610000D02*
G01*
X155100000Y-79610000D01*
X155100000Y-78860000D01*
X156800000Y-78860000D01*
X156800000Y-79610000D01*
G37*
X156800000Y-79610000D02*
X155100000Y-79610000D01*
X155100000Y-78860000D01*
X156800000Y-78860000D01*
X156800000Y-79610000D01*
G36*
X156800000Y-77860000D02*
G01*
X155100000Y-77860000D01*
X155100000Y-77110000D01*
X156800000Y-77110000D01*
X156800000Y-77860000D01*
G37*
X156800000Y-77860000D02*
X155100000Y-77860000D01*
X155100000Y-77110000D01*
X156800000Y-77110000D01*
X156800000Y-77860000D01*
G36*
X162200000Y-77530000D02*
G01*
X162200000Y-77860000D01*
X160500000Y-77860000D01*
X160500000Y-77110000D01*
X161780000Y-77110000D01*
X162200000Y-77530000D01*
G37*
X162200000Y-77530000D02*
X162200000Y-77860000D01*
X160500000Y-77860000D01*
X160500000Y-77110000D01*
X161780000Y-77110000D01*
X162200000Y-77530000D01*
G36*
X143150000Y-44010000D02*
G01*
X141450000Y-44010000D01*
X141450000Y-43260000D01*
X143150000Y-43260000D01*
X143150000Y-44010000D01*
G37*
X143150000Y-44010000D02*
X141450000Y-44010000D01*
X141450000Y-43260000D01*
X143150000Y-43260000D01*
X143150000Y-44010000D01*
G36*
X137750000Y-44010000D02*
G01*
X136050000Y-44010000D01*
X136050000Y-43260000D01*
X137750000Y-43260000D01*
X137750000Y-44010000D01*
G37*
X137750000Y-44010000D02*
X136050000Y-44010000D01*
X136050000Y-43260000D01*
X137750000Y-43260000D01*
X137750000Y-44010000D01*
G36*
X137750000Y-42260000D02*
G01*
X136050000Y-42260000D01*
X136050000Y-41510000D01*
X137750000Y-41510000D01*
X137750000Y-42260000D01*
G37*
X137750000Y-42260000D02*
X136050000Y-42260000D01*
X136050000Y-41510000D01*
X137750000Y-41510000D01*
X137750000Y-42260000D01*
G36*
X143150000Y-41930000D02*
G01*
X143150000Y-42260000D01*
X141450000Y-42260000D01*
X141450000Y-41510000D01*
X142730000Y-41510000D01*
X143150000Y-41930000D01*
G37*
X143150000Y-41930000D02*
X143150000Y-42260000D01*
X141450000Y-42260000D01*
X141450000Y-41510000D01*
X142730000Y-41510000D01*
X143150000Y-41930000D01*
G36*
X143150000Y-101160000D02*
G01*
X141450000Y-101160000D01*
X141450000Y-100410000D01*
X143150000Y-100410000D01*
X143150000Y-101160000D01*
G37*
X143150000Y-101160000D02*
X141450000Y-101160000D01*
X141450000Y-100410000D01*
X143150000Y-100410000D01*
X143150000Y-101160000D01*
G36*
X137750000Y-101160000D02*
G01*
X136050000Y-101160000D01*
X136050000Y-100410000D01*
X137750000Y-100410000D01*
X137750000Y-101160000D01*
G37*
X137750000Y-101160000D02*
X136050000Y-101160000D01*
X136050000Y-100410000D01*
X137750000Y-100410000D01*
X137750000Y-101160000D01*
G36*
X137750000Y-99410000D02*
G01*
X136050000Y-99410000D01*
X136050000Y-98660000D01*
X137750000Y-98660000D01*
X137750000Y-99410000D01*
G37*
X137750000Y-99410000D02*
X136050000Y-99410000D01*
X136050000Y-98660000D01*
X137750000Y-98660000D01*
X137750000Y-99410000D01*
G36*
X143150000Y-99080000D02*
G01*
X143150000Y-99410000D01*
X141450000Y-99410000D01*
X141450000Y-98660000D01*
X142730000Y-98660000D01*
X143150000Y-99080000D01*
G37*
X143150000Y-99080000D02*
X143150000Y-99410000D01*
X141450000Y-99410000D01*
X141450000Y-98660000D01*
X142730000Y-98660000D01*
X143150000Y-99080000D01*
G36*
X143150000Y-120210000D02*
G01*
X141450000Y-120210000D01*
X141450000Y-119460000D01*
X143150000Y-119460000D01*
X143150000Y-120210000D01*
G37*
X143150000Y-120210000D02*
X141450000Y-120210000D01*
X141450000Y-119460000D01*
X143150000Y-119460000D01*
X143150000Y-120210000D01*
G36*
X137750000Y-120210000D02*
G01*
X136050000Y-120210000D01*
X136050000Y-119460000D01*
X137750000Y-119460000D01*
X137750000Y-120210000D01*
G37*
X137750000Y-120210000D02*
X136050000Y-120210000D01*
X136050000Y-119460000D01*
X137750000Y-119460000D01*
X137750000Y-120210000D01*
G36*
X137750000Y-118460000D02*
G01*
X136050000Y-118460000D01*
X136050000Y-117710000D01*
X137750000Y-117710000D01*
X137750000Y-118460000D01*
G37*
X137750000Y-118460000D02*
X136050000Y-118460000D01*
X136050000Y-117710000D01*
X137750000Y-117710000D01*
X137750000Y-118460000D01*
G36*
X143150000Y-118130000D02*
G01*
X143150000Y-118460000D01*
X141450000Y-118460000D01*
X141450000Y-117710000D01*
X142730000Y-117710000D01*
X143150000Y-118130000D01*
G37*
X143150000Y-118130000D02*
X143150000Y-118460000D01*
X141450000Y-118460000D01*
X141450000Y-117710000D01*
X142730000Y-117710000D01*
X143150000Y-118130000D01*
G36*
X124100000Y-103660000D02*
G01*
X122400000Y-103660000D01*
X122400000Y-102910000D01*
X124100000Y-102910000D01*
X124100000Y-103660000D01*
G37*
X124100000Y-103660000D02*
X122400000Y-103660000D01*
X122400000Y-102910000D01*
X124100000Y-102910000D01*
X124100000Y-103660000D01*
G36*
X118700000Y-103660000D02*
G01*
X117000000Y-103660000D01*
X117000000Y-102910000D01*
X118700000Y-102910000D01*
X118700000Y-103660000D01*
G37*
X118700000Y-103660000D02*
X117000000Y-103660000D01*
X117000000Y-102910000D01*
X118700000Y-102910000D01*
X118700000Y-103660000D01*
G36*
X118700000Y-101910000D02*
G01*
X117000000Y-101910000D01*
X117000000Y-101160000D01*
X118700000Y-101160000D01*
X118700000Y-101910000D01*
G37*
X118700000Y-101910000D02*
X117000000Y-101910000D01*
X117000000Y-101160000D01*
X118700000Y-101160000D01*
X118700000Y-101910000D01*
G36*
X124100000Y-101580000D02*
G01*
X124100000Y-101910000D01*
X122400000Y-101910000D01*
X122400000Y-101160000D01*
X123680000Y-101160000D01*
X124100000Y-101580000D01*
G37*
X124100000Y-101580000D02*
X124100000Y-101910000D01*
X122400000Y-101910000D01*
X122400000Y-101160000D01*
X123680000Y-101160000D01*
X124100000Y-101580000D01*
D11*
X96470000Y-77498035D03*
X104550000Y-77498035D03*
X96470000Y-79740000D03*
X104550000Y-79740000D03*
D12*
X89500000Y-87400000D03*
X96500000Y-87400000D03*
X89500000Y-85650000D03*
X96500000Y-85650000D03*
D13*
X98299999Y-89499999D03*
D14*
X94299999Y-89499999D03*
X91299999Y-89499999D03*
D15*
X99799999Y-85299999D03*
D16*
X103000000Y-119000000D03*
D17*
X91930000Y-41230000D03*
X108718815Y-42425745D03*
X91930000Y-43770000D03*
X108718815Y-44965745D03*
X91930000Y-46310000D03*
X108718815Y-47505745D03*
X91930000Y-48850000D03*
X108718815Y-50045745D03*
X91930000Y-51390000D03*
X108718815Y-52585745D03*
X91930000Y-53930000D03*
X108718815Y-55125745D03*
X91930000Y-56470000D03*
X108718815Y-57665745D03*
X91930000Y-59010000D03*
X108718815Y-60205745D03*
X91930000Y-61550000D03*
X108718815Y-62745745D03*
X91930000Y-64090000D03*
X108718815Y-65285745D03*
X91930000Y-66630000D03*
X108718815Y-67825745D03*
X91930000Y-69170000D03*
X108718815Y-70365745D03*
X93478815Y-70365745D03*
X107170000Y-69170000D03*
X93478815Y-67825745D03*
X107170000Y-66630000D03*
X93478815Y-65285745D03*
X107170000Y-64090000D03*
X93478815Y-62745745D03*
X107170000Y-61550000D03*
X93478815Y-60205745D03*
X107170000Y-59010000D03*
X93478815Y-57665745D03*
X107170000Y-56470000D03*
X93478815Y-55125745D03*
X107170000Y-53930000D03*
X93478815Y-52585745D03*
X107170000Y-51390000D03*
X93478815Y-50045745D03*
X107170000Y-48850000D03*
X93478815Y-47505745D03*
X107170000Y-46310000D03*
X93478815Y-44965745D03*
X107170000Y-43770000D03*
X93478815Y-42425745D03*
X107170000Y-41230000D03*
D18*
X104299999Y-69800379D03*
X104299999Y-68799619D03*
X101699999Y-69800379D03*
X101699999Y-68799619D03*
X99199999Y-69800379D03*
X99199999Y-68799619D03*
D19*
X90000000Y-74250000D03*
X90000000Y-80750000D03*
D20*
X128624999Y-41974999D03*
D21*
X128625000Y-44325000D03*
X128625000Y-47625000D03*
D22*
X128625000Y-49975000D03*
D20*
X147674999Y-39474999D03*
D21*
X147675000Y-41825000D03*
X147675000Y-45125000D03*
D22*
X147675000Y-47475000D03*
D20*
X150574999Y-38224999D03*
D21*
X150575000Y-40575000D03*
X150575000Y-43875000D03*
D22*
X150575000Y-46225000D03*
D20*
X169624999Y-39474999D03*
D21*
X169625000Y-41825000D03*
X169625000Y-45125000D03*
D22*
X169625000Y-47475000D03*
D20*
X188674999Y-44374999D03*
D21*
X188675000Y-46725000D03*
X188675000Y-50025000D03*
D22*
X188675000Y-52375000D03*
D20*
X223874999Y-44624999D03*
D21*
X223875000Y-46975000D03*
X223875000Y-50275000D03*
D22*
X223875000Y-52625000D03*
D20*
X128624999Y-80074999D03*
D21*
X128625000Y-82425000D03*
X128625000Y-85725000D03*
D22*
X128625000Y-88075000D03*
D20*
X128624999Y-99874999D03*
D21*
X128625000Y-102225000D03*
X128625000Y-105525000D03*
D22*
X128625000Y-107875000D03*
D20*
X109669999Y-103939999D03*
D21*
X109670000Y-106290000D03*
X109670000Y-109590000D03*
D22*
X109670000Y-111940000D03*
D20*
X106369999Y-129099999D03*
D21*
X106370000Y-131450000D03*
X106370000Y-134750000D03*
D22*
X106370000Y-137100000D03*
D23*
X126050000Y-50000000D03*
D24*
X125550000Y-53700000D03*
X120550000Y-55900000D03*
D25*
X120550000Y-50000000D03*
D26*
X120550000Y-46799730D03*
X120550000Y-43800000D03*
D24*
X115550000Y-53700000D03*
D23*
X115050000Y-50000000D03*
D27*
X117749999Y-55899999D03*
D28*
X128624999Y-53699999D03*
D23*
X164150000Y-45000000D03*
D24*
X163650000Y-48700000D03*
X158650000Y-50900000D03*
D25*
X158650000Y-45000000D03*
D26*
X158650000Y-41799730D03*
X158650000Y-38800000D03*
D24*
X153650000Y-48700000D03*
D23*
X153150000Y-45000000D03*
D27*
X155849999Y-50899999D03*
D28*
X166724999Y-48699999D03*
D23*
X126050000Y-88100000D03*
D24*
X125550000Y-91800000D03*
X120550000Y-94000000D03*
D25*
X120550000Y-88100000D03*
D26*
X120550000Y-84899730D03*
X120550000Y-81900000D03*
D24*
X115550000Y-91800000D03*
D23*
X115050000Y-88100000D03*
D27*
X117749999Y-93999999D03*
D28*
X128624999Y-91799999D03*
D23*
X145100000Y-85600000D03*
D24*
X144600000Y-89300000D03*
X139600000Y-91500000D03*
D25*
X139600000Y-85600000D03*
D26*
X139600000Y-82399730D03*
X139600000Y-79400000D03*
D24*
X134600000Y-89300000D03*
D23*
X134100000Y-85600000D03*
D27*
X136799999Y-91499999D03*
D28*
X147674999Y-89299999D03*
D23*
X164150000Y-102150000D03*
D24*
X163650000Y-105850000D03*
X158650000Y-108050000D03*
D25*
X158650000Y-102150000D03*
D26*
X158650000Y-98949730D03*
X158650000Y-95950000D03*
D24*
X153650000Y-105850000D03*
D23*
X153150000Y-102150000D03*
D27*
X155849999Y-108049999D03*
D28*
X166724999Y-105849999D03*
D23*
X202250000Y-109550000D03*
D24*
X201750000Y-113250000D03*
X196750000Y-115450000D03*
D25*
X196750000Y-109550000D03*
D26*
X196750000Y-106349730D03*
X196750000Y-103350000D03*
D24*
X191750000Y-113250000D03*
D23*
X191250000Y-109550000D03*
D27*
X193949999Y-115449999D03*
D28*
X204824999Y-113249999D03*
D23*
X99460000Y-138163140D03*
D24*
X96005706Y-139580127D03*
X91600450Y-136350000D03*
D25*
X96710000Y-133400000D03*
D26*
X99481515Y-131799865D03*
X102079358Y-130300000D03*
D24*
X91005706Y-130919873D03*
D23*
X93960000Y-128636860D03*
D29*
X90200449Y-133925128D03*
D30*
X97543205Y-142243154D03*
D31*
X91500000Y-93500000D03*
D18*
X96699999Y-69800379D03*
X96699999Y-68799619D03*
D11*
X96700000Y-74600000D03*
X99240000Y-74600000D03*
X101780000Y-74600000D03*
X104320000Y-74600000D03*
D31*
X107000000Y-93500000D03*
D19*
X92500000Y-102000000D03*
X92500000Y-107000000D03*
X92500000Y-104500000D03*
D32*
X99999999Y-98899999D03*
X99999999Y-110099999D03*
D19*
X107000000Y-107000000D03*
X107000000Y-102000000D03*
D23*
X122912592Y-126976495D03*
D24*
X123387260Y-130679830D03*
X119127032Y-134098962D03*
D25*
X117600000Y-128400000D03*
D26*
X116771709Y-125308777D03*
X115995322Y-122411260D03*
D24*
X113728001Y-133268021D03*
D23*
X112287408Y-129823505D03*
D33*
X116422439Y-134823655D03*
D34*
X126357481Y-129883961D03*
D23*
X221300000Y-71450000D03*
D24*
X220800000Y-75150000D03*
X215800000Y-77350000D03*
D25*
X215800000Y-71450000D03*
D26*
X215800000Y-68249730D03*
X215800000Y-65250000D03*
D24*
X210800000Y-75150000D03*
D23*
X210300000Y-71450000D03*
D27*
X212999999Y-77349999D03*
D28*
X223874999Y-75149999D03*
D23*
X221300000Y-90500000D03*
D24*
X220800000Y-94200000D03*
X215800000Y-96400000D03*
D25*
X215800000Y-90500000D03*
D26*
X215800000Y-87299730D03*
X215800000Y-84300000D03*
D24*
X210800000Y-94200000D03*
D23*
X210300000Y-90500000D03*
D27*
X212999999Y-96399999D03*
D28*
X223874999Y-94199999D03*
D23*
X221300000Y-109550000D03*
D24*
X220800000Y-113250000D03*
X215800000Y-115450000D03*
D25*
X215800000Y-109550000D03*
D26*
X215800000Y-106349730D03*
X215800000Y-103350000D03*
D24*
X210800000Y-113250000D03*
D23*
X210300000Y-109550000D03*
D27*
X212999999Y-115449999D03*
D28*
X223874999Y-113249999D03*
D23*
X183200000Y-47500000D03*
D24*
X182700000Y-51200000D03*
X177700000Y-53400000D03*
D25*
X177700000Y-47500000D03*
D26*
X177700000Y-44299730D03*
X177700000Y-41300000D03*
D24*
X172700000Y-51200000D03*
D23*
X172200000Y-47500000D03*
D27*
X174899999Y-53399999D03*
D28*
X185774999Y-51199999D03*
D16*
X206000000Y-61500000D03*
D20*
X128624999Y-61324999D03*
D21*
X128625000Y-63675000D03*
X128625000Y-66975000D03*
D22*
X128625000Y-69325000D03*
D20*
X147674999Y-58524999D03*
D21*
X147675000Y-60875000D03*
X147675000Y-64175000D03*
D22*
X147675000Y-66525000D03*
D20*
X150574999Y-56024999D03*
D21*
X150575000Y-58375000D03*
X150575000Y-61675000D03*
D22*
X150575000Y-64025000D03*
D20*
X169624999Y-58524999D03*
D21*
X169625000Y-60875000D03*
X169625000Y-64175000D03*
D22*
X169625000Y-66525000D03*
D20*
X188674999Y-63424999D03*
D21*
X188675000Y-65775000D03*
X188675000Y-69075000D03*
D22*
X188675000Y-71425000D03*
D20*
X223874999Y-63424999D03*
D21*
X223875000Y-65775000D03*
X223875000Y-69075000D03*
D22*
X223875000Y-71425000D03*
D23*
X202250000Y-52400000D03*
D24*
X201750000Y-56100000D03*
X196750000Y-58300000D03*
D25*
X196750000Y-52400000D03*
D26*
X196750000Y-49199730D03*
X196750000Y-46200000D03*
D24*
X191750000Y-56100000D03*
D23*
X191250000Y-52400000D03*
D27*
X193949999Y-58299999D03*
D28*
X204824999Y-56099999D03*
D23*
X145100000Y-66550000D03*
D24*
X144600000Y-70250000D03*
X139600000Y-72450000D03*
D25*
X139600000Y-66550000D03*
D26*
X139600000Y-63349730D03*
X139600000Y-60350000D03*
D24*
X134600000Y-70250000D03*
D23*
X134100000Y-66550000D03*
D27*
X136799999Y-72449999D03*
D28*
X147674999Y-70249999D03*
D23*
X183200000Y-66550000D03*
D24*
X182700000Y-70250000D03*
X177700000Y-72450000D03*
D25*
X177700000Y-66550000D03*
D26*
X177700000Y-63349730D03*
X177700000Y-60350000D03*
D24*
X172700000Y-70250000D03*
D23*
X172200000Y-66550000D03*
D27*
X174899999Y-72449999D03*
D28*
X185774999Y-70249999D03*
D23*
X164150000Y-64050000D03*
D24*
X163650000Y-67750000D03*
X158650000Y-69950000D03*
D25*
X158650000Y-64050000D03*
D26*
X158650000Y-60849730D03*
X158650000Y-57850000D03*
D24*
X153650000Y-67750000D03*
D23*
X153150000Y-64050000D03*
D27*
X155849999Y-69949999D03*
D28*
X166724999Y-67749999D03*
D23*
X183200000Y-85600000D03*
D24*
X182700000Y-89300000D03*
X177700000Y-91500000D03*
D25*
X177700000Y-85600000D03*
D26*
X177700000Y-82399730D03*
X177700000Y-79400000D03*
D24*
X172700000Y-89300000D03*
D23*
X172200000Y-85600000D03*
D27*
X174899999Y-91499999D03*
D28*
X185774999Y-89299999D03*
D23*
X221300000Y-52400000D03*
D24*
X220800000Y-56100000D03*
X215800000Y-58300000D03*
D25*
X215800000Y-52400000D03*
D26*
X215800000Y-49199730D03*
X215800000Y-46200000D03*
D24*
X210800000Y-56100000D03*
D23*
X210300000Y-52400000D03*
D27*
X212999999Y-58299999D03*
D28*
X223874999Y-56099999D03*
D23*
X126050000Y-69100000D03*
D24*
X125550000Y-72800000D03*
X120550000Y-75000000D03*
D25*
X120550000Y-69100000D03*
D26*
X120550000Y-65899730D03*
X120550000Y-62900000D03*
D24*
X115550000Y-72800000D03*
D23*
X115050000Y-69100000D03*
D27*
X117749999Y-74999999D03*
D28*
X128624999Y-72799999D03*
D23*
X183200000Y-123700000D03*
D24*
X182700000Y-127400000D03*
X177700000Y-129600000D03*
D25*
X177700000Y-123700000D03*
D26*
X177700000Y-120499730D03*
X177700000Y-117500000D03*
D24*
X172700000Y-127400000D03*
D23*
X172200000Y-123700000D03*
D27*
X174899999Y-129599999D03*
D28*
X185774999Y-127399999D03*
D23*
X202250000Y-71450000D03*
D24*
X201750000Y-75150000D03*
X196750000Y-77350000D03*
D25*
X196750000Y-71450000D03*
D26*
X196750000Y-68249730D03*
X196750000Y-65250000D03*
D24*
X191750000Y-75150000D03*
D23*
X191250000Y-71450000D03*
D27*
X193949999Y-77349999D03*
D28*
X204824999Y-75149999D03*
D23*
X183200000Y-104650000D03*
D24*
X182700000Y-108350000D03*
X177700000Y-110550000D03*
D25*
X177700000Y-104650000D03*
D26*
X177700000Y-101449730D03*
X177700000Y-98450000D03*
D24*
X172700000Y-108350000D03*
D23*
X172200000Y-104650000D03*
D27*
X174899999Y-110549999D03*
D28*
X185774999Y-108349999D03*
D23*
X202250000Y-90500000D03*
D24*
X201750000Y-94200000D03*
X196750000Y-96400000D03*
D25*
X196750000Y-90500000D03*
D26*
X196750000Y-87299730D03*
X196750000Y-84300000D03*
D24*
X191750000Y-94200000D03*
D23*
X191250000Y-90500000D03*
D27*
X193949999Y-96399999D03*
D28*
X204824999Y-94199999D03*
D23*
X164150000Y-121200000D03*
D24*
X163650000Y-124900000D03*
X158650000Y-127100000D03*
D25*
X158650000Y-121200000D03*
D26*
X158650000Y-117999730D03*
X158650000Y-115000000D03*
D24*
X153650000Y-124900000D03*
D23*
X153150000Y-121200000D03*
D27*
X155849999Y-127099999D03*
D28*
X166724999Y-124899999D03*
D23*
X164150000Y-83100000D03*
D24*
X163650000Y-86800000D03*
X158650000Y-89000000D03*
D25*
X158650000Y-83100000D03*
D26*
X158650000Y-79899730D03*
X158650000Y-76900000D03*
D24*
X153650000Y-86800000D03*
D23*
X153150000Y-83100000D03*
D27*
X155849999Y-88999999D03*
D28*
X166724999Y-86799999D03*
D23*
X145100000Y-47500000D03*
D24*
X144600000Y-51200000D03*
X139600000Y-53400000D03*
D25*
X139600000Y-47500000D03*
D26*
X139600000Y-44299730D03*
X139600000Y-41300000D03*
D24*
X134600000Y-51200000D03*
D23*
X134100000Y-47500000D03*
D27*
X136799999Y-53399999D03*
D28*
X147674999Y-51199999D03*
D20*
X128639999Y-120009999D03*
D21*
X128640000Y-122360000D03*
X128640000Y-125660000D03*
D22*
X128640000Y-128010000D03*
D23*
X145100000Y-104650000D03*
D24*
X144600000Y-108350000D03*
X139600000Y-110550000D03*
D25*
X139600000Y-104650000D03*
D26*
X139600000Y-101449730D03*
X139600000Y-98450000D03*
D24*
X134600000Y-108350000D03*
D23*
X134100000Y-104650000D03*
D27*
X136799999Y-110549999D03*
D28*
X147674999Y-108349999D03*
D16*
X206000000Y-100000000D03*
D20*
X150574999Y-75074999D03*
D21*
X150575000Y-77425000D03*
X150575000Y-80725000D03*
D22*
X150575000Y-83075000D03*
D20*
X169624999Y-77574999D03*
D21*
X169625000Y-79925000D03*
X169625000Y-83225000D03*
D22*
X169625000Y-85575000D03*
D20*
X188674999Y-82474999D03*
D21*
X188675000Y-84825000D03*
X188675000Y-88125000D03*
D22*
X188675000Y-90475000D03*
D20*
X223874999Y-82474999D03*
D21*
X223875000Y-84825000D03*
X223875000Y-88125000D03*
D22*
X223875000Y-90475000D03*
D20*
X147674999Y-115674999D03*
D21*
X147675000Y-118025000D03*
X147675000Y-121325000D03*
D22*
X147675000Y-123675000D03*
D20*
X150574999Y-113174999D03*
D21*
X150575000Y-115525000D03*
X150575000Y-118825000D03*
D22*
X150575000Y-121175000D03*
D20*
X223874999Y-101524999D03*
D21*
X223875000Y-103875000D03*
X223875000Y-107175000D03*
D22*
X223875000Y-109525000D03*
D20*
X147674999Y-96624999D03*
D21*
X147675000Y-98975000D03*
X147675000Y-102275000D03*
D22*
X147675000Y-104625000D03*
D20*
X150574999Y-94124999D03*
D21*
X150575000Y-96475000D03*
X150575000Y-99775000D03*
D22*
X150575000Y-102125000D03*
D20*
X169624999Y-96624999D03*
D21*
X169625000Y-98975000D03*
X169625000Y-102275000D03*
D22*
X169625000Y-104625000D03*
D20*
X188674999Y-101524999D03*
D21*
X188675000Y-103875000D03*
X188675000Y-107175000D03*
D22*
X188675000Y-109525000D03*
D20*
X147674999Y-77574999D03*
D21*
X147675000Y-79925000D03*
X147675000Y-83225000D03*
D22*
X147675000Y-85575000D03*
D20*
X169624999Y-115674999D03*
D21*
X169625000Y-118025000D03*
X169625000Y-121325000D03*
D22*
X169625000Y-123675000D03*
D23*
X145100000Y-123700000D03*
D24*
X144600000Y-127400000D03*
X139600000Y-129600000D03*
D25*
X139600000Y-123700000D03*
D26*
X139600000Y-120499730D03*
X139600000Y-117500000D03*
D24*
X134600000Y-127400000D03*
D23*
X134100000Y-123700000D03*
D27*
X136799999Y-129599999D03*
D28*
X147674999Y-127399999D03*
D16*
X130527120Y-57573640D03*
X130375120Y-95852640D03*
D11*
X93180000Y-79740000D03*
D35*
X107699999Y-77734999D03*
D36*
X107699999Y-80274999D03*
X107699999Y-82814999D03*
X107699999Y-85354999D03*
X107699999Y-87894999D03*
D11*
X93180000Y-77498035D03*
D23*
X126050000Y-107150000D03*
D24*
X125550000Y-110850000D03*
X120550000Y-113050000D03*
D25*
X120550000Y-107150000D03*
D26*
X120550000Y-103949730D03*
X120550000Y-100950000D03*
D24*
X115550000Y-110850000D03*
D23*
X115050000Y-107150000D03*
D27*
X117749999Y-113049999D03*
D28*
X128624999Y-110849999D03*
M02*
