G04 #@! TF.GenerationSoftware,KiCad,Pcbnew,(7.0.0-0)*
G04 #@! TF.CreationDate,2023-03-20T18:34:57-07:00*
G04 #@! TF.ProjectId,SofleKeyboard,536f666c-654b-4657-9962-6f6172642e6b,rev?*
G04 #@! TF.SameCoordinates,Original*
G04 #@! TF.FileFunction,Legend,Bot*
G04 #@! TF.FilePolarity,Positive*
%FSLAX46Y46*%
G04 Gerber Fmt 4.6, Leading zero omitted, Abs format (unit mm)*
G04 Created by KiCad (PCBNEW (7.0.0-0)) date 2023-03-20 18:34:57*
%MOMM*%
%LPD*%
G01*
G04 APERTURE LIST*
G04 Aperture macros list*
%AMRoundRect*
0 Rectangle with rounded corners*
0 $1 Rounding radius*
0 $2 $3 $4 $5 $6 $7 $8 $9 X,Y pos of 4 corners*
0 Add a 4 corners polygon primitive as box body*
4,1,4,$2,$3,$4,$5,$6,$7,$8,$9,$2,$3,0*
0 Add four circle primitives for the rounded corners*
1,1,$1+$1,$2,$3*
1,1,$1+$1,$4,$5*
1,1,$1+$1,$6,$7*
1,1,$1+$1,$8,$9*
0 Add four rect primitives between the rounded corners*
20,1,$1+$1,$2,$3,$4,$5,0*
20,1,$1+$1,$4,$5,$6,$7,0*
20,1,$1+$1,$6,$7,$8,$9,0*
20,1,$1+$1,$8,$9,$2,$3,0*%
%AMFreePoly0*
4,1,28,-0.850000,0.400000,-0.842219,0.514750,-0.797860,0.693119,-0.716195,0.857783,-0.601041,1.001041,-0.457783,1.116195,-0.293119,1.197860,-0.114750,1.242219,0.000000,1.250000,0.114750,1.242219,0.293119,1.197860,0.457783,1.116195,0.601041,1.001041,0.716195,0.857783,0.797860,0.693119,0.842219,0.514750,0.850000,0.400000,0.850000,-0.400000,0.842219,-0.514750,0.797860,-0.693119,
0.716195,-0.857783,0.601041,-1.001041,0.457783,-1.116195,0.293119,-1.197860,0.114750,-1.242219,0.000000,-1.250000,-0.850000,-0.400000,-0.850000,0.400000,-0.850000,0.400000,$1*%
%AMFreePoly1*
4,1,28,-0.850000,0.400000,0.000000,1.250000,0.114750,1.242219,0.293119,1.197860,0.457783,1.116195,0.601041,1.001041,0.716195,0.857783,0.797860,0.693119,0.842219,0.514750,0.850000,0.400000,0.850000,-0.400000,0.842219,-0.514750,0.797860,-0.693119,0.716195,-0.857783,0.601041,-1.001041,0.457783,-1.116195,0.293119,-1.197860,0.114750,-1.242219,0.000000,-1.250000,-0.114750,-1.242219,
-0.293119,-1.197860,-0.457783,-1.116195,-0.601041,-1.001041,-0.716195,-0.857783,-0.797860,-0.693119,-0.842219,-0.514750,-0.850000,-0.400000,-0.850000,0.400000,-0.850000,0.400000,$1*%
%AMFreePoly2*
4,1,18,-0.800000,0.908000,-0.785385,0.981475,-0.743765,1.043765,-0.681475,1.085385,-0.608000,1.100000,0.608000,1.100000,0.681475,1.085385,0.743765,1.043765,0.785385,0.981475,0.800000,0.908000,0.800000,-0.908000,0.785385,-0.981475,0.743765,-1.043765,0.681475,-1.085385,0.608000,-1.100000,-0.400000,-1.100000,-0.800000,-0.700000,-0.800000,0.908000,-0.800000,0.908000,$1*%
%AMFreePoly3*
4,1,13,-0.800000,1.100000,0.608000,1.100000,0.681475,1.085385,0.743765,1.043765,0.785385,0.981475,0.800000,0.908000,0.800000,-0.908000,0.785385,-0.981475,0.743765,-1.043765,0.681475,-1.085385,0.608000,-1.100000,-0.800000,-1.100000,-0.800000,1.100000,-0.800000,1.100000,$1*%
G04 Aperture macros list end*
%ADD10C,0.200000*%
%ADD11C,0.150000*%
%ADD12C,0.100000*%
%ADD13C,0.120000*%
%ADD14C,1.524000*%
%ADD15C,1.397000*%
%ADD16C,1.200000*%
%ADD17FreePoly0,90.000000*%
%ADD18O,2.500000X1.700000*%
%ADD19FreePoly1,90.000000*%
%ADD20C,4.700000*%
%ADD21C,2.000000*%
%ADD22R,1.650000X1.650000*%
%ADD23RoundRect,0.225000X-0.375000X0.225000X-0.375000X-0.225000X0.375000X-0.225000X0.375000X0.225000X0*%
%ADD24C,1.650000*%
%ADD25C,1.800000*%
%ADD26C,3.000000*%
%ADD27C,4.800000*%
%ADD28C,1.000000*%
%ADD29FreePoly2,180.000000*%
%ADD30FreePoly3,180.000000*%
%ADD31FreePoly2,120.000000*%
%ADD32FreePoly3,120.000000*%
%ADD33C,4.000000*%
%ADD34R,3.200000X2.000000*%
%ADD35FreePoly2,195.000000*%
%ADD36FreePoly3,195.000000*%
%ADD37R,1.700000X1.700000*%
%ADD38O,1.700000X1.700000*%
%ADD39R,1.143000X0.635000*%
G04 APERTURE END LIST*
D10*
X212339786Y-123239575D02*
X212223483Y-123335226D01*
X212223483Y-123335226D02*
X212001202Y-123420552D01*
X212001202Y-123420552D02*
X211895224Y-123410226D01*
X211895224Y-123410226D02*
X211833703Y-123382835D01*
X211833703Y-123382835D02*
X211755116Y-123310988D01*
X211755116Y-123310988D02*
X211720986Y-123222075D01*
X211720986Y-123222075D02*
X211731312Y-123116098D01*
X211731312Y-123116098D02*
X211758703Y-123054576D01*
X211758703Y-123054576D02*
X211830550Y-122975990D01*
X211830550Y-122975990D02*
X211991310Y-122863273D01*
X211991310Y-122863273D02*
X212063157Y-122784686D01*
X212063157Y-122784686D02*
X212090548Y-122723165D01*
X212090548Y-122723165D02*
X212100874Y-122617188D01*
X212100874Y-122617188D02*
X212066744Y-122528275D01*
X212066744Y-122528275D02*
X211988158Y-122456428D01*
X211988158Y-122456428D02*
X211926636Y-122429037D01*
X211926636Y-122429037D02*
X211820659Y-122418711D01*
X211820659Y-122418711D02*
X211598378Y-122504037D01*
X211598378Y-122504037D02*
X211482074Y-122599688D01*
X211289902Y-123693594D02*
X211361750Y-123615008D01*
X211361750Y-123615008D02*
X211389141Y-123553486D01*
X211389141Y-123553486D02*
X211399467Y-123447509D01*
X211399467Y-123447509D02*
X211297076Y-123180771D01*
X211297076Y-123180771D02*
X211218489Y-123108924D01*
X211218489Y-123108924D02*
X211156968Y-123081533D01*
X211156968Y-123081533D02*
X211050990Y-123071207D01*
X211050990Y-123071207D02*
X210917622Y-123122403D01*
X210917622Y-123122403D02*
X210845774Y-123200989D01*
X210845774Y-123200989D02*
X210818383Y-123262510D01*
X210818383Y-123262510D02*
X210808057Y-123368488D01*
X210808057Y-123368488D02*
X210910448Y-123635225D01*
X210910448Y-123635225D02*
X210989035Y-123707073D01*
X210989035Y-123707073D02*
X211050556Y-123734464D01*
X211050556Y-123734464D02*
X211156534Y-123744790D01*
X211156534Y-123744790D02*
X211289902Y-123693594D01*
X210473060Y-123293054D02*
X210117410Y-123429575D01*
X210578603Y-123966636D02*
X210271430Y-123166425D01*
X210271430Y-123166425D02*
X210192844Y-123094577D01*
X210192844Y-123094577D02*
X210086866Y-123084251D01*
X210086866Y-123084251D02*
X209997954Y-123118382D01*
X209911759Y-124222614D02*
X209983607Y-124144027D01*
X209983607Y-124144027D02*
X209993933Y-124038050D01*
X209993933Y-124038050D02*
X209686760Y-123237838D01*
X209183394Y-124451200D02*
X209289372Y-124461526D01*
X209289372Y-124461526D02*
X209467197Y-124393265D01*
X209467197Y-124393265D02*
X209539044Y-124314679D01*
X209539044Y-124314679D02*
X209549370Y-124208701D01*
X209549370Y-124208701D02*
X209412849Y-123853052D01*
X209412849Y-123853052D02*
X209334262Y-123781204D01*
X209334262Y-123781204D02*
X209228285Y-123770878D01*
X209228285Y-123770878D02*
X209050460Y-123839139D01*
X209050460Y-123839139D02*
X208978613Y-123917725D01*
X208978613Y-123917725D02*
X208968287Y-124023703D01*
X208968287Y-124023703D02*
X209002417Y-124112615D01*
X209002417Y-124112615D02*
X209481109Y-124030876D01*
X207628144Y-124997198D02*
X207689666Y-125024589D01*
X207689666Y-125024589D02*
X207840099Y-125017849D01*
X207840099Y-125017849D02*
X207929012Y-124983719D01*
X207929012Y-124983719D02*
X208045315Y-124888068D01*
X208045315Y-124888068D02*
X208100097Y-124765025D01*
X208100097Y-124765025D02*
X208110423Y-124659047D01*
X208110423Y-124659047D02*
X208086619Y-124464157D01*
X208086619Y-124464157D02*
X208035424Y-124330789D01*
X208035424Y-124330789D02*
X207922707Y-124170029D01*
X207922707Y-124170029D02*
X207844120Y-124098182D01*
X207844120Y-124098182D02*
X207721078Y-124043400D01*
X207721078Y-124043400D02*
X207570644Y-124050139D01*
X207570644Y-124050139D02*
X207481731Y-124084269D01*
X207481731Y-124084269D02*
X207365428Y-124179921D01*
X207365428Y-124179921D02*
X207338037Y-124241442D01*
X207262169Y-125239696D02*
X206903801Y-124306116D01*
X206862063Y-125393283D02*
X206674346Y-124904264D01*
X206674346Y-124904264D02*
X206684672Y-124798287D01*
X206684672Y-124798287D02*
X206756519Y-124719700D01*
X206756519Y-124719700D02*
X206889888Y-124668505D01*
X206889888Y-124668505D02*
X206995866Y-124678831D01*
X206995866Y-124678831D02*
X207057387Y-124706222D01*
X206284132Y-125615129D02*
X206355979Y-125536543D01*
X206355979Y-125536543D02*
X206383370Y-125475022D01*
X206383370Y-125475022D02*
X206393696Y-125369044D01*
X206393696Y-125369044D02*
X206291305Y-125102307D01*
X206291305Y-125102307D02*
X206212719Y-125030459D01*
X206212719Y-125030459D02*
X206151197Y-125003068D01*
X206151197Y-125003068D02*
X206045220Y-124992742D01*
X206045220Y-124992742D02*
X205911851Y-125043938D01*
X205911851Y-125043938D02*
X205840004Y-125122524D01*
X205840004Y-125122524D02*
X205812613Y-125184046D01*
X205812613Y-125184046D02*
X205802287Y-125290023D01*
X205802287Y-125290023D02*
X205904678Y-125556761D01*
X205904678Y-125556761D02*
X205983264Y-125628608D01*
X205983264Y-125628608D02*
X206044786Y-125655999D01*
X206044786Y-125655999D02*
X206150763Y-125666325D01*
X206150763Y-125666325D02*
X206284132Y-125615129D01*
X205155661Y-125997302D02*
X205261639Y-126007628D01*
X205261639Y-126007628D02*
X205439464Y-125939367D01*
X205439464Y-125939367D02*
X205511311Y-125860781D01*
X205511311Y-125860781D02*
X205538702Y-125799259D01*
X205538702Y-125799259D02*
X205549028Y-125693282D01*
X205549028Y-125693282D02*
X205446637Y-125426544D01*
X205446637Y-125426544D02*
X205368051Y-125354697D01*
X205368051Y-125354697D02*
X205306529Y-125327306D01*
X205306529Y-125327306D02*
X205200552Y-125316980D01*
X205200552Y-125316980D02*
X205022727Y-125385241D01*
X205022727Y-125385241D02*
X204950880Y-125463827D01*
X204212472Y-126410365D02*
X203854104Y-125476785D01*
X203854104Y-125476785D02*
X203798888Y-126263084D01*
X203798888Y-126263084D02*
X203231717Y-125715697D01*
X203231717Y-125715697D02*
X203590085Y-126649277D01*
X202876068Y-125852218D02*
X202612049Y-127024710D01*
X202253681Y-126091130D02*
X203234436Y-126785798D01*
X201546251Y-126719735D02*
X201562882Y-127427447D01*
X201562882Y-127427447D02*
X201101689Y-126890386D01*
X200705170Y-126787561D02*
X200643648Y-126760170D01*
X200643648Y-126760170D02*
X200537671Y-126749844D01*
X200537671Y-126749844D02*
X200315390Y-126835170D01*
X200315390Y-126835170D02*
X200243543Y-126913756D01*
X200243543Y-126913756D02*
X200216151Y-126975278D01*
X200216151Y-126975278D02*
X200205826Y-127081255D01*
X200205826Y-127081255D02*
X200239956Y-127170168D01*
X200239956Y-127170168D02*
X200335607Y-127286471D01*
X200335607Y-127286471D02*
X201073864Y-127615164D01*
X201073864Y-127615164D02*
X200495933Y-127837011D01*
X200061697Y-127901685D02*
X200034306Y-127963206D01*
X200034306Y-127963206D02*
X200095827Y-127990597D01*
X200095827Y-127990597D02*
X200123218Y-127929076D01*
X200123218Y-127929076D02*
X200061697Y-127901685D01*
X200061697Y-127901685D02*
X200095827Y-127990597D01*
X199162247Y-128348965D02*
X199695721Y-128144183D01*
X199428984Y-128246574D02*
X199070616Y-127312994D01*
X199070616Y-127312994D02*
X199210724Y-127412232D01*
X199210724Y-127412232D02*
X199333767Y-127467014D01*
X199333767Y-127467014D02*
X199439744Y-127477340D01*
X198201993Y-128717572D02*
X197843625Y-127783991D01*
X197980146Y-128139641D02*
X197874168Y-128129315D01*
X197874168Y-128129315D02*
X197696344Y-128197576D01*
X197696344Y-128197576D02*
X197624496Y-128276162D01*
X197624496Y-128276162D02*
X197597105Y-128337684D01*
X197597105Y-128337684D02*
X197586779Y-128443661D01*
X197586779Y-128443661D02*
X197689170Y-128710398D01*
X197689170Y-128710398D02*
X197767757Y-128782246D01*
X197767757Y-128782246D02*
X197829278Y-128809637D01*
X197829278Y-128809637D02*
X197935256Y-128819963D01*
X197935256Y-128819963D02*
X198113080Y-128751702D01*
X198113080Y-128751702D02*
X198184928Y-128673116D01*
X197207325Y-128385292D02*
X197223956Y-129093005D01*
X196762763Y-128555944D02*
X197223956Y-129093005D01*
X197223956Y-129093005D02*
X197398194Y-129281156D01*
X197398194Y-129281156D02*
X197459716Y-129308547D01*
X197459716Y-129308547D02*
X197565693Y-129318873D01*
X195460772Y-128698683D02*
X195716749Y-129365526D01*
X195716749Y-129365526D02*
X195812400Y-129481830D01*
X195812400Y-129481830D02*
X195935443Y-129536612D01*
X195935443Y-129536612D02*
X196085877Y-129529873D01*
X196085877Y-129529873D02*
X196174789Y-129495742D01*
X195001862Y-129894980D02*
X195107840Y-129905306D01*
X195107840Y-129905306D02*
X195285665Y-129837045D01*
X195285665Y-129837045D02*
X195357512Y-129758459D01*
X195357512Y-129758459D02*
X195367838Y-129652481D01*
X195367838Y-129652481D02*
X195231317Y-129296832D01*
X195231317Y-129296832D02*
X195152730Y-129224984D01*
X195152730Y-129224984D02*
X195046753Y-129214658D01*
X195046753Y-129214658D02*
X194868928Y-129282919D01*
X194868928Y-129282919D02*
X194797081Y-129361505D01*
X194797081Y-129361505D02*
X194786755Y-129467483D01*
X194786755Y-129467483D02*
X194820885Y-129556395D01*
X194820885Y-129556395D02*
X195299577Y-129474656D01*
X194440997Y-130161283D02*
X194512844Y-130082697D01*
X194512844Y-130082697D02*
X194523170Y-129976719D01*
X194523170Y-129976719D02*
X194215997Y-129176507D01*
X193951978Y-130349000D02*
X194023825Y-130270413D01*
X194023825Y-130270413D02*
X194034151Y-130164436D01*
X194034151Y-130164436D02*
X193726979Y-129364224D01*
X193446328Y-129829004D02*
X193462959Y-130536716D01*
X193001766Y-129999655D02*
X193462959Y-130536716D01*
X193462959Y-130536716D02*
X193637197Y-130724867D01*
X193637197Y-130724867D02*
X193698719Y-130752258D01*
X193698719Y-130752258D02*
X193804696Y-130762584D01*
X192660029Y-129773788D02*
X192126554Y-129978569D01*
X192751660Y-130809759D02*
X192393292Y-129876178D01*
X192173729Y-131031606D02*
X191934817Y-130409219D01*
X191815361Y-130098025D02*
X191876882Y-130125416D01*
X191876882Y-130125416D02*
X191849491Y-130186938D01*
X191849491Y-130186938D02*
X191787970Y-130159547D01*
X191787970Y-130159547D02*
X191815361Y-130098025D01*
X191815361Y-130098025D02*
X191849491Y-130186938D01*
X191623624Y-130528675D02*
X191267974Y-130665196D01*
X191370799Y-130268677D02*
X191677972Y-131068888D01*
X191677972Y-131068888D02*
X191667646Y-131174866D01*
X191667646Y-131174866D02*
X191595798Y-131253452D01*
X191595798Y-131253452D02*
X191506886Y-131287583D01*
X190795586Y-131560625D02*
X190607870Y-131071607D01*
X190607870Y-131071607D02*
X190618195Y-130965629D01*
X190618195Y-130965629D02*
X190690043Y-130887043D01*
X190690043Y-130887043D02*
X190867868Y-130818782D01*
X190867868Y-130818782D02*
X190973845Y-130829108D01*
X190778521Y-131516169D02*
X190884499Y-131526495D01*
X190884499Y-131526495D02*
X191106780Y-131441169D01*
X191106780Y-131441169D02*
X191178627Y-131362583D01*
X191178627Y-131362583D02*
X191188953Y-131256605D01*
X191188953Y-131256605D02*
X191154823Y-131167693D01*
X191154823Y-131167693D02*
X191076236Y-131095845D01*
X191076236Y-131095845D02*
X190970258Y-131085519D01*
X190970258Y-131085519D02*
X190747977Y-131170845D01*
X190747977Y-131170845D02*
X190642000Y-131160519D01*
X190112112Y-131108890D02*
X190351024Y-131731277D01*
X190146242Y-131197802D02*
X190084721Y-131170411D01*
X190084721Y-131170411D02*
X189978743Y-131160085D01*
X189978743Y-131160085D02*
X189845375Y-131211280D01*
X189845375Y-131211280D02*
X189773527Y-131289867D01*
X189773527Y-131289867D02*
X189763201Y-131395844D01*
X189763201Y-131395844D02*
X189950918Y-131884863D01*
X163436190Y-36322380D02*
X163436190Y-37036666D01*
X163436190Y-37036666D02*
X163483809Y-37179523D01*
X163483809Y-37179523D02*
X163579047Y-37274761D01*
X163579047Y-37274761D02*
X163721904Y-37322380D01*
X163721904Y-37322380D02*
X163817142Y-37322380D01*
X162483809Y-37322380D02*
X162959999Y-37322380D01*
X162959999Y-37322380D02*
X162959999Y-36322380D01*
X161579047Y-37227142D02*
X161626666Y-37274761D01*
X161626666Y-37274761D02*
X161769523Y-37322380D01*
X161769523Y-37322380D02*
X161864761Y-37322380D01*
X161864761Y-37322380D02*
X162007618Y-37274761D01*
X162007618Y-37274761D02*
X162102856Y-37179523D01*
X162102856Y-37179523D02*
X162150475Y-37084285D01*
X162150475Y-37084285D02*
X162198094Y-36893809D01*
X162198094Y-36893809D02*
X162198094Y-36750952D01*
X162198094Y-36750952D02*
X162150475Y-36560476D01*
X162150475Y-36560476D02*
X162102856Y-36465238D01*
X162102856Y-36465238D02*
X162007618Y-36370000D01*
X162007618Y-36370000D02*
X161864761Y-36322380D01*
X161864761Y-36322380D02*
X161769523Y-36322380D01*
X161769523Y-36322380D02*
X161626666Y-36370000D01*
X161626666Y-36370000D02*
X161579047Y-36417619D01*
X160864761Y-36322380D02*
X160864761Y-37036666D01*
X160864761Y-37036666D02*
X160912380Y-37179523D01*
X160912380Y-37179523D02*
X161007618Y-37274761D01*
X161007618Y-37274761D02*
X161150475Y-37322380D01*
X161150475Y-37322380D02*
X161245713Y-37322380D01*
X159912380Y-37322380D02*
X160388570Y-37322380D01*
X160388570Y-37322380D02*
X160388570Y-36322380D01*
X159007618Y-37227142D02*
X159055237Y-37274761D01*
X159055237Y-37274761D02*
X159198094Y-37322380D01*
X159198094Y-37322380D02*
X159293332Y-37322380D01*
X159293332Y-37322380D02*
X159436189Y-37274761D01*
X159436189Y-37274761D02*
X159531427Y-37179523D01*
X159531427Y-37179523D02*
X159579046Y-37084285D01*
X159579046Y-37084285D02*
X159626665Y-36893809D01*
X159626665Y-36893809D02*
X159626665Y-36750952D01*
X159626665Y-36750952D02*
X159579046Y-36560476D01*
X159579046Y-36560476D02*
X159531427Y-36465238D01*
X159531427Y-36465238D02*
X159436189Y-36370000D01*
X159436189Y-36370000D02*
X159293332Y-36322380D01*
X159293332Y-36322380D02*
X159198094Y-36322380D01*
X159198094Y-36322380D02*
X159055237Y-36370000D01*
X159055237Y-36370000D02*
X159007618Y-36417619D01*
X158293332Y-36322380D02*
X158293332Y-37036666D01*
X158293332Y-37036666D02*
X158340951Y-37179523D01*
X158340951Y-37179523D02*
X158436189Y-37274761D01*
X158436189Y-37274761D02*
X158579046Y-37322380D01*
X158579046Y-37322380D02*
X158674284Y-37322380D01*
X157340951Y-37322380D02*
X157817141Y-37322380D01*
X157817141Y-37322380D02*
X157817141Y-36322380D01*
X156436189Y-37227142D02*
X156483808Y-37274761D01*
X156483808Y-37274761D02*
X156626665Y-37322380D01*
X156626665Y-37322380D02*
X156721903Y-37322380D01*
X156721903Y-37322380D02*
X156864760Y-37274761D01*
X156864760Y-37274761D02*
X156959998Y-37179523D01*
X156959998Y-37179523D02*
X157007617Y-37084285D01*
X157007617Y-37084285D02*
X157055236Y-36893809D01*
X157055236Y-36893809D02*
X157055236Y-36750952D01*
X157055236Y-36750952D02*
X157007617Y-36560476D01*
X157007617Y-36560476D02*
X156959998Y-36465238D01*
X156959998Y-36465238D02*
X156864760Y-36370000D01*
X156864760Y-36370000D02*
X156721903Y-36322380D01*
X156721903Y-36322380D02*
X156626665Y-36322380D01*
X156626665Y-36322380D02*
X156483808Y-36370000D01*
X156483808Y-36370000D02*
X156436189Y-36417619D01*
X155721903Y-36322380D02*
X155721903Y-37036666D01*
X155721903Y-37036666D02*
X155769522Y-37179523D01*
X155769522Y-37179523D02*
X155864760Y-37274761D01*
X155864760Y-37274761D02*
X156007617Y-37322380D01*
X156007617Y-37322380D02*
X156102855Y-37322380D01*
X154769522Y-37322380D02*
X155245712Y-37322380D01*
X155245712Y-37322380D02*
X155245712Y-36322380D01*
X153864760Y-37227142D02*
X153912379Y-37274761D01*
X153912379Y-37274761D02*
X154055236Y-37322380D01*
X154055236Y-37322380D02*
X154150474Y-37322380D01*
X154150474Y-37322380D02*
X154293331Y-37274761D01*
X154293331Y-37274761D02*
X154388569Y-37179523D01*
X154388569Y-37179523D02*
X154436188Y-37084285D01*
X154436188Y-37084285D02*
X154483807Y-36893809D01*
X154483807Y-36893809D02*
X154483807Y-36750952D01*
X154483807Y-36750952D02*
X154436188Y-36560476D01*
X154436188Y-36560476D02*
X154388569Y-36465238D01*
X154388569Y-36465238D02*
X154293331Y-36370000D01*
X154293331Y-36370000D02*
X154150474Y-36322380D01*
X154150474Y-36322380D02*
X154055236Y-36322380D01*
X154055236Y-36322380D02*
X153912379Y-36370000D01*
X153912379Y-36370000D02*
X153864760Y-36417619D01*
D11*
X100819637Y-76920342D02*
X100819637Y-77113866D01*
X101013161Y-77036456D02*
X100819637Y-77113866D01*
X100819637Y-77113866D02*
X100626114Y-77036456D01*
X100935752Y-77268685D02*
X100819637Y-77113866D01*
X100819637Y-77113866D02*
X100703523Y-77268685D01*
X100200361Y-76920342D02*
X100200361Y-77113866D01*
X100393885Y-77036456D02*
X100200361Y-77113866D01*
X100200361Y-77113866D02*
X100006838Y-77036456D01*
X100316476Y-77268685D02*
X100200361Y-77113866D01*
X100200361Y-77113866D02*
X100084247Y-77268685D01*
X100643332Y-77779974D02*
X100909999Y-77399022D01*
X101100475Y-77779974D02*
X101100475Y-76979974D01*
X101100475Y-76979974D02*
X100795713Y-76979974D01*
X100795713Y-76979974D02*
X100719523Y-77018070D01*
X100719523Y-77018070D02*
X100681428Y-77056165D01*
X100681428Y-77056165D02*
X100643332Y-77132355D01*
X100643332Y-77132355D02*
X100643332Y-77246641D01*
X100643332Y-77246641D02*
X100681428Y-77322831D01*
X100681428Y-77322831D02*
X100719523Y-77360927D01*
X100719523Y-77360927D02*
X100795713Y-77399022D01*
X100795713Y-77399022D02*
X101100475Y-77399022D01*
X99881428Y-77779974D02*
X100338571Y-77779974D01*
X100109999Y-77779974D02*
X100109999Y-76979974D01*
X100109999Y-76979974D02*
X100186190Y-77094260D01*
X100186190Y-77094260D02*
X100262380Y-77170450D01*
X100262380Y-77170450D02*
X100338571Y-77208546D01*
X100819637Y-79162307D02*
X100819637Y-79355831D01*
X101013161Y-79278421D02*
X100819637Y-79355831D01*
X100819637Y-79355831D02*
X100626114Y-79278421D01*
X100935752Y-79510650D02*
X100819637Y-79355831D01*
X100819637Y-79355831D02*
X100703523Y-79510650D01*
X100200361Y-79162307D02*
X100200361Y-79355831D01*
X100393885Y-79278421D02*
X100200361Y-79355831D01*
X100200361Y-79355831D02*
X100006838Y-79278421D01*
X100316476Y-79510650D02*
X100200361Y-79355831D01*
X100200361Y-79355831D02*
X100084247Y-79510650D01*
X100643332Y-80033904D02*
X100909999Y-79652952D01*
X101100475Y-80033904D02*
X101100475Y-79233904D01*
X101100475Y-79233904D02*
X100795713Y-79233904D01*
X100795713Y-79233904D02*
X100719523Y-79272000D01*
X100719523Y-79272000D02*
X100681428Y-79310095D01*
X100681428Y-79310095D02*
X100643332Y-79386285D01*
X100643332Y-79386285D02*
X100643332Y-79500571D01*
X100643332Y-79500571D02*
X100681428Y-79576761D01*
X100681428Y-79576761D02*
X100719523Y-79614857D01*
X100719523Y-79614857D02*
X100795713Y-79652952D01*
X100795713Y-79652952D02*
X101100475Y-79652952D01*
X100338571Y-79310095D02*
X100300475Y-79272000D01*
X100300475Y-79272000D02*
X100224285Y-79233904D01*
X100224285Y-79233904D02*
X100033809Y-79233904D01*
X100033809Y-79233904D02*
X99957618Y-79272000D01*
X99957618Y-79272000D02*
X99919523Y-79310095D01*
X99919523Y-79310095D02*
X99881428Y-79386285D01*
X99881428Y-79386285D02*
X99881428Y-79462476D01*
X99881428Y-79462476D02*
X99919523Y-79576761D01*
X99919523Y-79576761D02*
X100376666Y-80033904D01*
X100376666Y-80033904D02*
X99881428Y-80033904D01*
X90293904Y-76338095D02*
X89912952Y-76071428D01*
X90293904Y-75880952D02*
X89493904Y-75880952D01*
X89493904Y-75880952D02*
X89493904Y-76185714D01*
X89493904Y-76185714D02*
X89532000Y-76261904D01*
X89532000Y-76261904D02*
X89570095Y-76299999D01*
X89570095Y-76299999D02*
X89646285Y-76338095D01*
X89646285Y-76338095D02*
X89760571Y-76338095D01*
X89760571Y-76338095D02*
X89836761Y-76299999D01*
X89836761Y-76299999D02*
X89874857Y-76261904D01*
X89874857Y-76261904D02*
X89912952Y-76185714D01*
X89912952Y-76185714D02*
X89912952Y-75880952D01*
X89874857Y-76680952D02*
X89874857Y-76947618D01*
X90293904Y-77061904D02*
X90293904Y-76680952D01*
X90293904Y-76680952D02*
X89493904Y-76680952D01*
X89493904Y-76680952D02*
X89493904Y-77061904D01*
X90255809Y-77366666D02*
X90293904Y-77480952D01*
X90293904Y-77480952D02*
X90293904Y-77671428D01*
X90293904Y-77671428D02*
X90255809Y-77747619D01*
X90255809Y-77747619D02*
X90217714Y-77785714D01*
X90217714Y-77785714D02*
X90141523Y-77823809D01*
X90141523Y-77823809D02*
X90065333Y-77823809D01*
X90065333Y-77823809D02*
X89989142Y-77785714D01*
X89989142Y-77785714D02*
X89951047Y-77747619D01*
X89951047Y-77747619D02*
X89912952Y-77671428D01*
X89912952Y-77671428D02*
X89874857Y-77519047D01*
X89874857Y-77519047D02*
X89836761Y-77442857D01*
X89836761Y-77442857D02*
X89798666Y-77404762D01*
X89798666Y-77404762D02*
X89722476Y-77366666D01*
X89722476Y-77366666D02*
X89646285Y-77366666D01*
X89646285Y-77366666D02*
X89570095Y-77404762D01*
X89570095Y-77404762D02*
X89532000Y-77442857D01*
X89532000Y-77442857D02*
X89493904Y-77519047D01*
X89493904Y-77519047D02*
X89493904Y-77709524D01*
X89493904Y-77709524D02*
X89532000Y-77823809D01*
X89874857Y-78166667D02*
X89874857Y-78433333D01*
X90293904Y-78547619D02*
X90293904Y-78166667D01*
X90293904Y-78166667D02*
X89493904Y-78166667D01*
X89493904Y-78166667D02*
X89493904Y-78547619D01*
X89493904Y-78776191D02*
X89493904Y-79233334D01*
X90293904Y-79004762D02*
X89493904Y-79004762D01*
X93970475Y-78333904D02*
X93970475Y-77533904D01*
X93970475Y-77533904D02*
X93665713Y-77533904D01*
X93665713Y-77533904D02*
X93589523Y-77572000D01*
X93589523Y-77572000D02*
X93551428Y-77610095D01*
X93551428Y-77610095D02*
X93513332Y-77686285D01*
X93513332Y-77686285D02*
X93513332Y-77800571D01*
X93513332Y-77800571D02*
X93551428Y-77876761D01*
X93551428Y-77876761D02*
X93589523Y-77914857D01*
X93589523Y-77914857D02*
X93665713Y-77952952D01*
X93665713Y-77952952D02*
X93970475Y-77952952D01*
X92751428Y-78333904D02*
X93208571Y-78333904D01*
X92979999Y-78333904D02*
X92979999Y-77533904D01*
X92979999Y-77533904D02*
X93056190Y-77648190D01*
X93056190Y-77648190D02*
X93132380Y-77724380D01*
X93132380Y-77724380D02*
X93208571Y-77762476D01*
X111388095Y-87555000D02*
X111483333Y-87507380D01*
X111483333Y-87507380D02*
X111626190Y-87507380D01*
X111626190Y-87507380D02*
X111769047Y-87555000D01*
X111769047Y-87555000D02*
X111864285Y-87650238D01*
X111864285Y-87650238D02*
X111911904Y-87745476D01*
X111911904Y-87745476D02*
X111959523Y-87935952D01*
X111959523Y-87935952D02*
X111959523Y-88078809D01*
X111959523Y-88078809D02*
X111911904Y-88269285D01*
X111911904Y-88269285D02*
X111864285Y-88364523D01*
X111864285Y-88364523D02*
X111769047Y-88459761D01*
X111769047Y-88459761D02*
X111626190Y-88507380D01*
X111626190Y-88507380D02*
X111530952Y-88507380D01*
X111530952Y-88507380D02*
X111388095Y-88459761D01*
X111388095Y-88459761D02*
X111340476Y-88412142D01*
X111340476Y-88412142D02*
X111340476Y-88078809D01*
X111340476Y-88078809D02*
X111530952Y-88078809D01*
X110911904Y-88507380D02*
X110911904Y-87507380D01*
X110911904Y-87507380D02*
X110340476Y-88507380D01*
X110340476Y-88507380D02*
X110340476Y-87507380D01*
X109864285Y-88507380D02*
X109864285Y-87507380D01*
X109864285Y-87507380D02*
X109626190Y-87507380D01*
X109626190Y-87507380D02*
X109483333Y-87555000D01*
X109483333Y-87555000D02*
X109388095Y-87650238D01*
X109388095Y-87650238D02*
X109340476Y-87745476D01*
X109340476Y-87745476D02*
X109292857Y-87935952D01*
X109292857Y-87935952D02*
X109292857Y-88078809D01*
X109292857Y-88078809D02*
X109340476Y-88269285D01*
X109340476Y-88269285D02*
X109388095Y-88364523D01*
X109388095Y-88364523D02*
X109483333Y-88459761D01*
X109483333Y-88459761D02*
X109626190Y-88507380D01*
X109626190Y-88507380D02*
X109864285Y-88507380D01*
X109887142Y-84967380D02*
X109220476Y-85967380D01*
X109220476Y-84967380D02*
X109887142Y-85967380D01*
X111679523Y-83359761D02*
X111536666Y-83407380D01*
X111536666Y-83407380D02*
X111298571Y-83407380D01*
X111298571Y-83407380D02*
X111203333Y-83359761D01*
X111203333Y-83359761D02*
X111155714Y-83312142D01*
X111155714Y-83312142D02*
X111108095Y-83216904D01*
X111108095Y-83216904D02*
X111108095Y-83121666D01*
X111108095Y-83121666D02*
X111155714Y-83026428D01*
X111155714Y-83026428D02*
X111203333Y-82978809D01*
X111203333Y-82978809D02*
X111298571Y-82931190D01*
X111298571Y-82931190D02*
X111489047Y-82883571D01*
X111489047Y-82883571D02*
X111584285Y-82835952D01*
X111584285Y-82835952D02*
X111631904Y-82788333D01*
X111631904Y-82788333D02*
X111679523Y-82693095D01*
X111679523Y-82693095D02*
X111679523Y-82597857D01*
X111679523Y-82597857D02*
X111631904Y-82502619D01*
X111631904Y-82502619D02*
X111584285Y-82455000D01*
X111584285Y-82455000D02*
X111489047Y-82407380D01*
X111489047Y-82407380D02*
X111250952Y-82407380D01*
X111250952Y-82407380D02*
X111108095Y-82455000D01*
X110108095Y-83312142D02*
X110155714Y-83359761D01*
X110155714Y-83359761D02*
X110298571Y-83407380D01*
X110298571Y-83407380D02*
X110393809Y-83407380D01*
X110393809Y-83407380D02*
X110536666Y-83359761D01*
X110536666Y-83359761D02*
X110631904Y-83264523D01*
X110631904Y-83264523D02*
X110679523Y-83169285D01*
X110679523Y-83169285D02*
X110727142Y-82978809D01*
X110727142Y-82978809D02*
X110727142Y-82835952D01*
X110727142Y-82835952D02*
X110679523Y-82645476D01*
X110679523Y-82645476D02*
X110631904Y-82550238D01*
X110631904Y-82550238D02*
X110536666Y-82455000D01*
X110536666Y-82455000D02*
X110393809Y-82407380D01*
X110393809Y-82407380D02*
X110298571Y-82407380D01*
X110298571Y-82407380D02*
X110155714Y-82455000D01*
X110155714Y-82455000D02*
X110108095Y-82502619D01*
X109203333Y-83407380D02*
X109679523Y-83407380D01*
X109679523Y-83407380D02*
X109679523Y-82407380D01*
X106197380Y-82639286D02*
X105197380Y-82639286D01*
X105197380Y-82639286D02*
X105197380Y-83020238D01*
X105197380Y-83020238D02*
X105245000Y-83115476D01*
X105245000Y-83115476D02*
X105292619Y-83163095D01*
X105292619Y-83163095D02*
X105387857Y-83210714D01*
X105387857Y-83210714D02*
X105530714Y-83210714D01*
X105530714Y-83210714D02*
X105625952Y-83163095D01*
X105625952Y-83163095D02*
X105673571Y-83115476D01*
X105673571Y-83115476D02*
X105721190Y-83020238D01*
X105721190Y-83020238D02*
X105721190Y-82639286D01*
X106197380Y-83639286D02*
X105197380Y-83639286D01*
X106197380Y-84115476D02*
X105197380Y-84115476D01*
X105197380Y-84115476D02*
X105911666Y-84448809D01*
X105911666Y-84448809D02*
X105197380Y-84782142D01*
X105197380Y-84782142D02*
X106197380Y-84782142D01*
X105911666Y-85210714D02*
X105911666Y-85686904D01*
X106197380Y-85115476D02*
X105197380Y-85448809D01*
X105197380Y-85448809D02*
X106197380Y-85782142D01*
X106197380Y-86686904D02*
X105721190Y-86353571D01*
X106197380Y-86115476D02*
X105197380Y-86115476D01*
X105197380Y-86115476D02*
X105197380Y-86496428D01*
X105197380Y-86496428D02*
X105245000Y-86591666D01*
X105245000Y-86591666D02*
X105292619Y-86639285D01*
X105292619Y-86639285D02*
X105387857Y-86686904D01*
X105387857Y-86686904D02*
X105530714Y-86686904D01*
X105530714Y-86686904D02*
X105625952Y-86639285D01*
X105625952Y-86639285D02*
X105673571Y-86591666D01*
X105673571Y-86591666D02*
X105721190Y-86496428D01*
X105721190Y-86496428D02*
X105721190Y-86115476D01*
X105197380Y-87305952D02*
X105197380Y-87496428D01*
X105197380Y-87496428D02*
X105245000Y-87591666D01*
X105245000Y-87591666D02*
X105340238Y-87686904D01*
X105340238Y-87686904D02*
X105530714Y-87734523D01*
X105530714Y-87734523D02*
X105864047Y-87734523D01*
X105864047Y-87734523D02*
X106054523Y-87686904D01*
X106054523Y-87686904D02*
X106149761Y-87591666D01*
X106149761Y-87591666D02*
X106197380Y-87496428D01*
X106197380Y-87496428D02*
X106197380Y-87305952D01*
X106197380Y-87305952D02*
X106149761Y-87210714D01*
X106149761Y-87210714D02*
X106054523Y-87115476D01*
X106054523Y-87115476D02*
X105864047Y-87067857D01*
X105864047Y-87067857D02*
X105530714Y-87067857D01*
X105530714Y-87067857D02*
X105340238Y-87115476D01*
X105340238Y-87115476D02*
X105245000Y-87210714D01*
X105245000Y-87210714D02*
X105197380Y-87305952D01*
X106197380Y-88163095D02*
X105197380Y-88163095D01*
X105197380Y-88163095D02*
X106197380Y-88734523D01*
X106197380Y-88734523D02*
X105197380Y-88734523D01*
X106197380Y-89210714D02*
X105197380Y-89210714D01*
X111654761Y-77207380D02*
X111321428Y-78207380D01*
X111321428Y-78207380D02*
X110988095Y-77207380D01*
X110083333Y-78112142D02*
X110130952Y-78159761D01*
X110130952Y-78159761D02*
X110273809Y-78207380D01*
X110273809Y-78207380D02*
X110369047Y-78207380D01*
X110369047Y-78207380D02*
X110511904Y-78159761D01*
X110511904Y-78159761D02*
X110607142Y-78064523D01*
X110607142Y-78064523D02*
X110654761Y-77969285D01*
X110654761Y-77969285D02*
X110702380Y-77778809D01*
X110702380Y-77778809D02*
X110702380Y-77635952D01*
X110702380Y-77635952D02*
X110654761Y-77445476D01*
X110654761Y-77445476D02*
X110607142Y-77350238D01*
X110607142Y-77350238D02*
X110511904Y-77255000D01*
X110511904Y-77255000D02*
X110369047Y-77207380D01*
X110369047Y-77207380D02*
X110273809Y-77207380D01*
X110273809Y-77207380D02*
X110130952Y-77255000D01*
X110130952Y-77255000D02*
X110083333Y-77302619D01*
X109083333Y-78112142D02*
X109130952Y-78159761D01*
X109130952Y-78159761D02*
X109273809Y-78207380D01*
X109273809Y-78207380D02*
X109369047Y-78207380D01*
X109369047Y-78207380D02*
X109511904Y-78159761D01*
X109511904Y-78159761D02*
X109607142Y-78064523D01*
X109607142Y-78064523D02*
X109654761Y-77969285D01*
X109654761Y-77969285D02*
X109702380Y-77778809D01*
X109702380Y-77778809D02*
X109702380Y-77635952D01*
X109702380Y-77635952D02*
X109654761Y-77445476D01*
X109654761Y-77445476D02*
X109607142Y-77350238D01*
X109607142Y-77350238D02*
X109511904Y-77255000D01*
X109511904Y-77255000D02*
X109369047Y-77207380D01*
X109369047Y-77207380D02*
X109273809Y-77207380D01*
X109273809Y-77207380D02*
X109130952Y-77255000D01*
X109130952Y-77255000D02*
X109083333Y-77302619D01*
X111769523Y-80789761D02*
X111626666Y-80837380D01*
X111626666Y-80837380D02*
X111388571Y-80837380D01*
X111388571Y-80837380D02*
X111293333Y-80789761D01*
X111293333Y-80789761D02*
X111245714Y-80742142D01*
X111245714Y-80742142D02*
X111198095Y-80646904D01*
X111198095Y-80646904D02*
X111198095Y-80551666D01*
X111198095Y-80551666D02*
X111245714Y-80456428D01*
X111245714Y-80456428D02*
X111293333Y-80408809D01*
X111293333Y-80408809D02*
X111388571Y-80361190D01*
X111388571Y-80361190D02*
X111579047Y-80313571D01*
X111579047Y-80313571D02*
X111674285Y-80265952D01*
X111674285Y-80265952D02*
X111721904Y-80218333D01*
X111721904Y-80218333D02*
X111769523Y-80123095D01*
X111769523Y-80123095D02*
X111769523Y-80027857D01*
X111769523Y-80027857D02*
X111721904Y-79932619D01*
X111721904Y-79932619D02*
X111674285Y-79885000D01*
X111674285Y-79885000D02*
X111579047Y-79837380D01*
X111579047Y-79837380D02*
X111340952Y-79837380D01*
X111340952Y-79837380D02*
X111198095Y-79885000D01*
X110769523Y-80837380D02*
X110769523Y-79837380D01*
X110769523Y-79837380D02*
X110531428Y-79837380D01*
X110531428Y-79837380D02*
X110388571Y-79885000D01*
X110388571Y-79885000D02*
X110293333Y-79980238D01*
X110293333Y-79980238D02*
X110245714Y-80075476D01*
X110245714Y-80075476D02*
X110198095Y-80265952D01*
X110198095Y-80265952D02*
X110198095Y-80408809D01*
X110198095Y-80408809D02*
X110245714Y-80599285D01*
X110245714Y-80599285D02*
X110293333Y-80694523D01*
X110293333Y-80694523D02*
X110388571Y-80789761D01*
X110388571Y-80789761D02*
X110531428Y-80837380D01*
X110531428Y-80837380D02*
X110769523Y-80837380D01*
X109817142Y-80551666D02*
X109340952Y-80551666D01*
X109912380Y-80837380D02*
X109579047Y-79837380D01*
X109579047Y-79837380D02*
X109245714Y-80837380D01*
X93970475Y-76091939D02*
X93970475Y-75291939D01*
X93970475Y-75291939D02*
X93665713Y-75291939D01*
X93665713Y-75291939D02*
X93589523Y-75330035D01*
X93589523Y-75330035D02*
X93551428Y-75368130D01*
X93551428Y-75368130D02*
X93513332Y-75444320D01*
X93513332Y-75444320D02*
X93513332Y-75558606D01*
X93513332Y-75558606D02*
X93551428Y-75634796D01*
X93551428Y-75634796D02*
X93589523Y-75672892D01*
X93589523Y-75672892D02*
X93665713Y-75710987D01*
X93665713Y-75710987D02*
X93970475Y-75710987D01*
X92751428Y-76091939D02*
X93208571Y-76091939D01*
X92979999Y-76091939D02*
X92979999Y-75291939D01*
X92979999Y-75291939D02*
X93056190Y-75406225D01*
X93056190Y-75406225D02*
X93132380Y-75482415D01*
X93132380Y-75482415D02*
X93208571Y-75520511D01*
X97510000Y-76498035D02*
X103510000Y-76498035D01*
X97510000Y-78498035D02*
X97510000Y-76498035D01*
X103510000Y-76498035D02*
X103510000Y-78498035D01*
X103510000Y-78498035D02*
X97510000Y-78498035D01*
X97510000Y-78740000D02*
X103510000Y-78740000D01*
X97510000Y-80740000D02*
X97510000Y-78740000D01*
X103510000Y-78740000D02*
X103510000Y-80740000D01*
X103510000Y-80740000D02*
X97510000Y-80740000D01*
X88000000Y-90400000D02*
X88000000Y-84400000D01*
X100000000Y-90400000D02*
X88000000Y-90400000D01*
X88000000Y-84400000D02*
X100000000Y-84400000D01*
X100000000Y-84400000D02*
X100000000Y-90400000D01*
X90660000Y-37420000D02*
X108440000Y-37420000D01*
X90660000Y-39960000D02*
X93200000Y-39960000D01*
X90660000Y-70440000D02*
X90660000Y-37420000D01*
X90660000Y-70440000D02*
X90660000Y-39960000D01*
X93200000Y-39960000D02*
X93200000Y-70440000D01*
X93200000Y-70440000D02*
X90660000Y-70440000D01*
X105900000Y-39960000D02*
X108440000Y-39960000D01*
X105900000Y-70440000D02*
X105900000Y-39960000D01*
X108440000Y-37420000D02*
X108440000Y-70440000D01*
X108440000Y-70440000D02*
X105900000Y-70440000D01*
X91800000Y-74500000D02*
X91100000Y-74500000D01*
X91800000Y-74500000D02*
X91800000Y-80400000D01*
X91800000Y-74500000D02*
X91800000Y-80500000D01*
X88300000Y-74500000D02*
X88900000Y-74500000D01*
X91800000Y-80500000D02*
X91100000Y-80500000D01*
X88300000Y-80500000D02*
X88300000Y-74500000D01*
X88300000Y-80500000D02*
X88900000Y-80500000D01*
D12*
X128625000Y-45225000D02*
X128625000Y-45625000D01*
X128625000Y-45625000D02*
X129175000Y-45625000D01*
X128625000Y-45625000D02*
X128075000Y-45625000D01*
X128625000Y-45625000D02*
X128225000Y-46225000D01*
X129025000Y-46225000D02*
X128625000Y-45625000D01*
X128625000Y-46225000D02*
X128625000Y-46725000D01*
X128225000Y-46225000D02*
X129025000Y-46225000D01*
X147675000Y-42725000D02*
X147675000Y-43125000D01*
X147675000Y-43125000D02*
X148225000Y-43125000D01*
X147675000Y-43125000D02*
X147125000Y-43125000D01*
X147675000Y-43125000D02*
X147275000Y-43725000D01*
X148075000Y-43725000D02*
X147675000Y-43125000D01*
X147675000Y-43725000D02*
X147675000Y-44225000D01*
X147275000Y-43725000D02*
X148075000Y-43725000D01*
X150575000Y-41475000D02*
X150575000Y-41875000D01*
X150575000Y-41875000D02*
X151125000Y-41875000D01*
X150575000Y-41875000D02*
X150025000Y-41875000D01*
X150575000Y-41875000D02*
X150175000Y-42475000D01*
X150975000Y-42475000D02*
X150575000Y-41875000D01*
X150575000Y-42475000D02*
X150575000Y-42975000D01*
X150175000Y-42475000D02*
X150975000Y-42475000D01*
X169625000Y-42725000D02*
X169625000Y-43125000D01*
X169625000Y-43125000D02*
X170175000Y-43125000D01*
X169625000Y-43125000D02*
X169075000Y-43125000D01*
X169625000Y-43125000D02*
X169225000Y-43725000D01*
X170025000Y-43725000D02*
X169625000Y-43125000D01*
X169625000Y-43725000D02*
X169625000Y-44225000D01*
X169225000Y-43725000D02*
X170025000Y-43725000D01*
X188675000Y-47625000D02*
X188675000Y-48025000D01*
X188675000Y-48025000D02*
X189225000Y-48025000D01*
X188675000Y-48025000D02*
X188125000Y-48025000D01*
X188675000Y-48025000D02*
X188275000Y-48625000D01*
X189075000Y-48625000D02*
X188675000Y-48025000D01*
X188675000Y-48625000D02*
X188675000Y-49125000D01*
X188275000Y-48625000D02*
X189075000Y-48625000D01*
X223875000Y-47875000D02*
X223875000Y-48275000D01*
X223875000Y-48275000D02*
X224425000Y-48275000D01*
X223875000Y-48275000D02*
X223325000Y-48275000D01*
X223875000Y-48275000D02*
X223475000Y-48875000D01*
X224275000Y-48875000D02*
X223875000Y-48275000D01*
X223875000Y-48875000D02*
X223875000Y-49375000D01*
X223475000Y-48875000D02*
X224275000Y-48875000D01*
X128625000Y-83325000D02*
X128625000Y-83725000D01*
X128625000Y-83725000D02*
X129175000Y-83725000D01*
X128625000Y-83725000D02*
X128075000Y-83725000D01*
X128625000Y-83725000D02*
X128225000Y-84325000D01*
X129025000Y-84325000D02*
X128625000Y-83725000D01*
X128625000Y-84325000D02*
X128625000Y-84825000D01*
X128225000Y-84325000D02*
X129025000Y-84325000D01*
X128625000Y-103125000D02*
X128625000Y-103525000D01*
X128625000Y-103525000D02*
X129175000Y-103525000D01*
X128625000Y-103525000D02*
X128075000Y-103525000D01*
X128625000Y-103525000D02*
X128225000Y-104125000D01*
X129025000Y-104125000D02*
X128625000Y-103525000D01*
X128625000Y-104125000D02*
X128625000Y-104625000D01*
X128225000Y-104125000D02*
X129025000Y-104125000D01*
X109670000Y-107190000D02*
X109670000Y-107590000D01*
X109670000Y-107590000D02*
X110220000Y-107590000D01*
X109670000Y-107590000D02*
X109120000Y-107590000D01*
X109670000Y-107590000D02*
X109270000Y-108190000D01*
X110070000Y-108190000D02*
X109670000Y-107590000D01*
X109670000Y-108190000D02*
X109670000Y-108690000D01*
X109270000Y-108190000D02*
X110070000Y-108190000D01*
X106370000Y-132350000D02*
X106370000Y-132750000D01*
X106370000Y-132750000D02*
X106920000Y-132750000D01*
X106370000Y-132750000D02*
X105820000Y-132750000D01*
X106370000Y-132750000D02*
X105970000Y-133350000D01*
X106770000Y-133350000D02*
X106370000Y-132750000D01*
X106370000Y-133350000D02*
X106370000Y-133850000D01*
X105970000Y-133350000D02*
X106770000Y-133350000D01*
D13*
X124241200Y-46770800D02*
X124241200Y-46243200D01*
X123733200Y-46770800D02*
X124241200Y-46770800D01*
D11*
X122850000Y-54575000D02*
X122850000Y-57225000D01*
X121850000Y-58225000D02*
X119250000Y-58225000D01*
X121850000Y-53575000D02*
X119275000Y-53575000D01*
X116825000Y-51375000D02*
X118100000Y-52400000D01*
X116825000Y-51375000D02*
X114275000Y-51375000D01*
X116250000Y-56025000D02*
X114275000Y-56025000D01*
X113250000Y-55000000D02*
X114275000Y-56025000D01*
X113250000Y-52400000D02*
X114275000Y-51375000D01*
X113250000Y-52400000D02*
X113250000Y-55000000D01*
X121850000Y-58225000D02*
G75*
G03*
X122850000Y-57225000I1J999999D01*
G01*
X122850000Y-54575000D02*
G75*
G03*
X121850000Y-53575000I-999999J1D01*
G01*
X118100000Y-52400000D02*
G75*
G03*
X119275000Y-53575000I1175000J0D01*
G01*
X118387798Y-57521905D02*
G75*
G03*
X119249005Y-58223790I900002J225005D01*
G01*
X118387801Y-57521904D02*
G75*
G03*
X116250000Y-56025000I-2137801J-778096D01*
G01*
D13*
X162341200Y-41770800D02*
X162341200Y-41243200D01*
X161833200Y-41770800D02*
X162341200Y-41770800D01*
D11*
X160950000Y-49575000D02*
X160950000Y-52225000D01*
X159950000Y-53225000D02*
X157350000Y-53225000D01*
X159950000Y-48575000D02*
X157375000Y-48575000D01*
X154925000Y-46375000D02*
X156200000Y-47400000D01*
X154925000Y-46375000D02*
X152375000Y-46375000D01*
X154350000Y-51025000D02*
X152375000Y-51025000D01*
X151350000Y-50000000D02*
X152375000Y-51025000D01*
X151350000Y-47400000D02*
X152375000Y-46375000D01*
X151350000Y-47400000D02*
X151350000Y-50000000D01*
X159950000Y-53225000D02*
G75*
G03*
X160950000Y-52225000I1J999999D01*
G01*
X160950000Y-49575000D02*
G75*
G03*
X159950000Y-48575000I-999999J1D01*
G01*
X156200000Y-47400000D02*
G75*
G03*
X157375000Y-48575000I1175000J0D01*
G01*
X156487798Y-52521905D02*
G75*
G03*
X157349005Y-53223790I900002J225005D01*
G01*
X156487801Y-52521904D02*
G75*
G03*
X154350000Y-51025000I-2137801J-778096D01*
G01*
D13*
X124241200Y-84870800D02*
X124241200Y-84343200D01*
X123733200Y-84870800D02*
X124241200Y-84870800D01*
D11*
X122850000Y-92675000D02*
X122850000Y-95325000D01*
X121850000Y-96325000D02*
X119250000Y-96325000D01*
X121850000Y-91675000D02*
X119275000Y-91675000D01*
X116825000Y-89475000D02*
X118100000Y-90500000D01*
X116825000Y-89475000D02*
X114275000Y-89475000D01*
X116250000Y-94125000D02*
X114275000Y-94125000D01*
X113250000Y-93100000D02*
X114275000Y-94125000D01*
X113250000Y-90500000D02*
X114275000Y-89475000D01*
X113250000Y-90500000D02*
X113250000Y-93100000D01*
X121850000Y-96325000D02*
G75*
G03*
X122850000Y-95325000I1J999999D01*
G01*
X122850000Y-92675000D02*
G75*
G03*
X121850000Y-91675000I-999999J1D01*
G01*
X118100000Y-90500000D02*
G75*
G03*
X119275000Y-91675000I1175000J0D01*
G01*
X118387798Y-95621905D02*
G75*
G03*
X119249005Y-96323790I900002J225005D01*
G01*
X118387801Y-95621904D02*
G75*
G03*
X116250000Y-94125000I-2137801J-778096D01*
G01*
D13*
X143291200Y-82370800D02*
X143291200Y-81843200D01*
X142783200Y-82370800D02*
X143291200Y-82370800D01*
D11*
X141900000Y-90175000D02*
X141900000Y-92825000D01*
X140900000Y-93825000D02*
X138300000Y-93825000D01*
X140900000Y-89175000D02*
X138325000Y-89175000D01*
X135875000Y-86975000D02*
X137150000Y-88000000D01*
X135875000Y-86975000D02*
X133325000Y-86975000D01*
X135300000Y-91625000D02*
X133325000Y-91625000D01*
X132300000Y-90600000D02*
X133325000Y-91625000D01*
X132300000Y-88000000D02*
X133325000Y-86975000D01*
X132300000Y-88000000D02*
X132300000Y-90600000D01*
X140900000Y-93825000D02*
G75*
G03*
X141900000Y-92825000I1J999999D01*
G01*
X141900000Y-90175000D02*
G75*
G03*
X140900000Y-89175000I-999999J1D01*
G01*
X137150000Y-88000000D02*
G75*
G03*
X138325000Y-89175000I1175000J0D01*
G01*
X137437798Y-93121905D02*
G75*
G03*
X138299005Y-93823790I900002J225005D01*
G01*
X137437801Y-93121904D02*
G75*
G03*
X135300000Y-91625000I-2137801J-778096D01*
G01*
D13*
X162341200Y-98920800D02*
X162341200Y-98393200D01*
X161833200Y-98920800D02*
X162341200Y-98920800D01*
D11*
X160950000Y-106725000D02*
X160950000Y-109375000D01*
X159950000Y-110375000D02*
X157350000Y-110375000D01*
X159950000Y-105725000D02*
X157375000Y-105725000D01*
X154925000Y-103525000D02*
X156200000Y-104550000D01*
X154925000Y-103525000D02*
X152375000Y-103525000D01*
X154350000Y-108175000D02*
X152375000Y-108175000D01*
X151350000Y-107150000D02*
X152375000Y-108175000D01*
X151350000Y-104550000D02*
X152375000Y-103525000D01*
X151350000Y-104550000D02*
X151350000Y-107150000D01*
X159950000Y-110375000D02*
G75*
G03*
X160950000Y-109375000I1J999999D01*
G01*
X160950000Y-106725000D02*
G75*
G03*
X159950000Y-105725000I-999999J1D01*
G01*
X156200000Y-104550000D02*
G75*
G03*
X157375000Y-105725000I1175000J0D01*
G01*
X156487798Y-109671905D02*
G75*
G03*
X157349005Y-110373790I900002J225005D01*
G01*
X156487801Y-109671904D02*
G75*
G03*
X154350000Y-108175000I-2137801J-778096D01*
G01*
D13*
X200441200Y-106320800D02*
X200441200Y-105793200D01*
X199933200Y-106320800D02*
X200441200Y-106320800D01*
D11*
X199050000Y-114125000D02*
X199050000Y-116775000D01*
X198050000Y-117775000D02*
X195450000Y-117775000D01*
X198050000Y-113125000D02*
X195475000Y-113125000D01*
X193025000Y-110925000D02*
X194300000Y-111950000D01*
X193025000Y-110925000D02*
X190475000Y-110925000D01*
X192450000Y-115575000D02*
X190475000Y-115575000D01*
X189450000Y-114550000D02*
X190475000Y-115575000D01*
X189450000Y-111950000D02*
X190475000Y-110925000D01*
X189450000Y-111950000D02*
X189450000Y-114550000D01*
X198050000Y-117775000D02*
G75*
G03*
X199050000Y-116775000I1J999999D01*
G01*
X199050000Y-114125000D02*
G75*
G03*
X198050000Y-113125000I-999999J1D01*
G01*
X194300000Y-111950000D02*
G75*
G03*
X195475000Y-113125000I1175000J0D01*
G01*
X194587798Y-117071905D02*
G75*
G03*
X195449005Y-117773790I900002J225005D01*
G01*
X194587801Y-117071904D02*
G75*
G03*
X192450000Y-115575000I-2137801J-778096D01*
G01*
D13*
X101352169Y-134982073D02*
X101809084Y-134718273D01*
X101098169Y-134542132D02*
X101352169Y-134982073D01*
D11*
X93897934Y-137679358D02*
X91602966Y-139004358D01*
X90236941Y-138638333D02*
X88936941Y-136386667D01*
X94263959Y-136313333D02*
X92976459Y-134083318D01*
X93656715Y-130861555D02*
X93406539Y-132478238D01*
X93656715Y-130861555D02*
X92381715Y-128653191D01*
X89342197Y-132688591D02*
X88354697Y-130978191D01*
X88729873Y-129578015D02*
X88354697Y-130978191D01*
X90981539Y-128278015D02*
X92381715Y-128653191D01*
X90981539Y-128278015D02*
X88729873Y-129578015D01*
X90236942Y-138638332D02*
G75*
G03*
X91602966Y-139004357I866024J499998D01*
G01*
X93897933Y-137679357D02*
G75*
G03*
X94263958Y-136313333I-499998J866024D01*
G01*
X93406539Y-132478238D02*
G75*
G03*
X92976459Y-134083318I587500J-1017580D01*
G01*
X89114739Y-135288431D02*
G75*
G03*
X88937492Y-136385201I644860J-666922D01*
G01*
X89114740Y-135288432D02*
G75*
G03*
X89342197Y-132688591I-1742751J1462341D01*
G01*
X95430000Y-73330000D02*
X105590000Y-73330000D01*
X95430000Y-75870000D02*
X95430000Y-73330000D01*
X105590000Y-73330000D02*
X105590000Y-75870000D01*
X105590000Y-75870000D02*
X95430000Y-75870000D01*
D13*
X93900000Y-98600000D02*
X93900000Y-110400000D01*
X98000000Y-98600000D02*
X93900000Y-98600000D01*
X98000000Y-110400000D02*
X93900000Y-110400000D01*
X99500000Y-104500000D02*
X100500000Y-104500000D01*
X100000000Y-104000000D02*
X100000000Y-105000000D01*
X102000000Y-98600000D02*
X106100000Y-98600000D01*
X106100000Y-98600000D02*
X106100000Y-101000000D01*
X106100000Y-103200000D02*
X106100000Y-105800000D01*
X106100000Y-108000000D02*
X106100000Y-110400000D01*
X106100000Y-110400000D02*
X102000000Y-110400000D01*
X103000000Y-104500000D02*
G75*
G03*
X103000000Y-104500000I-3000000J0D01*
G01*
X120329647Y-124325479D02*
X120193094Y-123815857D01*
X119838957Y-124456960D02*
X120329647Y-124325479D01*
D11*
X121005727Y-132223827D02*
X121691597Y-134783530D01*
X120984490Y-136008275D02*
X118473083Y-136681205D01*
X119780982Y-131516720D02*
X117293723Y-132183179D01*
X114357802Y-130692249D02*
X115854647Y-131352329D01*
X114357802Y-130692249D02*
X111894692Y-131352238D01*
X115005904Y-135332625D02*
X113098200Y-135843793D01*
X111842837Y-135119008D02*
X113098200Y-135843793D01*
X111169907Y-132607601D02*
X111894692Y-131352238D01*
X111169907Y-132607601D02*
X111842837Y-135119008D01*
X120984490Y-136008275D02*
G75*
G03*
X121691597Y-134783530I-258818J965925D01*
G01*
X121005726Y-132223827D02*
G75*
G03*
X119780982Y-131516720I-965925J-258818D01*
G01*
X115854647Y-131352329D02*
G75*
G03*
X117293723Y-132183179I1134963J304113D01*
G01*
X117458286Y-136225221D02*
G75*
G03*
X118471809Y-136680293I811099J450275D01*
G01*
X117458287Y-136225220D02*
G75*
G03*
X115005904Y-135332626I-1863570J-1304886D01*
G01*
D13*
X219491200Y-68220800D02*
X219491200Y-67693200D01*
X218983200Y-68220800D02*
X219491200Y-68220800D01*
D11*
X218100000Y-76025000D02*
X218100000Y-78675000D01*
X217100000Y-79675000D02*
X214500000Y-79675000D01*
X217100000Y-75025000D02*
X214525000Y-75025000D01*
X212075000Y-72825000D02*
X213350000Y-73850000D01*
X212075000Y-72825000D02*
X209525000Y-72825000D01*
X211500000Y-77475000D02*
X209525000Y-77475000D01*
X208500000Y-76450000D02*
X209525000Y-77475000D01*
X208500000Y-73850000D02*
X209525000Y-72825000D01*
X208500000Y-73850000D02*
X208500000Y-76450000D01*
X217100000Y-79675000D02*
G75*
G03*
X218100000Y-78675000I1J999999D01*
G01*
X218100000Y-76025000D02*
G75*
G03*
X217100000Y-75025000I-999999J1D01*
G01*
X213350000Y-73850000D02*
G75*
G03*
X214525000Y-75025000I1175000J0D01*
G01*
X213637798Y-78971905D02*
G75*
G03*
X214499005Y-79673790I900002J225005D01*
G01*
X213637801Y-78971904D02*
G75*
G03*
X211500000Y-77475000I-2137801J-778096D01*
G01*
D13*
X219491200Y-87270800D02*
X219491200Y-86743200D01*
X218983200Y-87270800D02*
X219491200Y-87270800D01*
D11*
X218100000Y-95075000D02*
X218100000Y-97725000D01*
X217100000Y-98725000D02*
X214500000Y-98725000D01*
X217100000Y-94075000D02*
X214525000Y-94075000D01*
X212075000Y-91875000D02*
X213350000Y-92900000D01*
X212075000Y-91875000D02*
X209525000Y-91875000D01*
X211500000Y-96525000D02*
X209525000Y-96525000D01*
X208500000Y-95500000D02*
X209525000Y-96525000D01*
X208500000Y-92900000D02*
X209525000Y-91875000D01*
X208500000Y-92900000D02*
X208500000Y-95500000D01*
X217100000Y-98725000D02*
G75*
G03*
X218100000Y-97725000I1J999999D01*
G01*
X218100000Y-95075000D02*
G75*
G03*
X217100000Y-94075000I-999999J1D01*
G01*
X213350000Y-92900000D02*
G75*
G03*
X214525000Y-94075000I1175000J0D01*
G01*
X213637798Y-98021905D02*
G75*
G03*
X214499005Y-98723790I900002J225005D01*
G01*
X213637801Y-98021904D02*
G75*
G03*
X211500000Y-96525000I-2137801J-778096D01*
G01*
D13*
X219491200Y-106320800D02*
X219491200Y-105793200D01*
X218983200Y-106320800D02*
X219491200Y-106320800D01*
D11*
X218100000Y-114125000D02*
X218100000Y-116775000D01*
X217100000Y-117775000D02*
X214500000Y-117775000D01*
X217100000Y-113125000D02*
X214525000Y-113125000D01*
X212075000Y-110925000D02*
X213350000Y-111950000D01*
X212075000Y-110925000D02*
X209525000Y-110925000D01*
X211500000Y-115575000D02*
X209525000Y-115575000D01*
X208500000Y-114550000D02*
X209525000Y-115575000D01*
X208500000Y-111950000D02*
X209525000Y-110925000D01*
X208500000Y-111950000D02*
X208500000Y-114550000D01*
X217100000Y-117775000D02*
G75*
G03*
X218100000Y-116775000I1J999999D01*
G01*
X218100000Y-114125000D02*
G75*
G03*
X217100000Y-113125000I-999999J1D01*
G01*
X213350000Y-111950000D02*
G75*
G03*
X214525000Y-113125000I1175000J0D01*
G01*
X213637798Y-117071905D02*
G75*
G03*
X214499005Y-117773790I900002J225005D01*
G01*
X213637801Y-117071904D02*
G75*
G03*
X211500000Y-115575000I-2137801J-778096D01*
G01*
D13*
X181391200Y-44270800D02*
X181391200Y-43743200D01*
X180883200Y-44270800D02*
X181391200Y-44270800D01*
D11*
X180000000Y-52075000D02*
X180000000Y-54725000D01*
X179000000Y-55725000D02*
X176400000Y-55725000D01*
X179000000Y-51075000D02*
X176425000Y-51075000D01*
X173975000Y-48875000D02*
X175250000Y-49900000D01*
X173975000Y-48875000D02*
X171425000Y-48875000D01*
X173400000Y-53525000D02*
X171425000Y-53525000D01*
X170400000Y-52500000D02*
X171425000Y-53525000D01*
X170400000Y-49900000D02*
X171425000Y-48875000D01*
X170400000Y-49900000D02*
X170400000Y-52500000D01*
X179000000Y-55725000D02*
G75*
G03*
X180000000Y-54725000I1J999999D01*
G01*
X180000000Y-52075000D02*
G75*
G03*
X179000000Y-51075000I-999999J1D01*
G01*
X175250000Y-49900000D02*
G75*
G03*
X176425000Y-51075000I1175000J0D01*
G01*
X175537798Y-55021905D02*
G75*
G03*
X176399005Y-55723790I900002J225005D01*
G01*
X175537801Y-55021904D02*
G75*
G03*
X173400000Y-53525000I-2137801J-778096D01*
G01*
D12*
X128625000Y-64575000D02*
X128625000Y-64975000D01*
X128625000Y-64975000D02*
X129175000Y-64975000D01*
X128625000Y-64975000D02*
X128075000Y-64975000D01*
X128625000Y-64975000D02*
X128225000Y-65575000D01*
X129025000Y-65575000D02*
X128625000Y-64975000D01*
X128625000Y-65575000D02*
X128625000Y-66075000D01*
X128225000Y-65575000D02*
X129025000Y-65575000D01*
X147675000Y-61775000D02*
X147675000Y-62175000D01*
X147675000Y-62175000D02*
X148225000Y-62175000D01*
X147675000Y-62175000D02*
X147125000Y-62175000D01*
X147675000Y-62175000D02*
X147275000Y-62775000D01*
X148075000Y-62775000D02*
X147675000Y-62175000D01*
X147675000Y-62775000D02*
X147675000Y-63275000D01*
X147275000Y-62775000D02*
X148075000Y-62775000D01*
X150575000Y-59275000D02*
X150575000Y-59675000D01*
X150575000Y-59675000D02*
X151125000Y-59675000D01*
X150575000Y-59675000D02*
X150025000Y-59675000D01*
X150575000Y-59675000D02*
X150175000Y-60275000D01*
X150975000Y-60275000D02*
X150575000Y-59675000D01*
X150575000Y-60275000D02*
X150575000Y-60775000D01*
X150175000Y-60275000D02*
X150975000Y-60275000D01*
X169625000Y-61775000D02*
X169625000Y-62175000D01*
X169625000Y-62175000D02*
X170175000Y-62175000D01*
X169625000Y-62175000D02*
X169075000Y-62175000D01*
X169625000Y-62175000D02*
X169225000Y-62775000D01*
X170025000Y-62775000D02*
X169625000Y-62175000D01*
X169625000Y-62775000D02*
X169625000Y-63275000D01*
X169225000Y-62775000D02*
X170025000Y-62775000D01*
X188675000Y-66675000D02*
X188675000Y-67075000D01*
X188675000Y-67075000D02*
X189225000Y-67075000D01*
X188675000Y-67075000D02*
X188125000Y-67075000D01*
X188675000Y-67075000D02*
X188275000Y-67675000D01*
X189075000Y-67675000D02*
X188675000Y-67075000D01*
X188675000Y-67675000D02*
X188675000Y-68175000D01*
X188275000Y-67675000D02*
X189075000Y-67675000D01*
X223875000Y-66675000D02*
X223875000Y-67075000D01*
X223875000Y-67075000D02*
X224425000Y-67075000D01*
X223875000Y-67075000D02*
X223325000Y-67075000D01*
X223875000Y-67075000D02*
X223475000Y-67675000D01*
X224275000Y-67675000D02*
X223875000Y-67075000D01*
X223875000Y-67675000D02*
X223875000Y-68175000D01*
X223475000Y-67675000D02*
X224275000Y-67675000D01*
D13*
X200441200Y-49170800D02*
X200441200Y-48643200D01*
X199933200Y-49170800D02*
X200441200Y-49170800D01*
D11*
X199050000Y-56975000D02*
X199050000Y-59625000D01*
X198050000Y-60625000D02*
X195450000Y-60625000D01*
X198050000Y-55975000D02*
X195475000Y-55975000D01*
X193025000Y-53775000D02*
X194300000Y-54800000D01*
X193025000Y-53775000D02*
X190475000Y-53775000D01*
X192450000Y-58425000D02*
X190475000Y-58425000D01*
X189450000Y-57400000D02*
X190475000Y-58425000D01*
X189450000Y-54800000D02*
X190475000Y-53775000D01*
X189450000Y-54800000D02*
X189450000Y-57400000D01*
X198050000Y-60625000D02*
G75*
G03*
X199050000Y-59625000I1J999999D01*
G01*
X199050000Y-56975000D02*
G75*
G03*
X198050000Y-55975000I-999999J1D01*
G01*
X194300000Y-54800000D02*
G75*
G03*
X195475000Y-55975000I1175000J0D01*
G01*
X194587798Y-59921905D02*
G75*
G03*
X195449005Y-60623790I900002J225005D01*
G01*
X194587801Y-59921904D02*
G75*
G03*
X192450000Y-58425000I-2137801J-778096D01*
G01*
D13*
X143291200Y-63320800D02*
X143291200Y-62793200D01*
X142783200Y-63320800D02*
X143291200Y-63320800D01*
D11*
X141900000Y-71125000D02*
X141900000Y-73775000D01*
X140900000Y-74775000D02*
X138300000Y-74775000D01*
X140900000Y-70125000D02*
X138325000Y-70125000D01*
X135875000Y-67925000D02*
X137150000Y-68950000D01*
X135875000Y-67925000D02*
X133325000Y-67925000D01*
X135300000Y-72575000D02*
X133325000Y-72575000D01*
X132300000Y-71550000D02*
X133325000Y-72575000D01*
X132300000Y-68950000D02*
X133325000Y-67925000D01*
X132300000Y-68950000D02*
X132300000Y-71550000D01*
X140900000Y-74775000D02*
G75*
G03*
X141900000Y-73775000I1J999999D01*
G01*
X141900000Y-71125000D02*
G75*
G03*
X140900000Y-70125000I-999999J1D01*
G01*
X137150000Y-68950000D02*
G75*
G03*
X138325000Y-70125000I1175000J0D01*
G01*
X137437798Y-74071905D02*
G75*
G03*
X138299005Y-74773790I900002J225005D01*
G01*
X137437801Y-74071904D02*
G75*
G03*
X135300000Y-72575000I-2137801J-778096D01*
G01*
D13*
X181391200Y-63320800D02*
X181391200Y-62793200D01*
X180883200Y-63320800D02*
X181391200Y-63320800D01*
D11*
X180000000Y-71125000D02*
X180000000Y-73775000D01*
X179000000Y-74775000D02*
X176400000Y-74775000D01*
X179000000Y-70125000D02*
X176425000Y-70125000D01*
X173975000Y-67925000D02*
X175250000Y-68950000D01*
X173975000Y-67925000D02*
X171425000Y-67925000D01*
X173400000Y-72575000D02*
X171425000Y-72575000D01*
X170400000Y-71550000D02*
X171425000Y-72575000D01*
X170400000Y-68950000D02*
X171425000Y-67925000D01*
X170400000Y-68950000D02*
X170400000Y-71550000D01*
X179000000Y-74775000D02*
G75*
G03*
X180000000Y-73775000I1J999999D01*
G01*
X180000000Y-71125000D02*
G75*
G03*
X179000000Y-70125000I-999999J1D01*
G01*
X175250000Y-68950000D02*
G75*
G03*
X176425000Y-70125000I1175000J0D01*
G01*
X175537798Y-74071905D02*
G75*
G03*
X176399005Y-74773790I900002J225005D01*
G01*
X175537801Y-74071904D02*
G75*
G03*
X173400000Y-72575000I-2137801J-778096D01*
G01*
D13*
X162341200Y-60820800D02*
X162341200Y-60293200D01*
X161833200Y-60820800D02*
X162341200Y-60820800D01*
D11*
X160950000Y-68625000D02*
X160950000Y-71275000D01*
X159950000Y-72275000D02*
X157350000Y-72275000D01*
X159950000Y-67625000D02*
X157375000Y-67625000D01*
X154925000Y-65425000D02*
X156200000Y-66450000D01*
X154925000Y-65425000D02*
X152375000Y-65425000D01*
X154350000Y-70075000D02*
X152375000Y-70075000D01*
X151350000Y-69050000D02*
X152375000Y-70075000D01*
X151350000Y-66450000D02*
X152375000Y-65425000D01*
X151350000Y-66450000D02*
X151350000Y-69050000D01*
X159950000Y-72275000D02*
G75*
G03*
X160950000Y-71275000I1J999999D01*
G01*
X160950000Y-68625000D02*
G75*
G03*
X159950000Y-67625000I-999999J1D01*
G01*
X156200000Y-66450000D02*
G75*
G03*
X157375000Y-67625000I1175000J0D01*
G01*
X156487798Y-71571905D02*
G75*
G03*
X157349005Y-72273790I900002J225005D01*
G01*
X156487801Y-71571904D02*
G75*
G03*
X154350000Y-70075000I-2137801J-778096D01*
G01*
D13*
X181391200Y-82370800D02*
X181391200Y-81843200D01*
X180883200Y-82370800D02*
X181391200Y-82370800D01*
D11*
X180000000Y-90175000D02*
X180000000Y-92825000D01*
X179000000Y-93825000D02*
X176400000Y-93825000D01*
X179000000Y-89175000D02*
X176425000Y-89175000D01*
X173975000Y-86975000D02*
X175250000Y-88000000D01*
X173975000Y-86975000D02*
X171425000Y-86975000D01*
X173400000Y-91625000D02*
X171425000Y-91625000D01*
X170400000Y-90600000D02*
X171425000Y-91625000D01*
X170400000Y-88000000D02*
X171425000Y-86975000D01*
X170400000Y-88000000D02*
X170400000Y-90600000D01*
X179000000Y-93825000D02*
G75*
G03*
X180000000Y-92825000I1J999999D01*
G01*
X180000000Y-90175000D02*
G75*
G03*
X179000000Y-89175000I-999999J1D01*
G01*
X175250000Y-88000000D02*
G75*
G03*
X176425000Y-89175000I1175000J0D01*
G01*
X175537798Y-93121905D02*
G75*
G03*
X176399005Y-93823790I900002J225005D01*
G01*
X175537801Y-93121904D02*
G75*
G03*
X173400000Y-91625000I-2137801J-778096D01*
G01*
D13*
X219491200Y-49170800D02*
X219491200Y-48643200D01*
X218983200Y-49170800D02*
X219491200Y-49170800D01*
D11*
X218100000Y-56975000D02*
X218100000Y-59625000D01*
X217100000Y-60625000D02*
X214500000Y-60625000D01*
X217100000Y-55975000D02*
X214525000Y-55975000D01*
X212075000Y-53775000D02*
X213350000Y-54800000D01*
X212075000Y-53775000D02*
X209525000Y-53775000D01*
X211500000Y-58425000D02*
X209525000Y-58425000D01*
X208500000Y-57400000D02*
X209525000Y-58425000D01*
X208500000Y-54800000D02*
X209525000Y-53775000D01*
X208500000Y-54800000D02*
X208500000Y-57400000D01*
X217100000Y-60625000D02*
G75*
G03*
X218100000Y-59625000I1J999999D01*
G01*
X218100000Y-56975000D02*
G75*
G03*
X217100000Y-55975000I-999999J1D01*
G01*
X213350000Y-54800000D02*
G75*
G03*
X214525000Y-55975000I1175000J0D01*
G01*
X213637798Y-59921905D02*
G75*
G03*
X214499005Y-60623790I900002J225005D01*
G01*
X213637801Y-59921904D02*
G75*
G03*
X211500000Y-58425000I-2137801J-778096D01*
G01*
D13*
X124241200Y-65870800D02*
X124241200Y-65343200D01*
X123733200Y-65870800D02*
X124241200Y-65870800D01*
D11*
X122850000Y-73675000D02*
X122850000Y-76325000D01*
X121850000Y-77325000D02*
X119250000Y-77325000D01*
X121850000Y-72675000D02*
X119275000Y-72675000D01*
X116825000Y-70475000D02*
X118100000Y-71500000D01*
X116825000Y-70475000D02*
X114275000Y-70475000D01*
X116250000Y-75125000D02*
X114275000Y-75125000D01*
X113250000Y-74100000D02*
X114275000Y-75125000D01*
X113250000Y-71500000D02*
X114275000Y-70475000D01*
X113250000Y-71500000D02*
X113250000Y-74100000D01*
X121850000Y-77325000D02*
G75*
G03*
X122850000Y-76325000I1J999999D01*
G01*
X122850000Y-73675000D02*
G75*
G03*
X121850000Y-72675000I-999999J1D01*
G01*
X118100000Y-71500000D02*
G75*
G03*
X119275000Y-72675000I1175000J0D01*
G01*
X118387798Y-76621905D02*
G75*
G03*
X119249005Y-77323790I900002J225005D01*
G01*
X118387801Y-76621904D02*
G75*
G03*
X116250000Y-75125000I-2137801J-778096D01*
G01*
D13*
X181391200Y-120470800D02*
X181391200Y-119943200D01*
X180883200Y-120470800D02*
X181391200Y-120470800D01*
D11*
X180000000Y-128275000D02*
X180000000Y-130925000D01*
X179000000Y-131925000D02*
X176400000Y-131925000D01*
X179000000Y-127275000D02*
X176425000Y-127275000D01*
X173975000Y-125075000D02*
X175250000Y-126100000D01*
X173975000Y-125075000D02*
X171425000Y-125075000D01*
X173400000Y-129725000D02*
X171425000Y-129725000D01*
X170400000Y-128700000D02*
X171425000Y-129725000D01*
X170400000Y-126100000D02*
X171425000Y-125075000D01*
X170400000Y-126100000D02*
X170400000Y-128700000D01*
X179000000Y-131925000D02*
G75*
G03*
X180000000Y-130925000I1J999999D01*
G01*
X180000000Y-128275000D02*
G75*
G03*
X179000000Y-127275000I-999999J1D01*
G01*
X175250000Y-126100000D02*
G75*
G03*
X176425000Y-127275000I1175000J0D01*
G01*
X175537798Y-131221905D02*
G75*
G03*
X176399005Y-131923790I900002J225005D01*
G01*
X175537801Y-131221904D02*
G75*
G03*
X173400000Y-129725000I-2137801J-778096D01*
G01*
D13*
X200441200Y-68220800D02*
X200441200Y-67693200D01*
X199933200Y-68220800D02*
X200441200Y-68220800D01*
D11*
X199050000Y-76025000D02*
X199050000Y-78675000D01*
X198050000Y-79675000D02*
X195450000Y-79675000D01*
X198050000Y-75025000D02*
X195475000Y-75025000D01*
X193025000Y-72825000D02*
X194300000Y-73850000D01*
X193025000Y-72825000D02*
X190475000Y-72825000D01*
X192450000Y-77475000D02*
X190475000Y-77475000D01*
X189450000Y-76450000D02*
X190475000Y-77475000D01*
X189450000Y-73850000D02*
X190475000Y-72825000D01*
X189450000Y-73850000D02*
X189450000Y-76450000D01*
X198050000Y-79675000D02*
G75*
G03*
X199050000Y-78675000I1J999999D01*
G01*
X199050000Y-76025000D02*
G75*
G03*
X198050000Y-75025000I-999999J1D01*
G01*
X194300000Y-73850000D02*
G75*
G03*
X195475000Y-75025000I1175000J0D01*
G01*
X194587798Y-78971905D02*
G75*
G03*
X195449005Y-79673790I900002J225005D01*
G01*
X194587801Y-78971904D02*
G75*
G03*
X192450000Y-77475000I-2137801J-778096D01*
G01*
D13*
X181391200Y-101420800D02*
X181391200Y-100893200D01*
X180883200Y-101420800D02*
X181391200Y-101420800D01*
D11*
X180000000Y-109225000D02*
X180000000Y-111875000D01*
X179000000Y-112875000D02*
X176400000Y-112875000D01*
X179000000Y-108225000D02*
X176425000Y-108225000D01*
X173975000Y-106025000D02*
X175250000Y-107050000D01*
X173975000Y-106025000D02*
X171425000Y-106025000D01*
X173400000Y-110675000D02*
X171425000Y-110675000D01*
X170400000Y-109650000D02*
X171425000Y-110675000D01*
X170400000Y-107050000D02*
X171425000Y-106025000D01*
X170400000Y-107050000D02*
X170400000Y-109650000D01*
X179000000Y-112875000D02*
G75*
G03*
X180000000Y-111875000I1J999999D01*
G01*
X180000000Y-109225000D02*
G75*
G03*
X179000000Y-108225000I-999999J1D01*
G01*
X175250000Y-107050000D02*
G75*
G03*
X176425000Y-108225000I1175000J0D01*
G01*
X175537798Y-112171905D02*
G75*
G03*
X176399005Y-112873790I900002J225005D01*
G01*
X175537801Y-112171904D02*
G75*
G03*
X173400000Y-110675000I-2137801J-778096D01*
G01*
D13*
X200441200Y-87270800D02*
X200441200Y-86743200D01*
X199933200Y-87270800D02*
X200441200Y-87270800D01*
D11*
X199050000Y-95075000D02*
X199050000Y-97725000D01*
X198050000Y-98725000D02*
X195450000Y-98725000D01*
X198050000Y-94075000D02*
X195475000Y-94075000D01*
X193025000Y-91875000D02*
X194300000Y-92900000D01*
X193025000Y-91875000D02*
X190475000Y-91875000D01*
X192450000Y-96525000D02*
X190475000Y-96525000D01*
X189450000Y-95500000D02*
X190475000Y-96525000D01*
X189450000Y-92900000D02*
X190475000Y-91875000D01*
X189450000Y-92900000D02*
X189450000Y-95500000D01*
X198050000Y-98725000D02*
G75*
G03*
X199050000Y-97725000I1J999999D01*
G01*
X199050000Y-95075000D02*
G75*
G03*
X198050000Y-94075000I-999999J1D01*
G01*
X194300000Y-92900000D02*
G75*
G03*
X195475000Y-94075000I1175000J0D01*
G01*
X194587798Y-98021905D02*
G75*
G03*
X195449005Y-98723790I900002J225005D01*
G01*
X194587801Y-98021904D02*
G75*
G03*
X192450000Y-96525000I-2137801J-778096D01*
G01*
D13*
X162341200Y-117970800D02*
X162341200Y-117443200D01*
X161833200Y-117970800D02*
X162341200Y-117970800D01*
D11*
X160950000Y-125775000D02*
X160950000Y-128425000D01*
X159950000Y-129425000D02*
X157350000Y-129425000D01*
X159950000Y-124775000D02*
X157375000Y-124775000D01*
X154925000Y-122575000D02*
X156200000Y-123600000D01*
X154925000Y-122575000D02*
X152375000Y-122575000D01*
X154350000Y-127225000D02*
X152375000Y-127225000D01*
X151350000Y-126200000D02*
X152375000Y-127225000D01*
X151350000Y-123600000D02*
X152375000Y-122575000D01*
X151350000Y-123600000D02*
X151350000Y-126200000D01*
X159950000Y-129425000D02*
G75*
G03*
X160950000Y-128425000I1J999999D01*
G01*
X160950000Y-125775000D02*
G75*
G03*
X159950000Y-124775000I-999999J1D01*
G01*
X156200000Y-123600000D02*
G75*
G03*
X157375000Y-124775000I1175000J0D01*
G01*
X156487798Y-128721905D02*
G75*
G03*
X157349005Y-129423790I900002J225005D01*
G01*
X156487801Y-128721904D02*
G75*
G03*
X154350000Y-127225000I-2137801J-778096D01*
G01*
D13*
X162341200Y-79870800D02*
X162341200Y-79343200D01*
X161833200Y-79870800D02*
X162341200Y-79870800D01*
D11*
X160950000Y-87675000D02*
X160950000Y-90325000D01*
X159950000Y-91325000D02*
X157350000Y-91325000D01*
X159950000Y-86675000D02*
X157375000Y-86675000D01*
X154925000Y-84475000D02*
X156200000Y-85500000D01*
X154925000Y-84475000D02*
X152375000Y-84475000D01*
X154350000Y-89125000D02*
X152375000Y-89125000D01*
X151350000Y-88100000D02*
X152375000Y-89125000D01*
X151350000Y-85500000D02*
X152375000Y-84475000D01*
X151350000Y-85500000D02*
X151350000Y-88100000D01*
X159950000Y-91325000D02*
G75*
G03*
X160950000Y-90325000I1J999999D01*
G01*
X160950000Y-87675000D02*
G75*
G03*
X159950000Y-86675000I-999999J1D01*
G01*
X156200000Y-85500000D02*
G75*
G03*
X157375000Y-86675000I1175000J0D01*
G01*
X156487798Y-90621905D02*
G75*
G03*
X157349005Y-91323790I900002J225005D01*
G01*
X156487801Y-90621904D02*
G75*
G03*
X154350000Y-89125000I-2137801J-778096D01*
G01*
D13*
X143291200Y-44270800D02*
X143291200Y-43743200D01*
X142783200Y-44270800D02*
X143291200Y-44270800D01*
D11*
X141900000Y-52075000D02*
X141900000Y-54725000D01*
X140900000Y-55725000D02*
X138300000Y-55725000D01*
X140900000Y-51075000D02*
X138325000Y-51075000D01*
X135875000Y-48875000D02*
X137150000Y-49900000D01*
X135875000Y-48875000D02*
X133325000Y-48875000D01*
X135300000Y-53525000D02*
X133325000Y-53525000D01*
X132300000Y-52500000D02*
X133325000Y-53525000D01*
X132300000Y-49900000D02*
X133325000Y-48875000D01*
X132300000Y-49900000D02*
X132300000Y-52500000D01*
X140900000Y-55725000D02*
G75*
G03*
X141900000Y-54725000I1J999999D01*
G01*
X141900000Y-52075000D02*
G75*
G03*
X140900000Y-51075000I-999999J1D01*
G01*
X137150000Y-49900000D02*
G75*
G03*
X138325000Y-51075000I1175000J0D01*
G01*
X137437798Y-55021905D02*
G75*
G03*
X138299005Y-55723790I900002J225005D01*
G01*
X137437801Y-55021904D02*
G75*
G03*
X135300000Y-53525000I-2137801J-778096D01*
G01*
D12*
X128640000Y-123260000D02*
X128640000Y-123660000D01*
X128640000Y-123660000D02*
X129190000Y-123660000D01*
X128640000Y-123660000D02*
X128090000Y-123660000D01*
X128640000Y-123660000D02*
X128240000Y-124260000D01*
X129040000Y-124260000D02*
X128640000Y-123660000D01*
X128640000Y-124260000D02*
X128640000Y-124760000D01*
X128240000Y-124260000D02*
X129040000Y-124260000D01*
D13*
X143291200Y-101420800D02*
X143291200Y-100893200D01*
X142783200Y-101420800D02*
X143291200Y-101420800D01*
D11*
X141900000Y-109225000D02*
X141900000Y-111875000D01*
X140900000Y-112875000D02*
X138300000Y-112875000D01*
X140900000Y-108225000D02*
X138325000Y-108225000D01*
X135875000Y-106025000D02*
X137150000Y-107050000D01*
X135875000Y-106025000D02*
X133325000Y-106025000D01*
X135300000Y-110675000D02*
X133325000Y-110675000D01*
X132300000Y-109650000D02*
X133325000Y-110675000D01*
X132300000Y-107050000D02*
X133325000Y-106025000D01*
X132300000Y-107050000D02*
X132300000Y-109650000D01*
X140900000Y-112875000D02*
G75*
G03*
X141900000Y-111875000I1J999999D01*
G01*
X141900000Y-109225000D02*
G75*
G03*
X140900000Y-108225000I-999999J1D01*
G01*
X137150000Y-107050000D02*
G75*
G03*
X138325000Y-108225000I1175000J0D01*
G01*
X137437798Y-112171905D02*
G75*
G03*
X138299005Y-112873790I900002J225005D01*
G01*
X137437801Y-112171904D02*
G75*
G03*
X135300000Y-110675000I-2137801J-778096D01*
G01*
D12*
X150575000Y-78325000D02*
X150575000Y-78725000D01*
X150575000Y-78725000D02*
X151125000Y-78725000D01*
X150575000Y-78725000D02*
X150025000Y-78725000D01*
X150575000Y-78725000D02*
X150175000Y-79325000D01*
X150975000Y-79325000D02*
X150575000Y-78725000D01*
X150575000Y-79325000D02*
X150575000Y-79825000D01*
X150175000Y-79325000D02*
X150975000Y-79325000D01*
X169625000Y-80825000D02*
X169625000Y-81225000D01*
X169625000Y-81225000D02*
X170175000Y-81225000D01*
X169625000Y-81225000D02*
X169075000Y-81225000D01*
X169625000Y-81225000D02*
X169225000Y-81825000D01*
X170025000Y-81825000D02*
X169625000Y-81225000D01*
X169625000Y-81825000D02*
X169625000Y-82325000D01*
X169225000Y-81825000D02*
X170025000Y-81825000D01*
X188675000Y-85725000D02*
X188675000Y-86125000D01*
X188675000Y-86125000D02*
X189225000Y-86125000D01*
X188675000Y-86125000D02*
X188125000Y-86125000D01*
X188675000Y-86125000D02*
X188275000Y-86725000D01*
X189075000Y-86725000D02*
X188675000Y-86125000D01*
X188675000Y-86725000D02*
X188675000Y-87225000D01*
X188275000Y-86725000D02*
X189075000Y-86725000D01*
X223875000Y-85725000D02*
X223875000Y-86125000D01*
X223875000Y-86125000D02*
X224425000Y-86125000D01*
X223875000Y-86125000D02*
X223325000Y-86125000D01*
X223875000Y-86125000D02*
X223475000Y-86725000D01*
X224275000Y-86725000D02*
X223875000Y-86125000D01*
X223875000Y-86725000D02*
X223875000Y-87225000D01*
X223475000Y-86725000D02*
X224275000Y-86725000D01*
X147675000Y-118925000D02*
X147675000Y-119325000D01*
X147675000Y-119325000D02*
X148225000Y-119325000D01*
X147675000Y-119325000D02*
X147125000Y-119325000D01*
X147675000Y-119325000D02*
X147275000Y-119925000D01*
X148075000Y-119925000D02*
X147675000Y-119325000D01*
X147675000Y-119925000D02*
X147675000Y-120425000D01*
X147275000Y-119925000D02*
X148075000Y-119925000D01*
X150575000Y-116425000D02*
X150575000Y-116825000D01*
X150575000Y-116825000D02*
X151125000Y-116825000D01*
X150575000Y-116825000D02*
X150025000Y-116825000D01*
X150575000Y-116825000D02*
X150175000Y-117425000D01*
X150975000Y-117425000D02*
X150575000Y-116825000D01*
X150575000Y-117425000D02*
X150575000Y-117925000D01*
X150175000Y-117425000D02*
X150975000Y-117425000D01*
X223875000Y-104775000D02*
X223875000Y-105175000D01*
X223875000Y-105175000D02*
X224425000Y-105175000D01*
X223875000Y-105175000D02*
X223325000Y-105175000D01*
X223875000Y-105175000D02*
X223475000Y-105775000D01*
X224275000Y-105775000D02*
X223875000Y-105175000D01*
X223875000Y-105775000D02*
X223875000Y-106275000D01*
X223475000Y-105775000D02*
X224275000Y-105775000D01*
X147675000Y-99875000D02*
X147675000Y-100275000D01*
X147675000Y-100275000D02*
X148225000Y-100275000D01*
X147675000Y-100275000D02*
X147125000Y-100275000D01*
X147675000Y-100275000D02*
X147275000Y-100875000D01*
X148075000Y-100875000D02*
X147675000Y-100275000D01*
X147675000Y-100875000D02*
X147675000Y-101375000D01*
X147275000Y-100875000D02*
X148075000Y-100875000D01*
X150575000Y-97375000D02*
X150575000Y-97775000D01*
X150575000Y-97775000D02*
X151125000Y-97775000D01*
X150575000Y-97775000D02*
X150025000Y-97775000D01*
X150575000Y-97775000D02*
X150175000Y-98375000D01*
X150975000Y-98375000D02*
X150575000Y-97775000D01*
X150575000Y-98375000D02*
X150575000Y-98875000D01*
X150175000Y-98375000D02*
X150975000Y-98375000D01*
X169625000Y-99875000D02*
X169625000Y-100275000D01*
X169625000Y-100275000D02*
X170175000Y-100275000D01*
X169625000Y-100275000D02*
X169075000Y-100275000D01*
X169625000Y-100275000D02*
X169225000Y-100875000D01*
X170025000Y-100875000D02*
X169625000Y-100275000D01*
X169625000Y-100875000D02*
X169625000Y-101375000D01*
X169225000Y-100875000D02*
X170025000Y-100875000D01*
X188675000Y-104775000D02*
X188675000Y-105175000D01*
X188675000Y-105175000D02*
X189225000Y-105175000D01*
X188675000Y-105175000D02*
X188125000Y-105175000D01*
X188675000Y-105175000D02*
X188275000Y-105775000D01*
X189075000Y-105775000D02*
X188675000Y-105175000D01*
X188675000Y-105775000D02*
X188675000Y-106275000D01*
X188275000Y-105775000D02*
X189075000Y-105775000D01*
X147675000Y-80825000D02*
X147675000Y-81225000D01*
X147675000Y-81225000D02*
X148225000Y-81225000D01*
X147675000Y-81225000D02*
X147125000Y-81225000D01*
X147675000Y-81225000D02*
X147275000Y-81825000D01*
X148075000Y-81825000D02*
X147675000Y-81225000D01*
X147675000Y-81825000D02*
X147675000Y-82325000D01*
X147275000Y-81825000D02*
X148075000Y-81825000D01*
X169625000Y-118925000D02*
X169625000Y-119325000D01*
X169625000Y-119325000D02*
X170175000Y-119325000D01*
X169625000Y-119325000D02*
X169075000Y-119325000D01*
X169625000Y-119325000D02*
X169225000Y-119925000D01*
X170025000Y-119925000D02*
X169625000Y-119325000D01*
X169625000Y-119925000D02*
X169625000Y-120425000D01*
X169225000Y-119925000D02*
X170025000Y-119925000D01*
D13*
X143291200Y-120470800D02*
X143291200Y-119943200D01*
X142783200Y-120470800D02*
X143291200Y-120470800D01*
D11*
X141900000Y-128275000D02*
X141900000Y-130925000D01*
X140900000Y-131925000D02*
X138300000Y-131925000D01*
X140900000Y-127275000D02*
X138325000Y-127275000D01*
X135875000Y-125075000D02*
X137150000Y-126100000D01*
X135875000Y-125075000D02*
X133325000Y-125075000D01*
X135300000Y-129725000D02*
X133325000Y-129725000D01*
X132300000Y-128700000D02*
X133325000Y-129725000D01*
X132300000Y-126100000D02*
X133325000Y-125075000D01*
X132300000Y-126100000D02*
X132300000Y-128700000D01*
X140900000Y-131925000D02*
G75*
G03*
X141900000Y-130925000I1J999999D01*
G01*
X141900000Y-128275000D02*
G75*
G03*
X140900000Y-127275000I-999999J1D01*
G01*
X137150000Y-126100000D02*
G75*
G03*
X138325000Y-127275000I1175000J0D01*
G01*
X137437798Y-131221905D02*
G75*
G03*
X138299005Y-131923790I900002J225005D01*
G01*
X137437801Y-131221904D02*
G75*
G03*
X135300000Y-129725000I-2137801J-778096D01*
G01*
X92180000Y-78740000D02*
X94180000Y-78740000D01*
X92180000Y-80740000D02*
X92180000Y-78740000D01*
X94180000Y-78740000D02*
X94180000Y-80740000D01*
X94180000Y-80740000D02*
X92180000Y-80740000D01*
X92180000Y-76498035D02*
X94180000Y-76498035D01*
X92180000Y-78498035D02*
X92180000Y-76498035D01*
X94180000Y-76498035D02*
X94180000Y-78498035D01*
X94180000Y-78498035D02*
X92180000Y-78498035D01*
D13*
X124241200Y-103920800D02*
X124241200Y-103393200D01*
X123733200Y-103920800D02*
X124241200Y-103920800D01*
D11*
X122850000Y-111725000D02*
X122850000Y-114375000D01*
X121850000Y-115375000D02*
X119250000Y-115375000D01*
X121850000Y-110725000D02*
X119275000Y-110725000D01*
X116825000Y-108525000D02*
X118100000Y-109550000D01*
X116825000Y-108525000D02*
X114275000Y-108525000D01*
X116250000Y-113175000D02*
X114275000Y-113175000D01*
X113250000Y-112150000D02*
X114275000Y-113175000D01*
X113250000Y-109550000D02*
X114275000Y-108525000D01*
X113250000Y-109550000D02*
X113250000Y-112150000D01*
X121850000Y-115375000D02*
G75*
G03*
X122850000Y-114375000I1J999999D01*
G01*
X122850000Y-111725000D02*
G75*
G03*
X121850000Y-110725000I-999999J1D01*
G01*
X118100000Y-109550000D02*
G75*
G03*
X119275000Y-110725000I1175000J0D01*
G01*
X118387798Y-114671905D02*
G75*
G03*
X119249005Y-115373790I900002J225005D01*
G01*
X118387801Y-114671904D02*
G75*
G03*
X116250000Y-113175000I-2137801J-778096D01*
G01*
X100811000Y-70443000D02*
X102589000Y-70443000D01*
X102589000Y-70443000D02*
X102589000Y-68157000D01*
X100811000Y-68157000D02*
X100811000Y-70443000D01*
X102589000Y-68157000D02*
X100811000Y-68157000D01*
X98311000Y-70443000D02*
X100089000Y-70443000D01*
X100089000Y-70443000D02*
X100089000Y-68157000D01*
X98311000Y-68157000D02*
X98311000Y-70443000D01*
X100089000Y-68157000D02*
X98311000Y-68157000D01*
X95811000Y-70443000D02*
X97589000Y-70443000D01*
X97589000Y-70443000D02*
X97589000Y-68157000D01*
X95811000Y-68157000D02*
X95811000Y-70443000D01*
X97589000Y-68157000D02*
X95811000Y-68157000D01*
X103411000Y-70443000D02*
X105189000Y-70443000D01*
X105189000Y-70443000D02*
X105189000Y-68157000D01*
X103411000Y-68157000D02*
X103411000Y-70443000D01*
X105189000Y-68157000D02*
X103411000Y-68157000D01*
D14*
X108718815Y-42425745D03*
X108718815Y-44965745D03*
X108718815Y-47505745D03*
X108718815Y-50045745D03*
X108718815Y-52585745D03*
X108718815Y-55125745D03*
X108718815Y-57665745D03*
X108718815Y-60205745D03*
X108718815Y-62745745D03*
X108718815Y-65285745D03*
X108718815Y-67825745D03*
X108718815Y-70365745D03*
X93478815Y-70365745D03*
X93478815Y-67825745D03*
X93478815Y-65285745D03*
X93478815Y-62745745D03*
X93478815Y-60205745D03*
X93478815Y-57665745D03*
X93478815Y-55125745D03*
X93478815Y-52585745D03*
X93478815Y-50045745D03*
X93478815Y-47505745D03*
X93478815Y-44965745D03*
X93478815Y-42425745D03*
%LPC*%
G36*
X124100000Y-44760000D02*
G01*
X122400000Y-44760000D01*
X122400000Y-44010000D01*
X124100000Y-44010000D01*
X124100000Y-44760000D01*
G37*
D12*
X124100000Y-44760000D02*
X122400000Y-44760000D01*
X122400000Y-44010000D01*
X124100000Y-44010000D01*
X124100000Y-44760000D01*
G36*
X118700000Y-46510000D02*
G01*
X117000000Y-46510000D01*
X117000000Y-45760000D01*
X118700000Y-45760000D01*
X118700000Y-46510000D01*
G37*
X118700000Y-46510000D02*
X117000000Y-46510000D01*
X117000000Y-45760000D01*
X118700000Y-45760000D01*
X118700000Y-46510000D01*
G36*
X118700000Y-44760000D02*
G01*
X117000000Y-44760000D01*
X117000000Y-44010000D01*
X118700000Y-44010000D01*
X118700000Y-44760000D01*
G37*
X118700000Y-44760000D02*
X117000000Y-44760000D01*
X117000000Y-44010000D01*
X118700000Y-44010000D01*
X118700000Y-44760000D01*
G36*
X124100000Y-46077500D02*
G01*
X123692941Y-46510000D01*
X122400000Y-46510000D01*
X122400000Y-45760000D01*
X124100000Y-45760000D01*
X124100000Y-46077500D01*
G37*
X124100000Y-46077500D02*
X123692941Y-46510000D01*
X122400000Y-46510000D01*
X122400000Y-45760000D01*
X124100000Y-45760000D01*
X124100000Y-46077500D01*
G36*
X162200000Y-39760000D02*
G01*
X160500000Y-39760000D01*
X160500000Y-39010000D01*
X162200000Y-39010000D01*
X162200000Y-39760000D01*
G37*
X162200000Y-39760000D02*
X160500000Y-39760000D01*
X160500000Y-39010000D01*
X162200000Y-39010000D01*
X162200000Y-39760000D01*
G36*
X156800000Y-41510000D02*
G01*
X155100000Y-41510000D01*
X155100000Y-40760000D01*
X156800000Y-40760000D01*
X156800000Y-41510000D01*
G37*
X156800000Y-41510000D02*
X155100000Y-41510000D01*
X155100000Y-40760000D01*
X156800000Y-40760000D01*
X156800000Y-41510000D01*
G36*
X156800000Y-39760000D02*
G01*
X155100000Y-39760000D01*
X155100000Y-39010000D01*
X156800000Y-39010000D01*
X156800000Y-39760000D01*
G37*
X156800000Y-39760000D02*
X155100000Y-39760000D01*
X155100000Y-39010000D01*
X156800000Y-39010000D01*
X156800000Y-39760000D01*
G36*
X162200000Y-41077500D02*
G01*
X161792941Y-41510000D01*
X160500000Y-41510000D01*
X160500000Y-40760000D01*
X162200000Y-40760000D01*
X162200000Y-41077500D01*
G37*
X162200000Y-41077500D02*
X161792941Y-41510000D01*
X160500000Y-41510000D01*
X160500000Y-40760000D01*
X162200000Y-40760000D01*
X162200000Y-41077500D01*
G36*
X124100000Y-82860000D02*
G01*
X122400000Y-82860000D01*
X122400000Y-82110000D01*
X124100000Y-82110000D01*
X124100000Y-82860000D01*
G37*
X124100000Y-82860000D02*
X122400000Y-82860000D01*
X122400000Y-82110000D01*
X124100000Y-82110000D01*
X124100000Y-82860000D01*
G36*
X118700000Y-84610000D02*
G01*
X117000000Y-84610000D01*
X117000000Y-83860000D01*
X118700000Y-83860000D01*
X118700000Y-84610000D01*
G37*
X118700000Y-84610000D02*
X117000000Y-84610000D01*
X117000000Y-83860000D01*
X118700000Y-83860000D01*
X118700000Y-84610000D01*
G36*
X118700000Y-82860000D02*
G01*
X117000000Y-82860000D01*
X117000000Y-82110000D01*
X118700000Y-82110000D01*
X118700000Y-82860000D01*
G37*
X118700000Y-82860000D02*
X117000000Y-82860000D01*
X117000000Y-82110000D01*
X118700000Y-82110000D01*
X118700000Y-82860000D01*
G36*
X124100000Y-84177500D02*
G01*
X123692941Y-84610000D01*
X122400000Y-84610000D01*
X122400000Y-83860000D01*
X124100000Y-83860000D01*
X124100000Y-84177500D01*
G37*
X124100000Y-84177500D02*
X123692941Y-84610000D01*
X122400000Y-84610000D01*
X122400000Y-83860000D01*
X124100000Y-83860000D01*
X124100000Y-84177500D01*
G36*
X143150000Y-80360000D02*
G01*
X141450000Y-80360000D01*
X141450000Y-79610000D01*
X143150000Y-79610000D01*
X143150000Y-80360000D01*
G37*
X143150000Y-80360000D02*
X141450000Y-80360000D01*
X141450000Y-79610000D01*
X143150000Y-79610000D01*
X143150000Y-80360000D01*
G36*
X137750000Y-82110000D02*
G01*
X136050000Y-82110000D01*
X136050000Y-81360000D01*
X137750000Y-81360000D01*
X137750000Y-82110000D01*
G37*
X137750000Y-82110000D02*
X136050000Y-82110000D01*
X136050000Y-81360000D01*
X137750000Y-81360000D01*
X137750000Y-82110000D01*
G36*
X137750000Y-80360000D02*
G01*
X136050000Y-80360000D01*
X136050000Y-79610000D01*
X137750000Y-79610000D01*
X137750000Y-80360000D01*
G37*
X137750000Y-80360000D02*
X136050000Y-80360000D01*
X136050000Y-79610000D01*
X137750000Y-79610000D01*
X137750000Y-80360000D01*
G36*
X143150000Y-81677500D02*
G01*
X142742941Y-82110000D01*
X141450000Y-82110000D01*
X141450000Y-81360000D01*
X143150000Y-81360000D01*
X143150000Y-81677500D01*
G37*
X143150000Y-81677500D02*
X142742941Y-82110000D01*
X141450000Y-82110000D01*
X141450000Y-81360000D01*
X143150000Y-81360000D01*
X143150000Y-81677500D01*
G36*
X162200000Y-96910000D02*
G01*
X160500000Y-96910000D01*
X160500000Y-96160000D01*
X162200000Y-96160000D01*
X162200000Y-96910000D01*
G37*
X162200000Y-96910000D02*
X160500000Y-96910000D01*
X160500000Y-96160000D01*
X162200000Y-96160000D01*
X162200000Y-96910000D01*
G36*
X156800000Y-98660000D02*
G01*
X155100000Y-98660000D01*
X155100000Y-97910000D01*
X156800000Y-97910000D01*
X156800000Y-98660000D01*
G37*
X156800000Y-98660000D02*
X155100000Y-98660000D01*
X155100000Y-97910000D01*
X156800000Y-97910000D01*
X156800000Y-98660000D01*
G36*
X156800000Y-96910000D02*
G01*
X155100000Y-96910000D01*
X155100000Y-96160000D01*
X156800000Y-96160000D01*
X156800000Y-96910000D01*
G37*
X156800000Y-96910000D02*
X155100000Y-96910000D01*
X155100000Y-96160000D01*
X156800000Y-96160000D01*
X156800000Y-96910000D01*
G36*
X162200000Y-98227500D02*
G01*
X161792941Y-98660000D01*
X160500000Y-98660000D01*
X160500000Y-97910000D01*
X162200000Y-97910000D01*
X162200000Y-98227500D01*
G37*
X162200000Y-98227500D02*
X161792941Y-98660000D01*
X160500000Y-98660000D01*
X160500000Y-97910000D01*
X162200000Y-97910000D01*
X162200000Y-98227500D01*
G36*
X200300000Y-104310000D02*
G01*
X198600000Y-104310000D01*
X198600000Y-103560000D01*
X200300000Y-103560000D01*
X200300000Y-104310000D01*
G37*
X200300000Y-104310000D02*
X198600000Y-104310000D01*
X198600000Y-103560000D01*
X200300000Y-103560000D01*
X200300000Y-104310000D01*
G36*
X194900000Y-106060000D02*
G01*
X193200000Y-106060000D01*
X193200000Y-105310000D01*
X194900000Y-105310000D01*
X194900000Y-106060000D01*
G37*
X194900000Y-106060000D02*
X193200000Y-106060000D01*
X193200000Y-105310000D01*
X194900000Y-105310000D01*
X194900000Y-106060000D01*
G36*
X194900000Y-104310000D02*
G01*
X193200000Y-104310000D01*
X193200000Y-103560000D01*
X194900000Y-103560000D01*
X194900000Y-104310000D01*
G37*
X194900000Y-104310000D02*
X193200000Y-104310000D01*
X193200000Y-103560000D01*
X194900000Y-103560000D01*
X194900000Y-104310000D01*
G36*
X200300000Y-105627500D02*
G01*
X199892941Y-106060000D01*
X198600000Y-106060000D01*
X198600000Y-105310000D01*
X200300000Y-105310000D01*
X200300000Y-105627500D01*
G37*
X200300000Y-105627500D02*
X199892941Y-106060000D01*
X198600000Y-106060000D01*
X198600000Y-105310000D01*
X200300000Y-105310000D01*
X200300000Y-105627500D01*
G36*
X103672492Y-133479390D02*
G01*
X103022973Y-133854390D01*
X102172973Y-132382147D01*
X102822492Y-132007147D01*
X103672492Y-133479390D01*
G37*
X103672492Y-133479390D02*
X103022973Y-133854390D01*
X102172973Y-132382147D01*
X102822492Y-132007147D01*
X103672492Y-133479390D01*
G36*
X99456948Y-129677853D02*
G01*
X98807429Y-130052853D01*
X97957429Y-128580610D01*
X98606948Y-128205610D01*
X99456948Y-129677853D01*
G37*
X99456948Y-129677853D02*
X98807429Y-130052853D01*
X97957429Y-128580610D01*
X98606948Y-128205610D01*
X99456948Y-129677853D01*
G36*
X100972492Y-128802853D02*
G01*
X100322973Y-129177853D01*
X99472973Y-127705610D01*
X100122492Y-127330610D01*
X100972492Y-128802853D01*
G37*
X100972492Y-128802853D02*
X100322973Y-129177853D01*
X99472973Y-127705610D01*
X100122492Y-127330610D01*
X100972492Y-128802853D01*
G36*
X102156948Y-134354390D02*
G01*
X101881985Y-134513140D01*
X101303899Y-134376867D01*
X100657429Y-133257147D01*
X101306948Y-132882147D01*
X102156948Y-134354390D01*
G37*
X102156948Y-134354390D02*
X101881985Y-134513140D01*
X101303899Y-134376867D01*
X100657429Y-133257147D01*
X101306948Y-132882147D01*
X102156948Y-134354390D01*
G36*
X119672825Y-122419741D02*
G01*
X118030751Y-122859733D01*
X117836637Y-122135289D01*
X119478711Y-121695297D01*
X119672825Y-122419741D01*
G37*
X119672825Y-122419741D02*
X118030751Y-122859733D01*
X117836637Y-122135289D01*
X119478711Y-121695297D01*
X119672825Y-122419741D01*
G36*
X114909759Y-125507734D02*
G01*
X113267685Y-125947726D01*
X113073571Y-125223282D01*
X114715644Y-124783290D01*
X114909759Y-125507734D01*
G37*
X114909759Y-125507734D02*
X113267685Y-125947726D01*
X113073571Y-125223282D01*
X114715644Y-124783290D01*
X114909759Y-125507734D01*
G36*
X114456825Y-123817364D02*
G01*
X112814752Y-124257356D01*
X112620637Y-123532912D01*
X114262711Y-123092920D01*
X114456825Y-123817364D01*
G37*
X114456825Y-123817364D02*
X112814752Y-124257356D01*
X112620637Y-123532912D01*
X114262711Y-123092920D01*
X114456825Y-123817364D01*
G36*
X120013819Y-123692348D02*
G01*
X119732569Y-124215466D01*
X118483684Y-124550104D01*
X118289570Y-123825659D01*
X119931644Y-123385667D01*
X120013819Y-123692348D01*
G37*
X120013819Y-123692348D02*
X119732569Y-124215466D01*
X118483684Y-124550104D01*
X118289570Y-123825659D01*
X119931644Y-123385667D01*
X120013819Y-123692348D01*
G36*
X219350000Y-66210000D02*
G01*
X217650000Y-66210000D01*
X217650000Y-65460000D01*
X219350000Y-65460000D01*
X219350000Y-66210000D01*
G37*
X219350000Y-66210000D02*
X217650000Y-66210000D01*
X217650000Y-65460000D01*
X219350000Y-65460000D01*
X219350000Y-66210000D01*
G36*
X213950000Y-67960000D02*
G01*
X212250000Y-67960000D01*
X212250000Y-67210000D01*
X213950000Y-67210000D01*
X213950000Y-67960000D01*
G37*
X213950000Y-67960000D02*
X212250000Y-67960000D01*
X212250000Y-67210000D01*
X213950000Y-67210000D01*
X213950000Y-67960000D01*
G36*
X213950000Y-66210000D02*
G01*
X212250000Y-66210000D01*
X212250000Y-65460000D01*
X213950000Y-65460000D01*
X213950000Y-66210000D01*
G37*
X213950000Y-66210000D02*
X212250000Y-66210000D01*
X212250000Y-65460000D01*
X213950000Y-65460000D01*
X213950000Y-66210000D01*
G36*
X219350000Y-67527500D02*
G01*
X218942941Y-67960000D01*
X217650000Y-67960000D01*
X217650000Y-67210000D01*
X219350000Y-67210000D01*
X219350000Y-67527500D01*
G37*
X219350000Y-67527500D02*
X218942941Y-67960000D01*
X217650000Y-67960000D01*
X217650000Y-67210000D01*
X219350000Y-67210000D01*
X219350000Y-67527500D01*
G36*
X219350000Y-85260000D02*
G01*
X217650000Y-85260000D01*
X217650000Y-84510000D01*
X219350000Y-84510000D01*
X219350000Y-85260000D01*
G37*
X219350000Y-85260000D02*
X217650000Y-85260000D01*
X217650000Y-84510000D01*
X219350000Y-84510000D01*
X219350000Y-85260000D01*
G36*
X213950000Y-87010000D02*
G01*
X212250000Y-87010000D01*
X212250000Y-86260000D01*
X213950000Y-86260000D01*
X213950000Y-87010000D01*
G37*
X213950000Y-87010000D02*
X212250000Y-87010000D01*
X212250000Y-86260000D01*
X213950000Y-86260000D01*
X213950000Y-87010000D01*
G36*
X213950000Y-85260000D02*
G01*
X212250000Y-85260000D01*
X212250000Y-84510000D01*
X213950000Y-84510000D01*
X213950000Y-85260000D01*
G37*
X213950000Y-85260000D02*
X212250000Y-85260000D01*
X212250000Y-84510000D01*
X213950000Y-84510000D01*
X213950000Y-85260000D01*
G36*
X219350000Y-86577500D02*
G01*
X218942941Y-87010000D01*
X217650000Y-87010000D01*
X217650000Y-86260000D01*
X219350000Y-86260000D01*
X219350000Y-86577500D01*
G37*
X219350000Y-86577500D02*
X218942941Y-87010000D01*
X217650000Y-87010000D01*
X217650000Y-86260000D01*
X219350000Y-86260000D01*
X219350000Y-86577500D01*
G36*
X219350000Y-104310000D02*
G01*
X217650000Y-104310000D01*
X217650000Y-103560000D01*
X219350000Y-103560000D01*
X219350000Y-104310000D01*
G37*
X219350000Y-104310000D02*
X217650000Y-104310000D01*
X217650000Y-103560000D01*
X219350000Y-103560000D01*
X219350000Y-104310000D01*
G36*
X213950000Y-106060000D02*
G01*
X212250000Y-106060000D01*
X212250000Y-105310000D01*
X213950000Y-105310000D01*
X213950000Y-106060000D01*
G37*
X213950000Y-106060000D02*
X212250000Y-106060000D01*
X212250000Y-105310000D01*
X213950000Y-105310000D01*
X213950000Y-106060000D01*
G36*
X213950000Y-104310000D02*
G01*
X212250000Y-104310000D01*
X212250000Y-103560000D01*
X213950000Y-103560000D01*
X213950000Y-104310000D01*
G37*
X213950000Y-104310000D02*
X212250000Y-104310000D01*
X212250000Y-103560000D01*
X213950000Y-103560000D01*
X213950000Y-104310000D01*
G36*
X219350000Y-105627500D02*
G01*
X218942941Y-106060000D01*
X217650000Y-106060000D01*
X217650000Y-105310000D01*
X219350000Y-105310000D01*
X219350000Y-105627500D01*
G37*
X219350000Y-105627500D02*
X218942941Y-106060000D01*
X217650000Y-106060000D01*
X217650000Y-105310000D01*
X219350000Y-105310000D01*
X219350000Y-105627500D01*
G36*
X181250000Y-42260000D02*
G01*
X179550000Y-42260000D01*
X179550000Y-41510000D01*
X181250000Y-41510000D01*
X181250000Y-42260000D01*
G37*
X181250000Y-42260000D02*
X179550000Y-42260000D01*
X179550000Y-41510000D01*
X181250000Y-41510000D01*
X181250000Y-42260000D01*
G36*
X175850000Y-44010000D02*
G01*
X174150000Y-44010000D01*
X174150000Y-43260000D01*
X175850000Y-43260000D01*
X175850000Y-44010000D01*
G37*
X175850000Y-44010000D02*
X174150000Y-44010000D01*
X174150000Y-43260000D01*
X175850000Y-43260000D01*
X175850000Y-44010000D01*
G36*
X175850000Y-42260000D02*
G01*
X174150000Y-42260000D01*
X174150000Y-41510000D01*
X175850000Y-41510000D01*
X175850000Y-42260000D01*
G37*
X175850000Y-42260000D02*
X174150000Y-42260000D01*
X174150000Y-41510000D01*
X175850000Y-41510000D01*
X175850000Y-42260000D01*
G36*
X181250000Y-43577500D02*
G01*
X180842941Y-44010000D01*
X179550000Y-44010000D01*
X179550000Y-43260000D01*
X181250000Y-43260000D01*
X181250000Y-43577500D01*
G37*
X181250000Y-43577500D02*
X180842941Y-44010000D01*
X179550000Y-44010000D01*
X179550000Y-43260000D01*
X181250000Y-43260000D01*
X181250000Y-43577500D01*
G36*
X200300000Y-47160000D02*
G01*
X198600000Y-47160000D01*
X198600000Y-46410000D01*
X200300000Y-46410000D01*
X200300000Y-47160000D01*
G37*
X200300000Y-47160000D02*
X198600000Y-47160000D01*
X198600000Y-46410000D01*
X200300000Y-46410000D01*
X200300000Y-47160000D01*
G36*
X194900000Y-48910000D02*
G01*
X193200000Y-48910000D01*
X193200000Y-48160000D01*
X194900000Y-48160000D01*
X194900000Y-48910000D01*
G37*
X194900000Y-48910000D02*
X193200000Y-48910000D01*
X193200000Y-48160000D01*
X194900000Y-48160000D01*
X194900000Y-48910000D01*
G36*
X194900000Y-47160000D02*
G01*
X193200000Y-47160000D01*
X193200000Y-46410000D01*
X194900000Y-46410000D01*
X194900000Y-47160000D01*
G37*
X194900000Y-47160000D02*
X193200000Y-47160000D01*
X193200000Y-46410000D01*
X194900000Y-46410000D01*
X194900000Y-47160000D01*
G36*
X200300000Y-48477500D02*
G01*
X199892941Y-48910000D01*
X198600000Y-48910000D01*
X198600000Y-48160000D01*
X200300000Y-48160000D01*
X200300000Y-48477500D01*
G37*
X200300000Y-48477500D02*
X199892941Y-48910000D01*
X198600000Y-48910000D01*
X198600000Y-48160000D01*
X200300000Y-48160000D01*
X200300000Y-48477500D01*
G36*
X143150000Y-61310000D02*
G01*
X141450000Y-61310000D01*
X141450000Y-60560000D01*
X143150000Y-60560000D01*
X143150000Y-61310000D01*
G37*
X143150000Y-61310000D02*
X141450000Y-61310000D01*
X141450000Y-60560000D01*
X143150000Y-60560000D01*
X143150000Y-61310000D01*
G36*
X137750000Y-63060000D02*
G01*
X136050000Y-63060000D01*
X136050000Y-62310000D01*
X137750000Y-62310000D01*
X137750000Y-63060000D01*
G37*
X137750000Y-63060000D02*
X136050000Y-63060000D01*
X136050000Y-62310000D01*
X137750000Y-62310000D01*
X137750000Y-63060000D01*
G36*
X137750000Y-61310000D02*
G01*
X136050000Y-61310000D01*
X136050000Y-60560000D01*
X137750000Y-60560000D01*
X137750000Y-61310000D01*
G37*
X137750000Y-61310000D02*
X136050000Y-61310000D01*
X136050000Y-60560000D01*
X137750000Y-60560000D01*
X137750000Y-61310000D01*
G36*
X143150000Y-62627500D02*
G01*
X142742941Y-63060000D01*
X141450000Y-63060000D01*
X141450000Y-62310000D01*
X143150000Y-62310000D01*
X143150000Y-62627500D01*
G37*
X143150000Y-62627500D02*
X142742941Y-63060000D01*
X141450000Y-63060000D01*
X141450000Y-62310000D01*
X143150000Y-62310000D01*
X143150000Y-62627500D01*
G36*
X181250000Y-61310000D02*
G01*
X179550000Y-61310000D01*
X179550000Y-60560000D01*
X181250000Y-60560000D01*
X181250000Y-61310000D01*
G37*
X181250000Y-61310000D02*
X179550000Y-61310000D01*
X179550000Y-60560000D01*
X181250000Y-60560000D01*
X181250000Y-61310000D01*
G36*
X175850000Y-63060000D02*
G01*
X174150000Y-63060000D01*
X174150000Y-62310000D01*
X175850000Y-62310000D01*
X175850000Y-63060000D01*
G37*
X175850000Y-63060000D02*
X174150000Y-63060000D01*
X174150000Y-62310000D01*
X175850000Y-62310000D01*
X175850000Y-63060000D01*
G36*
X175850000Y-61310000D02*
G01*
X174150000Y-61310000D01*
X174150000Y-60560000D01*
X175850000Y-60560000D01*
X175850000Y-61310000D01*
G37*
X175850000Y-61310000D02*
X174150000Y-61310000D01*
X174150000Y-60560000D01*
X175850000Y-60560000D01*
X175850000Y-61310000D01*
G36*
X181250000Y-62627500D02*
G01*
X180842941Y-63060000D01*
X179550000Y-63060000D01*
X179550000Y-62310000D01*
X181250000Y-62310000D01*
X181250000Y-62627500D01*
G37*
X181250000Y-62627500D02*
X180842941Y-63060000D01*
X179550000Y-63060000D01*
X179550000Y-62310000D01*
X181250000Y-62310000D01*
X181250000Y-62627500D01*
G36*
X162200000Y-58810000D02*
G01*
X160500000Y-58810000D01*
X160500000Y-58060000D01*
X162200000Y-58060000D01*
X162200000Y-58810000D01*
G37*
X162200000Y-58810000D02*
X160500000Y-58810000D01*
X160500000Y-58060000D01*
X162200000Y-58060000D01*
X162200000Y-58810000D01*
G36*
X156800000Y-60560000D02*
G01*
X155100000Y-60560000D01*
X155100000Y-59810000D01*
X156800000Y-59810000D01*
X156800000Y-60560000D01*
G37*
X156800000Y-60560000D02*
X155100000Y-60560000D01*
X155100000Y-59810000D01*
X156800000Y-59810000D01*
X156800000Y-60560000D01*
G36*
X156800000Y-58810000D02*
G01*
X155100000Y-58810000D01*
X155100000Y-58060000D01*
X156800000Y-58060000D01*
X156800000Y-58810000D01*
G37*
X156800000Y-58810000D02*
X155100000Y-58810000D01*
X155100000Y-58060000D01*
X156800000Y-58060000D01*
X156800000Y-58810000D01*
G36*
X162200000Y-60127500D02*
G01*
X161792941Y-60560000D01*
X160500000Y-60560000D01*
X160500000Y-59810000D01*
X162200000Y-59810000D01*
X162200000Y-60127500D01*
G37*
X162200000Y-60127500D02*
X161792941Y-60560000D01*
X160500000Y-60560000D01*
X160500000Y-59810000D01*
X162200000Y-59810000D01*
X162200000Y-60127500D01*
G36*
X181250000Y-80360000D02*
G01*
X179550000Y-80360000D01*
X179550000Y-79610000D01*
X181250000Y-79610000D01*
X181250000Y-80360000D01*
G37*
X181250000Y-80360000D02*
X179550000Y-80360000D01*
X179550000Y-79610000D01*
X181250000Y-79610000D01*
X181250000Y-80360000D01*
G36*
X175850000Y-82110000D02*
G01*
X174150000Y-82110000D01*
X174150000Y-81360000D01*
X175850000Y-81360000D01*
X175850000Y-82110000D01*
G37*
X175850000Y-82110000D02*
X174150000Y-82110000D01*
X174150000Y-81360000D01*
X175850000Y-81360000D01*
X175850000Y-82110000D01*
G36*
X175850000Y-80360000D02*
G01*
X174150000Y-80360000D01*
X174150000Y-79610000D01*
X175850000Y-79610000D01*
X175850000Y-80360000D01*
G37*
X175850000Y-80360000D02*
X174150000Y-80360000D01*
X174150000Y-79610000D01*
X175850000Y-79610000D01*
X175850000Y-80360000D01*
G36*
X181250000Y-81677500D02*
G01*
X180842941Y-82110000D01*
X179550000Y-82110000D01*
X179550000Y-81360000D01*
X181250000Y-81360000D01*
X181250000Y-81677500D01*
G37*
X181250000Y-81677500D02*
X180842941Y-82110000D01*
X179550000Y-82110000D01*
X179550000Y-81360000D01*
X181250000Y-81360000D01*
X181250000Y-81677500D01*
G36*
X219350000Y-47160000D02*
G01*
X217650000Y-47160000D01*
X217650000Y-46410000D01*
X219350000Y-46410000D01*
X219350000Y-47160000D01*
G37*
X219350000Y-47160000D02*
X217650000Y-47160000D01*
X217650000Y-46410000D01*
X219350000Y-46410000D01*
X219350000Y-47160000D01*
G36*
X213950000Y-48910000D02*
G01*
X212250000Y-48910000D01*
X212250000Y-48160000D01*
X213950000Y-48160000D01*
X213950000Y-48910000D01*
G37*
X213950000Y-48910000D02*
X212250000Y-48910000D01*
X212250000Y-48160000D01*
X213950000Y-48160000D01*
X213950000Y-48910000D01*
G36*
X213950000Y-47160000D02*
G01*
X212250000Y-47160000D01*
X212250000Y-46410000D01*
X213950000Y-46410000D01*
X213950000Y-47160000D01*
G37*
X213950000Y-47160000D02*
X212250000Y-47160000D01*
X212250000Y-46410000D01*
X213950000Y-46410000D01*
X213950000Y-47160000D01*
G36*
X219350000Y-48477500D02*
G01*
X218942941Y-48910000D01*
X217650000Y-48910000D01*
X217650000Y-48160000D01*
X219350000Y-48160000D01*
X219350000Y-48477500D01*
G37*
X219350000Y-48477500D02*
X218942941Y-48910000D01*
X217650000Y-48910000D01*
X217650000Y-48160000D01*
X219350000Y-48160000D01*
X219350000Y-48477500D01*
G36*
X124100000Y-63860000D02*
G01*
X122400000Y-63860000D01*
X122400000Y-63110000D01*
X124100000Y-63110000D01*
X124100000Y-63860000D01*
G37*
X124100000Y-63860000D02*
X122400000Y-63860000D01*
X122400000Y-63110000D01*
X124100000Y-63110000D01*
X124100000Y-63860000D01*
G36*
X118700000Y-65610000D02*
G01*
X117000000Y-65610000D01*
X117000000Y-64860000D01*
X118700000Y-64860000D01*
X118700000Y-65610000D01*
G37*
X118700000Y-65610000D02*
X117000000Y-65610000D01*
X117000000Y-64860000D01*
X118700000Y-64860000D01*
X118700000Y-65610000D01*
G36*
X118700000Y-63860000D02*
G01*
X117000000Y-63860000D01*
X117000000Y-63110000D01*
X118700000Y-63110000D01*
X118700000Y-63860000D01*
G37*
X118700000Y-63860000D02*
X117000000Y-63860000D01*
X117000000Y-63110000D01*
X118700000Y-63110000D01*
X118700000Y-63860000D01*
G36*
X124100000Y-65177500D02*
G01*
X123692941Y-65610000D01*
X122400000Y-65610000D01*
X122400000Y-64860000D01*
X124100000Y-64860000D01*
X124100000Y-65177500D01*
G37*
X124100000Y-65177500D02*
X123692941Y-65610000D01*
X122400000Y-65610000D01*
X122400000Y-64860000D01*
X124100000Y-64860000D01*
X124100000Y-65177500D01*
G36*
X181250000Y-118460000D02*
G01*
X179550000Y-118460000D01*
X179550000Y-117710000D01*
X181250000Y-117710000D01*
X181250000Y-118460000D01*
G37*
X181250000Y-118460000D02*
X179550000Y-118460000D01*
X179550000Y-117710000D01*
X181250000Y-117710000D01*
X181250000Y-118460000D01*
G36*
X175850000Y-120210000D02*
G01*
X174150000Y-120210000D01*
X174150000Y-119460000D01*
X175850000Y-119460000D01*
X175850000Y-120210000D01*
G37*
X175850000Y-120210000D02*
X174150000Y-120210000D01*
X174150000Y-119460000D01*
X175850000Y-119460000D01*
X175850000Y-120210000D01*
G36*
X175850000Y-118460000D02*
G01*
X174150000Y-118460000D01*
X174150000Y-117710000D01*
X175850000Y-117710000D01*
X175850000Y-118460000D01*
G37*
X175850000Y-118460000D02*
X174150000Y-118460000D01*
X174150000Y-117710000D01*
X175850000Y-117710000D01*
X175850000Y-118460000D01*
G36*
X181250000Y-119777500D02*
G01*
X180842941Y-120210000D01*
X179550000Y-120210000D01*
X179550000Y-119460000D01*
X181250000Y-119460000D01*
X181250000Y-119777500D01*
G37*
X181250000Y-119777500D02*
X180842941Y-120210000D01*
X179550000Y-120210000D01*
X179550000Y-119460000D01*
X181250000Y-119460000D01*
X181250000Y-119777500D01*
G36*
X200300000Y-66210000D02*
G01*
X198600000Y-66210000D01*
X198600000Y-65460000D01*
X200300000Y-65460000D01*
X200300000Y-66210000D01*
G37*
X200300000Y-66210000D02*
X198600000Y-66210000D01*
X198600000Y-65460000D01*
X200300000Y-65460000D01*
X200300000Y-66210000D01*
G36*
X194900000Y-67960000D02*
G01*
X193200000Y-67960000D01*
X193200000Y-67210000D01*
X194900000Y-67210000D01*
X194900000Y-67960000D01*
G37*
X194900000Y-67960000D02*
X193200000Y-67960000D01*
X193200000Y-67210000D01*
X194900000Y-67210000D01*
X194900000Y-67960000D01*
G36*
X194900000Y-66210000D02*
G01*
X193200000Y-66210000D01*
X193200000Y-65460000D01*
X194900000Y-65460000D01*
X194900000Y-66210000D01*
G37*
X194900000Y-66210000D02*
X193200000Y-66210000D01*
X193200000Y-65460000D01*
X194900000Y-65460000D01*
X194900000Y-66210000D01*
G36*
X200300000Y-67527500D02*
G01*
X199892941Y-67960000D01*
X198600000Y-67960000D01*
X198600000Y-67210000D01*
X200300000Y-67210000D01*
X200300000Y-67527500D01*
G37*
X200300000Y-67527500D02*
X199892941Y-67960000D01*
X198600000Y-67960000D01*
X198600000Y-67210000D01*
X200300000Y-67210000D01*
X200300000Y-67527500D01*
G36*
X181250000Y-99410000D02*
G01*
X179550000Y-99410000D01*
X179550000Y-98660000D01*
X181250000Y-98660000D01*
X181250000Y-99410000D01*
G37*
X181250000Y-99410000D02*
X179550000Y-99410000D01*
X179550000Y-98660000D01*
X181250000Y-98660000D01*
X181250000Y-99410000D01*
G36*
X175850000Y-101160000D02*
G01*
X174150000Y-101160000D01*
X174150000Y-100410000D01*
X175850000Y-100410000D01*
X175850000Y-101160000D01*
G37*
X175850000Y-101160000D02*
X174150000Y-101160000D01*
X174150000Y-100410000D01*
X175850000Y-100410000D01*
X175850000Y-101160000D01*
G36*
X175850000Y-99410000D02*
G01*
X174150000Y-99410000D01*
X174150000Y-98660000D01*
X175850000Y-98660000D01*
X175850000Y-99410000D01*
G37*
X175850000Y-99410000D02*
X174150000Y-99410000D01*
X174150000Y-98660000D01*
X175850000Y-98660000D01*
X175850000Y-99410000D01*
G36*
X181250000Y-100727500D02*
G01*
X180842941Y-101160000D01*
X179550000Y-101160000D01*
X179550000Y-100410000D01*
X181250000Y-100410000D01*
X181250000Y-100727500D01*
G37*
X181250000Y-100727500D02*
X180842941Y-101160000D01*
X179550000Y-101160000D01*
X179550000Y-100410000D01*
X181250000Y-100410000D01*
X181250000Y-100727500D01*
G36*
X200300000Y-85260000D02*
G01*
X198600000Y-85260000D01*
X198600000Y-84510000D01*
X200300000Y-84510000D01*
X200300000Y-85260000D01*
G37*
X200300000Y-85260000D02*
X198600000Y-85260000D01*
X198600000Y-84510000D01*
X200300000Y-84510000D01*
X200300000Y-85260000D01*
G36*
X194900000Y-87010000D02*
G01*
X193200000Y-87010000D01*
X193200000Y-86260000D01*
X194900000Y-86260000D01*
X194900000Y-87010000D01*
G37*
X194900000Y-87010000D02*
X193200000Y-87010000D01*
X193200000Y-86260000D01*
X194900000Y-86260000D01*
X194900000Y-87010000D01*
G36*
X194900000Y-85260000D02*
G01*
X193200000Y-85260000D01*
X193200000Y-84510000D01*
X194900000Y-84510000D01*
X194900000Y-85260000D01*
G37*
X194900000Y-85260000D02*
X193200000Y-85260000D01*
X193200000Y-84510000D01*
X194900000Y-84510000D01*
X194900000Y-85260000D01*
G36*
X200300000Y-86577500D02*
G01*
X199892941Y-87010000D01*
X198600000Y-87010000D01*
X198600000Y-86260000D01*
X200300000Y-86260000D01*
X200300000Y-86577500D01*
G37*
X200300000Y-86577500D02*
X199892941Y-87010000D01*
X198600000Y-87010000D01*
X198600000Y-86260000D01*
X200300000Y-86260000D01*
X200300000Y-86577500D01*
G36*
X162200000Y-115960000D02*
G01*
X160500000Y-115960000D01*
X160500000Y-115210000D01*
X162200000Y-115210000D01*
X162200000Y-115960000D01*
G37*
X162200000Y-115960000D02*
X160500000Y-115960000D01*
X160500000Y-115210000D01*
X162200000Y-115210000D01*
X162200000Y-115960000D01*
G36*
X156800000Y-117710000D02*
G01*
X155100000Y-117710000D01*
X155100000Y-116960000D01*
X156800000Y-116960000D01*
X156800000Y-117710000D01*
G37*
X156800000Y-117710000D02*
X155100000Y-117710000D01*
X155100000Y-116960000D01*
X156800000Y-116960000D01*
X156800000Y-117710000D01*
G36*
X156800000Y-115960000D02*
G01*
X155100000Y-115960000D01*
X155100000Y-115210000D01*
X156800000Y-115210000D01*
X156800000Y-115960000D01*
G37*
X156800000Y-115960000D02*
X155100000Y-115960000D01*
X155100000Y-115210000D01*
X156800000Y-115210000D01*
X156800000Y-115960000D01*
G36*
X162200000Y-117277500D02*
G01*
X161792941Y-117710000D01*
X160500000Y-117710000D01*
X160500000Y-116960000D01*
X162200000Y-116960000D01*
X162200000Y-117277500D01*
G37*
X162200000Y-117277500D02*
X161792941Y-117710000D01*
X160500000Y-117710000D01*
X160500000Y-116960000D01*
X162200000Y-116960000D01*
X162200000Y-117277500D01*
G36*
X162200000Y-77860000D02*
G01*
X160500000Y-77860000D01*
X160500000Y-77110000D01*
X162200000Y-77110000D01*
X162200000Y-77860000D01*
G37*
X162200000Y-77860000D02*
X160500000Y-77860000D01*
X160500000Y-77110000D01*
X162200000Y-77110000D01*
X162200000Y-77860000D01*
G36*
X156800000Y-79610000D02*
G01*
X155100000Y-79610000D01*
X155100000Y-78860000D01*
X156800000Y-78860000D01*
X156800000Y-79610000D01*
G37*
X156800000Y-79610000D02*
X155100000Y-79610000D01*
X155100000Y-78860000D01*
X156800000Y-78860000D01*
X156800000Y-79610000D01*
G36*
X156800000Y-77860000D02*
G01*
X155100000Y-77860000D01*
X155100000Y-77110000D01*
X156800000Y-77110000D01*
X156800000Y-77860000D01*
G37*
X156800000Y-77860000D02*
X155100000Y-77860000D01*
X155100000Y-77110000D01*
X156800000Y-77110000D01*
X156800000Y-77860000D01*
G36*
X162200000Y-79177500D02*
G01*
X161792941Y-79610000D01*
X160500000Y-79610000D01*
X160500000Y-78860000D01*
X162200000Y-78860000D01*
X162200000Y-79177500D01*
G37*
X162200000Y-79177500D02*
X161792941Y-79610000D01*
X160500000Y-79610000D01*
X160500000Y-78860000D01*
X162200000Y-78860000D01*
X162200000Y-79177500D01*
G36*
X143150000Y-42260000D02*
G01*
X141450000Y-42260000D01*
X141450000Y-41510000D01*
X143150000Y-41510000D01*
X143150000Y-42260000D01*
G37*
X143150000Y-42260000D02*
X141450000Y-42260000D01*
X141450000Y-41510000D01*
X143150000Y-41510000D01*
X143150000Y-42260000D01*
G36*
X137750000Y-44010000D02*
G01*
X136050000Y-44010000D01*
X136050000Y-43260000D01*
X137750000Y-43260000D01*
X137750000Y-44010000D01*
G37*
X137750000Y-44010000D02*
X136050000Y-44010000D01*
X136050000Y-43260000D01*
X137750000Y-43260000D01*
X137750000Y-44010000D01*
G36*
X137750000Y-42260000D02*
G01*
X136050000Y-42260000D01*
X136050000Y-41510000D01*
X137750000Y-41510000D01*
X137750000Y-42260000D01*
G37*
X137750000Y-42260000D02*
X136050000Y-42260000D01*
X136050000Y-41510000D01*
X137750000Y-41510000D01*
X137750000Y-42260000D01*
G36*
X143150000Y-43577500D02*
G01*
X142742941Y-44010000D01*
X141450000Y-44010000D01*
X141450000Y-43260000D01*
X143150000Y-43260000D01*
X143150000Y-43577500D01*
G37*
X143150000Y-43577500D02*
X142742941Y-44010000D01*
X141450000Y-44010000D01*
X141450000Y-43260000D01*
X143150000Y-43260000D01*
X143150000Y-43577500D01*
G36*
X143150000Y-99410000D02*
G01*
X141450000Y-99410000D01*
X141450000Y-98660000D01*
X143150000Y-98660000D01*
X143150000Y-99410000D01*
G37*
X143150000Y-99410000D02*
X141450000Y-99410000D01*
X141450000Y-98660000D01*
X143150000Y-98660000D01*
X143150000Y-99410000D01*
G36*
X137750000Y-101160000D02*
G01*
X136050000Y-101160000D01*
X136050000Y-100410000D01*
X137750000Y-100410000D01*
X137750000Y-101160000D01*
G37*
X137750000Y-101160000D02*
X136050000Y-101160000D01*
X136050000Y-100410000D01*
X137750000Y-100410000D01*
X137750000Y-101160000D01*
G36*
X137750000Y-99410000D02*
G01*
X136050000Y-99410000D01*
X136050000Y-98660000D01*
X137750000Y-98660000D01*
X137750000Y-99410000D01*
G37*
X137750000Y-99410000D02*
X136050000Y-99410000D01*
X136050000Y-98660000D01*
X137750000Y-98660000D01*
X137750000Y-99410000D01*
G36*
X143150000Y-100727500D02*
G01*
X142742941Y-101160000D01*
X141450000Y-101160000D01*
X141450000Y-100410000D01*
X143150000Y-100410000D01*
X143150000Y-100727500D01*
G37*
X143150000Y-100727500D02*
X142742941Y-101160000D01*
X141450000Y-101160000D01*
X141450000Y-100410000D01*
X143150000Y-100410000D01*
X143150000Y-100727500D01*
G36*
X143150000Y-118460000D02*
G01*
X141450000Y-118460000D01*
X141450000Y-117710000D01*
X143150000Y-117710000D01*
X143150000Y-118460000D01*
G37*
X143150000Y-118460000D02*
X141450000Y-118460000D01*
X141450000Y-117710000D01*
X143150000Y-117710000D01*
X143150000Y-118460000D01*
G36*
X137750000Y-120210000D02*
G01*
X136050000Y-120210000D01*
X136050000Y-119460000D01*
X137750000Y-119460000D01*
X137750000Y-120210000D01*
G37*
X137750000Y-120210000D02*
X136050000Y-120210000D01*
X136050000Y-119460000D01*
X137750000Y-119460000D01*
X137750000Y-120210000D01*
G36*
X137750000Y-118460000D02*
G01*
X136050000Y-118460000D01*
X136050000Y-117710000D01*
X137750000Y-117710000D01*
X137750000Y-118460000D01*
G37*
X137750000Y-118460000D02*
X136050000Y-118460000D01*
X136050000Y-117710000D01*
X137750000Y-117710000D01*
X137750000Y-118460000D01*
G36*
X143150000Y-119777500D02*
G01*
X142742941Y-120210000D01*
X141450000Y-120210000D01*
X141450000Y-119460000D01*
X143150000Y-119460000D01*
X143150000Y-119777500D01*
G37*
X143150000Y-119777500D02*
X142742941Y-120210000D01*
X141450000Y-120210000D01*
X141450000Y-119460000D01*
X143150000Y-119460000D01*
X143150000Y-119777500D01*
G36*
X124100000Y-101910000D02*
G01*
X122400000Y-101910000D01*
X122400000Y-101160000D01*
X124100000Y-101160000D01*
X124100000Y-101910000D01*
G37*
X124100000Y-101910000D02*
X122400000Y-101910000D01*
X122400000Y-101160000D01*
X124100000Y-101160000D01*
X124100000Y-101910000D01*
G36*
X118700000Y-103660000D02*
G01*
X117000000Y-103660000D01*
X117000000Y-102910000D01*
X118700000Y-102910000D01*
X118700000Y-103660000D01*
G37*
X118700000Y-103660000D02*
X117000000Y-103660000D01*
X117000000Y-102910000D01*
X118700000Y-102910000D01*
X118700000Y-103660000D01*
G36*
X118700000Y-101910000D02*
G01*
X117000000Y-101910000D01*
X117000000Y-101160000D01*
X118700000Y-101160000D01*
X118700000Y-101910000D01*
G37*
X118700000Y-101910000D02*
X117000000Y-101910000D01*
X117000000Y-101160000D01*
X118700000Y-101160000D01*
X118700000Y-101910000D01*
G36*
X124100000Y-103227500D02*
G01*
X123692941Y-103660000D01*
X122400000Y-103660000D01*
X122400000Y-102910000D01*
X124100000Y-102910000D01*
X124100000Y-103227500D01*
G37*
X124100000Y-103227500D02*
X123692941Y-103660000D01*
X122400000Y-103660000D01*
X122400000Y-102910000D01*
X124100000Y-102910000D01*
X124100000Y-103227500D01*
D15*
X96470000Y-77498035D03*
X104550000Y-77498035D03*
X96470000Y-79740000D03*
X104550000Y-79740000D03*
D16*
X89500000Y-87400000D03*
X96500000Y-87400000D03*
X89500000Y-85650000D03*
X96500000Y-85650000D03*
D17*
X98299999Y-83549999D03*
D18*
X94299999Y-83549999D03*
X91299999Y-83549999D03*
D19*
X99799999Y-87749999D03*
D20*
X103000000Y-119000000D03*
D14*
X91930000Y-41230000D03*
X108718815Y-42425745D03*
X91930000Y-43770000D03*
X108718815Y-44965745D03*
X91930000Y-46310000D03*
X108718815Y-47505745D03*
X91930000Y-48850000D03*
X108718815Y-50045745D03*
X91930000Y-51390000D03*
X108718815Y-52585745D03*
X91930000Y-53930000D03*
X108718815Y-55125745D03*
X91930000Y-56470000D03*
X108718815Y-57665745D03*
X91930000Y-59010000D03*
X108718815Y-60205745D03*
X91930000Y-61550000D03*
X108718815Y-62745745D03*
X91930000Y-64090000D03*
X108718815Y-65285745D03*
X91930000Y-66630000D03*
X108718815Y-67825745D03*
X91930000Y-69170000D03*
X108718815Y-70365745D03*
X93478815Y-70365745D03*
X107170000Y-69170000D03*
X93478815Y-67825745D03*
X107170000Y-66630000D03*
X93478815Y-65285745D03*
X107170000Y-64090000D03*
X93478815Y-62745745D03*
X107170000Y-61550000D03*
X93478815Y-60205745D03*
X107170000Y-59010000D03*
X93478815Y-57665745D03*
X107170000Y-56470000D03*
X93478815Y-55125745D03*
X107170000Y-53930000D03*
X93478815Y-52585745D03*
X107170000Y-51390000D03*
X93478815Y-50045745D03*
X107170000Y-48850000D03*
X93478815Y-47505745D03*
X107170000Y-46310000D03*
X93478815Y-44965745D03*
X107170000Y-43770000D03*
X93478815Y-42425745D03*
X107170000Y-41230000D03*
D21*
X90000000Y-74250000D03*
X90000000Y-80750000D03*
D22*
X128624999Y-41974999D03*
D23*
X128625000Y-44325000D03*
X128625000Y-47625000D03*
D24*
X128625000Y-49975000D03*
D22*
X147674999Y-39474999D03*
D23*
X147675000Y-41825000D03*
X147675000Y-45125000D03*
D24*
X147675000Y-47475000D03*
D22*
X150574999Y-38224999D03*
D23*
X150575000Y-40575000D03*
X150575000Y-43875000D03*
D24*
X150575000Y-46225000D03*
D22*
X169624999Y-39474999D03*
D23*
X169625000Y-41825000D03*
X169625000Y-45125000D03*
D24*
X169625000Y-47475000D03*
D22*
X188674999Y-44374999D03*
D23*
X188675000Y-46725000D03*
X188675000Y-50025000D03*
D24*
X188675000Y-52375000D03*
D22*
X223874999Y-44624999D03*
D23*
X223875000Y-46975000D03*
X223875000Y-50275000D03*
D24*
X223875000Y-52625000D03*
D22*
X128624999Y-80074999D03*
D23*
X128625000Y-82425000D03*
X128625000Y-85725000D03*
D24*
X128625000Y-88075000D03*
D22*
X128624999Y-99874999D03*
D23*
X128625000Y-102225000D03*
X128625000Y-105525000D03*
D24*
X128625000Y-107875000D03*
D22*
X109669999Y-103939999D03*
D23*
X109670000Y-106290000D03*
X109670000Y-109590000D03*
D24*
X109670000Y-111940000D03*
D22*
X106369999Y-129099999D03*
D23*
X106370000Y-131450000D03*
X106370000Y-134750000D03*
D24*
X106370000Y-137100000D03*
D25*
X126050000Y-50000000D03*
D26*
X125550000Y-53700000D03*
X120550000Y-55900000D03*
D27*
X120550000Y-50000000D03*
D28*
X120550000Y-46799730D03*
X120550000Y-43800000D03*
D26*
X115550000Y-53700000D03*
D25*
X115050000Y-50000000D03*
D29*
X123349999Y-55899999D03*
D30*
X112474999Y-53699999D03*
D25*
X164150000Y-45000000D03*
D26*
X163650000Y-48700000D03*
X158650000Y-50900000D03*
D27*
X158650000Y-45000000D03*
D28*
X158650000Y-41799730D03*
X158650000Y-38800000D03*
D26*
X153650000Y-48700000D03*
D25*
X153150000Y-45000000D03*
D29*
X161449999Y-50899999D03*
D30*
X150574999Y-48699999D03*
D25*
X126050000Y-88100000D03*
D26*
X125550000Y-91800000D03*
X120550000Y-94000000D03*
D27*
X120550000Y-88100000D03*
D28*
X120550000Y-84899730D03*
X120550000Y-81900000D03*
D26*
X115550000Y-91800000D03*
D25*
X115050000Y-88100000D03*
D29*
X123349999Y-93999999D03*
D30*
X112474999Y-91799999D03*
D25*
X145100000Y-85600000D03*
D26*
X144600000Y-89300000D03*
X139600000Y-91500000D03*
D27*
X139600000Y-85600000D03*
D28*
X139600000Y-82399730D03*
X139600000Y-79400000D03*
D26*
X134600000Y-89300000D03*
D25*
X134100000Y-85600000D03*
D29*
X142399999Y-91499999D03*
D30*
X131524999Y-89299999D03*
D25*
X164150000Y-102150000D03*
D26*
X163650000Y-105850000D03*
X158650000Y-108050000D03*
D27*
X158650000Y-102150000D03*
D28*
X158650000Y-98949730D03*
X158650000Y-95950000D03*
D26*
X153650000Y-105850000D03*
D25*
X153150000Y-102150000D03*
D29*
X161449999Y-108049999D03*
D30*
X150574999Y-105849999D03*
D25*
X202250000Y-109550000D03*
D26*
X201750000Y-113250000D03*
X196750000Y-115450000D03*
D27*
X196750000Y-109550000D03*
D28*
X196750000Y-106349730D03*
X196750000Y-103350000D03*
D26*
X191750000Y-113250000D03*
D25*
X191250000Y-109550000D03*
D29*
X199549999Y-115449999D03*
D30*
X188674999Y-113249999D03*
D25*
X99460000Y-138163140D03*
D26*
X96005706Y-139580127D03*
X91600450Y-136350000D03*
D27*
X96710000Y-133400000D03*
D28*
X99481515Y-131799865D03*
X102079358Y-130300000D03*
D26*
X91005706Y-130919873D03*
D25*
X93960000Y-128636860D03*
D31*
X93000449Y-138774870D03*
D32*
X89468205Y-128256844D03*
D33*
X91500000Y-93500000D03*
D15*
X96700000Y-74600000D03*
X99240000Y-74600000D03*
X101780000Y-74600000D03*
X104320000Y-74600000D03*
D33*
X107000000Y-93500000D03*
D21*
X92500000Y-102000000D03*
X92500000Y-107000000D03*
X92500000Y-104500000D03*
D34*
X99999999Y-98899999D03*
X99999999Y-110099999D03*
D21*
X107000000Y-107000000D03*
X107000000Y-102000000D03*
D25*
X122912592Y-126976495D03*
D26*
X123387260Y-130679830D03*
X119127032Y-134098962D03*
D27*
X117600000Y-128400000D03*
D28*
X116771709Y-125308777D03*
X115995322Y-122411260D03*
D26*
X113728001Y-133268021D03*
D25*
X112287408Y-129823505D03*
D35*
X121831624Y-133374268D03*
D36*
X110757778Y-134063888D03*
D25*
X221300000Y-71450000D03*
D26*
X220800000Y-75150000D03*
X215800000Y-77350000D03*
D27*
X215800000Y-71450000D03*
D28*
X215800000Y-68249730D03*
X215800000Y-65250000D03*
D26*
X210800000Y-75150000D03*
D25*
X210300000Y-71450000D03*
D29*
X218599999Y-77349999D03*
D30*
X207724999Y-75149999D03*
D25*
X221300000Y-90500000D03*
D26*
X220800000Y-94200000D03*
X215800000Y-96400000D03*
D27*
X215800000Y-90500000D03*
D28*
X215800000Y-87299730D03*
X215800000Y-84300000D03*
D26*
X210800000Y-94200000D03*
D25*
X210300000Y-90500000D03*
D29*
X218599999Y-96399999D03*
D30*
X207724999Y-94199999D03*
D25*
X221300000Y-109550000D03*
D26*
X220800000Y-113250000D03*
X215800000Y-115450000D03*
D27*
X215800000Y-109550000D03*
D28*
X215800000Y-106349730D03*
X215800000Y-103350000D03*
D26*
X210800000Y-113250000D03*
D25*
X210300000Y-109550000D03*
D29*
X218599999Y-115449999D03*
D30*
X207724999Y-113249999D03*
D25*
X183200000Y-47500000D03*
D26*
X182700000Y-51200000D03*
X177700000Y-53400000D03*
D27*
X177700000Y-47500000D03*
D28*
X177700000Y-44299730D03*
X177700000Y-41300000D03*
D26*
X172700000Y-51200000D03*
D25*
X172200000Y-47500000D03*
D29*
X180499999Y-53399999D03*
D30*
X169624999Y-51199999D03*
D20*
X206000000Y-61500000D03*
D22*
X128624999Y-61324999D03*
D23*
X128625000Y-63675000D03*
X128625000Y-66975000D03*
D24*
X128625000Y-69325000D03*
D22*
X147674999Y-58524999D03*
D23*
X147675000Y-60875000D03*
X147675000Y-64175000D03*
D24*
X147675000Y-66525000D03*
D22*
X150574999Y-56024999D03*
D23*
X150575000Y-58375000D03*
X150575000Y-61675000D03*
D24*
X150575000Y-64025000D03*
D22*
X169624999Y-58524999D03*
D23*
X169625000Y-60875000D03*
X169625000Y-64175000D03*
D24*
X169625000Y-66525000D03*
D22*
X188674999Y-63424999D03*
D23*
X188675000Y-65775000D03*
X188675000Y-69075000D03*
D24*
X188675000Y-71425000D03*
D22*
X223874999Y-63424999D03*
D23*
X223875000Y-65775000D03*
X223875000Y-69075000D03*
D24*
X223875000Y-71425000D03*
D25*
X202250000Y-52400000D03*
D26*
X201750000Y-56100000D03*
X196750000Y-58300000D03*
D27*
X196750000Y-52400000D03*
D28*
X196750000Y-49199730D03*
X196750000Y-46200000D03*
D26*
X191750000Y-56100000D03*
D25*
X191250000Y-52400000D03*
D29*
X199549999Y-58299999D03*
D30*
X188674999Y-56099999D03*
D25*
X145100000Y-66550000D03*
D26*
X144600000Y-70250000D03*
X139600000Y-72450000D03*
D27*
X139600000Y-66550000D03*
D28*
X139600000Y-63349730D03*
X139600000Y-60350000D03*
D26*
X134600000Y-70250000D03*
D25*
X134100000Y-66550000D03*
D29*
X142399999Y-72449999D03*
D30*
X131524999Y-70249999D03*
D25*
X183200000Y-66550000D03*
D26*
X182700000Y-70250000D03*
X177700000Y-72450000D03*
D27*
X177700000Y-66550000D03*
D28*
X177700000Y-63349730D03*
X177700000Y-60350000D03*
D26*
X172700000Y-70250000D03*
D25*
X172200000Y-66550000D03*
D29*
X180499999Y-72449999D03*
D30*
X169624999Y-70249999D03*
D25*
X164150000Y-64050000D03*
D26*
X163650000Y-67750000D03*
X158650000Y-69950000D03*
D27*
X158650000Y-64050000D03*
D28*
X158650000Y-60849730D03*
X158650000Y-57850000D03*
D26*
X153650000Y-67750000D03*
D25*
X153150000Y-64050000D03*
D29*
X161449999Y-69949999D03*
D30*
X150574999Y-67749999D03*
D25*
X183200000Y-85600000D03*
D26*
X182700000Y-89300000D03*
X177700000Y-91500000D03*
D27*
X177700000Y-85600000D03*
D28*
X177700000Y-82399730D03*
X177700000Y-79400000D03*
D26*
X172700000Y-89300000D03*
D25*
X172200000Y-85600000D03*
D29*
X180499999Y-91499999D03*
D30*
X169624999Y-89299999D03*
D25*
X221300000Y-52400000D03*
D26*
X220800000Y-56100000D03*
X215800000Y-58300000D03*
D27*
X215800000Y-52400000D03*
D28*
X215800000Y-49199730D03*
X215800000Y-46200000D03*
D26*
X210800000Y-56100000D03*
D25*
X210300000Y-52400000D03*
D29*
X218599999Y-58299999D03*
D30*
X207724999Y-56099999D03*
D25*
X126050000Y-69100000D03*
D26*
X125550000Y-72800000D03*
X120550000Y-75000000D03*
D27*
X120550000Y-69100000D03*
D28*
X120550000Y-65899730D03*
X120550000Y-62900000D03*
D26*
X115550000Y-72800000D03*
D25*
X115050000Y-69100000D03*
D29*
X123349999Y-74999999D03*
D30*
X112474999Y-72799999D03*
D25*
X183200000Y-123700000D03*
D26*
X182700000Y-127400000D03*
X177700000Y-129600000D03*
D27*
X177700000Y-123700000D03*
D28*
X177700000Y-120499730D03*
X177700000Y-117500000D03*
D26*
X172700000Y-127400000D03*
D25*
X172200000Y-123700000D03*
D29*
X180499999Y-129599999D03*
D30*
X169624999Y-127399999D03*
D25*
X202250000Y-71450000D03*
D26*
X201750000Y-75150000D03*
X196750000Y-77350000D03*
D27*
X196750000Y-71450000D03*
D28*
X196750000Y-68249730D03*
X196750000Y-65250000D03*
D26*
X191750000Y-75150000D03*
D25*
X191250000Y-71450000D03*
D29*
X199549999Y-77349999D03*
D30*
X188674999Y-75149999D03*
D25*
X183200000Y-104650000D03*
D26*
X182700000Y-108350000D03*
X177700000Y-110550000D03*
D27*
X177700000Y-104650000D03*
D28*
X177700000Y-101449730D03*
X177700000Y-98450000D03*
D26*
X172700000Y-108350000D03*
D25*
X172200000Y-104650000D03*
D29*
X180499999Y-110549999D03*
D30*
X169624999Y-108349999D03*
D25*
X202250000Y-90500000D03*
D26*
X201750000Y-94200000D03*
X196750000Y-96400000D03*
D27*
X196750000Y-90500000D03*
D28*
X196750000Y-87299730D03*
X196750000Y-84300000D03*
D26*
X191750000Y-94200000D03*
D25*
X191250000Y-90500000D03*
D29*
X199549999Y-96399999D03*
D30*
X188674999Y-94199999D03*
D25*
X164150000Y-121200000D03*
D26*
X163650000Y-124900000D03*
X158650000Y-127100000D03*
D27*
X158650000Y-121200000D03*
D28*
X158650000Y-117999730D03*
X158650000Y-115000000D03*
D26*
X153650000Y-124900000D03*
D25*
X153150000Y-121200000D03*
D29*
X161449999Y-127099999D03*
D30*
X150574999Y-124899999D03*
D25*
X164150000Y-83100000D03*
D26*
X163650000Y-86800000D03*
X158650000Y-89000000D03*
D27*
X158650000Y-83100000D03*
D28*
X158650000Y-79899730D03*
X158650000Y-76900000D03*
D26*
X153650000Y-86800000D03*
D25*
X153150000Y-83100000D03*
D29*
X161449999Y-88999999D03*
D30*
X150574999Y-86799999D03*
D25*
X145100000Y-47500000D03*
D26*
X144600000Y-51200000D03*
X139600000Y-53400000D03*
D27*
X139600000Y-47500000D03*
D28*
X139600000Y-44299730D03*
X139600000Y-41300000D03*
D26*
X134600000Y-51200000D03*
D25*
X134100000Y-47500000D03*
D29*
X142399999Y-53399999D03*
D30*
X131524999Y-51199999D03*
D22*
X128639999Y-120009999D03*
D23*
X128640000Y-122360000D03*
X128640000Y-125660000D03*
D24*
X128640000Y-128010000D03*
D25*
X145100000Y-104650000D03*
D26*
X144600000Y-108350000D03*
X139600000Y-110550000D03*
D27*
X139600000Y-104650000D03*
D28*
X139600000Y-101449730D03*
X139600000Y-98450000D03*
D26*
X134600000Y-108350000D03*
D25*
X134100000Y-104650000D03*
D29*
X142399999Y-110549999D03*
D30*
X131524999Y-108349999D03*
D20*
X206000000Y-100000000D03*
D22*
X150574999Y-75074999D03*
D23*
X150575000Y-77425000D03*
X150575000Y-80725000D03*
D24*
X150575000Y-83075000D03*
D22*
X169624999Y-77574999D03*
D23*
X169625000Y-79925000D03*
X169625000Y-83225000D03*
D24*
X169625000Y-85575000D03*
D22*
X188674999Y-82474999D03*
D23*
X188675000Y-84825000D03*
X188675000Y-88125000D03*
D24*
X188675000Y-90475000D03*
D22*
X223874999Y-82474999D03*
D23*
X223875000Y-84825000D03*
X223875000Y-88125000D03*
D24*
X223875000Y-90475000D03*
D22*
X147674999Y-115674999D03*
D23*
X147675000Y-118025000D03*
X147675000Y-121325000D03*
D24*
X147675000Y-123675000D03*
D22*
X150574999Y-113174999D03*
D23*
X150575000Y-115525000D03*
X150575000Y-118825000D03*
D24*
X150575000Y-121175000D03*
D22*
X223874999Y-101524999D03*
D23*
X223875000Y-103875000D03*
X223875000Y-107175000D03*
D24*
X223875000Y-109525000D03*
D22*
X147674999Y-96624999D03*
D23*
X147675000Y-98975000D03*
X147675000Y-102275000D03*
D24*
X147675000Y-104625000D03*
D22*
X150574999Y-94124999D03*
D23*
X150575000Y-96475000D03*
X150575000Y-99775000D03*
D24*
X150575000Y-102125000D03*
D22*
X169624999Y-96624999D03*
D23*
X169625000Y-98975000D03*
X169625000Y-102275000D03*
D24*
X169625000Y-104625000D03*
D22*
X188674999Y-101524999D03*
D23*
X188675000Y-103875000D03*
X188675000Y-107175000D03*
D24*
X188675000Y-109525000D03*
D22*
X147674999Y-77574999D03*
D23*
X147675000Y-79925000D03*
X147675000Y-83225000D03*
D24*
X147675000Y-85575000D03*
D22*
X169624999Y-115674999D03*
D23*
X169625000Y-118025000D03*
X169625000Y-121325000D03*
D24*
X169625000Y-123675000D03*
D25*
X145100000Y-123700000D03*
D26*
X144600000Y-127400000D03*
X139600000Y-129600000D03*
D27*
X139600000Y-123700000D03*
D28*
X139600000Y-120499730D03*
X139600000Y-117500000D03*
D26*
X134600000Y-127400000D03*
D25*
X134100000Y-123700000D03*
D29*
X142399999Y-129599999D03*
D30*
X131524999Y-127399999D03*
D20*
X130527120Y-57573640D03*
X130375120Y-95852640D03*
D15*
X93180000Y-79740000D03*
D37*
X107699999Y-77734999D03*
D38*
X107699999Y-80274999D03*
X107699999Y-82814999D03*
X107699999Y-85354999D03*
X107699999Y-87894999D03*
D15*
X93180000Y-77498035D03*
D25*
X126050000Y-107150000D03*
D26*
X125550000Y-110850000D03*
X120550000Y-113050000D03*
D27*
X120550000Y-107150000D03*
D28*
X120550000Y-103949730D03*
X120550000Y-100950000D03*
D26*
X115550000Y-110850000D03*
D25*
X115050000Y-107150000D03*
D29*
X123349999Y-113049999D03*
D30*
X112474999Y-110849999D03*
D39*
X101699999Y-69800379D03*
X101699999Y-68789619D03*
X99199999Y-69800379D03*
X99199999Y-68789619D03*
X96699999Y-69800379D03*
X96699999Y-68789619D03*
X104299999Y-69800379D03*
X104299999Y-68789619D03*
M02*
