M48
; DRILL file {KiCad (7.0.0-0)} date Monday, March 20, 2023 at 06:34:50 PM
; FORMAT={-:-/ absolute / metric / decimal}
; #@! TF.CreationDate,2023-03-20T18:34:50-07:00
; #@! TF.GenerationSoftware,Kicad,Pcbnew,(7.0.0-0)
; #@! TF.FileFunction,Plated,1,2,PTH
FMAT,2
METRIC
; #@! TA.AperFunction,Plated,PTH,ViaDrill
T1C0.200
; #@! TA.AperFunction,Plated,PTH,ComponentDrill
T2C0.200
; #@! TA.AperFunction,Plated,PTH,ComponentDrill
T3C0.813
; #@! TA.AperFunction,Plated,PTH,ComponentDrill
T4C1.000
; #@! TA.AperFunction,Plated,PTH,ComponentDrill
T5C1.100
; #@! TA.AperFunction,Plated,PTH,ComponentDrill
T6C1.300
; #@! TA.AperFunction,Plated,PTH,ComponentDrill
T7C1.500
; #@! TA.AperFunction,Plated,PTH,ComponentDrill
T8C2.200
; #@! TA.AperFunction,Plated,PTH,ComponentDrill
T9C4.100
%
G90
G05
T1
X94.8Y-70.6
X95.1Y-43.792
X95.87Y-51.4
X95.914Y-67.78
X96.02Y-115.85
X96.64Y-48.8
X96.7Y-67.8
X96.9Y-44.966
X97.95Y-52.61
X100.1Y-123.18
X100.4Y-50.046
X100.423Y-68.8
X101.072Y-53.93
X101.588Y-55.126
X102.117Y-57.701
X102.642Y-60.241
X102.826Y-68.77
X103.1Y-67.9
X103.167Y-62.781
X103.692Y-64.288
X104.217Y-65.374
X104.742Y-67.229
X105.328Y-67.072
X105.35Y-63.76
X105.57Y-59.01
X105.6Y-51.4
X105.6Y-65.2
X105.7Y-56.7
X105.7Y-44.0
X105.7Y-61.9
X105.7Y-41.6
X105.7Y-54.2
X106.76Y-117.96
X108.09Y-133.14
X110.41Y-96.37
X110.5Y-41.975
X111.825Y-80.125
X113.075Y-41.45
X113.539Y-119.99
X126.79Y-117.296
X129.568Y-115.299
X132.125Y-41.45
X158.17Y-113.01
X164.59Y-112.47
X166.49Y-38.22
X183.85Y-132.91
X185.6Y-41.258
X187.145Y-115.055
X194.12Y-100.58
X200.39Y-43.84
X204.79Y-43.295
T2
X89.121Y-133.856
X89.587Y-137.513
X89.682Y-128.826
X92.521Y-139.744
X93.376Y-135.325
X97.157Y-141.774
X98.083Y-130.298
X99.131Y-128.113
X99.64Y-128.995
X100.083Y-133.762
X101.912Y-129.011
X101.99Y-133.065
X102.499Y-133.947
X103.112Y-131.089
X111.363Y-134.005
X113.075Y-53.8
X113.075Y-72.9
X113.075Y-91.9
X113.075Y-110.95
X113.12Y-124.693
X114.103Y-124.43
X114.707Y-122.239
X114.959Y-126.271
X116.076Y-135.848
X117.025Y-121.618
X117.15Y-56.8
X117.15Y-75.9
X117.15Y-94.9
X117.15Y-113.95
X117.182Y-45.26
X117.182Y-64.36
X117.182Y-83.36
X117.182Y-102.41
X118.2Y-45.26
X118.2Y-64.36
X118.2Y-83.36
X118.2Y-102.41
X118.55Y-47.26
X118.55Y-66.36
X118.55Y-85.36
X118.55Y-104.41
X118.596Y-132.119
X118.643Y-123.213
X118.823Y-125.236
X119.35Y-43.3
X119.35Y-62.4
X119.35Y-81.4
X119.35Y-100.45
X119.626Y-122.95
X119.729Y-136.345
X120.55Y-53.85
X120.55Y-72.95
X120.55Y-91.95
X120.55Y-111.0
X120.55Y-58.225
X120.55Y-77.325
X120.55Y-96.325
X120.55Y-115.375
X121.75Y-43.3
X121.75Y-62.4
X121.75Y-81.4
X121.75Y-100.45
X122.55Y-47.26
X122.55Y-66.36
X122.55Y-85.36
X122.55Y-104.41
X122.644Y-134.088
X122.9Y-45.26
X122.9Y-64.36
X122.9Y-83.36
X122.9Y-102.41
X123.918Y-45.26
X123.918Y-64.36
X123.918Y-83.36
X123.918Y-102.41
X123.95Y-56.8
X123.95Y-75.9
X123.95Y-94.9
X123.95Y-113.95
X125.804Y-130.136
X128.025Y-53.8
X128.025Y-72.9
X128.025Y-91.9
X128.025Y-110.95
X132.125Y-51.3
X132.125Y-70.35
X132.125Y-89.4
X132.125Y-108.45
X132.125Y-127.5
X136.2Y-54.3
X136.2Y-73.35
X136.2Y-92.4
X136.2Y-111.45
X136.2Y-130.5
X136.232Y-42.76
X136.232Y-61.81
X136.232Y-80.86
X136.232Y-99.91
X136.232Y-118.96
X137.25Y-42.76
X137.25Y-61.81
X137.25Y-80.86
X137.25Y-99.91
X137.25Y-118.96
X137.6Y-44.76
X137.6Y-63.81
X137.6Y-82.86
X137.6Y-101.91
X137.6Y-120.96
X138.4Y-40.8
X138.4Y-59.85
X138.4Y-78.9
X138.4Y-97.95
X138.4Y-117.0
X139.6Y-51.35
X139.6Y-70.4
X139.6Y-89.45
X139.6Y-108.5
X139.6Y-127.55
X139.6Y-55.725
X139.6Y-74.775
X139.6Y-93.825
X139.6Y-112.875
X139.6Y-131.925
X140.8Y-40.8
X140.8Y-59.85
X140.8Y-78.9
X140.8Y-97.95
X140.8Y-117.0
X141.6Y-44.76
X141.6Y-63.81
X141.6Y-82.86
X141.6Y-101.91
X141.6Y-120.96
X141.95Y-42.76
X141.95Y-61.81
X141.95Y-80.86
X141.95Y-99.91
X141.95Y-118.96
X142.968Y-42.76
X142.968Y-61.81
X142.968Y-80.86
X142.968Y-99.91
X142.968Y-118.96
X143.0Y-54.3
X143.0Y-73.35
X143.0Y-92.4
X143.0Y-111.45
X143.0Y-130.5
X147.075Y-51.3
X147.075Y-70.35
X147.075Y-89.4
X147.075Y-108.45
X147.075Y-127.5
X151.175Y-48.8
X151.175Y-67.85
X151.175Y-86.9
X151.175Y-105.95
X151.175Y-125.0
X155.25Y-51.8
X155.25Y-70.85
X155.25Y-89.9
X155.25Y-108.95
X155.25Y-128.0
X155.282Y-40.26
X155.282Y-59.31
X155.282Y-78.36
X155.282Y-97.41
X155.282Y-116.46
X156.3Y-40.26
X156.3Y-59.31
X156.3Y-78.36
X156.3Y-97.41
X156.3Y-116.46
X156.65Y-42.26
X156.65Y-61.31
X156.65Y-80.36
X156.65Y-99.41
X156.65Y-118.46
X157.45Y-38.3
X157.45Y-57.35
X157.45Y-76.4
X157.45Y-95.45
X157.45Y-114.5
X158.65Y-48.85
X158.65Y-67.9
X158.65Y-86.95
X158.65Y-106.0
X158.65Y-125.05
X158.65Y-53.225
X158.65Y-72.275
X158.65Y-91.325
X158.65Y-110.375
X158.65Y-129.425
X159.85Y-38.3
X159.85Y-57.35
X159.85Y-76.4
X159.85Y-95.45
X159.85Y-114.5
X160.65Y-42.26
X160.65Y-61.31
X160.65Y-80.36
X160.65Y-99.41
X160.65Y-118.46
X161.0Y-40.26
X161.0Y-59.31
X161.0Y-78.36
X161.0Y-97.41
X161.0Y-116.46
X162.018Y-40.26
X162.018Y-59.31
X162.018Y-78.36
X162.018Y-97.41
X162.018Y-116.46
X162.05Y-51.8
X162.05Y-70.85
X162.05Y-89.9
X162.05Y-108.95
X162.05Y-128.0
X166.125Y-48.8
X166.125Y-67.85
X166.125Y-86.9
X166.125Y-105.95
X166.125Y-125.0
X170.225Y-51.3
X170.225Y-70.35
X170.225Y-89.4
X170.225Y-108.45
X170.225Y-127.5
X174.3Y-54.3
X174.3Y-73.35
X174.3Y-92.4
X174.3Y-111.45
X174.3Y-130.5
X174.332Y-42.76
X174.332Y-61.81
X174.332Y-80.86
X174.332Y-99.91
X174.332Y-118.96
X175.35Y-42.76
X175.35Y-61.81
X175.35Y-80.86
X175.35Y-99.91
X175.35Y-118.96
X175.7Y-44.76
X175.7Y-63.81
X175.7Y-82.86
X175.7Y-101.91
X175.7Y-120.96
X176.5Y-40.8
X176.5Y-59.85
X176.5Y-78.9
X176.5Y-97.95
X176.5Y-117.0
X177.7Y-51.35
X177.7Y-70.4
X177.7Y-89.45
X177.7Y-108.5
X177.7Y-127.55
X177.7Y-55.725
X177.7Y-74.775
X177.7Y-93.825
X177.7Y-112.875
X177.7Y-131.925
X178.9Y-40.8
X178.9Y-59.85
X178.9Y-78.9
X178.9Y-97.95
X178.9Y-117.0
X179.7Y-44.76
X179.7Y-63.81
X179.7Y-82.86
X179.7Y-101.91
X179.7Y-120.96
X180.05Y-42.76
X180.05Y-61.81
X180.05Y-80.86
X180.05Y-99.91
X180.05Y-118.96
X181.068Y-42.76
X181.068Y-61.81
X181.068Y-80.86
X181.068Y-99.91
X181.068Y-118.96
X181.1Y-54.3
X181.1Y-73.35
X181.1Y-92.4
X181.1Y-111.45
X181.1Y-130.5
X185.175Y-51.3
X185.175Y-70.35
X185.175Y-89.4
X185.175Y-108.45
X185.175Y-127.5
X189.275Y-56.2
X189.275Y-75.25
X189.275Y-94.3
X189.275Y-113.35
X193.35Y-59.2
X193.35Y-78.25
X193.35Y-97.3
X193.35Y-116.35
X193.382Y-47.66
X193.382Y-66.71
X193.382Y-85.76
X193.382Y-104.81
X194.4Y-47.66
X194.4Y-66.71
X194.4Y-85.76
X194.4Y-104.81
X194.75Y-49.66
X194.75Y-68.71
X194.75Y-87.76
X194.75Y-106.81
X195.55Y-45.7
X195.55Y-64.75
X195.55Y-83.8
X195.55Y-102.85
X196.75Y-56.25
X196.75Y-75.3
X196.75Y-94.35
X196.75Y-113.4
X196.75Y-60.625
X196.75Y-79.675
X196.75Y-98.725
X196.75Y-117.775
X197.95Y-45.7
X197.95Y-64.75
X197.95Y-83.8
X197.95Y-102.85
X198.75Y-49.66
X198.75Y-68.71
X198.75Y-87.76
X198.75Y-106.81
X199.1Y-47.66
X199.1Y-66.71
X199.1Y-85.76
X199.1Y-104.81
X200.118Y-47.66
X200.118Y-66.71
X200.118Y-85.76
X200.118Y-104.81
X200.15Y-59.2
X200.15Y-78.25
X200.15Y-97.3
X200.15Y-116.35
X204.225Y-56.2
X204.225Y-75.25
X204.225Y-94.3
X204.225Y-113.35
X208.325Y-56.2
X208.325Y-75.25
X208.325Y-94.3
X208.325Y-113.35
X212.4Y-59.2
X212.4Y-78.25
X212.4Y-97.3
X212.4Y-116.35
X212.432Y-47.66
X212.432Y-66.71
X212.432Y-85.76
X212.432Y-104.81
X213.45Y-47.66
X213.45Y-66.71
X213.45Y-85.76
X213.45Y-104.81
X213.8Y-49.66
X213.8Y-68.71
X213.8Y-87.76
X213.8Y-106.81
X214.6Y-45.7
X214.6Y-64.75
X214.6Y-83.8
X214.6Y-102.85
X215.8Y-56.25
X215.8Y-75.3
X215.8Y-94.35
X215.8Y-113.4
X215.8Y-60.625
X215.8Y-79.675
X215.8Y-98.725
X215.8Y-117.775
X217.0Y-45.7
X217.0Y-64.75
X217.0Y-83.8
X217.0Y-102.85
X217.8Y-49.66
X217.8Y-68.71
X217.8Y-87.76
X217.8Y-106.81
X218.15Y-47.66
X218.15Y-66.71
X218.15Y-85.76
X218.15Y-104.81
X219.168Y-47.66
X219.168Y-66.71
X219.168Y-85.76
X219.168Y-104.81
X219.2Y-59.2
X219.2Y-78.25
X219.2Y-97.3
X219.2Y-116.35
X223.275Y-56.2
X223.275Y-75.25
X223.275Y-94.3
X223.275Y-113.35
T3
X91.93Y-41.23
X91.93Y-43.77
X91.93Y-46.31
X91.93Y-48.85
X91.93Y-51.39
X91.93Y-53.93
X91.93Y-56.47
X91.93Y-59.01
X91.93Y-61.55
X91.93Y-64.09
X91.93Y-66.63
X91.93Y-69.17
X93.18Y-77.498
X93.18Y-79.74
X93.479Y-42.426
X93.479Y-44.966
X93.479Y-47.506
X93.479Y-50.046
X93.479Y-52.586
X93.479Y-55.126
X93.479Y-57.666
X93.479Y-60.206
X93.479Y-62.746
X93.479Y-65.286
X93.479Y-67.826
X93.479Y-70.366
X96.47Y-77.498
X96.47Y-79.74
X96.7Y-74.6
X99.24Y-74.6
X101.78Y-74.6
X104.32Y-74.6
X104.55Y-77.498
X104.55Y-79.74
X107.17Y-41.23
X107.17Y-43.77
X107.17Y-46.31
X107.17Y-48.85
X107.17Y-51.39
X107.17Y-53.93
X107.17Y-56.47
X107.17Y-59.01
X107.17Y-61.55
X107.17Y-64.09
X107.17Y-66.63
X107.17Y-69.17
X108.719Y-42.426
X108.719Y-44.966
X108.719Y-47.506
X108.719Y-50.046
X108.719Y-52.586
X108.719Y-55.126
X108.719Y-57.666
X108.719Y-60.206
X108.719Y-62.746
X108.719Y-65.286
X108.719Y-67.826
X108.719Y-70.366
T4
X92.5Y-102.0
X92.5Y-104.5
X92.5Y-107.0
X107.0Y-102.0
X107.0Y-107.0
X107.7Y-77.735
X107.7Y-80.275
X107.7Y-82.815
X107.7Y-85.355
X107.7Y-87.895
T5
X106.37Y-129.1
X106.37Y-137.1
X109.67Y-103.94
X109.67Y-111.94
X128.625Y-41.975
X128.625Y-49.975
X128.625Y-61.325
X128.625Y-69.325
X128.625Y-80.075
X128.625Y-88.075
X128.625Y-99.875
X128.625Y-107.875
X128.64Y-120.01
X128.64Y-128.01
X147.675Y-39.475
X147.675Y-47.475
X147.675Y-58.525
X147.675Y-66.525
X147.675Y-77.575
X147.675Y-85.575
X147.675Y-96.625
X147.675Y-104.625
X147.675Y-115.675
X147.675Y-123.675
X150.575Y-38.225
X150.575Y-46.225
X150.575Y-56.025
X150.575Y-64.025
X150.575Y-75.075
X150.575Y-83.075
X150.575Y-94.125
X150.575Y-102.125
X150.575Y-113.175
X150.575Y-121.175
X169.625Y-39.475
X169.625Y-47.475
X169.625Y-58.525
X169.625Y-66.525
X169.625Y-77.575
X169.625Y-85.575
X169.625Y-96.625
X169.625Y-104.625
X169.625Y-115.675
X169.625Y-123.675
X188.675Y-44.375
X188.675Y-52.375
X188.675Y-63.425
X188.675Y-71.425
X188.675Y-82.475
X188.675Y-90.475
X188.675Y-101.525
X188.675Y-109.525
X223.875Y-44.625
X223.875Y-52.625
X223.875Y-63.425
X223.875Y-71.425
X223.875Y-82.475
X223.875Y-90.475
X223.875Y-101.525
X223.875Y-109.525
T6
X90.0Y-74.25
X90.0Y-80.75
T8
X91.5Y-93.5
X107.0Y-93.5
T9
X103.0Y-119.0
X130.375Y-95.853
X130.527Y-57.574
X206.0Y-61.5
X206.0Y-100.0
T4
X91.05Y-83.55G85X91.55Y-83.55
G05
X91.05Y-89.5G85X91.55Y-89.5
G05
X94.05Y-83.55G85X94.55Y-83.55
G05
X94.05Y-89.5G85X94.55Y-89.5
G05
X98.05Y-83.55G85X98.55Y-83.55
G05
X98.05Y-89.5G85X98.55Y-89.5
G05
X99.55Y-85.3G85X100.05Y-85.3
G05
X99.55Y-87.75G85X100.05Y-87.75
G05
T7
X99.35Y-98.9G85X100.65Y-98.9
G05
X99.35Y-110.1G85X100.65Y-110.1
G05
T0
M30
