G04 #@! TF.GenerationSoftware,KiCad,Pcbnew,(7.0.0-0)*
G04 #@! TF.CreationDate,2023-03-20T18:34:57-07:00*
G04 #@! TF.ProjectId,SofleKeyboard,536f666c-654b-4657-9962-6f6172642e6b,rev?*
G04 #@! TF.SameCoordinates,Original*
G04 #@! TF.FileFunction,Profile,NP*
%FSLAX46Y46*%
G04 Gerber Fmt 4.6, Leading zero omitted, Abs format (unit mm)*
G04 Created by KiCad (PCBNEW (7.0.0-0)) date 2023-03-20 18:34:57*
%MOMM*%
%LPD*%
G01*
G04 APERTURE LIST*
G04 #@! TA.AperFunction,Profile*
%ADD10C,0.100000*%
G04 #@! TD*
G04 #@! TA.AperFunction,Profile*
%ADD11C,0.150000*%
G04 #@! TD*
G04 APERTURE END LIST*
D10*
X225283881Y-43997807D02*
X225370281Y-44178672D01*
X92550000Y-146200000D02*
X82300000Y-128400000D01*
X170950000Y-35000000D02*
X224475441Y-43445146D01*
X88297257Y-38245261D02*
X88364377Y-38029014D01*
X88611259Y-37662831D02*
X88781752Y-37522160D01*
X225424381Y-44374571D02*
X225443181Y-44581902D01*
X88781752Y-37522160D02*
X88977436Y-37415945D01*
X225370281Y-44178672D02*
X225424381Y-44374571D01*
X82200000Y-126400000D02*
X88000000Y-115650000D01*
X88364377Y-38029014D02*
X88470590Y-37833327D01*
X88273857Y-38477435D02*
X88297257Y-38245261D01*
X224677111Y-43496776D02*
X224861871Y-43581466D01*
X224475441Y-43445146D02*
X224677111Y-43496776D01*
X88470590Y-37833327D02*
X88611259Y-37662831D01*
X92550000Y-146200000D02*
X92900000Y-146500000D01*
X138154128Y-134000000D02*
X187500000Y-134000000D01*
X149000000Y-35000000D02*
X89425853Y-37325405D01*
X88275257Y-114400000D02*
X88200000Y-115050000D01*
X82300000Y-128400000D02*
X82150000Y-127900000D01*
X82100000Y-126900000D02*
X82200000Y-126400000D01*
X82100000Y-127300000D02*
X82100000Y-126900000D01*
X88200000Y-115050000D02*
X88000000Y-115650000D01*
X93350000Y-146650000D02*
X93900000Y-146750000D01*
X82150000Y-127900000D02*
X82100000Y-127300000D01*
X92900000Y-146500000D02*
X93350000Y-146650000D01*
D11*
X225470181Y-119500000D02*
X187500000Y-134000000D01*
D10*
X88275257Y-114400000D02*
X88273857Y-38477435D01*
X225168321Y-43835582D02*
X225283881Y-43997807D01*
X224861871Y-43581466D02*
X225026621Y-43695600D01*
X149000000Y-35000000D02*
X170950000Y-35000000D01*
X88977436Y-37415945D02*
X89193680Y-37348815D01*
X89193680Y-37348815D02*
X89425853Y-37325405D01*
X225026621Y-43695600D02*
X225168321Y-43835582D01*
X138154128Y-134000000D02*
X93900000Y-146750000D01*
X225443181Y-44581902D02*
X225470181Y-119500000D01*
X122250000Y-46800000D02*
X122250000Y-43800000D01*
X122250000Y-46800000D02*
X118850000Y-46800000D01*
X122250000Y-43800000D02*
X118850000Y-43800000D01*
X118850000Y-43800000D02*
X118850000Y-46800000D01*
X160350000Y-41800000D02*
X160350000Y-38800000D01*
X160350000Y-41800000D02*
X156950000Y-41800000D01*
X160350000Y-38800000D02*
X156950000Y-38800000D01*
X156950000Y-38800000D02*
X156950000Y-41800000D01*
X122250000Y-84900000D02*
X122250000Y-81900000D01*
X122250000Y-84900000D02*
X118850000Y-84900000D01*
X122250000Y-81900000D02*
X118850000Y-81900000D01*
X118850000Y-81900000D02*
X118850000Y-84900000D01*
X141300000Y-82400000D02*
X141300000Y-79400000D01*
X141300000Y-82400000D02*
X137900000Y-82400000D01*
X141300000Y-79400000D02*
X137900000Y-79400000D01*
X137900000Y-79400000D02*
X137900000Y-82400000D01*
X160350000Y-98950000D02*
X160350000Y-95950000D01*
X160350000Y-98950000D02*
X156950000Y-98950000D01*
X160350000Y-95950000D02*
X156950000Y-95950000D01*
X156950000Y-95950000D02*
X156950000Y-98950000D01*
X198450000Y-106350000D02*
X198450000Y-103350000D01*
X198450000Y-106350000D02*
X195050000Y-106350000D01*
X198450000Y-103350000D02*
X195050000Y-103350000D01*
X195050000Y-103350000D02*
X195050000Y-106350000D01*
X100331281Y-133272243D02*
X102929358Y-131772243D01*
X100331281Y-133272243D02*
X98631281Y-130327757D01*
X102929358Y-131772243D02*
X101229358Y-128827757D01*
X101229358Y-128827757D02*
X98631281Y-130327757D01*
X118413853Y-124869045D02*
X117637396Y-121971268D01*
X118413853Y-124869045D02*
X115129705Y-125749030D01*
X117637396Y-121971268D02*
X114353248Y-122851252D01*
X114353248Y-122851252D02*
X115129705Y-125749030D01*
X217500000Y-68250000D02*
X217500000Y-65250000D01*
X217500000Y-68250000D02*
X214100000Y-68250000D01*
X217500000Y-65250000D02*
X214100000Y-65250000D01*
X214100000Y-65250000D02*
X214100000Y-68250000D01*
X217500000Y-87300000D02*
X217500000Y-84300000D01*
X217500000Y-87300000D02*
X214100000Y-87300000D01*
X217500000Y-84300000D02*
X214100000Y-84300000D01*
X214100000Y-84300000D02*
X214100000Y-87300000D01*
X217500000Y-106350000D02*
X217500000Y-103350000D01*
X217500000Y-106350000D02*
X214100000Y-106350000D01*
X217500000Y-103350000D02*
X214100000Y-103350000D01*
X214100000Y-103350000D02*
X214100000Y-106350000D01*
X179400000Y-44300000D02*
X179400000Y-41300000D01*
X179400000Y-44300000D02*
X176000000Y-44300000D01*
X179400000Y-41300000D02*
X176000000Y-41300000D01*
X176000000Y-41300000D02*
X176000000Y-44300000D01*
X198450000Y-49200000D02*
X198450000Y-46200000D01*
X198450000Y-49200000D02*
X195050000Y-49200000D01*
X198450000Y-46200000D02*
X195050000Y-46200000D01*
X195050000Y-46200000D02*
X195050000Y-49200000D01*
X141300000Y-63350000D02*
X141300000Y-60350000D01*
X141300000Y-63350000D02*
X137900000Y-63350000D01*
X141300000Y-60350000D02*
X137900000Y-60350000D01*
X137900000Y-60350000D02*
X137900000Y-63350000D01*
X179400000Y-63350000D02*
X179400000Y-60350000D01*
X179400000Y-63350000D02*
X176000000Y-63350000D01*
X179400000Y-60350000D02*
X176000000Y-60350000D01*
X176000000Y-60350000D02*
X176000000Y-63350000D01*
X160350000Y-60850000D02*
X160350000Y-57850000D01*
X160350000Y-60850000D02*
X156950000Y-60850000D01*
X160350000Y-57850000D02*
X156950000Y-57850000D01*
X156950000Y-57850000D02*
X156950000Y-60850000D01*
X179400000Y-82400000D02*
X179400000Y-79400000D01*
X179400000Y-82400000D02*
X176000000Y-82400000D01*
X179400000Y-79400000D02*
X176000000Y-79400000D01*
X176000000Y-79400000D02*
X176000000Y-82400000D01*
X217500000Y-49200000D02*
X217500000Y-46200000D01*
X217500000Y-49200000D02*
X214100000Y-49200000D01*
X217500000Y-46200000D02*
X214100000Y-46200000D01*
X214100000Y-46200000D02*
X214100000Y-49200000D01*
X122250000Y-65900000D02*
X122250000Y-62900000D01*
X122250000Y-65900000D02*
X118850000Y-65900000D01*
X122250000Y-62900000D02*
X118850000Y-62900000D01*
X118850000Y-62900000D02*
X118850000Y-65900000D01*
X179400000Y-120500000D02*
X179400000Y-117500000D01*
X179400000Y-120500000D02*
X176000000Y-120500000D01*
X179400000Y-117500000D02*
X176000000Y-117500000D01*
X176000000Y-117500000D02*
X176000000Y-120500000D01*
X198450000Y-68250000D02*
X198450000Y-65250000D01*
X198450000Y-68250000D02*
X195050000Y-68250000D01*
X198450000Y-65250000D02*
X195050000Y-65250000D01*
X195050000Y-65250000D02*
X195050000Y-68250000D01*
X179400000Y-101450000D02*
X179400000Y-98450000D01*
X179400000Y-101450000D02*
X176000000Y-101450000D01*
X179400000Y-98450000D02*
X176000000Y-98450000D01*
X176000000Y-98450000D02*
X176000000Y-101450000D01*
X198450000Y-87300000D02*
X198450000Y-84300000D01*
X198450000Y-87300000D02*
X195050000Y-87300000D01*
X198450000Y-84300000D02*
X195050000Y-84300000D01*
X195050000Y-84300000D02*
X195050000Y-87300000D01*
X160350000Y-118000000D02*
X160350000Y-115000000D01*
X160350000Y-118000000D02*
X156950000Y-118000000D01*
X160350000Y-115000000D02*
X156950000Y-115000000D01*
X156950000Y-115000000D02*
X156950000Y-118000000D01*
X160350000Y-79900000D02*
X160350000Y-76900000D01*
X160350000Y-79900000D02*
X156950000Y-79900000D01*
X160350000Y-76900000D02*
X156950000Y-76900000D01*
X156950000Y-76900000D02*
X156950000Y-79900000D01*
X141300000Y-44300000D02*
X141300000Y-41300000D01*
X141300000Y-44300000D02*
X137900000Y-44300000D01*
X141300000Y-41300000D02*
X137900000Y-41300000D01*
X137900000Y-41300000D02*
X137900000Y-44300000D01*
X141300000Y-101450000D02*
X141300000Y-98450000D01*
X141300000Y-101450000D02*
X137900000Y-101450000D01*
X141300000Y-98450000D02*
X137900000Y-98450000D01*
X137900000Y-98450000D02*
X137900000Y-101450000D01*
X141300000Y-120500000D02*
X141300000Y-117500000D01*
X141300000Y-120500000D02*
X137900000Y-120500000D01*
X141300000Y-117500000D02*
X137900000Y-117500000D01*
X137900000Y-117500000D02*
X137900000Y-120500000D01*
X122250000Y-103950000D02*
X122250000Y-100950000D01*
X122250000Y-103950000D02*
X118850000Y-103950000D01*
X122250000Y-100950000D02*
X118850000Y-100950000D01*
X118850000Y-100950000D02*
X118850000Y-103950000D01*
M02*
