M48
; DRILL file {KiCad (7.0.0-0)} date Monday, March 20, 2023 at 06:34:50 PM
; FORMAT={-:-/ absolute / metric / decimal}
; #@! TF.CreationDate,2023-03-20T18:34:50-07:00
; #@! TF.GenerationSoftware,Kicad,Pcbnew,(7.0.0-0)
; #@! TF.FileFunction,NonPlated,1,2,NPTH
FMAT,2
METRIC
; #@! TA.AperFunction,NonPlated,NPTH,ComponentDrill
T1C0.300
; #@! TA.AperFunction,NonPlated,NPTH,ComponentDrill
T2C1.000
; #@! TA.AperFunction,NonPlated,NPTH,ComponentDrill
T3C1.200
; #@! TA.AperFunction,NonPlated,NPTH,ComponentDrill
T4C1.800
; #@! TA.AperFunction,NonPlated,NPTH,ComponentDrill
T5C3.000
; #@! TA.AperFunction,NonPlated,NPTH,ComponentDrill
T6C4.800
%
G90
G05
T2
X99.482Y-131.8
X102.079Y-130.3
X115.995Y-122.411
X116.772Y-125.309
X120.55Y-43.8
X120.55Y-46.8
X120.55Y-62.9
X120.55Y-65.9
X120.55Y-81.9
X120.55Y-84.9
X120.55Y-100.95
X120.55Y-103.95
X139.6Y-41.3
X139.6Y-44.3
X139.6Y-60.35
X139.6Y-63.35
X139.6Y-79.4
X139.6Y-82.4
X139.6Y-98.45
X139.6Y-101.45
X139.6Y-117.5
X139.6Y-120.5
X158.65Y-38.8
X158.65Y-41.8
X158.65Y-57.85
X158.65Y-60.85
X158.65Y-76.9
X158.65Y-79.9
X158.65Y-95.95
X158.65Y-98.95
X158.65Y-115.0
X158.65Y-118.0
X177.7Y-41.3
X177.7Y-44.3
X177.7Y-60.35
X177.7Y-63.35
X177.7Y-79.4
X177.7Y-82.4
X177.7Y-98.45
X177.7Y-101.45
X177.7Y-117.5
X177.7Y-120.5
X196.75Y-46.2
X196.75Y-49.2
X196.75Y-65.25
X196.75Y-68.25
X196.75Y-84.3
X196.75Y-87.3
X196.75Y-103.35
X196.75Y-106.35
X215.8Y-46.2
X215.8Y-49.2
X215.8Y-65.25
X215.8Y-68.25
X215.8Y-84.3
X215.8Y-87.3
X215.8Y-103.35
X215.8Y-106.35
T3
X89.5Y-85.65
X89.5Y-87.4
X96.5Y-85.65
X96.5Y-87.4
T4
X93.96Y-128.637
X99.46Y-138.163
X112.287Y-129.824
X115.05Y-50.0
X115.05Y-69.1
X115.05Y-88.1
X115.05Y-107.15
X122.913Y-126.976
X126.05Y-50.0
X126.05Y-69.1
X126.05Y-88.1
X126.05Y-107.15
X134.1Y-47.5
X134.1Y-66.55
X134.1Y-85.6
X134.1Y-104.65
X134.1Y-123.7
X145.1Y-47.5
X145.1Y-66.55
X145.1Y-85.6
X145.1Y-104.65
X145.1Y-123.7
X153.15Y-45.0
X153.15Y-64.05
X153.15Y-83.1
X153.15Y-102.15
X153.15Y-121.2
X164.15Y-45.0
X164.15Y-64.05
X164.15Y-83.1
X164.15Y-102.15
X164.15Y-121.2
X172.2Y-47.5
X172.2Y-66.55
X172.2Y-85.6
X172.2Y-104.65
X172.2Y-123.7
X183.2Y-47.5
X183.2Y-66.55
X183.2Y-85.6
X183.2Y-104.65
X183.2Y-123.7
X191.25Y-52.4
X191.25Y-71.45
X191.25Y-90.5
X191.25Y-109.55
X202.25Y-52.4
X202.25Y-71.45
X202.25Y-90.5
X202.25Y-109.55
X210.3Y-52.4
X210.3Y-71.45
X210.3Y-90.5
X210.3Y-109.55
X221.3Y-52.4
X221.3Y-71.45
X221.3Y-90.5
X221.3Y-109.55
T5
X91.006Y-130.92
X91.6Y-136.35
X96.006Y-139.58
X113.728Y-133.268
X115.55Y-53.7
X115.55Y-72.8
X115.55Y-91.8
X115.55Y-110.85
X119.127Y-134.099
X120.55Y-55.9
X120.55Y-75.0
X120.55Y-94.0
X120.55Y-113.05
X123.387Y-130.68
X125.55Y-53.7
X125.55Y-72.8
X125.55Y-91.8
X125.55Y-110.85
X134.6Y-51.2
X134.6Y-70.25
X134.6Y-89.3
X134.6Y-108.35
X134.6Y-127.4
X139.6Y-53.4
X139.6Y-72.45
X139.6Y-91.5
X139.6Y-110.55
X139.6Y-129.6
X144.6Y-51.2
X144.6Y-70.25
X144.6Y-89.3
X144.6Y-108.35
X144.6Y-127.4
X153.65Y-48.7
X153.65Y-67.75
X153.65Y-86.8
X153.65Y-105.85
X153.65Y-124.9
X158.65Y-50.9
X158.65Y-69.95
X158.65Y-89.0
X158.65Y-108.05
X158.65Y-127.1
X163.65Y-48.7
X163.65Y-67.75
X163.65Y-86.8
X163.65Y-105.85
X163.65Y-124.9
X172.7Y-51.2
X172.7Y-70.25
X172.7Y-89.3
X172.7Y-108.35
X172.7Y-127.4
X177.7Y-53.4
X177.7Y-72.45
X177.7Y-91.5
X177.7Y-110.55
X177.7Y-129.6
X182.7Y-51.2
X182.7Y-70.25
X182.7Y-89.3
X182.7Y-108.35
X182.7Y-127.4
X191.75Y-56.1
X191.75Y-75.15
X191.75Y-94.2
X191.75Y-113.25
X196.75Y-58.3
X196.75Y-77.35
X196.75Y-96.4
X196.75Y-115.45
X201.75Y-56.1
X201.75Y-75.15
X201.75Y-94.2
X201.75Y-113.25
X210.8Y-56.1
X210.8Y-75.15
X210.8Y-94.2
X210.8Y-113.25
X215.8Y-58.3
X215.8Y-77.35
X215.8Y-96.4
X215.8Y-115.45
X220.8Y-56.1
X220.8Y-75.15
X220.8Y-94.2
X220.8Y-113.25
T6
X96.71Y-133.4
X117.6Y-128.4
X120.55Y-50.0
X120.55Y-69.1
X120.55Y-88.1
X120.55Y-107.15
X139.6Y-47.5
X139.6Y-66.55
X139.6Y-85.6
X139.6Y-104.65
X139.6Y-123.7
X158.65Y-45.0
X158.65Y-64.05
X158.65Y-83.1
X158.65Y-102.15
X158.65Y-121.2
X177.7Y-47.5
X177.7Y-66.55
X177.7Y-85.6
X177.7Y-104.65
X177.7Y-123.7
X196.75Y-52.4
X196.75Y-71.45
X196.75Y-90.5
X196.75Y-109.55
X215.8Y-52.4
X215.8Y-71.45
X215.8Y-90.5
X215.8Y-109.55
T1
X98.845Y-126.798G85X98.495Y-126.192
G05
X103.845Y-135.458G85X103.495Y-134.852
G05
X111.776Y-124.629G85X111.099Y-124.81
G05
X115.9Y-44.85G85X115.2Y-44.85
G05
X115.9Y-63.95G85X115.2Y-63.95
G05
X115.9Y-82.95G85X115.2Y-82.95
G05
X115.9Y-102.0G85X115.2Y-102.0
G05
X121.435Y-122.041G85X120.759Y-122.222
G05
X125.9Y-44.85G85X125.2Y-44.85
G05
X125.9Y-63.95G85X125.2Y-63.95
G05
X125.9Y-82.95G85X125.2Y-82.95
G05
X125.9Y-102.0G85X125.2Y-102.0
G05
X134.95Y-42.35G85X134.25Y-42.35
G05
X134.95Y-61.4G85X134.25Y-61.4
G05
X134.95Y-80.45G85X134.25Y-80.45
G05
X134.95Y-99.5G85X134.25Y-99.5
G05
X134.95Y-118.55G85X134.25Y-118.55
G05
X144.95Y-42.35G85X144.25Y-42.35
G05
X144.95Y-61.4G85X144.25Y-61.4
G05
X144.95Y-80.45G85X144.25Y-80.45
G05
X144.95Y-99.5G85X144.25Y-99.5
G05
X144.95Y-118.55G85X144.25Y-118.55
G05
X154.0Y-39.85G85X153.3Y-39.85
G05
X154.0Y-58.9G85X153.3Y-58.9
G05
X154.0Y-77.95G85X153.3Y-77.95
G05
X154.0Y-97.0G85X153.3Y-97.0
G05
X154.0Y-116.05G85X153.3Y-116.05
G05
X164.0Y-39.85G85X163.3Y-39.85
G05
X164.0Y-58.9G85X163.3Y-58.9
G05
X164.0Y-77.95G85X163.3Y-77.95
G05
X164.0Y-97.0G85X163.3Y-97.0
G05
X164.0Y-116.05G85X163.3Y-116.05
G05
X173.05Y-42.35G85X172.35Y-42.35
G05
X173.05Y-61.4G85X172.35Y-61.4
G05
X173.05Y-80.45G85X172.35Y-80.45
G05
X173.05Y-99.5G85X172.35Y-99.5
G05
X173.05Y-118.55G85X172.35Y-118.55
G05
X183.05Y-42.35G85X182.35Y-42.35
G05
X183.05Y-61.4G85X182.35Y-61.4
G05
X183.05Y-80.45G85X182.35Y-80.45
G05
X183.05Y-99.5G85X182.35Y-99.5
G05
X183.05Y-118.55G85X182.35Y-118.55
G05
X192.1Y-47.25G85X191.4Y-47.25
G05
X192.1Y-66.3G85X191.4Y-66.3
G05
X192.1Y-85.35G85X191.4Y-85.35
G05
X192.1Y-104.4G85X191.4Y-104.4
G05
X202.1Y-47.25G85X201.4Y-47.25
G05
X202.1Y-66.3G85X201.4Y-66.3
G05
X202.1Y-85.35G85X201.4Y-85.35
G05
X202.1Y-104.4G85X201.4Y-104.4
G05
X211.15Y-47.25G85X210.45Y-47.25
G05
X211.15Y-66.3G85X210.45Y-66.3
G05
X211.15Y-85.35G85X210.45Y-85.35
G05
X211.15Y-104.4G85X210.45Y-104.4
G05
X221.15Y-47.25G85X220.45Y-47.25
G05
X221.15Y-66.3G85X220.45Y-66.3
G05
X221.15Y-85.35G85X220.45Y-85.35
G05
X221.15Y-104.4G85X220.45Y-104.4
G05
T0
M30
