%TF.GenerationSoftware,KiCad,Pcbnew,(7.0.0-0)*%
%TF.CreationDate,2023-04-09T15:37:06-07:00*%
%TF.ProjectId,sofle_click_keyplate_C,736f666c-655f-4636-9c69-636b5f6b6579,rev?*%
%TF.SameCoordinates,Original*%
%TF.FileFunction,Profile,NP*%
%FSLAX46Y46*%
G04 Gerber Fmt 4.6, Leading zero omitted, Abs format (unit mm)*
G04 Created by KiCad (PCBNEW (7.0.0-0)) date 2023-04-09 15:37:06*
%MOMM*%
%LPD*%
G01*
G04 APERTURE LIST*
%TA.AperFunction,Profile*%
%ADD10C,0.100000*%
%TD*%
%TA.AperFunction,Profile*%
%ADD11C,0.120000*%
%TD*%
G04 APERTURE END LIST*
D10*
X158264214Y-72269214D02*
X139214214Y-72269214D01*
X158264214Y-72269214D02*
X158264214Y-33640000D01*
X120164214Y-74769214D02*
X120164214Y-77269214D01*
X99114214Y-34811314D02*
G75*
G03*
X98114214Y-35811321I-14J-999986D01*
G01*
X139214214Y-74769214D02*
X120164214Y-74769214D01*
X139214214Y-74769214D02*
X139214214Y-72269214D01*
X99114214Y-34811321D02*
X139189214Y-33644214D01*
X98119214Y-77269214D02*
X98114214Y-35811321D01*
X139189214Y-33644214D02*
X158264214Y-33640000D01*
X120164214Y-77269214D02*
X98119214Y-77269214D01*
D11*
%TO.C,SW1*%
X117639214Y-55694214D02*
X103639214Y-55694214D01*
X103639214Y-55694214D02*
X103639214Y-41694214D01*
X103639214Y-41694214D02*
X117639214Y-41694214D01*
X117639214Y-41694214D02*
X117639214Y-55694214D01*
%TO.C,SW8*%
X136689214Y-72244214D02*
X122689214Y-72244214D01*
X122689214Y-72244214D02*
X122689214Y-58244214D01*
X122689214Y-58244214D02*
X136689214Y-58244214D01*
X136689214Y-58244214D02*
X136689214Y-72244214D01*
%TO.C,SW7*%
X117639214Y-74744214D02*
X103639214Y-74744214D01*
X103639214Y-74744214D02*
X103639214Y-60744214D01*
X103639214Y-60744214D02*
X117639214Y-60744214D01*
X117639214Y-60744214D02*
X117639214Y-74744214D01*
%TO.C,SW2*%
X136689214Y-53194214D02*
X122689214Y-53194214D01*
X122689214Y-53194214D02*
X122689214Y-39194214D01*
X122689214Y-39194214D02*
X136689214Y-39194214D01*
X136689214Y-39194214D02*
X136689214Y-53194214D01*
%TO.C,SW9*%
X155739214Y-69744214D02*
X141739214Y-69744214D01*
X141739214Y-69744214D02*
X141739214Y-55744214D01*
X141739214Y-55744214D02*
X155739214Y-55744214D01*
X155739214Y-55744214D02*
X155739214Y-69744214D01*
%TO.C,SW3*%
X155739214Y-50694214D02*
X141739214Y-50694214D01*
X141739214Y-50694214D02*
X141739214Y-36694214D01*
X141739214Y-36694214D02*
X155739214Y-36694214D01*
X155739214Y-36694214D02*
X155739214Y-50694214D01*
%TD*%
M02*
