%TF.GenerationSoftware,KiCad,Pcbnew,(7.0.0-0)*%
%TF.CreationDate,2023-04-09T15:37:06-07:00*%
%TF.ProjectId,sofle_click_keyplate_C,736f666c-655f-4636-9c69-636b5f6b6579,rev?*%
%TF.SameCoordinates,Original*%
%TF.FileFunction,Legend,Bot*%
%TF.FilePolarity,Positive*%
%FSLAX46Y46*%
G04 Gerber Fmt 4.6, Leading zero omitted, Abs format (unit mm)*
G04 Created by KiCad (PCBNEW (7.0.0-0)) date 2023-04-09 15:37:06*
%MOMM*%
%LPD*%
G01*
G04 APERTURE LIST*
%ADD10C,0.200000*%
G04 APERTURE END LIST*
D10*
X153158262Y-34346594D02*
X153158262Y-35060880D01*
X153158262Y-35060880D02*
X153205881Y-35203737D01*
X153205881Y-35203737D02*
X153301119Y-35298975D01*
X153301119Y-35298975D02*
X153443976Y-35346594D01*
X153443976Y-35346594D02*
X153539214Y-35346594D01*
X152205881Y-35346594D02*
X152682071Y-35346594D01*
X152682071Y-35346594D02*
X152682071Y-34346594D01*
X151301119Y-35251356D02*
X151348738Y-35298975D01*
X151348738Y-35298975D02*
X151491595Y-35346594D01*
X151491595Y-35346594D02*
X151586833Y-35346594D01*
X151586833Y-35346594D02*
X151729690Y-35298975D01*
X151729690Y-35298975D02*
X151824928Y-35203737D01*
X151824928Y-35203737D02*
X151872547Y-35108499D01*
X151872547Y-35108499D02*
X151920166Y-34918023D01*
X151920166Y-34918023D02*
X151920166Y-34775166D01*
X151920166Y-34775166D02*
X151872547Y-34584690D01*
X151872547Y-34584690D02*
X151824928Y-34489452D01*
X151824928Y-34489452D02*
X151729690Y-34394214D01*
X151729690Y-34394214D02*
X151586833Y-34346594D01*
X151586833Y-34346594D02*
X151491595Y-34346594D01*
X151491595Y-34346594D02*
X151348738Y-34394214D01*
X151348738Y-34394214D02*
X151301119Y-34441833D01*
X150586833Y-34346594D02*
X150586833Y-35060880D01*
X150586833Y-35060880D02*
X150634452Y-35203737D01*
X150634452Y-35203737D02*
X150729690Y-35298975D01*
X150729690Y-35298975D02*
X150872547Y-35346594D01*
X150872547Y-35346594D02*
X150967785Y-35346594D01*
X149634452Y-35346594D02*
X150110642Y-35346594D01*
X150110642Y-35346594D02*
X150110642Y-34346594D01*
X148729690Y-35251356D02*
X148777309Y-35298975D01*
X148777309Y-35298975D02*
X148920166Y-35346594D01*
X148920166Y-35346594D02*
X149015404Y-35346594D01*
X149015404Y-35346594D02*
X149158261Y-35298975D01*
X149158261Y-35298975D02*
X149253499Y-35203737D01*
X149253499Y-35203737D02*
X149301118Y-35108499D01*
X149301118Y-35108499D02*
X149348737Y-34918023D01*
X149348737Y-34918023D02*
X149348737Y-34775166D01*
X149348737Y-34775166D02*
X149301118Y-34584690D01*
X149301118Y-34584690D02*
X149253499Y-34489452D01*
X149253499Y-34489452D02*
X149158261Y-34394214D01*
X149158261Y-34394214D02*
X149015404Y-34346594D01*
X149015404Y-34346594D02*
X148920166Y-34346594D01*
X148920166Y-34346594D02*
X148777309Y-34394214D01*
X148777309Y-34394214D02*
X148729690Y-34441833D01*
X148015404Y-34346594D02*
X148015404Y-35060880D01*
X148015404Y-35060880D02*
X148063023Y-35203737D01*
X148063023Y-35203737D02*
X148158261Y-35298975D01*
X148158261Y-35298975D02*
X148301118Y-35346594D01*
X148301118Y-35346594D02*
X148396356Y-35346594D01*
X147063023Y-35346594D02*
X147539213Y-35346594D01*
X147539213Y-35346594D02*
X147539213Y-34346594D01*
X146158261Y-35251356D02*
X146205880Y-35298975D01*
X146205880Y-35298975D02*
X146348737Y-35346594D01*
X146348737Y-35346594D02*
X146443975Y-35346594D01*
X146443975Y-35346594D02*
X146586832Y-35298975D01*
X146586832Y-35298975D02*
X146682070Y-35203737D01*
X146682070Y-35203737D02*
X146729689Y-35108499D01*
X146729689Y-35108499D02*
X146777308Y-34918023D01*
X146777308Y-34918023D02*
X146777308Y-34775166D01*
X146777308Y-34775166D02*
X146729689Y-34584690D01*
X146729689Y-34584690D02*
X146682070Y-34489452D01*
X146682070Y-34489452D02*
X146586832Y-34394214D01*
X146586832Y-34394214D02*
X146443975Y-34346594D01*
X146443975Y-34346594D02*
X146348737Y-34346594D01*
X146348737Y-34346594D02*
X146205880Y-34394214D01*
X146205880Y-34394214D02*
X146158261Y-34441833D01*
X145443975Y-34346594D02*
X145443975Y-35060880D01*
X145443975Y-35060880D02*
X145491594Y-35203737D01*
X145491594Y-35203737D02*
X145586832Y-35298975D01*
X145586832Y-35298975D02*
X145729689Y-35346594D01*
X145729689Y-35346594D02*
X145824927Y-35346594D01*
X144491594Y-35346594D02*
X144967784Y-35346594D01*
X144967784Y-35346594D02*
X144967784Y-34346594D01*
X143586832Y-35251356D02*
X143634451Y-35298975D01*
X143634451Y-35298975D02*
X143777308Y-35346594D01*
X143777308Y-35346594D02*
X143872546Y-35346594D01*
X143872546Y-35346594D02*
X144015403Y-35298975D01*
X144015403Y-35298975D02*
X144110641Y-35203737D01*
X144110641Y-35203737D02*
X144158260Y-35108499D01*
X144158260Y-35108499D02*
X144205879Y-34918023D01*
X144205879Y-34918023D02*
X144205879Y-34775166D01*
X144205879Y-34775166D02*
X144158260Y-34584690D01*
X144158260Y-34584690D02*
X144110641Y-34489452D01*
X144110641Y-34489452D02*
X144015403Y-34394214D01*
X144015403Y-34394214D02*
X143872546Y-34346594D01*
X143872546Y-34346594D02*
X143777308Y-34346594D01*
X143777308Y-34346594D02*
X143634451Y-34394214D01*
X143634451Y-34394214D02*
X143586832Y-34441833D01*
M02*
