%TF.GenerationSoftware,KiCad,Pcbnew,(7.0.0-0)*%
%TF.CreationDate,2023-04-09T16:08:54-07:00*%
%TF.ProjectId,Top,546f702e-6b69-4636-9164-5f7063625858,rev?*%
%TF.SameCoordinates,Original*%
%TF.FileFunction,Legend,Bot*%
%TF.FilePolarity,Positive*%
%FSLAX46Y46*%
G04 Gerber Fmt 4.6, Leading zero omitted, Abs format (unit mm)*
G04 Created by KiCad (PCBNEW (7.0.0-0)) date 2023-04-09 16:08:54*
%MOMM*%
%LPD*%
G01*
G04 APERTURE LIST*
%ADD10C,0.200000*%
G04 APERTURE END LIST*
D10*
X137471048Y-42042380D02*
X137471048Y-42756666D01*
X137471048Y-42756666D02*
X137518667Y-42899523D01*
X137518667Y-42899523D02*
X137613905Y-42994761D01*
X137613905Y-42994761D02*
X137756762Y-43042380D01*
X137756762Y-43042380D02*
X137852000Y-43042380D01*
X136518667Y-43042380D02*
X136994857Y-43042380D01*
X136994857Y-43042380D02*
X136994857Y-42042380D01*
X135613905Y-42947142D02*
X135661524Y-42994761D01*
X135661524Y-42994761D02*
X135804381Y-43042380D01*
X135804381Y-43042380D02*
X135899619Y-43042380D01*
X135899619Y-43042380D02*
X136042476Y-42994761D01*
X136042476Y-42994761D02*
X136137714Y-42899523D01*
X136137714Y-42899523D02*
X136185333Y-42804285D01*
X136185333Y-42804285D02*
X136232952Y-42613809D01*
X136232952Y-42613809D02*
X136232952Y-42470952D01*
X136232952Y-42470952D02*
X136185333Y-42280476D01*
X136185333Y-42280476D02*
X136137714Y-42185238D01*
X136137714Y-42185238D02*
X136042476Y-42090000D01*
X136042476Y-42090000D02*
X135899619Y-42042380D01*
X135899619Y-42042380D02*
X135804381Y-42042380D01*
X135804381Y-42042380D02*
X135661524Y-42090000D01*
X135661524Y-42090000D02*
X135613905Y-42137619D01*
X134899619Y-42042380D02*
X134899619Y-42756666D01*
X134899619Y-42756666D02*
X134947238Y-42899523D01*
X134947238Y-42899523D02*
X135042476Y-42994761D01*
X135042476Y-42994761D02*
X135185333Y-43042380D01*
X135185333Y-43042380D02*
X135280571Y-43042380D01*
X133947238Y-43042380D02*
X134423428Y-43042380D01*
X134423428Y-43042380D02*
X134423428Y-42042380D01*
X133042476Y-42947142D02*
X133090095Y-42994761D01*
X133090095Y-42994761D02*
X133232952Y-43042380D01*
X133232952Y-43042380D02*
X133328190Y-43042380D01*
X133328190Y-43042380D02*
X133471047Y-42994761D01*
X133471047Y-42994761D02*
X133566285Y-42899523D01*
X133566285Y-42899523D02*
X133613904Y-42804285D01*
X133613904Y-42804285D02*
X133661523Y-42613809D01*
X133661523Y-42613809D02*
X133661523Y-42470952D01*
X133661523Y-42470952D02*
X133613904Y-42280476D01*
X133613904Y-42280476D02*
X133566285Y-42185238D01*
X133566285Y-42185238D02*
X133471047Y-42090000D01*
X133471047Y-42090000D02*
X133328190Y-42042380D01*
X133328190Y-42042380D02*
X133232952Y-42042380D01*
X133232952Y-42042380D02*
X133090095Y-42090000D01*
X133090095Y-42090000D02*
X133042476Y-42137619D01*
X132328190Y-42042380D02*
X132328190Y-42756666D01*
X132328190Y-42756666D02*
X132375809Y-42899523D01*
X132375809Y-42899523D02*
X132471047Y-42994761D01*
X132471047Y-42994761D02*
X132613904Y-43042380D01*
X132613904Y-43042380D02*
X132709142Y-43042380D01*
X131375809Y-43042380D02*
X131851999Y-43042380D01*
X131851999Y-43042380D02*
X131851999Y-42042380D01*
X130471047Y-42947142D02*
X130518666Y-42994761D01*
X130518666Y-42994761D02*
X130661523Y-43042380D01*
X130661523Y-43042380D02*
X130756761Y-43042380D01*
X130756761Y-43042380D02*
X130899618Y-42994761D01*
X130899618Y-42994761D02*
X130994856Y-42899523D01*
X130994856Y-42899523D02*
X131042475Y-42804285D01*
X131042475Y-42804285D02*
X131090094Y-42613809D01*
X131090094Y-42613809D02*
X131090094Y-42470952D01*
X131090094Y-42470952D02*
X131042475Y-42280476D01*
X131042475Y-42280476D02*
X130994856Y-42185238D01*
X130994856Y-42185238D02*
X130899618Y-42090000D01*
X130899618Y-42090000D02*
X130756761Y-42042380D01*
X130756761Y-42042380D02*
X130661523Y-42042380D01*
X130661523Y-42042380D02*
X130518666Y-42090000D01*
X130518666Y-42090000D02*
X130471047Y-42137619D01*
X129756761Y-42042380D02*
X129756761Y-42756666D01*
X129756761Y-42756666D02*
X129804380Y-42899523D01*
X129804380Y-42899523D02*
X129899618Y-42994761D01*
X129899618Y-42994761D02*
X130042475Y-43042380D01*
X130042475Y-43042380D02*
X130137713Y-43042380D01*
X128804380Y-43042380D02*
X129280570Y-43042380D01*
X129280570Y-43042380D02*
X129280570Y-42042380D01*
X127899618Y-42947142D02*
X127947237Y-42994761D01*
X127947237Y-42994761D02*
X128090094Y-43042380D01*
X128090094Y-43042380D02*
X128185332Y-43042380D01*
X128185332Y-43042380D02*
X128328189Y-42994761D01*
X128328189Y-42994761D02*
X128423427Y-42899523D01*
X128423427Y-42899523D02*
X128471046Y-42804285D01*
X128471046Y-42804285D02*
X128518665Y-42613809D01*
X128518665Y-42613809D02*
X128518665Y-42470952D01*
X128518665Y-42470952D02*
X128471046Y-42280476D01*
X128471046Y-42280476D02*
X128423427Y-42185238D01*
X128423427Y-42185238D02*
X128328189Y-42090000D01*
X128328189Y-42090000D02*
X128185332Y-42042380D01*
X128185332Y-42042380D02*
X128090094Y-42042380D01*
X128090094Y-42042380D02*
X127947237Y-42090000D01*
X127947237Y-42090000D02*
X127899618Y-42137619D01*
M02*
