G04 #@! TF.GenerationSoftware,KiCad,Pcbnew,(7.0.0-0)*
G04 #@! TF.CreationDate,2023-04-09T16:09:40-07:00*
G04 #@! TF.ProjectId,Sofle_Loud,536f666c-655f-44c6-9f75-642e6b696361,rev?*
G04 #@! TF.SameCoordinates,Original*
G04 #@! TF.FileFunction,Profile,NP*
%FSLAX46Y46*%
G04 Gerber Fmt 4.6, Leading zero omitted, Abs format (unit mm)*
G04 Created by KiCad (PCBNEW (7.0.0-0)) date 2023-04-09 16:09:40*
%MOMM*%
%LPD*%
G01*
G04 APERTURE LIST*
G04 #@! TA.AperFunction,Profile*
%ADD10C,0.100000*%
G04 #@! TD*
G04 #@! TA.AperFunction,Profile*
%ADD11C,0.120000*%
G04 #@! TD*
G04 APERTURE END LIST*
D10*
X171050000Y-34950000D02*
X224881310Y-42350671D01*
X82412647Y-127061224D02*
X85375000Y-121000000D01*
X149100000Y-34950000D02*
X87375000Y-36740000D01*
X149100000Y-34950000D02*
X171050000Y-34950000D01*
X225849999Y-43500000D02*
X225849999Y-133000000D01*
X225849965Y-43500002D02*
G75*
G03*
X224881310Y-42350671I-1213165J-39598D01*
G01*
X87375000Y-36740000D02*
G75*
G03*
X85375000Y-38740000I0J-2000000D01*
G01*
X82412647Y-127061224D02*
G75*
G03*
X82470032Y-128159982I1108653J-492976D01*
G01*
X93730000Y-149160000D02*
X148680000Y-149160000D01*
X224869811Y-134169027D02*
X148680000Y-149160000D01*
X224869846Y-134169208D02*
G75*
G03*
X225849999Y-133000000I-231146J1189208D01*
G01*
X85375000Y-38740000D02*
X85375000Y-121000000D01*
X92936529Y-148636975D02*
G75*
G03*
X93730000Y-149159998I963471J598275D01*
G01*
X82470032Y-128159982D02*
X92936528Y-148636976D01*
X122250000Y-46570000D02*
X122250000Y-43570000D01*
X122250000Y-46570000D02*
X118850000Y-46570000D01*
X122250000Y-43570000D02*
X118850000Y-43570000D01*
X118850000Y-43570000D02*
X118850000Y-46570000D01*
X160350000Y-41570000D02*
X160350000Y-38570000D01*
X160350000Y-41570000D02*
X156950000Y-41570000D01*
X160350000Y-38570000D02*
X156950000Y-38570000D01*
X156950000Y-38570000D02*
X156950000Y-41570000D01*
X122250000Y-84670000D02*
X122250000Y-81670000D01*
X122250000Y-84670000D02*
X118850000Y-84670000D01*
X122250000Y-81670000D02*
X118850000Y-81670000D01*
X118850000Y-81670000D02*
X118850000Y-84670000D01*
X141300000Y-82170000D02*
X141300000Y-79170000D01*
X141300000Y-82170000D02*
X137900000Y-82170000D01*
X141300000Y-79170000D02*
X137900000Y-79170000D01*
X137900000Y-79170000D02*
X137900000Y-82170000D01*
X160350000Y-98720000D02*
X160350000Y-95720000D01*
X160350000Y-98720000D02*
X156950000Y-98720000D01*
X160350000Y-95720000D02*
X156950000Y-95720000D01*
X156950000Y-95720000D02*
X156950000Y-98720000D01*
X198450000Y-106120000D02*
X198450000Y-103120000D01*
X198450000Y-106120000D02*
X195050000Y-106120000D01*
X198450000Y-103120000D02*
X195050000Y-103120000D01*
X195050000Y-103120000D02*
X195050000Y-106120000D01*
X100623682Y-133798333D02*
X103296702Y-132436361D01*
X100623682Y-133798333D02*
X99080115Y-130768910D01*
X103296702Y-132436361D02*
X101753134Y-129406939D01*
X101753134Y-129406939D02*
X99080115Y-130768910D01*
X118354325Y-124646882D02*
X117577867Y-121749105D01*
X118354325Y-124646882D02*
X115070177Y-125526867D01*
X117577867Y-121749105D02*
X114293720Y-122629089D01*
X114293720Y-122629089D02*
X115070177Y-125526867D01*
X217500000Y-68020000D02*
X217500000Y-65020000D01*
X217500000Y-68020000D02*
X214100000Y-68020000D01*
X217500000Y-65020000D02*
X214100000Y-65020000D01*
X214100000Y-65020000D02*
X214100000Y-68020000D01*
X217500000Y-87070000D02*
X217500000Y-84070000D01*
X217500000Y-87070000D02*
X214100000Y-87070000D01*
X217500000Y-84070000D02*
X214100000Y-84070000D01*
X214100000Y-84070000D02*
X214100000Y-87070000D01*
X217500000Y-106120000D02*
X217500000Y-103120000D01*
X217500000Y-106120000D02*
X214100000Y-106120000D01*
X217500000Y-103120000D02*
X214100000Y-103120000D01*
X214100000Y-103120000D02*
X214100000Y-106120000D01*
X179400000Y-44070000D02*
X179400000Y-41070000D01*
X179400000Y-44070000D02*
X176000000Y-44070000D01*
X179400000Y-41070000D02*
X176000000Y-41070000D01*
X176000000Y-41070000D02*
X176000000Y-44070000D01*
X198450000Y-48970000D02*
X198450000Y-45970000D01*
X198450000Y-48970000D02*
X195050000Y-48970000D01*
X198450000Y-45970000D02*
X195050000Y-45970000D01*
X195050000Y-45970000D02*
X195050000Y-48970000D01*
X141300000Y-63120000D02*
X141300000Y-60120000D01*
X141300000Y-63120000D02*
X137900000Y-63120000D01*
X141300000Y-60120000D02*
X137900000Y-60120000D01*
X137900000Y-60120000D02*
X137900000Y-63120000D01*
X179400000Y-63120000D02*
X179400000Y-60120000D01*
X179400000Y-63120000D02*
X176000000Y-63120000D01*
X179400000Y-60120000D02*
X176000000Y-60120000D01*
X176000000Y-60120000D02*
X176000000Y-63120000D01*
X160350000Y-60620000D02*
X160350000Y-57620000D01*
X160350000Y-60620000D02*
X156950000Y-60620000D01*
X160350000Y-57620000D02*
X156950000Y-57620000D01*
X156950000Y-57620000D02*
X156950000Y-60620000D01*
X179400000Y-82170000D02*
X179400000Y-79170000D01*
X179400000Y-82170000D02*
X176000000Y-82170000D01*
X179400000Y-79170000D02*
X176000000Y-79170000D01*
X176000000Y-79170000D02*
X176000000Y-82170000D01*
X217500000Y-48970000D02*
X217500000Y-45970000D01*
X217500000Y-48970000D02*
X214100000Y-48970000D01*
X217500000Y-45970000D02*
X214100000Y-45970000D01*
X214100000Y-45970000D02*
X214100000Y-48970000D01*
X122250000Y-65620000D02*
X122250000Y-62620000D01*
X122250000Y-65620000D02*
X118850000Y-65620000D01*
X122250000Y-62620000D02*
X118850000Y-62620000D01*
X118850000Y-62620000D02*
X118850000Y-65620000D01*
X179400000Y-120270000D02*
X179400000Y-117270000D01*
X179400000Y-120270000D02*
X176000000Y-120270000D01*
X179400000Y-117270000D02*
X176000000Y-117270000D01*
X176000000Y-117270000D02*
X176000000Y-120270000D01*
X198450000Y-68020000D02*
X198450000Y-65020000D01*
X198450000Y-68020000D02*
X195050000Y-68020000D01*
X198450000Y-65020000D02*
X195050000Y-65020000D01*
X195050000Y-65020000D02*
X195050000Y-68020000D01*
X179400000Y-101220000D02*
X179400000Y-98220000D01*
X179400000Y-101220000D02*
X176000000Y-101220000D01*
X179400000Y-98220000D02*
X176000000Y-98220000D01*
X176000000Y-98220000D02*
X176000000Y-101220000D01*
X198450000Y-87070000D02*
X198450000Y-84070000D01*
X198450000Y-87070000D02*
X195050000Y-87070000D01*
X198450000Y-84070000D02*
X195050000Y-84070000D01*
X195050000Y-84070000D02*
X195050000Y-87070000D01*
X160350000Y-117770000D02*
X160350000Y-114770000D01*
X160350000Y-117770000D02*
X156950000Y-117770000D01*
X160350000Y-114770000D02*
X156950000Y-114770000D01*
X156950000Y-114770000D02*
X156950000Y-117770000D01*
X160350000Y-79670000D02*
X160350000Y-76670000D01*
X160350000Y-79670000D02*
X156950000Y-79670000D01*
X160350000Y-76670000D02*
X156950000Y-76670000D01*
X156950000Y-76670000D02*
X156950000Y-79670000D01*
X141300000Y-44070000D02*
X141300000Y-41070000D01*
X141300000Y-44070000D02*
X137900000Y-44070000D01*
X141300000Y-41070000D02*
X137900000Y-41070000D01*
X137900000Y-41070000D02*
X137900000Y-44070000D01*
X141300000Y-101220000D02*
X141300000Y-98220000D01*
X141300000Y-101220000D02*
X137900000Y-101220000D01*
X141300000Y-98220000D02*
X137900000Y-98220000D01*
X137900000Y-98220000D02*
X137900000Y-101220000D01*
X141300000Y-120270000D02*
X141300000Y-117270000D01*
X141300000Y-120270000D02*
X137900000Y-120270000D01*
X141300000Y-117270000D02*
X137900000Y-117270000D01*
X137900000Y-117270000D02*
X137900000Y-120270000D01*
D11*
X190360000Y-124060000D02*
X201660000Y-124060000D01*
X201660000Y-124060000D02*
X201660000Y-133360000D01*
X201660000Y-133360000D02*
X190360000Y-133360000D01*
X190360000Y-133360000D02*
X190360000Y-124060000D01*
D10*
X122250000Y-103720000D02*
X122250000Y-100720000D01*
X122250000Y-103720000D02*
X118850000Y-103720000D01*
X122250000Y-100720000D02*
X118850000Y-100720000D01*
X118850000Y-100720000D02*
X118850000Y-103720000D01*
M02*
